M48
; DRILL file {KiCad 5.1.9} date Thu Apr 22 00:58:03 2021
; FORMAT={-:-/ absolute / inch / decimal}
; #@! TF.CreationDate,2021-04-22T00:58:03+02:00
; #@! TF.GenerationSoftware,Kicad,Pcbnew,5.1.9
; #@! TF.FileFunction,Plated,1,2,PTH
FMAT,2
INCH
T1C0.0157
T2C0.0579
T3C0.0866
%
G90
G05
T1
X5.2657Y-3.5229
X5.3091Y-2.9087
X6.0394Y-3.2677
X6.2008Y-4.5701
X6.2198Y-4.5242
X6.2198Y-4.6161
X6.2657Y-4.5052
X6.2657Y-4.6351
X6.3117Y-4.5242
X6.3117Y-4.6161
X6.3307Y-4.5701
X7.4213Y-3.0701
X7.4403Y-3.0242
X7.4403Y-3.1161
X7.4862Y-3.0052
X7.4862Y-3.1351
X7.5322Y-3.0242
X7.5322Y-3.1161
X7.5512Y-3.0701
X9.2953Y-4.5701
X9.3143Y-4.5242
X9.3143Y-4.6161
X9.3602Y-4.5052
X9.3602Y-4.6351
X9.4062Y-4.5242
X9.4062Y-4.6161
X9.4252Y-4.5701
T2
X5.5093Y-3.2701
X5.553Y-3.7201
X5.6468Y-4.4701
X5.7593Y-3.1701
X5.803Y-3.6201
X5.8968Y-4.3701
X6.2093Y-2.9701
X6.3968Y-3.7201
X6.4593Y-2.8701
X6.5843Y-4.4701
X6.6468Y-3.6201
X6.8343Y-4.3701
X6.9593Y-2.9701
X7.1468Y-3.7201
X7.2093Y-2.8701
X7.3343Y-4.4701
X7.3968Y-3.6201
X7.5843Y-4.3701
X7.7093Y-2.9701
X7.7093Y-4.4701
X7.8968Y-3.7201
X7.9593Y-2.8701
X7.9593Y-4.3701
X8.0843Y-4.4701
X8.1468Y-3.6201
X8.3343Y-4.3701
X8.4593Y-2.9701
X8.6468Y-3.7201
X8.7093Y-2.8701
X8.8343Y-4.4701
X8.8968Y-3.6201
X9.0843Y-4.3701
X9.3968Y-2.9701
X9.4905Y-3.7201
X9.5843Y-4.4701
X9.6468Y-2.8701
X9.7405Y-3.2951
X9.7405Y-3.6201
X9.8343Y-4.3701
X9.8405Y-3.5451
T3
X6.2657Y-4.5701
X7.4862Y-3.0701
X9.3602Y-4.5701
T0
M30
