%TF.GenerationSoftware,KiCad,Pcbnew,5.1.9*%
%TF.CreationDate,2021-04-22T00:58:07+02:00*%
%TF.ProjectId,miniqaz,6d696e69-7161-47a2-9e6b-696361645f70,rev?*%
%TF.SameCoordinates,Original*%
%TF.FileFunction,Soldermask,Bot*%
%TF.FilePolarity,Negative*%
%FSLAX46Y46*%
G04 Gerber Fmt 4.6, Leading zero omitted, Abs format (unit mm)*
G04 Created by KiCad (PCBNEW 5.1.9) date 2021-04-22 00:58:07*
%MOMM*%
%LPD*%
G01*
G04 APERTURE LIST*
%ADD10C,0.010000*%
%ADD11C,0.700000*%
%ADD12C,4.400000*%
%ADD13C,2.250000*%
%ADD14C,3.987800*%
%ADD15C,1.750000*%
%ADD16C,3.048000*%
%ADD17R,1.200000X0.900000*%
%ADD18C,1.143000*%
%ADD19O,1.016000X2.032000*%
%ADD20O,2.748280X1.998980*%
G04 APERTURE END LIST*
D10*
%TO.C,G\u002A\u002A\u002A*%
G36*
X136988623Y-113370210D02*
G01*
X136977640Y-113387572D01*
X136959780Y-113409817D01*
X136929715Y-113431598D01*
X136883701Y-113455625D01*
X136883520Y-113455710D01*
X136807693Y-113493000D01*
X136735190Y-113531546D01*
X136669470Y-113569320D01*
X136613990Y-113604297D01*
X136572207Y-113634449D01*
X136558400Y-113646270D01*
X136529664Y-113669817D01*
X136489408Y-113698682D01*
X136443955Y-113728463D01*
X136416160Y-113745325D01*
X136372559Y-113770884D01*
X136331671Y-113794907D01*
X136299002Y-113814157D01*
X136284080Y-113822994D01*
X136272134Y-113830074D01*
X136259373Y-113837542D01*
X136243579Y-113846660D01*
X136222533Y-113858691D01*
X136194017Y-113874896D01*
X136155812Y-113896537D01*
X136105700Y-113924875D01*
X136041460Y-113961174D01*
X135994520Y-113987691D01*
X135944563Y-114015343D01*
X135882175Y-114049012D01*
X135813110Y-114085640D01*
X135743121Y-114122174D01*
X135689720Y-114149588D01*
X135630979Y-114179675D01*
X135575806Y-114208314D01*
X135527771Y-114233622D01*
X135490444Y-114253719D01*
X135467393Y-114266721D01*
X135466200Y-114267443D01*
X135431757Y-114286822D01*
X135383128Y-114311959D01*
X135324847Y-114340701D01*
X135261447Y-114370898D01*
X135197461Y-114400399D01*
X135137422Y-114427054D01*
X135085864Y-114448713D01*
X135075040Y-114453013D01*
X135043235Y-114463756D01*
X134997559Y-114476984D01*
X134944036Y-114491044D01*
X134888689Y-114504280D01*
X134886907Y-114504683D01*
X134831657Y-114517858D01*
X134778085Y-114531908D01*
X134732196Y-114545182D01*
X134699992Y-114556028D01*
X134699200Y-114556338D01*
X134664982Y-114568172D01*
X134618293Y-114582130D01*
X134566530Y-114596069D01*
X134536813Y-114603369D01*
X134475169Y-114619571D01*
X134418322Y-114637655D01*
X134369892Y-114656208D01*
X134333496Y-114673818D01*
X134312755Y-114689075D01*
X134310974Y-114691444D01*
X134303495Y-114719430D01*
X134311702Y-114747733D01*
X134331661Y-114771386D01*
X134359438Y-114785419D01*
X134385953Y-114786135D01*
X134412615Y-114785271D01*
X134454358Y-114789244D01*
X134506720Y-114797322D01*
X134565239Y-114808772D01*
X134625454Y-114822862D01*
X134651396Y-114829725D01*
X134697004Y-114840956D01*
X134756371Y-114853717D01*
X134823119Y-114866818D01*
X134890871Y-114879070D01*
X134953249Y-114889282D01*
X135003874Y-114896265D01*
X135014080Y-114897380D01*
X135050239Y-114902478D01*
X135083426Y-114909433D01*
X135090280Y-114911357D01*
X135118239Y-114918012D01*
X135155619Y-114924560D01*
X135176640Y-114927432D01*
X135226770Y-114934152D01*
X135285740Y-114943162D01*
X135349167Y-114953673D01*
X135412667Y-114964896D01*
X135471857Y-114976040D01*
X135522354Y-114986318D01*
X135559772Y-114994939D01*
X135574194Y-114999011D01*
X135603429Y-115007587D01*
X135624646Y-115012027D01*
X135630074Y-115012131D01*
X135644713Y-115013196D01*
X135670451Y-115018609D01*
X135679560Y-115020986D01*
X135773543Y-115046109D01*
X135851949Y-115065751D01*
X135918496Y-115080810D01*
X135962626Y-115089597D01*
X135995146Y-115097038D01*
X136042959Y-115109779D01*
X136102110Y-115126603D01*
X136168647Y-115146289D01*
X136238616Y-115167621D01*
X136308062Y-115189380D01*
X136373034Y-115210346D01*
X136429577Y-115229301D01*
X136473737Y-115245027D01*
X136497440Y-115254440D01*
X136521254Y-115263769D01*
X136559040Y-115277359D01*
X136605405Y-115293313D01*
X136650198Y-115308185D01*
X136704796Y-115327109D01*
X136760499Y-115348304D01*
X136809828Y-115368832D01*
X136838175Y-115382040D01*
X136881678Y-115402372D01*
X136927110Y-115421126D01*
X136963833Y-115433981D01*
X137002224Y-115447283D01*
X137038533Y-115462906D01*
X137053297Y-115470684D01*
X137084569Y-115486569D01*
X137106212Y-115489432D01*
X137124080Y-115479411D01*
X137130866Y-115472509D01*
X137143139Y-115448930D01*
X137147680Y-115422447D01*
X137142314Y-115396320D01*
X137124674Y-115373981D01*
X137092450Y-115353714D01*
X137043328Y-115333805D01*
X137016184Y-115324847D01*
X136976510Y-115311828D01*
X136942588Y-115299742D01*
X136920583Y-115290808D01*
X136917927Y-115289472D01*
X136861910Y-115262241D01*
X136792097Y-115234543D01*
X136706202Y-115205530D01*
X136627869Y-115181820D01*
X136567211Y-115163885D01*
X136506501Y-115145443D01*
X136451537Y-115128290D01*
X136408116Y-115114217D01*
X136395840Y-115110048D01*
X136353071Y-115095900D01*
X136311945Y-115083433D01*
X136280845Y-115075178D01*
X136279000Y-115074766D01*
X136242641Y-115065517D01*
X136202522Y-115053484D01*
X136192640Y-115050189D01*
X136148372Y-115036264D01*
X136087748Y-115019057D01*
X136014307Y-114999424D01*
X135931588Y-114978220D01*
X135843130Y-114956303D01*
X135752470Y-114934527D01*
X135663149Y-114913750D01*
X135578704Y-114894826D01*
X135502675Y-114878613D01*
X135438599Y-114865966D01*
X135410320Y-114860938D01*
X135352723Y-114850717D01*
X135293867Y-114839352D01*
X135241248Y-114828339D01*
X135207120Y-114820396D01*
X135174312Y-114812780D01*
X135125702Y-114802356D01*
X135065479Y-114789980D01*
X134997827Y-114776506D01*
X134926933Y-114762789D01*
X134902320Y-114758126D01*
X134816725Y-114741531D01*
X134750223Y-114727494D01*
X134701794Y-114715679D01*
X134670419Y-114705749D01*
X134655078Y-114697365D01*
X134654752Y-114690193D01*
X134668421Y-114683893D01*
X134673543Y-114682506D01*
X134700409Y-114676605D01*
X134718308Y-114673745D01*
X134735766Y-114670137D01*
X134766245Y-114662190D01*
X134803358Y-114651576D01*
X134805800Y-114650848D01*
X134851752Y-114637840D01*
X134906430Y-114623414D01*
X134958711Y-114610497D01*
X134963280Y-114609424D01*
X135021808Y-114593022D01*
X135091418Y-114569233D01*
X135165479Y-114540619D01*
X135237355Y-114509743D01*
X135300142Y-114479308D01*
X135336753Y-114461456D01*
X135373756Y-114445399D01*
X135386502Y-114440511D01*
X135415919Y-114427669D01*
X135453561Y-114408225D01*
X135486520Y-114389224D01*
X135516354Y-114372092D01*
X135559929Y-114348503D01*
X135612695Y-114320853D01*
X135670101Y-114291536D01*
X135710040Y-114271586D01*
X135805806Y-114223347D01*
X135886923Y-114180628D01*
X135952405Y-114143985D01*
X136001266Y-114113972D01*
X136032520Y-114091146D01*
X136035815Y-114088202D01*
X136056739Y-114073674D01*
X136072671Y-114068690D01*
X136092156Y-114061442D01*
X136101299Y-114053331D01*
X136118043Y-114039554D01*
X136144892Y-114023266D01*
X136155883Y-114017621D01*
X136188077Y-114000678D01*
X136227076Y-113978402D01*
X136253600Y-113962326D01*
X136290826Y-113939865D01*
X136336676Y-113913346D01*
X136381789Y-113888174D01*
X136385680Y-113886058D01*
X136451939Y-113848580D01*
X136513826Y-113810677D01*
X136567399Y-113774925D01*
X136608716Y-113743900D01*
X136624723Y-113729846D01*
X136641344Y-113715418D01*
X136663721Y-113699009D01*
X136694089Y-113679249D01*
X136734685Y-113654768D01*
X136787745Y-113624193D01*
X136855502Y-113586154D01*
X136892735Y-113565489D01*
X136958143Y-113527102D01*
X137010720Y-113491715D01*
X137048886Y-113460585D01*
X137071058Y-113434965D01*
X137076237Y-113419807D01*
X137066397Y-113391470D01*
X137041595Y-113369581D01*
X137022732Y-113362177D01*
X137002724Y-113360295D01*
X136988623Y-113370210D01*
G37*
X136988623Y-113370210D02*
X136977640Y-113387572D01*
X136959780Y-113409817D01*
X136929715Y-113431598D01*
X136883701Y-113455625D01*
X136883520Y-113455710D01*
X136807693Y-113493000D01*
X136735190Y-113531546D01*
X136669470Y-113569320D01*
X136613990Y-113604297D01*
X136572207Y-113634449D01*
X136558400Y-113646270D01*
X136529664Y-113669817D01*
X136489408Y-113698682D01*
X136443955Y-113728463D01*
X136416160Y-113745325D01*
X136372559Y-113770884D01*
X136331671Y-113794907D01*
X136299002Y-113814157D01*
X136284080Y-113822994D01*
X136272134Y-113830074D01*
X136259373Y-113837542D01*
X136243579Y-113846660D01*
X136222533Y-113858691D01*
X136194017Y-113874896D01*
X136155812Y-113896537D01*
X136105700Y-113924875D01*
X136041460Y-113961174D01*
X135994520Y-113987691D01*
X135944563Y-114015343D01*
X135882175Y-114049012D01*
X135813110Y-114085640D01*
X135743121Y-114122174D01*
X135689720Y-114149588D01*
X135630979Y-114179675D01*
X135575806Y-114208314D01*
X135527771Y-114233622D01*
X135490444Y-114253719D01*
X135467393Y-114266721D01*
X135466200Y-114267443D01*
X135431757Y-114286822D01*
X135383128Y-114311959D01*
X135324847Y-114340701D01*
X135261447Y-114370898D01*
X135197461Y-114400399D01*
X135137422Y-114427054D01*
X135085864Y-114448713D01*
X135075040Y-114453013D01*
X135043235Y-114463756D01*
X134997559Y-114476984D01*
X134944036Y-114491044D01*
X134888689Y-114504280D01*
X134886907Y-114504683D01*
X134831657Y-114517858D01*
X134778085Y-114531908D01*
X134732196Y-114545182D01*
X134699992Y-114556028D01*
X134699200Y-114556338D01*
X134664982Y-114568172D01*
X134618293Y-114582130D01*
X134566530Y-114596069D01*
X134536813Y-114603369D01*
X134475169Y-114619571D01*
X134418322Y-114637655D01*
X134369892Y-114656208D01*
X134333496Y-114673818D01*
X134312755Y-114689075D01*
X134310974Y-114691444D01*
X134303495Y-114719430D01*
X134311702Y-114747733D01*
X134331661Y-114771386D01*
X134359438Y-114785419D01*
X134385953Y-114786135D01*
X134412615Y-114785271D01*
X134454358Y-114789244D01*
X134506720Y-114797322D01*
X134565239Y-114808772D01*
X134625454Y-114822862D01*
X134651396Y-114829725D01*
X134697004Y-114840956D01*
X134756371Y-114853717D01*
X134823119Y-114866818D01*
X134890871Y-114879070D01*
X134953249Y-114889282D01*
X135003874Y-114896265D01*
X135014080Y-114897380D01*
X135050239Y-114902478D01*
X135083426Y-114909433D01*
X135090280Y-114911357D01*
X135118239Y-114918012D01*
X135155619Y-114924560D01*
X135176640Y-114927432D01*
X135226770Y-114934152D01*
X135285740Y-114943162D01*
X135349167Y-114953673D01*
X135412667Y-114964896D01*
X135471857Y-114976040D01*
X135522354Y-114986318D01*
X135559772Y-114994939D01*
X135574194Y-114999011D01*
X135603429Y-115007587D01*
X135624646Y-115012027D01*
X135630074Y-115012131D01*
X135644713Y-115013196D01*
X135670451Y-115018609D01*
X135679560Y-115020986D01*
X135773543Y-115046109D01*
X135851949Y-115065751D01*
X135918496Y-115080810D01*
X135962626Y-115089597D01*
X135995146Y-115097038D01*
X136042959Y-115109779D01*
X136102110Y-115126603D01*
X136168647Y-115146289D01*
X136238616Y-115167621D01*
X136308062Y-115189380D01*
X136373034Y-115210346D01*
X136429577Y-115229301D01*
X136473737Y-115245027D01*
X136497440Y-115254440D01*
X136521254Y-115263769D01*
X136559040Y-115277359D01*
X136605405Y-115293313D01*
X136650198Y-115308185D01*
X136704796Y-115327109D01*
X136760499Y-115348304D01*
X136809828Y-115368832D01*
X136838175Y-115382040D01*
X136881678Y-115402372D01*
X136927110Y-115421126D01*
X136963833Y-115433981D01*
X137002224Y-115447283D01*
X137038533Y-115462906D01*
X137053297Y-115470684D01*
X137084569Y-115486569D01*
X137106212Y-115489432D01*
X137124080Y-115479411D01*
X137130866Y-115472509D01*
X137143139Y-115448930D01*
X137147680Y-115422447D01*
X137142314Y-115396320D01*
X137124674Y-115373981D01*
X137092450Y-115353714D01*
X137043328Y-115333805D01*
X137016184Y-115324847D01*
X136976510Y-115311828D01*
X136942588Y-115299742D01*
X136920583Y-115290808D01*
X136917927Y-115289472D01*
X136861910Y-115262241D01*
X136792097Y-115234543D01*
X136706202Y-115205530D01*
X136627869Y-115181820D01*
X136567211Y-115163885D01*
X136506501Y-115145443D01*
X136451537Y-115128290D01*
X136408116Y-115114217D01*
X136395840Y-115110048D01*
X136353071Y-115095900D01*
X136311945Y-115083433D01*
X136280845Y-115075178D01*
X136279000Y-115074766D01*
X136242641Y-115065517D01*
X136202522Y-115053484D01*
X136192640Y-115050189D01*
X136148372Y-115036264D01*
X136087748Y-115019057D01*
X136014307Y-114999424D01*
X135931588Y-114978220D01*
X135843130Y-114956303D01*
X135752470Y-114934527D01*
X135663149Y-114913750D01*
X135578704Y-114894826D01*
X135502675Y-114878613D01*
X135438599Y-114865966D01*
X135410320Y-114860938D01*
X135352723Y-114850717D01*
X135293867Y-114839352D01*
X135241248Y-114828339D01*
X135207120Y-114820396D01*
X135174312Y-114812780D01*
X135125702Y-114802356D01*
X135065479Y-114789980D01*
X134997827Y-114776506D01*
X134926933Y-114762789D01*
X134902320Y-114758126D01*
X134816725Y-114741531D01*
X134750223Y-114727494D01*
X134701794Y-114715679D01*
X134670419Y-114705749D01*
X134655078Y-114697365D01*
X134654752Y-114690193D01*
X134668421Y-114683893D01*
X134673543Y-114682506D01*
X134700409Y-114676605D01*
X134718308Y-114673745D01*
X134735766Y-114670137D01*
X134766245Y-114662190D01*
X134803358Y-114651576D01*
X134805800Y-114650848D01*
X134851752Y-114637840D01*
X134906430Y-114623414D01*
X134958711Y-114610497D01*
X134963280Y-114609424D01*
X135021808Y-114593022D01*
X135091418Y-114569233D01*
X135165479Y-114540619D01*
X135237355Y-114509743D01*
X135300142Y-114479308D01*
X135336753Y-114461456D01*
X135373756Y-114445399D01*
X135386502Y-114440511D01*
X135415919Y-114427669D01*
X135453561Y-114408225D01*
X135486520Y-114389224D01*
X135516354Y-114372092D01*
X135559929Y-114348503D01*
X135612695Y-114320853D01*
X135670101Y-114291536D01*
X135710040Y-114271586D01*
X135805806Y-114223347D01*
X135886923Y-114180628D01*
X135952405Y-114143985D01*
X136001266Y-114113972D01*
X136032520Y-114091146D01*
X136035815Y-114088202D01*
X136056739Y-114073674D01*
X136072671Y-114068690D01*
X136092156Y-114061442D01*
X136101299Y-114053331D01*
X136118043Y-114039554D01*
X136144892Y-114023266D01*
X136155883Y-114017621D01*
X136188077Y-114000678D01*
X136227076Y-113978402D01*
X136253600Y-113962326D01*
X136290826Y-113939865D01*
X136336676Y-113913346D01*
X136381789Y-113888174D01*
X136385680Y-113886058D01*
X136451939Y-113848580D01*
X136513826Y-113810677D01*
X136567399Y-113774925D01*
X136608716Y-113743900D01*
X136624723Y-113729846D01*
X136641344Y-113715418D01*
X136663721Y-113699009D01*
X136694089Y-113679249D01*
X136734685Y-113654768D01*
X136787745Y-113624193D01*
X136855502Y-113586154D01*
X136892735Y-113565489D01*
X136958143Y-113527102D01*
X137010720Y-113491715D01*
X137048886Y-113460585D01*
X137071058Y-113434965D01*
X137076237Y-113419807D01*
X137066397Y-113391470D01*
X137041595Y-113369581D01*
X137022732Y-113362177D01*
X137002724Y-113360295D01*
X136988623Y-113370210D01*
G36*
X134453620Y-115458281D02*
G01*
X134435698Y-115477220D01*
X134420480Y-115501089D01*
X134416107Y-115524315D01*
X134422801Y-115552757D01*
X134440040Y-115590790D01*
X134454301Y-115622542D01*
X134463516Y-115649512D01*
X134465440Y-115660713D01*
X134471289Y-115683261D01*
X134477226Y-115691851D01*
X134486675Y-115710301D01*
X134490837Y-115731983D01*
X134493182Y-115753820D01*
X134498041Y-115789967D01*
X134504616Y-115834688D01*
X134509531Y-115866259D01*
X134523912Y-115995086D01*
X134524765Y-116114294D01*
X134512118Y-116221478D01*
X134505013Y-116253695D01*
X134494326Y-116293615D01*
X134484274Y-116326106D01*
X134476518Y-116345964D01*
X134474533Y-116349102D01*
X134466692Y-116366833D01*
X134465440Y-116377751D01*
X134459907Y-116396683D01*
X134445773Y-116424098D01*
X134435001Y-116440990D01*
X134407309Y-116485035D01*
X134392820Y-116518843D01*
X134390211Y-116546384D01*
X134394320Y-116562970D01*
X134410461Y-116584082D01*
X134427713Y-116588370D01*
X134459470Y-116578397D01*
X134491760Y-116549170D01*
X134524004Y-116501722D01*
X134555624Y-116437088D01*
X134586040Y-116356302D01*
X134614673Y-116260399D01*
X134617633Y-116249188D01*
X134644440Y-116146410D01*
X134684480Y-116148603D01*
X134711155Y-116150231D01*
X134751976Y-116152918D01*
X134800824Y-116156254D01*
X134839656Y-116158981D01*
X134885827Y-116161570D01*
X134924082Y-116162410D01*
X134950172Y-116161494D01*
X134959738Y-116159162D01*
X134971097Y-116156290D01*
X134976683Y-116158762D01*
X134991851Y-116162465D01*
X135021769Y-116165689D01*
X135060868Y-116167893D01*
X135075040Y-116168309D01*
X135114437Y-116169577D01*
X135168674Y-116171851D01*
X135232307Y-116174877D01*
X135299897Y-116178399D01*
X135348222Y-116181115D01*
X135417223Y-116184294D01*
X135490408Y-116186216D01*
X135564734Y-116186946D01*
X135637155Y-116186551D01*
X135704630Y-116185098D01*
X135764112Y-116182654D01*
X135812557Y-116179285D01*
X135846923Y-116175059D01*
X135864165Y-116170041D01*
X135864493Y-116169795D01*
X135883888Y-116163942D01*
X135894973Y-116165251D01*
X135911040Y-116167431D01*
X135943490Y-116170008D01*
X135988399Y-116172733D01*
X136041839Y-116175355D01*
X136075800Y-116176753D01*
X136133655Y-116179267D01*
X136186473Y-116182112D01*
X136229952Y-116185018D01*
X136259792Y-116187711D01*
X136268840Y-116189004D01*
X136295385Y-116192714D01*
X136333075Y-116196175D01*
X136365360Y-116198192D01*
X136410073Y-116200776D01*
X136463343Y-116204493D01*
X136512680Y-116208456D01*
X136562428Y-116212667D01*
X136597416Y-116215008D01*
X136623117Y-116215502D01*
X136645002Y-116214170D01*
X136668544Y-116211035D01*
X136680543Y-116209137D01*
X136716842Y-116206410D01*
X136741250Y-116213011D01*
X136746583Y-116216440D01*
X136754749Y-116224071D01*
X136760359Y-116235281D01*
X136763884Y-116253620D01*
X136765796Y-116282637D01*
X136766567Y-116325881D01*
X136766680Y-116367552D01*
X136767564Y-116429386D01*
X136770108Y-116476702D01*
X136774155Y-116507401D01*
X136778056Y-116518227D01*
X136788246Y-116539720D01*
X136797090Y-116572620D01*
X136802677Y-116608020D01*
X136803249Y-116635659D01*
X136805881Y-116656033D01*
X136811801Y-116664199D01*
X136820138Y-116678520D01*
X136822560Y-116695649D01*
X136826115Y-116714454D01*
X136832720Y-116720450D01*
X136842153Y-116728477D01*
X136842880Y-116733203D01*
X136852035Y-116744230D01*
X136876273Y-116757062D01*
X136910755Y-116769504D01*
X136939400Y-116777029D01*
X136964514Y-116775774D01*
X136980040Y-116769826D01*
X136996998Y-116759845D01*
X137003079Y-116756026D01*
X137000633Y-116746386D01*
X136991926Y-116721815D01*
X136978383Y-116686194D01*
X136963907Y-116649549D01*
X136944451Y-116596809D01*
X136926626Y-116540978D01*
X136913021Y-116490510D01*
X136908203Y-116467693D01*
X136900529Y-116409833D01*
X136896036Y-116343251D01*
X136894521Y-116271493D01*
X136895784Y-116198109D01*
X136899621Y-116126644D01*
X136905832Y-116060647D01*
X136914215Y-116003665D01*
X136924567Y-115959245D01*
X136936686Y-115930935D01*
X136938916Y-115927970D01*
X136947980Y-115914740D01*
X136961765Y-115890490D01*
X136981272Y-115853319D01*
X137007502Y-115801323D01*
X137037041Y-115741589D01*
X137052134Y-115704878D01*
X137054437Y-115678085D01*
X137043857Y-115655263D01*
X137035525Y-115645405D01*
X137005023Y-115625503D01*
X136970139Y-115624226D01*
X136933860Y-115641260D01*
X136914709Y-115657999D01*
X136893658Y-115682735D01*
X136885969Y-115702225D01*
X136887728Y-115719831D01*
X136888635Y-115738958D01*
X136881624Y-115764148D01*
X136865264Y-115799585D01*
X136851904Y-115824701D01*
X136828151Y-115872844D01*
X136805508Y-115926675D01*
X136788574Y-115975190D01*
X136787530Y-115978770D01*
X136765756Y-116054970D01*
X136683234Y-116052923D01*
X136638034Y-116050833D01*
X136582441Y-116046799D01*
X136520969Y-116041308D01*
X136458132Y-116034847D01*
X136398446Y-116027905D01*
X136346423Y-116020969D01*
X136306578Y-116014526D01*
X136286620Y-116010088D01*
X136262810Y-116005645D01*
X136253612Y-116009662D01*
X136253600Y-116009959D01*
X136245349Y-116017121D01*
X136226901Y-116019163D01*
X136207718Y-116016111D01*
X136198064Y-116009805D01*
X136185720Y-116005341D01*
X136158587Y-116002396D01*
X136122176Y-116001523D01*
X136116447Y-116001601D01*
X136079278Y-116001635D01*
X136050733Y-116000438D01*
X136036251Y-115998259D01*
X136035633Y-115997869D01*
X136023196Y-115995838D01*
X135993130Y-115995188D01*
X135948077Y-115995851D01*
X135890675Y-115997759D01*
X135823564Y-116000844D01*
X135749386Y-116005041D01*
X135745600Y-116005275D01*
X135641475Y-116009647D01*
X135528452Y-116010232D01*
X135403748Y-116006958D01*
X135264578Y-115999755D01*
X135115680Y-115989149D01*
X135036045Y-115983865D01*
X134959709Y-115980684D01*
X134890056Y-115979606D01*
X134830467Y-115980634D01*
X134784323Y-115983767D01*
X134755007Y-115989008D01*
X134755000Y-115989010D01*
X134729310Y-115991780D01*
X134697874Y-115988250D01*
X134667951Y-115980140D01*
X134646801Y-115969173D01*
X134641377Y-115962056D01*
X134639060Y-115949318D01*
X134634483Y-115920380D01*
X134628245Y-115879159D01*
X134620948Y-115829573D01*
X134618628Y-115813555D01*
X134605632Y-115734687D01*
X134590880Y-115669258D01*
X134572680Y-115610386D01*
X134561212Y-115579875D01*
X134535652Y-115520019D01*
X134513361Y-115478952D01*
X134493092Y-115455655D01*
X134473594Y-115449105D01*
X134453620Y-115458281D01*
G37*
X134453620Y-115458281D02*
X134435698Y-115477220D01*
X134420480Y-115501089D01*
X134416107Y-115524315D01*
X134422801Y-115552757D01*
X134440040Y-115590790D01*
X134454301Y-115622542D01*
X134463516Y-115649512D01*
X134465440Y-115660713D01*
X134471289Y-115683261D01*
X134477226Y-115691851D01*
X134486675Y-115710301D01*
X134490837Y-115731983D01*
X134493182Y-115753820D01*
X134498041Y-115789967D01*
X134504616Y-115834688D01*
X134509531Y-115866259D01*
X134523912Y-115995086D01*
X134524765Y-116114294D01*
X134512118Y-116221478D01*
X134505013Y-116253695D01*
X134494326Y-116293615D01*
X134484274Y-116326106D01*
X134476518Y-116345964D01*
X134474533Y-116349102D01*
X134466692Y-116366833D01*
X134465440Y-116377751D01*
X134459907Y-116396683D01*
X134445773Y-116424098D01*
X134435001Y-116440990D01*
X134407309Y-116485035D01*
X134392820Y-116518843D01*
X134390211Y-116546384D01*
X134394320Y-116562970D01*
X134410461Y-116584082D01*
X134427713Y-116588370D01*
X134459470Y-116578397D01*
X134491760Y-116549170D01*
X134524004Y-116501722D01*
X134555624Y-116437088D01*
X134586040Y-116356302D01*
X134614673Y-116260399D01*
X134617633Y-116249188D01*
X134644440Y-116146410D01*
X134684480Y-116148603D01*
X134711155Y-116150231D01*
X134751976Y-116152918D01*
X134800824Y-116156254D01*
X134839656Y-116158981D01*
X134885827Y-116161570D01*
X134924082Y-116162410D01*
X134950172Y-116161494D01*
X134959738Y-116159162D01*
X134971097Y-116156290D01*
X134976683Y-116158762D01*
X134991851Y-116162465D01*
X135021769Y-116165689D01*
X135060868Y-116167893D01*
X135075040Y-116168309D01*
X135114437Y-116169577D01*
X135168674Y-116171851D01*
X135232307Y-116174877D01*
X135299897Y-116178399D01*
X135348222Y-116181115D01*
X135417223Y-116184294D01*
X135490408Y-116186216D01*
X135564734Y-116186946D01*
X135637155Y-116186551D01*
X135704630Y-116185098D01*
X135764112Y-116182654D01*
X135812557Y-116179285D01*
X135846923Y-116175059D01*
X135864165Y-116170041D01*
X135864493Y-116169795D01*
X135883888Y-116163942D01*
X135894973Y-116165251D01*
X135911040Y-116167431D01*
X135943490Y-116170008D01*
X135988399Y-116172733D01*
X136041839Y-116175355D01*
X136075800Y-116176753D01*
X136133655Y-116179267D01*
X136186473Y-116182112D01*
X136229952Y-116185018D01*
X136259792Y-116187711D01*
X136268840Y-116189004D01*
X136295385Y-116192714D01*
X136333075Y-116196175D01*
X136365360Y-116198192D01*
X136410073Y-116200776D01*
X136463343Y-116204493D01*
X136512680Y-116208456D01*
X136562428Y-116212667D01*
X136597416Y-116215008D01*
X136623117Y-116215502D01*
X136645002Y-116214170D01*
X136668544Y-116211035D01*
X136680543Y-116209137D01*
X136716842Y-116206410D01*
X136741250Y-116213011D01*
X136746583Y-116216440D01*
X136754749Y-116224071D01*
X136760359Y-116235281D01*
X136763884Y-116253620D01*
X136765796Y-116282637D01*
X136766567Y-116325881D01*
X136766680Y-116367552D01*
X136767564Y-116429386D01*
X136770108Y-116476702D01*
X136774155Y-116507401D01*
X136778056Y-116518227D01*
X136788246Y-116539720D01*
X136797090Y-116572620D01*
X136802677Y-116608020D01*
X136803249Y-116635659D01*
X136805881Y-116656033D01*
X136811801Y-116664199D01*
X136820138Y-116678520D01*
X136822560Y-116695649D01*
X136826115Y-116714454D01*
X136832720Y-116720450D01*
X136842153Y-116728477D01*
X136842880Y-116733203D01*
X136852035Y-116744230D01*
X136876273Y-116757062D01*
X136910755Y-116769504D01*
X136939400Y-116777029D01*
X136964514Y-116775774D01*
X136980040Y-116769826D01*
X136996998Y-116759845D01*
X137003079Y-116756026D01*
X137000633Y-116746386D01*
X136991926Y-116721815D01*
X136978383Y-116686194D01*
X136963907Y-116649549D01*
X136944451Y-116596809D01*
X136926626Y-116540978D01*
X136913021Y-116490510D01*
X136908203Y-116467693D01*
X136900529Y-116409833D01*
X136896036Y-116343251D01*
X136894521Y-116271493D01*
X136895784Y-116198109D01*
X136899621Y-116126644D01*
X136905832Y-116060647D01*
X136914215Y-116003665D01*
X136924567Y-115959245D01*
X136936686Y-115930935D01*
X136938916Y-115927970D01*
X136947980Y-115914740D01*
X136961765Y-115890490D01*
X136981272Y-115853319D01*
X137007502Y-115801323D01*
X137037041Y-115741589D01*
X137052134Y-115704878D01*
X137054437Y-115678085D01*
X137043857Y-115655263D01*
X137035525Y-115645405D01*
X137005023Y-115625503D01*
X136970139Y-115624226D01*
X136933860Y-115641260D01*
X136914709Y-115657999D01*
X136893658Y-115682735D01*
X136885969Y-115702225D01*
X136887728Y-115719831D01*
X136888635Y-115738958D01*
X136881624Y-115764148D01*
X136865264Y-115799585D01*
X136851904Y-115824701D01*
X136828151Y-115872844D01*
X136805508Y-115926675D01*
X136788574Y-115975190D01*
X136787530Y-115978770D01*
X136765756Y-116054970D01*
X136683234Y-116052923D01*
X136638034Y-116050833D01*
X136582441Y-116046799D01*
X136520969Y-116041308D01*
X136458132Y-116034847D01*
X136398446Y-116027905D01*
X136346423Y-116020969D01*
X136306578Y-116014526D01*
X136286620Y-116010088D01*
X136262810Y-116005645D01*
X136253612Y-116009662D01*
X136253600Y-116009959D01*
X136245349Y-116017121D01*
X136226901Y-116019163D01*
X136207718Y-116016111D01*
X136198064Y-116009805D01*
X136185720Y-116005341D01*
X136158587Y-116002396D01*
X136122176Y-116001523D01*
X136116447Y-116001601D01*
X136079278Y-116001635D01*
X136050733Y-116000438D01*
X136036251Y-115998259D01*
X136035633Y-115997869D01*
X136023196Y-115995838D01*
X135993130Y-115995188D01*
X135948077Y-115995851D01*
X135890675Y-115997759D01*
X135823564Y-116000844D01*
X135749386Y-116005041D01*
X135745600Y-116005275D01*
X135641475Y-116009647D01*
X135528452Y-116010232D01*
X135403748Y-116006958D01*
X135264578Y-115999755D01*
X135115680Y-115989149D01*
X135036045Y-115983865D01*
X134959709Y-115980684D01*
X134890056Y-115979606D01*
X134830467Y-115980634D01*
X134784323Y-115983767D01*
X134755007Y-115989008D01*
X134755000Y-115989010D01*
X134729310Y-115991780D01*
X134697874Y-115988250D01*
X134667951Y-115980140D01*
X134646801Y-115969173D01*
X134641377Y-115962056D01*
X134639060Y-115949318D01*
X134634483Y-115920380D01*
X134628245Y-115879159D01*
X134620948Y-115829573D01*
X134618628Y-115813555D01*
X134605632Y-115734687D01*
X134590880Y-115669258D01*
X134572680Y-115610386D01*
X134561212Y-115579875D01*
X134535652Y-115520019D01*
X134513361Y-115478952D01*
X134493092Y-115455655D01*
X134473594Y-115449105D01*
X134453620Y-115458281D01*
G36*
X135103456Y-116987828D02*
G01*
X135086714Y-116999478D01*
X135076333Y-117022552D01*
X135070914Y-117060041D01*
X135069102Y-117110539D01*
X135071056Y-117177555D01*
X135079178Y-117232416D01*
X135087843Y-117264010D01*
X135098041Y-117302472D01*
X135104002Y-117344639D01*
X135106411Y-117396843D01*
X135106437Y-117435654D01*
X135107235Y-117500047D01*
X135111727Y-117552195D01*
X135120771Y-117599974D01*
X135126823Y-117623110D01*
X135140399Y-117683088D01*
X135143480Y-117730511D01*
X135142144Y-117745263D01*
X135142823Y-117787365D01*
X135156559Y-117815021D01*
X135180809Y-117826808D01*
X135213034Y-117821303D01*
X135244234Y-117802412D01*
X135269567Y-117777430D01*
X135294580Y-117745154D01*
X135301684Y-117733945D01*
X135326299Y-117700639D01*
X135356834Y-117670070D01*
X135366170Y-117662757D01*
X135391851Y-117644283D01*
X135427945Y-117618208D01*
X135468435Y-117588882D01*
X135488086Y-117574622D01*
X135527521Y-117546712D01*
X135564766Y-117521616D01*
X135594265Y-117503025D01*
X135604926Y-117497037D01*
X135628896Y-117483111D01*
X135644083Y-117471288D01*
X135645286Y-117469761D01*
X135656120Y-117459507D01*
X135679123Y-117441175D01*
X135709798Y-117418311D01*
X135717502Y-117412759D01*
X135789014Y-117361034D01*
X135845289Y-117318917D01*
X135888031Y-117284800D01*
X135899003Y-117274960D01*
X135745197Y-117274960D01*
X135741619Y-117288530D01*
X135725280Y-117296626D01*
X135708812Y-117304557D01*
X135704960Y-117310654D01*
X135696808Y-117320568D01*
X135676717Y-117333818D01*
X135671940Y-117336368D01*
X135643974Y-117353268D01*
X135611218Y-117376462D01*
X135597234Y-117387429D01*
X135572318Y-117406608D01*
X135553496Y-117418961D01*
X135547286Y-117421490D01*
X135534045Y-117427783D01*
X135522933Y-117436866D01*
X135506177Y-117450390D01*
X135478671Y-117470201D01*
X135450960Y-117488957D01*
X135415789Y-117513480D01*
X135382690Y-117538886D01*
X135364117Y-117554861D01*
X135342643Y-117573173D01*
X135326505Y-117583559D01*
X135323477Y-117584415D01*
X135309967Y-117590601D01*
X135288711Y-117605459D01*
X135283320Y-117609764D01*
X135263380Y-117625695D01*
X135251615Y-117634306D01*
X135250584Y-117634799D01*
X135246759Y-117625955D01*
X135239099Y-117602923D01*
X135230984Y-117576430D01*
X135219936Y-117523091D01*
X135215668Y-117458023D01*
X135215871Y-117421490D01*
X135215992Y-117368921D01*
X135212737Y-117327997D01*
X135204925Y-117290162D01*
X135192038Y-117248786D01*
X135175847Y-117190856D01*
X135172222Y-117147691D01*
X135181146Y-117118102D01*
X135189994Y-117108282D01*
X135206557Y-117106408D01*
X135241046Y-117113285D01*
X135293635Y-117128952D01*
X135303640Y-117132244D01*
X135387889Y-117156007D01*
X135465647Y-117169716D01*
X135486025Y-117171586D01*
X135533060Y-117176263D01*
X135567721Y-117184058D01*
X135597934Y-117197167D01*
X135615645Y-117207512D01*
X135651642Y-117227208D01*
X135688623Y-117243372D01*
X135705040Y-117248791D01*
X135732510Y-117260545D01*
X135745197Y-117274960D01*
X135899003Y-117274960D01*
X135918948Y-117257075D01*
X135939744Y-117234132D01*
X135952124Y-117214363D01*
X135957795Y-117196159D01*
X135958687Y-117185270D01*
X135955501Y-117164622D01*
X135941973Y-117157647D01*
X135934805Y-117157330D01*
X135910176Y-117163755D01*
X135897322Y-117173386D01*
X135876799Y-117184697D01*
X135863058Y-117184540D01*
X135798153Y-117167485D01*
X135737977Y-117148231D01*
X135687480Y-117128537D01*
X135651611Y-117110161D01*
X135649080Y-117108505D01*
X135623135Y-117092089D01*
X135603543Y-117081585D01*
X135598280Y-117079761D01*
X135581287Y-117076195D01*
X135580500Y-117075951D01*
X135557213Y-117071343D01*
X135518717Y-117066859D01*
X135470118Y-117063071D01*
X135459992Y-117062467D01*
X135415543Y-117056512D01*
X135367978Y-117045109D01*
X135348232Y-117038550D01*
X135299661Y-117021996D01*
X135246702Y-117006827D01*
X135195537Y-116994558D01*
X135152346Y-116986701D01*
X135127957Y-116984610D01*
X135103456Y-116987828D01*
G37*
X135103456Y-116987828D02*
X135086714Y-116999478D01*
X135076333Y-117022552D01*
X135070914Y-117060041D01*
X135069102Y-117110539D01*
X135071056Y-117177555D01*
X135079178Y-117232416D01*
X135087843Y-117264010D01*
X135098041Y-117302472D01*
X135104002Y-117344639D01*
X135106411Y-117396843D01*
X135106437Y-117435654D01*
X135107235Y-117500047D01*
X135111727Y-117552195D01*
X135120771Y-117599974D01*
X135126823Y-117623110D01*
X135140399Y-117683088D01*
X135143480Y-117730511D01*
X135142144Y-117745263D01*
X135142823Y-117787365D01*
X135156559Y-117815021D01*
X135180809Y-117826808D01*
X135213034Y-117821303D01*
X135244234Y-117802412D01*
X135269567Y-117777430D01*
X135294580Y-117745154D01*
X135301684Y-117733945D01*
X135326299Y-117700639D01*
X135356834Y-117670070D01*
X135366170Y-117662757D01*
X135391851Y-117644283D01*
X135427945Y-117618208D01*
X135468435Y-117588882D01*
X135488086Y-117574622D01*
X135527521Y-117546712D01*
X135564766Y-117521616D01*
X135594265Y-117503025D01*
X135604926Y-117497037D01*
X135628896Y-117483111D01*
X135644083Y-117471288D01*
X135645286Y-117469761D01*
X135656120Y-117459507D01*
X135679123Y-117441175D01*
X135709798Y-117418311D01*
X135717502Y-117412759D01*
X135789014Y-117361034D01*
X135845289Y-117318917D01*
X135888031Y-117284800D01*
X135899003Y-117274960D01*
X135745197Y-117274960D01*
X135741619Y-117288530D01*
X135725280Y-117296626D01*
X135708812Y-117304557D01*
X135704960Y-117310654D01*
X135696808Y-117320568D01*
X135676717Y-117333818D01*
X135671940Y-117336368D01*
X135643974Y-117353268D01*
X135611218Y-117376462D01*
X135597234Y-117387429D01*
X135572318Y-117406608D01*
X135553496Y-117418961D01*
X135547286Y-117421490D01*
X135534045Y-117427783D01*
X135522933Y-117436866D01*
X135506177Y-117450390D01*
X135478671Y-117470201D01*
X135450960Y-117488957D01*
X135415789Y-117513480D01*
X135382690Y-117538886D01*
X135364117Y-117554861D01*
X135342643Y-117573173D01*
X135326505Y-117583559D01*
X135323477Y-117584415D01*
X135309967Y-117590601D01*
X135288711Y-117605459D01*
X135283320Y-117609764D01*
X135263380Y-117625695D01*
X135251615Y-117634306D01*
X135250584Y-117634799D01*
X135246759Y-117625955D01*
X135239099Y-117602923D01*
X135230984Y-117576430D01*
X135219936Y-117523091D01*
X135215668Y-117458023D01*
X135215871Y-117421490D01*
X135215992Y-117368921D01*
X135212737Y-117327997D01*
X135204925Y-117290162D01*
X135192038Y-117248786D01*
X135175847Y-117190856D01*
X135172222Y-117147691D01*
X135181146Y-117118102D01*
X135189994Y-117108282D01*
X135206557Y-117106408D01*
X135241046Y-117113285D01*
X135293635Y-117128952D01*
X135303640Y-117132244D01*
X135387889Y-117156007D01*
X135465647Y-117169716D01*
X135486025Y-117171586D01*
X135533060Y-117176263D01*
X135567721Y-117184058D01*
X135597934Y-117197167D01*
X135615645Y-117207512D01*
X135651642Y-117227208D01*
X135688623Y-117243372D01*
X135705040Y-117248791D01*
X135732510Y-117260545D01*
X135745197Y-117274960D01*
X135899003Y-117274960D01*
X135918948Y-117257075D01*
X135939744Y-117234132D01*
X135952124Y-117214363D01*
X135957795Y-117196159D01*
X135958687Y-117185270D01*
X135955501Y-117164622D01*
X135941973Y-117157647D01*
X135934805Y-117157330D01*
X135910176Y-117163755D01*
X135897322Y-117173386D01*
X135876799Y-117184697D01*
X135863058Y-117184540D01*
X135798153Y-117167485D01*
X135737977Y-117148231D01*
X135687480Y-117128537D01*
X135651611Y-117110161D01*
X135649080Y-117108505D01*
X135623135Y-117092089D01*
X135603543Y-117081585D01*
X135598280Y-117079761D01*
X135581287Y-117076195D01*
X135580500Y-117075951D01*
X135557213Y-117071343D01*
X135518717Y-117066859D01*
X135470118Y-117063071D01*
X135459992Y-117062467D01*
X135415543Y-117056512D01*
X135367978Y-117045109D01*
X135348232Y-117038550D01*
X135299661Y-117021996D01*
X135246702Y-117006827D01*
X135195537Y-116994558D01*
X135152346Y-116986701D01*
X135127957Y-116984610D01*
X135103456Y-116987828D01*
G36*
X135872957Y-117795493D02*
G01*
X135842878Y-117819078D01*
X135818829Y-117842803D01*
X135788482Y-117872615D01*
X135758845Y-117898089D01*
X135736170Y-117913867D01*
X135735567Y-117914184D01*
X135714866Y-117927147D01*
X135705079Y-117937718D01*
X135704960Y-117938529D01*
X135697311Y-117948875D01*
X135677926Y-117965363D01*
X135665864Y-117974140D01*
X135654226Y-117981799D01*
X135642112Y-117988149D01*
X135627349Y-117993457D01*
X135607765Y-117997987D01*
X135581186Y-118002008D01*
X135545440Y-118005784D01*
X135498354Y-118009583D01*
X135437755Y-118013669D01*
X135361470Y-118018310D01*
X135267327Y-118023771D01*
X135254872Y-118024486D01*
X135185784Y-118028449D01*
X135144062Y-117978969D01*
X135113971Y-117947834D01*
X135089298Y-117931466D01*
X135080301Y-117929490D01*
X135056632Y-117936407D01*
X135035556Y-117953639D01*
X135020502Y-117975902D01*
X135014900Y-117997914D01*
X135022178Y-118014394D01*
X135024240Y-118015850D01*
X135034181Y-118027344D01*
X135024499Y-118037691D01*
X134994897Y-118047125D01*
X134981060Y-118050010D01*
X134918546Y-118060824D01*
X134840522Y-118072516D01*
X134751749Y-118084515D01*
X134656986Y-118096254D01*
X134560992Y-118107163D01*
X134468527Y-118116674D01*
X134384351Y-118124217D01*
X134323200Y-118128637D01*
X134283612Y-118131883D01*
X134230567Y-118137373D01*
X134170707Y-118144369D01*
X134110674Y-118152131D01*
X134104760Y-118152943D01*
X133964693Y-118170842D01*
X133838707Y-118183974D01*
X133728554Y-118192186D01*
X133635984Y-118195324D01*
X133622248Y-118195342D01*
X133572666Y-118196012D01*
X133539356Y-118198880D01*
X133518339Y-118204496D01*
X133507948Y-118211109D01*
X133492514Y-118234675D01*
X133494448Y-118263038D01*
X133514102Y-118297852D01*
X133530720Y-118318238D01*
X133552450Y-118345207D01*
X133567196Y-118367878D01*
X133571360Y-118379043D01*
X133578385Y-118394138D01*
X133596640Y-118417954D01*
X133621903Y-118446020D01*
X133649949Y-118473867D01*
X133676552Y-118497023D01*
X133694759Y-118509616D01*
X133762483Y-118547655D01*
X133815280Y-118579222D01*
X133856639Y-118606439D01*
X133871544Y-118617162D01*
X133903488Y-118639457D01*
X133934625Y-118659061D01*
X133946493Y-118665682D01*
X133967599Y-118680548D01*
X133977629Y-118695387D01*
X133977760Y-118696830D01*
X133983330Y-118710183D01*
X133987920Y-118711810D01*
X133997253Y-118719890D01*
X133998080Y-118725149D01*
X134004917Y-118740093D01*
X134021972Y-118761062D01*
X134028560Y-118767690D01*
X134047766Y-118789285D01*
X134058333Y-118807378D01*
X134059040Y-118811097D01*
X134066149Y-118825888D01*
X134084122Y-118846876D01*
X134094600Y-118856786D01*
X134115846Y-118878262D01*
X134128558Y-118896260D01*
X134130160Y-118901639D01*
X134138333Y-118913475D01*
X134145400Y-118915010D01*
X134158890Y-118922230D01*
X134160640Y-118928478D01*
X134167910Y-118944636D01*
X134184903Y-118964478D01*
X134204395Y-118980683D01*
X134217525Y-118986130D01*
X134228816Y-118994053D01*
X134243463Y-119013446D01*
X134245384Y-119016610D01*
X134261565Y-119037183D01*
X134277176Y-119046961D01*
X134278655Y-119047090D01*
X134288720Y-119052164D01*
X134287640Y-119057250D01*
X134290666Y-119065324D01*
X134301665Y-119067410D01*
X134317661Y-119074599D01*
X134343176Y-119093820D01*
X134374652Y-119121556D01*
X134408530Y-119154288D01*
X134441250Y-119188497D01*
X134469253Y-119220665D01*
X134488979Y-119247273D01*
X134495211Y-119258737D01*
X134514272Y-119283324D01*
X134544547Y-119301452D01*
X134579459Y-119311240D01*
X134612433Y-119310806D01*
X134636128Y-119299058D01*
X134648237Y-119274062D01*
X134644633Y-119243823D01*
X134626503Y-119214382D01*
X134617895Y-119206175D01*
X134592757Y-119187645D01*
X134570418Y-119175295D01*
X134567600Y-119174267D01*
X134549451Y-119161809D01*
X134530100Y-119139144D01*
X134526726Y-119133976D01*
X134505095Y-119106141D01*
X134480363Y-119083603D01*
X134477962Y-119081973D01*
X134454096Y-119063568D01*
X134437561Y-119046270D01*
X134421988Y-119031089D01*
X134395730Y-119011290D01*
X134376601Y-118998746D01*
X134332631Y-118966465D01*
X134282069Y-118921022D01*
X134228891Y-118866609D01*
X134177069Y-118807422D01*
X134130578Y-118747653D01*
X134108737Y-118716076D01*
X134041379Y-118629643D01*
X133963016Y-118557696D01*
X133876335Y-118502646D01*
X133864740Y-118496926D01*
X133807118Y-118465331D01*
X133754352Y-118428845D01*
X133710738Y-118390918D01*
X133680575Y-118355002D01*
X133674160Y-118343887D01*
X133652542Y-118300330D01*
X133756731Y-118288585D01*
X133811546Y-118283220D01*
X133869136Y-118278904D01*
X133920029Y-118276303D01*
X133937120Y-118275883D01*
X133987266Y-118273174D01*
X134044486Y-118267016D01*
X134094600Y-118259058D01*
X134138134Y-118252339D01*
X134194303Y-118246199D01*
X134255427Y-118241374D01*
X134306657Y-118238815D01*
X134367530Y-118235807D01*
X134431768Y-118231027D01*
X134490990Y-118225178D01*
X134530177Y-118220040D01*
X134584629Y-118212291D01*
X134643912Y-118204950D01*
X134696589Y-118199418D01*
X134704200Y-118198746D01*
X134755901Y-118192702D01*
X134814880Y-118183340D01*
X134868795Y-118172629D01*
X134871211Y-118172077D01*
X134911820Y-118163699D01*
X134945831Y-118158492D01*
X134967702Y-118157236D01*
X134971559Y-118157911D01*
X134991396Y-118157820D01*
X134997588Y-118154570D01*
X135013424Y-118148589D01*
X135042277Y-118142566D01*
X135067149Y-118139097D01*
X135100398Y-118136043D01*
X135119903Y-118137569D01*
X135132052Y-118145494D01*
X135142579Y-118160573D01*
X135185975Y-118229485D01*
X135221357Y-118282194D01*
X135250208Y-118320462D01*
X135274012Y-118346047D01*
X135294254Y-118360711D01*
X135312418Y-118366213D01*
X135316091Y-118366370D01*
X135338476Y-118357856D01*
X135371304Y-118332546D01*
X135402998Y-118302238D01*
X135439099Y-118268266D01*
X135477593Y-118236249D01*
X135511239Y-118212133D01*
X135517000Y-118208635D01*
X135545096Y-118191365D01*
X135564953Y-118177335D01*
X135571187Y-118171166D01*
X135582877Y-118163594D01*
X135587066Y-118163170D01*
X135601609Y-118156359D01*
X135622057Y-118139466D01*
X135627359Y-118134152D01*
X135642286Y-118120215D01*
X135642686Y-118119987D01*
X135460752Y-118119987D01*
X135450260Y-118134057D01*
X135424500Y-118155674D01*
X135393095Y-118177896D01*
X135325069Y-118223531D01*
X135296976Y-118181096D01*
X135281913Y-118155834D01*
X135274299Y-118137922D01*
X135274411Y-118133135D01*
X135286740Y-118130181D01*
X135313247Y-118128052D01*
X135342590Y-118127284D01*
X135381310Y-118125739D01*
X135415817Y-118122089D01*
X135433180Y-118118562D01*
X135455288Y-118114482D01*
X135460752Y-118119987D01*
X135642686Y-118119987D01*
X135658183Y-118111160D01*
X135680218Y-118105505D01*
X135713559Y-118101767D01*
X135748640Y-118099358D01*
X135805484Y-118095035D01*
X135869826Y-118088920D01*
X135929068Y-118082224D01*
X135936960Y-118081216D01*
X135982466Y-118074693D01*
X136011740Y-118068579D01*
X136028798Y-118061554D01*
X136037657Y-118052301D01*
X136039900Y-118047430D01*
X136045368Y-118025692D01*
X136040954Y-118010477D01*
X136024234Y-118000594D01*
X135992789Y-117994853D01*
X135944198Y-117992061D01*
X135926521Y-117991632D01*
X135882105Y-117990028D01*
X135845371Y-117987336D01*
X135821008Y-117983978D01*
X135813841Y-117981474D01*
X135816519Y-117971655D01*
X135832524Y-117955951D01*
X135844250Y-117947323D01*
X135881746Y-117919646D01*
X135914081Y-117891556D01*
X135937552Y-117866643D01*
X135948454Y-117848499D01*
X135948800Y-117845963D01*
X135940846Y-117821354D01*
X135921796Y-117799326D01*
X135898867Y-117787656D01*
X135894326Y-117787250D01*
X135872957Y-117795493D01*
G37*
X135872957Y-117795493D02*
X135842878Y-117819078D01*
X135818829Y-117842803D01*
X135788482Y-117872615D01*
X135758845Y-117898089D01*
X135736170Y-117913867D01*
X135735567Y-117914184D01*
X135714866Y-117927147D01*
X135705079Y-117937718D01*
X135704960Y-117938529D01*
X135697311Y-117948875D01*
X135677926Y-117965363D01*
X135665864Y-117974140D01*
X135654226Y-117981799D01*
X135642112Y-117988149D01*
X135627349Y-117993457D01*
X135607765Y-117997987D01*
X135581186Y-118002008D01*
X135545440Y-118005784D01*
X135498354Y-118009583D01*
X135437755Y-118013669D01*
X135361470Y-118018310D01*
X135267327Y-118023771D01*
X135254872Y-118024486D01*
X135185784Y-118028449D01*
X135144062Y-117978969D01*
X135113971Y-117947834D01*
X135089298Y-117931466D01*
X135080301Y-117929490D01*
X135056632Y-117936407D01*
X135035556Y-117953639D01*
X135020502Y-117975902D01*
X135014900Y-117997914D01*
X135022178Y-118014394D01*
X135024240Y-118015850D01*
X135034181Y-118027344D01*
X135024499Y-118037691D01*
X134994897Y-118047125D01*
X134981060Y-118050010D01*
X134918546Y-118060824D01*
X134840522Y-118072516D01*
X134751749Y-118084515D01*
X134656986Y-118096254D01*
X134560992Y-118107163D01*
X134468527Y-118116674D01*
X134384351Y-118124217D01*
X134323200Y-118128637D01*
X134283612Y-118131883D01*
X134230567Y-118137373D01*
X134170707Y-118144369D01*
X134110674Y-118152131D01*
X134104760Y-118152943D01*
X133964693Y-118170842D01*
X133838707Y-118183974D01*
X133728554Y-118192186D01*
X133635984Y-118195324D01*
X133622248Y-118195342D01*
X133572666Y-118196012D01*
X133539356Y-118198880D01*
X133518339Y-118204496D01*
X133507948Y-118211109D01*
X133492514Y-118234675D01*
X133494448Y-118263038D01*
X133514102Y-118297852D01*
X133530720Y-118318238D01*
X133552450Y-118345207D01*
X133567196Y-118367878D01*
X133571360Y-118379043D01*
X133578385Y-118394138D01*
X133596640Y-118417954D01*
X133621903Y-118446020D01*
X133649949Y-118473867D01*
X133676552Y-118497023D01*
X133694759Y-118509616D01*
X133762483Y-118547655D01*
X133815280Y-118579222D01*
X133856639Y-118606439D01*
X133871544Y-118617162D01*
X133903488Y-118639457D01*
X133934625Y-118659061D01*
X133946493Y-118665682D01*
X133967599Y-118680548D01*
X133977629Y-118695387D01*
X133977760Y-118696830D01*
X133983330Y-118710183D01*
X133987920Y-118711810D01*
X133997253Y-118719890D01*
X133998080Y-118725149D01*
X134004917Y-118740093D01*
X134021972Y-118761062D01*
X134028560Y-118767690D01*
X134047766Y-118789285D01*
X134058333Y-118807378D01*
X134059040Y-118811097D01*
X134066149Y-118825888D01*
X134084122Y-118846876D01*
X134094600Y-118856786D01*
X134115846Y-118878262D01*
X134128558Y-118896260D01*
X134130160Y-118901639D01*
X134138333Y-118913475D01*
X134145400Y-118915010D01*
X134158890Y-118922230D01*
X134160640Y-118928478D01*
X134167910Y-118944636D01*
X134184903Y-118964478D01*
X134204395Y-118980683D01*
X134217525Y-118986130D01*
X134228816Y-118994053D01*
X134243463Y-119013446D01*
X134245384Y-119016610D01*
X134261565Y-119037183D01*
X134277176Y-119046961D01*
X134278655Y-119047090D01*
X134288720Y-119052164D01*
X134287640Y-119057250D01*
X134290666Y-119065324D01*
X134301665Y-119067410D01*
X134317661Y-119074599D01*
X134343176Y-119093820D01*
X134374652Y-119121556D01*
X134408530Y-119154288D01*
X134441250Y-119188497D01*
X134469253Y-119220665D01*
X134488979Y-119247273D01*
X134495211Y-119258737D01*
X134514272Y-119283324D01*
X134544547Y-119301452D01*
X134579459Y-119311240D01*
X134612433Y-119310806D01*
X134636128Y-119299058D01*
X134648237Y-119274062D01*
X134644633Y-119243823D01*
X134626503Y-119214382D01*
X134617895Y-119206175D01*
X134592757Y-119187645D01*
X134570418Y-119175295D01*
X134567600Y-119174267D01*
X134549451Y-119161809D01*
X134530100Y-119139144D01*
X134526726Y-119133976D01*
X134505095Y-119106141D01*
X134480363Y-119083603D01*
X134477962Y-119081973D01*
X134454096Y-119063568D01*
X134437561Y-119046270D01*
X134421988Y-119031089D01*
X134395730Y-119011290D01*
X134376601Y-118998746D01*
X134332631Y-118966465D01*
X134282069Y-118921022D01*
X134228891Y-118866609D01*
X134177069Y-118807422D01*
X134130578Y-118747653D01*
X134108737Y-118716076D01*
X134041379Y-118629643D01*
X133963016Y-118557696D01*
X133876335Y-118502646D01*
X133864740Y-118496926D01*
X133807118Y-118465331D01*
X133754352Y-118428845D01*
X133710738Y-118390918D01*
X133680575Y-118355002D01*
X133674160Y-118343887D01*
X133652542Y-118300330D01*
X133756731Y-118288585D01*
X133811546Y-118283220D01*
X133869136Y-118278904D01*
X133920029Y-118276303D01*
X133937120Y-118275883D01*
X133987266Y-118273174D01*
X134044486Y-118267016D01*
X134094600Y-118259058D01*
X134138134Y-118252339D01*
X134194303Y-118246199D01*
X134255427Y-118241374D01*
X134306657Y-118238815D01*
X134367530Y-118235807D01*
X134431768Y-118231027D01*
X134490990Y-118225178D01*
X134530177Y-118220040D01*
X134584629Y-118212291D01*
X134643912Y-118204950D01*
X134696589Y-118199418D01*
X134704200Y-118198746D01*
X134755901Y-118192702D01*
X134814880Y-118183340D01*
X134868795Y-118172629D01*
X134871211Y-118172077D01*
X134911820Y-118163699D01*
X134945831Y-118158492D01*
X134967702Y-118157236D01*
X134971559Y-118157911D01*
X134991396Y-118157820D01*
X134997588Y-118154570D01*
X135013424Y-118148589D01*
X135042277Y-118142566D01*
X135067149Y-118139097D01*
X135100398Y-118136043D01*
X135119903Y-118137569D01*
X135132052Y-118145494D01*
X135142579Y-118160573D01*
X135185975Y-118229485D01*
X135221357Y-118282194D01*
X135250208Y-118320462D01*
X135274012Y-118346047D01*
X135294254Y-118360711D01*
X135312418Y-118366213D01*
X135316091Y-118366370D01*
X135338476Y-118357856D01*
X135371304Y-118332546D01*
X135402998Y-118302238D01*
X135439099Y-118268266D01*
X135477593Y-118236249D01*
X135511239Y-118212133D01*
X135517000Y-118208635D01*
X135545096Y-118191365D01*
X135564953Y-118177335D01*
X135571187Y-118171166D01*
X135582877Y-118163594D01*
X135587066Y-118163170D01*
X135601609Y-118156359D01*
X135622057Y-118139466D01*
X135627359Y-118134152D01*
X135642286Y-118120215D01*
X135642686Y-118119987D01*
X135460752Y-118119987D01*
X135450260Y-118134057D01*
X135424500Y-118155674D01*
X135393095Y-118177896D01*
X135325069Y-118223531D01*
X135296976Y-118181096D01*
X135281913Y-118155834D01*
X135274299Y-118137922D01*
X135274411Y-118133135D01*
X135286740Y-118130181D01*
X135313247Y-118128052D01*
X135342590Y-118127284D01*
X135381310Y-118125739D01*
X135415817Y-118122089D01*
X135433180Y-118118562D01*
X135455288Y-118114482D01*
X135460752Y-118119987D01*
X135642686Y-118119987D01*
X135658183Y-118111160D01*
X135680218Y-118105505D01*
X135713559Y-118101767D01*
X135748640Y-118099358D01*
X135805484Y-118095035D01*
X135869826Y-118088920D01*
X135929068Y-118082224D01*
X135936960Y-118081216D01*
X135982466Y-118074693D01*
X136011740Y-118068579D01*
X136028798Y-118061554D01*
X136037657Y-118052301D01*
X136039900Y-118047430D01*
X136045368Y-118025692D01*
X136040954Y-118010477D01*
X136024234Y-118000594D01*
X135992789Y-117994853D01*
X135944198Y-117992061D01*
X135926521Y-117991632D01*
X135882105Y-117990028D01*
X135845371Y-117987336D01*
X135821008Y-117983978D01*
X135813841Y-117981474D01*
X135816519Y-117971655D01*
X135832524Y-117955951D01*
X135844250Y-117947323D01*
X135881746Y-117919646D01*
X135914081Y-117891556D01*
X135937552Y-117866643D01*
X135948454Y-117848499D01*
X135948800Y-117845963D01*
X135940846Y-117821354D01*
X135921796Y-117799326D01*
X135898867Y-117787656D01*
X135894326Y-117787250D01*
X135872957Y-117795493D01*
G36*
X135700582Y-118519953D02*
G01*
X135635960Y-118520979D01*
X135553629Y-118522567D01*
X135539011Y-118522859D01*
X135427046Y-118525636D01*
X135334347Y-118529130D01*
X135259869Y-118533400D01*
X135202568Y-118538505D01*
X135161401Y-118544507D01*
X135161400Y-118544507D01*
X135115199Y-118551240D01*
X135057379Y-118556480D01*
X134996626Y-118559550D01*
X134962389Y-118560067D01*
X134910577Y-118560372D01*
X134874944Y-118561853D01*
X134851356Y-118565112D01*
X134835682Y-118570749D01*
X134823788Y-118579364D01*
X134822689Y-118580374D01*
X134803776Y-118607480D01*
X134804263Y-118633913D01*
X134818500Y-118652713D01*
X134839499Y-118661126D01*
X134877243Y-118666715D01*
X134928351Y-118669438D01*
X134989440Y-118669254D01*
X135057128Y-118666120D01*
X135128032Y-118659996D01*
X135155337Y-118656849D01*
X135208360Y-118651211D01*
X135274598Y-118645558D01*
X135346954Y-118640421D01*
X135418329Y-118636333D01*
X135445880Y-118635074D01*
X135531108Y-118631815D01*
X135597755Y-118630130D01*
X135647521Y-118630281D01*
X135682104Y-118632529D01*
X135703201Y-118637137D01*
X135712511Y-118644368D01*
X135711731Y-118654483D01*
X135702560Y-118667746D01*
X135697045Y-118673860D01*
X135678193Y-118697647D01*
X135657710Y-118728744D01*
X135651968Y-118738603D01*
X135634761Y-118769042D01*
X135612323Y-118808336D01*
X135590459Y-118846335D01*
X135552157Y-118912603D01*
X135453299Y-118918905D01*
X135407673Y-118921643D01*
X135367316Y-118923760D01*
X135338169Y-118924958D01*
X135329361Y-118925118D01*
X135304525Y-118927211D01*
X135266202Y-118932967D01*
X135218980Y-118941429D01*
X135167447Y-118951637D01*
X135116192Y-118962635D01*
X135069803Y-118973463D01*
X135032867Y-118983163D01*
X135009973Y-118990778D01*
X135006460Y-118992555D01*
X134987305Y-119014325D01*
X134985553Y-119041219D01*
X135000973Y-119068263D01*
X135010371Y-119076832D01*
X135033459Y-119090941D01*
X135059502Y-119096713D01*
X135093694Y-119094400D01*
X135141232Y-119084257D01*
X135144694Y-119083387D01*
X135206230Y-119070369D01*
X135287287Y-119057451D01*
X135387065Y-119044756D01*
X135414297Y-119041691D01*
X135439888Y-119038927D01*
X135457120Y-119038747D01*
X135465688Y-119043530D01*
X135465290Y-119055653D01*
X135455622Y-119077497D01*
X135436382Y-119111439D01*
X135407264Y-119159858D01*
X135397083Y-119176694D01*
X135365288Y-119229411D01*
X135342586Y-119267682D01*
X135327568Y-119294454D01*
X135318824Y-119312676D01*
X135314946Y-119325297D01*
X135314524Y-119335266D01*
X135316150Y-119345532D01*
X135316219Y-119345896D01*
X135326851Y-119364324D01*
X135346726Y-119382031D01*
X135367240Y-119391946D01*
X135372699Y-119392301D01*
X135379073Y-119384560D01*
X135393446Y-119364760D01*
X135407950Y-119344041D01*
X135450447Y-119281838D01*
X135483086Y-119232288D01*
X135508161Y-119191757D01*
X135527966Y-119156613D01*
X135535636Y-119141853D01*
X135555484Y-119106443D01*
X135577041Y-119073472D01*
X135587219Y-119060174D01*
X135600064Y-119046300D01*
X135613769Y-119036917D01*
X135632953Y-119030626D01*
X135662237Y-119026025D01*
X135706240Y-119021716D01*
X135717322Y-119020757D01*
X135772288Y-119017297D01*
X135838074Y-119015046D01*
X135905205Y-119014250D01*
X135948800Y-119014711D01*
X136024940Y-119014627D01*
X136098506Y-119011161D01*
X136165518Y-119004744D01*
X136221994Y-118995804D01*
X136263954Y-118984772D01*
X136276901Y-118979310D01*
X136301585Y-118960246D01*
X136317176Y-118938727D01*
X136323479Y-118918469D01*
X136316703Y-118903656D01*
X136304528Y-118892749D01*
X136279930Y-118879093D01*
X136250788Y-118878601D01*
X136243933Y-118879786D01*
X136188663Y-118887983D01*
X136126776Y-118893387D01*
X136066143Y-118895584D01*
X136014636Y-118894159D01*
X135999600Y-118892649D01*
X135957362Y-118889577D01*
X135908266Y-118889413D01*
X135877680Y-118891056D01*
X135804803Y-118896331D01*
X135749846Y-118898147D01*
X135713436Y-118896511D01*
X135696196Y-118891433D01*
X135694800Y-118888650D01*
X135699965Y-118875884D01*
X135713918Y-118850191D01*
X135734348Y-118815667D01*
X135752164Y-118787020D01*
X135792135Y-118723301D01*
X135821770Y-118673766D01*
X135842081Y-118635739D01*
X135854077Y-118606545D01*
X135858769Y-118583509D01*
X135857164Y-118563957D01*
X135850275Y-118545213D01*
X135846351Y-118537503D01*
X135842602Y-118531594D01*
X135836916Y-118526998D01*
X135827042Y-118523608D01*
X135810724Y-118521316D01*
X135785711Y-118520014D01*
X135749748Y-118519596D01*
X135700582Y-118519953D01*
G37*
X135700582Y-118519953D02*
X135635960Y-118520979D01*
X135553629Y-118522567D01*
X135539011Y-118522859D01*
X135427046Y-118525636D01*
X135334347Y-118529130D01*
X135259869Y-118533400D01*
X135202568Y-118538505D01*
X135161401Y-118544507D01*
X135161400Y-118544507D01*
X135115199Y-118551240D01*
X135057379Y-118556480D01*
X134996626Y-118559550D01*
X134962389Y-118560067D01*
X134910577Y-118560372D01*
X134874944Y-118561853D01*
X134851356Y-118565112D01*
X134835682Y-118570749D01*
X134823788Y-118579364D01*
X134822689Y-118580374D01*
X134803776Y-118607480D01*
X134804263Y-118633913D01*
X134818500Y-118652713D01*
X134839499Y-118661126D01*
X134877243Y-118666715D01*
X134928351Y-118669438D01*
X134989440Y-118669254D01*
X135057128Y-118666120D01*
X135128032Y-118659996D01*
X135155337Y-118656849D01*
X135208360Y-118651211D01*
X135274598Y-118645558D01*
X135346954Y-118640421D01*
X135418329Y-118636333D01*
X135445880Y-118635074D01*
X135531108Y-118631815D01*
X135597755Y-118630130D01*
X135647521Y-118630281D01*
X135682104Y-118632529D01*
X135703201Y-118637137D01*
X135712511Y-118644368D01*
X135711731Y-118654483D01*
X135702560Y-118667746D01*
X135697045Y-118673860D01*
X135678193Y-118697647D01*
X135657710Y-118728744D01*
X135651968Y-118738603D01*
X135634761Y-118769042D01*
X135612323Y-118808336D01*
X135590459Y-118846335D01*
X135552157Y-118912603D01*
X135453299Y-118918905D01*
X135407673Y-118921643D01*
X135367316Y-118923760D01*
X135338169Y-118924958D01*
X135329361Y-118925118D01*
X135304525Y-118927211D01*
X135266202Y-118932967D01*
X135218980Y-118941429D01*
X135167447Y-118951637D01*
X135116192Y-118962635D01*
X135069803Y-118973463D01*
X135032867Y-118983163D01*
X135009973Y-118990778D01*
X135006460Y-118992555D01*
X134987305Y-119014325D01*
X134985553Y-119041219D01*
X135000973Y-119068263D01*
X135010371Y-119076832D01*
X135033459Y-119090941D01*
X135059502Y-119096713D01*
X135093694Y-119094400D01*
X135141232Y-119084257D01*
X135144694Y-119083387D01*
X135206230Y-119070369D01*
X135287287Y-119057451D01*
X135387065Y-119044756D01*
X135414297Y-119041691D01*
X135439888Y-119038927D01*
X135457120Y-119038747D01*
X135465688Y-119043530D01*
X135465290Y-119055653D01*
X135455622Y-119077497D01*
X135436382Y-119111439D01*
X135407264Y-119159858D01*
X135397083Y-119176694D01*
X135365288Y-119229411D01*
X135342586Y-119267682D01*
X135327568Y-119294454D01*
X135318824Y-119312676D01*
X135314946Y-119325297D01*
X135314524Y-119335266D01*
X135316150Y-119345532D01*
X135316219Y-119345896D01*
X135326851Y-119364324D01*
X135346726Y-119382031D01*
X135367240Y-119391946D01*
X135372699Y-119392301D01*
X135379073Y-119384560D01*
X135393446Y-119364760D01*
X135407950Y-119344041D01*
X135450447Y-119281838D01*
X135483086Y-119232288D01*
X135508161Y-119191757D01*
X135527966Y-119156613D01*
X135535636Y-119141853D01*
X135555484Y-119106443D01*
X135577041Y-119073472D01*
X135587219Y-119060174D01*
X135600064Y-119046300D01*
X135613769Y-119036917D01*
X135632953Y-119030626D01*
X135662237Y-119026025D01*
X135706240Y-119021716D01*
X135717322Y-119020757D01*
X135772288Y-119017297D01*
X135838074Y-119015046D01*
X135905205Y-119014250D01*
X135948800Y-119014711D01*
X136024940Y-119014627D01*
X136098506Y-119011161D01*
X136165518Y-119004744D01*
X136221994Y-118995804D01*
X136263954Y-118984772D01*
X136276901Y-118979310D01*
X136301585Y-118960246D01*
X136317176Y-118938727D01*
X136323479Y-118918469D01*
X136316703Y-118903656D01*
X136304528Y-118892749D01*
X136279930Y-118879093D01*
X136250788Y-118878601D01*
X136243933Y-118879786D01*
X136188663Y-118887983D01*
X136126776Y-118893387D01*
X136066143Y-118895584D01*
X136014636Y-118894159D01*
X135999600Y-118892649D01*
X135957362Y-118889577D01*
X135908266Y-118889413D01*
X135877680Y-118891056D01*
X135804803Y-118896331D01*
X135749846Y-118898147D01*
X135713436Y-118896511D01*
X135696196Y-118891433D01*
X135694800Y-118888650D01*
X135699965Y-118875884D01*
X135713918Y-118850191D01*
X135734348Y-118815667D01*
X135752164Y-118787020D01*
X135792135Y-118723301D01*
X135821770Y-118673766D01*
X135842081Y-118635739D01*
X135854077Y-118606545D01*
X135858769Y-118583509D01*
X135857164Y-118563957D01*
X135850275Y-118545213D01*
X135846351Y-118537503D01*
X135842602Y-118531594D01*
X135836916Y-118526998D01*
X135827042Y-118523608D01*
X135810724Y-118521316D01*
X135785711Y-118520014D01*
X135749748Y-118519596D01*
X135700582Y-118519953D01*
G36*
X135850075Y-119191147D02*
G01*
X135825206Y-119201020D01*
X135792845Y-119219619D01*
X135750677Y-119248018D01*
X135696391Y-119287291D01*
X135654160Y-119318673D01*
X135615292Y-119348100D01*
X135579993Y-119375494D01*
X135553092Y-119397075D01*
X135542400Y-119406190D01*
X135514634Y-119428640D01*
X135486520Y-119448133D01*
X135461712Y-119466399D01*
X135443635Y-119484482D01*
X135443170Y-119485119D01*
X135429229Y-119497828D01*
X135402116Y-119517465D01*
X135366314Y-119540900D01*
X135341570Y-119556054D01*
X135301637Y-119580405D01*
X135266496Y-119602799D01*
X135241060Y-119620056D01*
X135232520Y-119626606D01*
X135210676Y-119642191D01*
X135180535Y-119659915D01*
X135170080Y-119665369D01*
X135141422Y-119681108D01*
X135119257Y-119695651D01*
X135114200Y-119699878D01*
X135097998Y-119712190D01*
X135070935Y-119729647D01*
X135049640Y-119742263D01*
X135008194Y-119767112D01*
X134982548Y-119786086D01*
X134970068Y-119801859D01*
X134968119Y-119817107D01*
X134969646Y-119823494D01*
X134978557Y-119838614D01*
X134998380Y-119865407D01*
X135026435Y-119900448D01*
X135060038Y-119940308D01*
X135070379Y-119952213D01*
X135107697Y-119996603D01*
X135142488Y-120041093D01*
X135171183Y-120080913D01*
X135190211Y-120111291D01*
X135192028Y-120114773D01*
X135215400Y-120158180D01*
X135234971Y-120185616D01*
X135253796Y-120200241D01*
X135274927Y-120205215D01*
X135279554Y-120205330D01*
X135304100Y-120199535D01*
X135321772Y-120178924D01*
X135323942Y-120174886D01*
X135334885Y-120150967D01*
X135349813Y-120114787D01*
X135365909Y-120073228D01*
X135369671Y-120063115D01*
X135382835Y-120029077D01*
X135398023Y-119993554D01*
X135416811Y-119953278D01*
X135440774Y-119904983D01*
X135471488Y-119845403D01*
X135509741Y-119772756D01*
X135518706Y-119751010D01*
X135528875Y-119719698D01*
X135532301Y-119707490D01*
X135555487Y-119634944D01*
X135445755Y-119634944D01*
X135438195Y-119660558D01*
X135421506Y-119702166D01*
X135396056Y-119758883D01*
X135362213Y-119829825D01*
X135341857Y-119871164D01*
X135263053Y-120029759D01*
X135222703Y-119983919D01*
X135194674Y-119950860D01*
X135167345Y-119916702D01*
X135154768Y-119899999D01*
X135135895Y-119875633D01*
X135120498Y-119858633D01*
X135116352Y-119855224D01*
X135105980Y-119841683D01*
X135115166Y-119827154D01*
X135133460Y-119816896D01*
X135159596Y-119802255D01*
X135188865Y-119781333D01*
X135194774Y-119776474D01*
X135217685Y-119758956D01*
X135235139Y-119748996D01*
X135238759Y-119748130D01*
X135251143Y-119742888D01*
X135276525Y-119728687D01*
X135310977Y-119707813D01*
X135343473Y-119687170D01*
X135381946Y-119662591D01*
X135414011Y-119642755D01*
X135435945Y-119629923D01*
X135443817Y-119626210D01*
X135445755Y-119634944D01*
X135555487Y-119634944D01*
X135562766Y-119612172D01*
X135599687Y-119533229D01*
X135645146Y-119467191D01*
X135701221Y-119410592D01*
X135719148Y-119395932D01*
X135751814Y-119371674D01*
X135779171Y-119353816D01*
X135796918Y-119345065D01*
X135800428Y-119344740D01*
X135805239Y-119356506D01*
X135809534Y-119388190D01*
X135813280Y-119439397D01*
X135816441Y-119509731D01*
X135817460Y-119540671D01*
X135819636Y-119601925D01*
X135822189Y-119656757D01*
X135824910Y-119701704D01*
X135827589Y-119733300D01*
X135830016Y-119748080D01*
X135830037Y-119748130D01*
X135832992Y-119763855D01*
X135835997Y-119795290D01*
X135838696Y-119837827D01*
X135840682Y-119885290D01*
X135842773Y-119934375D01*
X135845562Y-119977002D01*
X135848679Y-120008494D01*
X135851647Y-120023936D01*
X135867824Y-120039700D01*
X135892882Y-120045965D01*
X135916940Y-120041031D01*
X135923370Y-120036269D01*
X135935784Y-120014333D01*
X135943420Y-119977374D01*
X135946346Y-119924179D01*
X135944633Y-119853539D01*
X135938709Y-119768450D01*
X135934071Y-119703530D01*
X135929902Y-119625743D01*
X135926521Y-119542542D01*
X135924246Y-119461380D01*
X135923519Y-119413959D01*
X135922746Y-119345461D01*
X135921664Y-119294447D01*
X135919993Y-119258084D01*
X135917456Y-119233537D01*
X135913775Y-119217971D01*
X135908672Y-119208552D01*
X135902843Y-119203139D01*
X135886581Y-119193281D01*
X135869762Y-119188926D01*
X135850075Y-119191147D01*
G37*
X135850075Y-119191147D02*
X135825206Y-119201020D01*
X135792845Y-119219619D01*
X135750677Y-119248018D01*
X135696391Y-119287291D01*
X135654160Y-119318673D01*
X135615292Y-119348100D01*
X135579993Y-119375494D01*
X135553092Y-119397075D01*
X135542400Y-119406190D01*
X135514634Y-119428640D01*
X135486520Y-119448133D01*
X135461712Y-119466399D01*
X135443635Y-119484482D01*
X135443170Y-119485119D01*
X135429229Y-119497828D01*
X135402116Y-119517465D01*
X135366314Y-119540900D01*
X135341570Y-119556054D01*
X135301637Y-119580405D01*
X135266496Y-119602799D01*
X135241060Y-119620056D01*
X135232520Y-119626606D01*
X135210676Y-119642191D01*
X135180535Y-119659915D01*
X135170080Y-119665369D01*
X135141422Y-119681108D01*
X135119257Y-119695651D01*
X135114200Y-119699878D01*
X135097998Y-119712190D01*
X135070935Y-119729647D01*
X135049640Y-119742263D01*
X135008194Y-119767112D01*
X134982548Y-119786086D01*
X134970068Y-119801859D01*
X134968119Y-119817107D01*
X134969646Y-119823494D01*
X134978557Y-119838614D01*
X134998380Y-119865407D01*
X135026435Y-119900448D01*
X135060038Y-119940308D01*
X135070379Y-119952213D01*
X135107697Y-119996603D01*
X135142488Y-120041093D01*
X135171183Y-120080913D01*
X135190211Y-120111291D01*
X135192028Y-120114773D01*
X135215400Y-120158180D01*
X135234971Y-120185616D01*
X135253796Y-120200241D01*
X135274927Y-120205215D01*
X135279554Y-120205330D01*
X135304100Y-120199535D01*
X135321772Y-120178924D01*
X135323942Y-120174886D01*
X135334885Y-120150967D01*
X135349813Y-120114787D01*
X135365909Y-120073228D01*
X135369671Y-120063115D01*
X135382835Y-120029077D01*
X135398023Y-119993554D01*
X135416811Y-119953278D01*
X135440774Y-119904983D01*
X135471488Y-119845403D01*
X135509741Y-119772756D01*
X135518706Y-119751010D01*
X135528875Y-119719698D01*
X135532301Y-119707490D01*
X135555487Y-119634944D01*
X135445755Y-119634944D01*
X135438195Y-119660558D01*
X135421506Y-119702166D01*
X135396056Y-119758883D01*
X135362213Y-119829825D01*
X135341857Y-119871164D01*
X135263053Y-120029759D01*
X135222703Y-119983919D01*
X135194674Y-119950860D01*
X135167345Y-119916702D01*
X135154768Y-119899999D01*
X135135895Y-119875633D01*
X135120498Y-119858633D01*
X135116352Y-119855224D01*
X135105980Y-119841683D01*
X135115166Y-119827154D01*
X135133460Y-119816896D01*
X135159596Y-119802255D01*
X135188865Y-119781333D01*
X135194774Y-119776474D01*
X135217685Y-119758956D01*
X135235139Y-119748996D01*
X135238759Y-119748130D01*
X135251143Y-119742888D01*
X135276525Y-119728687D01*
X135310977Y-119707813D01*
X135343473Y-119687170D01*
X135381946Y-119662591D01*
X135414011Y-119642755D01*
X135435945Y-119629923D01*
X135443817Y-119626210D01*
X135445755Y-119634944D01*
X135555487Y-119634944D01*
X135562766Y-119612172D01*
X135599687Y-119533229D01*
X135645146Y-119467191D01*
X135701221Y-119410592D01*
X135719148Y-119395932D01*
X135751814Y-119371674D01*
X135779171Y-119353816D01*
X135796918Y-119345065D01*
X135800428Y-119344740D01*
X135805239Y-119356506D01*
X135809534Y-119388190D01*
X135813280Y-119439397D01*
X135816441Y-119509731D01*
X135817460Y-119540671D01*
X135819636Y-119601925D01*
X135822189Y-119656757D01*
X135824910Y-119701704D01*
X135827589Y-119733300D01*
X135830016Y-119748080D01*
X135830037Y-119748130D01*
X135832992Y-119763855D01*
X135835997Y-119795290D01*
X135838696Y-119837827D01*
X135840682Y-119885290D01*
X135842773Y-119934375D01*
X135845562Y-119977002D01*
X135848679Y-120008494D01*
X135851647Y-120023936D01*
X135867824Y-120039700D01*
X135892882Y-120045965D01*
X135916940Y-120041031D01*
X135923370Y-120036269D01*
X135935784Y-120014333D01*
X135943420Y-119977374D01*
X135946346Y-119924179D01*
X135944633Y-119853539D01*
X135938709Y-119768450D01*
X135934071Y-119703530D01*
X135929902Y-119625743D01*
X135926521Y-119542542D01*
X135924246Y-119461380D01*
X135923519Y-119413959D01*
X135922746Y-119345461D01*
X135921664Y-119294447D01*
X135919993Y-119258084D01*
X135917456Y-119233537D01*
X135913775Y-119217971D01*
X135908672Y-119208552D01*
X135902843Y-119203139D01*
X135886581Y-119193281D01*
X135869762Y-119188926D01*
X135850075Y-119191147D01*
G36*
X133879123Y-120312979D02*
G01*
X133856889Y-120326129D01*
X133846726Y-120349313D01*
X133845680Y-120363282D01*
X133847727Y-120385786D01*
X133856288Y-120401665D01*
X133875002Y-120413511D01*
X133907502Y-120423919D01*
X133942200Y-120432138D01*
X133986533Y-120441367D01*
X134045242Y-120452675D01*
X134113680Y-120465254D01*
X134187202Y-120478300D01*
X134261162Y-120491005D01*
X134330913Y-120502564D01*
X134391811Y-120512170D01*
X134439207Y-120519018D01*
X134452950Y-120520758D01*
X134490436Y-120525838D01*
X134520145Y-120531042D01*
X134536141Y-120535316D01*
X134536726Y-120535632D01*
X134550135Y-120538667D01*
X134579627Y-120542548D01*
X134621009Y-120546802D01*
X134670088Y-120550955D01*
X134676216Y-120551418D01*
X134823446Y-120562210D01*
X134951478Y-120571197D01*
X135060037Y-120578362D01*
X135148846Y-120583685D01*
X135202040Y-120586444D01*
X135256166Y-120589803D01*
X135312661Y-120594625D01*
X135361955Y-120600054D01*
X135376441Y-120602043D01*
X135421550Y-120607423D01*
X135466704Y-120610687D01*
X135498361Y-120611168D01*
X135540738Y-120611527D01*
X135582322Y-120614929D01*
X135618295Y-120620602D01*
X135643837Y-120627774D01*
X135654132Y-120635675D01*
X135654160Y-120636097D01*
X135647435Y-120646791D01*
X135628772Y-120669434D01*
X135600446Y-120701448D01*
X135564728Y-120740257D01*
X135529700Y-120777238D01*
X135484976Y-120823720D01*
X135451424Y-120857712D01*
X135426166Y-120881400D01*
X135406321Y-120896968D01*
X135389007Y-120906602D01*
X135371345Y-120912488D01*
X135350454Y-120916812D01*
X135344280Y-120917924D01*
X135299687Y-120922794D01*
X135247333Y-120924023D01*
X135208769Y-120922184D01*
X135161851Y-120919649D01*
X135131430Y-120923309D01*
X135114161Y-120934973D01*
X135106699Y-120956449D01*
X135105520Y-120978008D01*
X135110762Y-121014267D01*
X135128130Y-121036578D01*
X135160087Y-121047082D01*
X135186695Y-121048610D01*
X135227744Y-121049698D01*
X135250651Y-121054312D01*
X135257539Y-121064473D01*
X135250532Y-121082200D01*
X135239457Y-121098843D01*
X135215756Y-121126273D01*
X135183295Y-121156610D01*
X135159180Y-121175763D01*
X135115612Y-121208688D01*
X135087396Y-121233836D01*
X135072463Y-121253888D01*
X135068745Y-121271526D01*
X135073146Y-121287269D01*
X135091160Y-121308017D01*
X135114526Y-121311158D01*
X135137260Y-121295891D01*
X135137296Y-121295848D01*
X135153070Y-121281497D01*
X135179842Y-121261441D01*
X135205647Y-121244053D01*
X135258100Y-121208712D01*
X135297813Y-121177462D01*
X135330430Y-121145740D01*
X135338972Y-121136253D01*
X135374398Y-121096422D01*
X135400475Y-121069319D01*
X135420989Y-121052165D01*
X135439727Y-121042183D01*
X135460474Y-121036596D01*
X135478689Y-121033748D01*
X135510765Y-121030893D01*
X135535083Y-121031528D01*
X135542754Y-121033588D01*
X135555748Y-121035715D01*
X135586120Y-121037902D01*
X135630929Y-121040025D01*
X135687233Y-121041961D01*
X135752091Y-121043584D01*
X135799762Y-121044449D01*
X135882715Y-121046071D01*
X135972059Y-121048410D01*
X136061461Y-121051257D01*
X136144590Y-121054409D01*
X136215113Y-121057660D01*
X136228200Y-121058362D01*
X136298035Y-121061733D01*
X136371127Y-121064411D01*
X136440886Y-121066209D01*
X136500724Y-121066942D01*
X136527920Y-121066812D01*
X136587050Y-121066307D01*
X136650441Y-121066324D01*
X136708574Y-121066837D01*
X136736200Y-121067354D01*
X136778953Y-121068707D01*
X136804277Y-121070669D01*
X136815063Y-121073912D01*
X136814201Y-121079113D01*
X136808348Y-121084178D01*
X136787657Y-121095752D01*
X136756305Y-121109058D01*
X136737228Y-121115850D01*
X136709164Y-121126440D01*
X136667913Y-121143662D01*
X136618551Y-121165240D01*
X136566155Y-121188899D01*
X136515801Y-121212362D01*
X136472566Y-121233354D01*
X136453948Y-121242870D01*
X136435282Y-121251328D01*
X136404591Y-121263941D01*
X136372668Y-121276383D01*
X136309938Y-121301249D01*
X136234241Y-121332930D01*
X136150805Y-121369187D01*
X136064855Y-121407782D01*
X136050400Y-121414401D01*
X136002537Y-121436152D01*
X135945016Y-121461950D01*
X135886831Y-121487774D01*
X135857360Y-121500725D01*
X135807326Y-121523529D01*
X135757566Y-121547771D01*
X135714989Y-121570010D01*
X135693737Y-121582190D01*
X135656117Y-121602634D01*
X135608408Y-121625050D01*
X135559852Y-121645145D01*
X135551497Y-121648272D01*
X135507799Y-121665555D01*
X135453247Y-121688979D01*
X135395044Y-121715368D01*
X135344280Y-121739625D01*
X135296178Y-121763056D01*
X135241189Y-121789397D01*
X135182251Y-121817291D01*
X135122299Y-121845379D01*
X135064269Y-121872304D01*
X135011096Y-121896707D01*
X134965716Y-121917230D01*
X134931066Y-121932516D01*
X134910081Y-121941206D01*
X134905295Y-121942690D01*
X134894300Y-121947046D01*
X134869204Y-121958851D01*
X134833949Y-121976206D01*
X134799751Y-121993490D01*
X134757639Y-122014212D01*
X134720865Y-122030856D01*
X134693945Y-122041464D01*
X134682605Y-122044290D01*
X134672190Y-122045523D01*
X134657056Y-122050003D01*
X134634387Y-122058902D01*
X134601364Y-122073389D01*
X134555168Y-122094638D01*
X134506080Y-122117645D01*
X134462258Y-122138059D01*
X134430381Y-122152123D01*
X134404127Y-122162389D01*
X134377172Y-122171407D01*
X134358760Y-122177058D01*
X134335319Y-122185838D01*
X134298193Y-122201666D01*
X134251847Y-122222456D01*
X134200748Y-122246123D01*
X134149363Y-122270580D01*
X134102156Y-122293742D01*
X134063595Y-122313523D01*
X134046340Y-122322973D01*
X134015469Y-122340568D01*
X133990460Y-122354785D01*
X133965564Y-122367927D01*
X133931178Y-122384903D01*
X133906640Y-122396502D01*
X133833029Y-122430664D01*
X133775861Y-122457579D01*
X133733103Y-122478455D01*
X133702722Y-122494500D01*
X133682682Y-122506921D01*
X133670951Y-122516926D01*
X133665494Y-122525721D01*
X133664278Y-122534515D01*
X133664717Y-122540119D01*
X133670135Y-122559200D01*
X133684761Y-122567904D01*
X133703484Y-122570534D01*
X133730706Y-122569470D01*
X133749623Y-122562865D01*
X133750736Y-122561890D01*
X133766103Y-122553216D01*
X133794698Y-122542084D01*
X133826893Y-122531926D01*
X133904096Y-122506510D01*
X133978903Y-122475555D01*
X134041841Y-122443070D01*
X134067583Y-122429083D01*
X134086475Y-122421003D01*
X134090391Y-122420210D01*
X134103915Y-122415907D01*
X134129784Y-122404641D01*
X134161636Y-122389227D01*
X134194539Y-122373641D01*
X134244660Y-122351318D01*
X134310311Y-122322975D01*
X134389805Y-122289325D01*
X134481454Y-122251085D01*
X134583572Y-122208968D01*
X134678800Y-122170063D01*
X134731381Y-122148108D01*
X134790638Y-122122518D01*
X134844883Y-122098349D01*
X134851520Y-122095317D01*
X134892929Y-122076318D01*
X134946653Y-122051661D01*
X135006541Y-122024168D01*
X135066443Y-121996661D01*
X135083040Y-121989039D01*
X135132850Y-121966284D01*
X135175853Y-121946867D01*
X135208814Y-121932233D01*
X135228493Y-121923825D01*
X135232569Y-121922370D01*
X135242750Y-121918140D01*
X135267848Y-121906498D01*
X135304556Y-121889010D01*
X135349564Y-121867246D01*
X135371889Y-121856354D01*
X135420800Y-121832973D01*
X135464230Y-121813230D01*
X135498471Y-121798733D01*
X135519815Y-121791091D01*
X135524021Y-121790314D01*
X135541846Y-121785801D01*
X135546549Y-121781637D01*
X135558499Y-121773399D01*
X135583096Y-121761931D01*
X135600489Y-121755104D01*
X135626360Y-121744492D01*
X135666053Y-121726869D01*
X135715181Y-121704244D01*
X135769357Y-121678624D01*
X135801480Y-121663126D01*
X135862475Y-121633630D01*
X135922118Y-121605160D01*
X135983904Y-121576092D01*
X136051327Y-121544800D01*
X136127882Y-121509659D01*
X136217062Y-121469046D01*
X136289160Y-121436360D01*
X136339104Y-121414298D01*
X136392172Y-121391736D01*
X136439124Y-121372579D01*
X136451720Y-121367662D01*
X136499270Y-121348188D01*
X136552326Y-121324641D01*
X136593960Y-121304781D01*
X136644930Y-121280329D01*
X136710267Y-121250838D01*
X136791205Y-121215772D01*
X136888974Y-121174596D01*
X136980040Y-121136936D01*
X137081640Y-121095191D01*
X137356790Y-121093876D01*
X137429939Y-121093267D01*
X137496647Y-121092217D01*
X137554149Y-121090807D01*
X137599677Y-121089123D01*
X137630467Y-121087246D01*
X137643751Y-121085261D01*
X137643810Y-121085226D01*
X137654936Y-121068278D01*
X137650474Y-121044576D01*
X137631380Y-121019163D01*
X137631257Y-121019047D01*
X137614696Y-121007253D01*
X137590908Y-120998089D01*
X137555560Y-120990318D01*
X137504317Y-120982705D01*
X137503438Y-120982590D01*
X137459897Y-120976528D01*
X137424439Y-120970890D01*
X137401537Y-120966429D01*
X137395371Y-120964406D01*
X137402325Y-120959089D01*
X137424720Y-120948099D01*
X137459032Y-120933059D01*
X137500330Y-120916148D01*
X137552838Y-120894644D01*
X137606593Y-120871578D01*
X137654002Y-120850256D01*
X137678287Y-120838666D01*
X137714459Y-120822061D01*
X137745933Y-120809977D01*
X137766392Y-120804813D01*
X137767544Y-120804770D01*
X137802466Y-120795806D01*
X137831533Y-120772590D01*
X137850306Y-120740632D01*
X137854347Y-120705443D01*
X137853036Y-120698659D01*
X137837518Y-120673731D01*
X137810416Y-120658192D01*
X137779166Y-120654276D01*
X137751201Y-120664217D01*
X137747751Y-120667039D01*
X137733389Y-120675802D01*
X137703747Y-120690894D01*
X137662241Y-120710678D01*
X137612286Y-120733517D01*
X137569151Y-120752618D01*
X137503484Y-120781765D01*
X137432621Y-120814007D01*
X137363566Y-120846109D01*
X137303325Y-120874835D01*
X137282717Y-120884927D01*
X137215326Y-120917792D01*
X137162307Y-120942042D01*
X137120116Y-120958654D01*
X137085210Y-120968605D01*
X137054046Y-120972869D01*
X137023081Y-120972424D01*
X136988773Y-120968245D01*
X136983383Y-120967399D01*
X136948324Y-120963264D01*
X136898016Y-120959294D01*
X136837527Y-120955793D01*
X136771928Y-120953065D01*
X136720960Y-120951678D01*
X136649354Y-120950030D01*
X136573670Y-120947956D01*
X136500671Y-120945665D01*
X136437118Y-120943362D01*
X136406000Y-120942045D01*
X136364633Y-120940337D01*
X136306489Y-120938205D01*
X136235106Y-120935764D01*
X136154021Y-120933131D01*
X136066771Y-120930421D01*
X135976892Y-120927751D01*
X135924111Y-120926242D01*
X135841322Y-120923826D01*
X135765199Y-120921436D01*
X135698071Y-120919160D01*
X135642264Y-120917083D01*
X135600108Y-120915292D01*
X135573932Y-120913871D01*
X135565975Y-120913011D01*
X135571320Y-120904918D01*
X135588271Y-120885280D01*
X135614191Y-120857041D01*
X135646442Y-120823147D01*
X135646545Y-120823039D01*
X135684511Y-120783578D01*
X135721853Y-120744459D01*
X135753688Y-120710815D01*
X135771436Y-120691802D01*
X135801858Y-120660987D01*
X135834232Y-120631400D01*
X135850176Y-120618291D01*
X135876858Y-120592894D01*
X135887360Y-120568658D01*
X135887840Y-120561445D01*
X135883975Y-120535412D01*
X135870526Y-120517642D01*
X135844713Y-120506807D01*
X135803756Y-120501579D01*
X135760336Y-120500540D01*
X135711755Y-120499862D01*
X135664014Y-120498030D01*
X135625757Y-120495404D01*
X135618600Y-120494655D01*
X135578472Y-120489972D01*
X135538699Y-120485318D01*
X135527160Y-120483965D01*
X135493138Y-120480457D01*
X135450150Y-120476963D01*
X135395372Y-120473295D01*
X135325981Y-120469263D01*
X135239152Y-120464679D01*
X135237600Y-120464600D01*
X135067339Y-120455419D01*
X134913629Y-120446092D01*
X134777315Y-120436678D01*
X134659242Y-120427237D01*
X134560255Y-120417830D01*
X134521320Y-120413526D01*
X134449182Y-120404329D01*
X134369840Y-120392893D01*
X134287964Y-120380007D01*
X134208225Y-120366461D01*
X134135295Y-120353043D01*
X134073844Y-120340543D01*
X134033640Y-120331104D01*
X133965959Y-120315730D01*
X133914966Y-120309601D01*
X133879123Y-120312979D01*
G37*
X133879123Y-120312979D02*
X133856889Y-120326129D01*
X133846726Y-120349313D01*
X133845680Y-120363282D01*
X133847727Y-120385786D01*
X133856288Y-120401665D01*
X133875002Y-120413511D01*
X133907502Y-120423919D01*
X133942200Y-120432138D01*
X133986533Y-120441367D01*
X134045242Y-120452675D01*
X134113680Y-120465254D01*
X134187202Y-120478300D01*
X134261162Y-120491005D01*
X134330913Y-120502564D01*
X134391811Y-120512170D01*
X134439207Y-120519018D01*
X134452950Y-120520758D01*
X134490436Y-120525838D01*
X134520145Y-120531042D01*
X134536141Y-120535316D01*
X134536726Y-120535632D01*
X134550135Y-120538667D01*
X134579627Y-120542548D01*
X134621009Y-120546802D01*
X134670088Y-120550955D01*
X134676216Y-120551418D01*
X134823446Y-120562210D01*
X134951478Y-120571197D01*
X135060037Y-120578362D01*
X135148846Y-120583685D01*
X135202040Y-120586444D01*
X135256166Y-120589803D01*
X135312661Y-120594625D01*
X135361955Y-120600054D01*
X135376441Y-120602043D01*
X135421550Y-120607423D01*
X135466704Y-120610687D01*
X135498361Y-120611168D01*
X135540738Y-120611527D01*
X135582322Y-120614929D01*
X135618295Y-120620602D01*
X135643837Y-120627774D01*
X135654132Y-120635675D01*
X135654160Y-120636097D01*
X135647435Y-120646791D01*
X135628772Y-120669434D01*
X135600446Y-120701448D01*
X135564728Y-120740257D01*
X135529700Y-120777238D01*
X135484976Y-120823720D01*
X135451424Y-120857712D01*
X135426166Y-120881400D01*
X135406321Y-120896968D01*
X135389007Y-120906602D01*
X135371345Y-120912488D01*
X135350454Y-120916812D01*
X135344280Y-120917924D01*
X135299687Y-120922794D01*
X135247333Y-120924023D01*
X135208769Y-120922184D01*
X135161851Y-120919649D01*
X135131430Y-120923309D01*
X135114161Y-120934973D01*
X135106699Y-120956449D01*
X135105520Y-120978008D01*
X135110762Y-121014267D01*
X135128130Y-121036578D01*
X135160087Y-121047082D01*
X135186695Y-121048610D01*
X135227744Y-121049698D01*
X135250651Y-121054312D01*
X135257539Y-121064473D01*
X135250532Y-121082200D01*
X135239457Y-121098843D01*
X135215756Y-121126273D01*
X135183295Y-121156610D01*
X135159180Y-121175763D01*
X135115612Y-121208688D01*
X135087396Y-121233836D01*
X135072463Y-121253888D01*
X135068745Y-121271526D01*
X135073146Y-121287269D01*
X135091160Y-121308017D01*
X135114526Y-121311158D01*
X135137260Y-121295891D01*
X135137296Y-121295848D01*
X135153070Y-121281497D01*
X135179842Y-121261441D01*
X135205647Y-121244053D01*
X135258100Y-121208712D01*
X135297813Y-121177462D01*
X135330430Y-121145740D01*
X135338972Y-121136253D01*
X135374398Y-121096422D01*
X135400475Y-121069319D01*
X135420989Y-121052165D01*
X135439727Y-121042183D01*
X135460474Y-121036596D01*
X135478689Y-121033748D01*
X135510765Y-121030893D01*
X135535083Y-121031528D01*
X135542754Y-121033588D01*
X135555748Y-121035715D01*
X135586120Y-121037902D01*
X135630929Y-121040025D01*
X135687233Y-121041961D01*
X135752091Y-121043584D01*
X135799762Y-121044449D01*
X135882715Y-121046071D01*
X135972059Y-121048410D01*
X136061461Y-121051257D01*
X136144590Y-121054409D01*
X136215113Y-121057660D01*
X136228200Y-121058362D01*
X136298035Y-121061733D01*
X136371127Y-121064411D01*
X136440886Y-121066209D01*
X136500724Y-121066942D01*
X136527920Y-121066812D01*
X136587050Y-121066307D01*
X136650441Y-121066324D01*
X136708574Y-121066837D01*
X136736200Y-121067354D01*
X136778953Y-121068707D01*
X136804277Y-121070669D01*
X136815063Y-121073912D01*
X136814201Y-121079113D01*
X136808348Y-121084178D01*
X136787657Y-121095752D01*
X136756305Y-121109058D01*
X136737228Y-121115850D01*
X136709164Y-121126440D01*
X136667913Y-121143662D01*
X136618551Y-121165240D01*
X136566155Y-121188899D01*
X136515801Y-121212362D01*
X136472566Y-121233354D01*
X136453948Y-121242870D01*
X136435282Y-121251328D01*
X136404591Y-121263941D01*
X136372668Y-121276383D01*
X136309938Y-121301249D01*
X136234241Y-121332930D01*
X136150805Y-121369187D01*
X136064855Y-121407782D01*
X136050400Y-121414401D01*
X136002537Y-121436152D01*
X135945016Y-121461950D01*
X135886831Y-121487774D01*
X135857360Y-121500725D01*
X135807326Y-121523529D01*
X135757566Y-121547771D01*
X135714989Y-121570010D01*
X135693737Y-121582190D01*
X135656117Y-121602634D01*
X135608408Y-121625050D01*
X135559852Y-121645145D01*
X135551497Y-121648272D01*
X135507799Y-121665555D01*
X135453247Y-121688979D01*
X135395044Y-121715368D01*
X135344280Y-121739625D01*
X135296178Y-121763056D01*
X135241189Y-121789397D01*
X135182251Y-121817291D01*
X135122299Y-121845379D01*
X135064269Y-121872304D01*
X135011096Y-121896707D01*
X134965716Y-121917230D01*
X134931066Y-121932516D01*
X134910081Y-121941206D01*
X134905295Y-121942690D01*
X134894300Y-121947046D01*
X134869204Y-121958851D01*
X134833949Y-121976206D01*
X134799751Y-121993490D01*
X134757639Y-122014212D01*
X134720865Y-122030856D01*
X134693945Y-122041464D01*
X134682605Y-122044290D01*
X134672190Y-122045523D01*
X134657056Y-122050003D01*
X134634387Y-122058902D01*
X134601364Y-122073389D01*
X134555168Y-122094638D01*
X134506080Y-122117645D01*
X134462258Y-122138059D01*
X134430381Y-122152123D01*
X134404127Y-122162389D01*
X134377172Y-122171407D01*
X134358760Y-122177058D01*
X134335319Y-122185838D01*
X134298193Y-122201666D01*
X134251847Y-122222456D01*
X134200748Y-122246123D01*
X134149363Y-122270580D01*
X134102156Y-122293742D01*
X134063595Y-122313523D01*
X134046340Y-122322973D01*
X134015469Y-122340568D01*
X133990460Y-122354785D01*
X133965564Y-122367927D01*
X133931178Y-122384903D01*
X133906640Y-122396502D01*
X133833029Y-122430664D01*
X133775861Y-122457579D01*
X133733103Y-122478455D01*
X133702722Y-122494500D01*
X133682682Y-122506921D01*
X133670951Y-122516926D01*
X133665494Y-122525721D01*
X133664278Y-122534515D01*
X133664717Y-122540119D01*
X133670135Y-122559200D01*
X133684761Y-122567904D01*
X133703484Y-122570534D01*
X133730706Y-122569470D01*
X133749623Y-122562865D01*
X133750736Y-122561890D01*
X133766103Y-122553216D01*
X133794698Y-122542084D01*
X133826893Y-122531926D01*
X133904096Y-122506510D01*
X133978903Y-122475555D01*
X134041841Y-122443070D01*
X134067583Y-122429083D01*
X134086475Y-122421003D01*
X134090391Y-122420210D01*
X134103915Y-122415907D01*
X134129784Y-122404641D01*
X134161636Y-122389227D01*
X134194539Y-122373641D01*
X134244660Y-122351318D01*
X134310311Y-122322975D01*
X134389805Y-122289325D01*
X134481454Y-122251085D01*
X134583572Y-122208968D01*
X134678800Y-122170063D01*
X134731381Y-122148108D01*
X134790638Y-122122518D01*
X134844883Y-122098349D01*
X134851520Y-122095317D01*
X134892929Y-122076318D01*
X134946653Y-122051661D01*
X135006541Y-122024168D01*
X135066443Y-121996661D01*
X135083040Y-121989039D01*
X135132850Y-121966284D01*
X135175853Y-121946867D01*
X135208814Y-121932233D01*
X135228493Y-121923825D01*
X135232569Y-121922370D01*
X135242750Y-121918140D01*
X135267848Y-121906498D01*
X135304556Y-121889010D01*
X135349564Y-121867246D01*
X135371889Y-121856354D01*
X135420800Y-121832973D01*
X135464230Y-121813230D01*
X135498471Y-121798733D01*
X135519815Y-121791091D01*
X135524021Y-121790314D01*
X135541846Y-121785801D01*
X135546549Y-121781637D01*
X135558499Y-121773399D01*
X135583096Y-121761931D01*
X135600489Y-121755104D01*
X135626360Y-121744492D01*
X135666053Y-121726869D01*
X135715181Y-121704244D01*
X135769357Y-121678624D01*
X135801480Y-121663126D01*
X135862475Y-121633630D01*
X135922118Y-121605160D01*
X135983904Y-121576092D01*
X136051327Y-121544800D01*
X136127882Y-121509659D01*
X136217062Y-121469046D01*
X136289160Y-121436360D01*
X136339104Y-121414298D01*
X136392172Y-121391736D01*
X136439124Y-121372579D01*
X136451720Y-121367662D01*
X136499270Y-121348188D01*
X136552326Y-121324641D01*
X136593960Y-121304781D01*
X136644930Y-121280329D01*
X136710267Y-121250838D01*
X136791205Y-121215772D01*
X136888974Y-121174596D01*
X136980040Y-121136936D01*
X137081640Y-121095191D01*
X137356790Y-121093876D01*
X137429939Y-121093267D01*
X137496647Y-121092217D01*
X137554149Y-121090807D01*
X137599677Y-121089123D01*
X137630467Y-121087246D01*
X137643751Y-121085261D01*
X137643810Y-121085226D01*
X137654936Y-121068278D01*
X137650474Y-121044576D01*
X137631380Y-121019163D01*
X137631257Y-121019047D01*
X137614696Y-121007253D01*
X137590908Y-120998089D01*
X137555560Y-120990318D01*
X137504317Y-120982705D01*
X137503438Y-120982590D01*
X137459897Y-120976528D01*
X137424439Y-120970890D01*
X137401537Y-120966429D01*
X137395371Y-120964406D01*
X137402325Y-120959089D01*
X137424720Y-120948099D01*
X137459032Y-120933059D01*
X137500330Y-120916148D01*
X137552838Y-120894644D01*
X137606593Y-120871578D01*
X137654002Y-120850256D01*
X137678287Y-120838666D01*
X137714459Y-120822061D01*
X137745933Y-120809977D01*
X137766392Y-120804813D01*
X137767544Y-120804770D01*
X137802466Y-120795806D01*
X137831533Y-120772590D01*
X137850306Y-120740632D01*
X137854347Y-120705443D01*
X137853036Y-120698659D01*
X137837518Y-120673731D01*
X137810416Y-120658192D01*
X137779166Y-120654276D01*
X137751201Y-120664217D01*
X137747751Y-120667039D01*
X137733389Y-120675802D01*
X137703747Y-120690894D01*
X137662241Y-120710678D01*
X137612286Y-120733517D01*
X137569151Y-120752618D01*
X137503484Y-120781765D01*
X137432621Y-120814007D01*
X137363566Y-120846109D01*
X137303325Y-120874835D01*
X137282717Y-120884927D01*
X137215326Y-120917792D01*
X137162307Y-120942042D01*
X137120116Y-120958654D01*
X137085210Y-120968605D01*
X137054046Y-120972869D01*
X137023081Y-120972424D01*
X136988773Y-120968245D01*
X136983383Y-120967399D01*
X136948324Y-120963264D01*
X136898016Y-120959294D01*
X136837527Y-120955793D01*
X136771928Y-120953065D01*
X136720960Y-120951678D01*
X136649354Y-120950030D01*
X136573670Y-120947956D01*
X136500671Y-120945665D01*
X136437118Y-120943362D01*
X136406000Y-120942045D01*
X136364633Y-120940337D01*
X136306489Y-120938205D01*
X136235106Y-120935764D01*
X136154021Y-120933131D01*
X136066771Y-120930421D01*
X135976892Y-120927751D01*
X135924111Y-120926242D01*
X135841322Y-120923826D01*
X135765199Y-120921436D01*
X135698071Y-120919160D01*
X135642264Y-120917083D01*
X135600108Y-120915292D01*
X135573932Y-120913871D01*
X135565975Y-120913011D01*
X135571320Y-120904918D01*
X135588271Y-120885280D01*
X135614191Y-120857041D01*
X135646442Y-120823147D01*
X135646545Y-120823039D01*
X135684511Y-120783578D01*
X135721853Y-120744459D01*
X135753688Y-120710815D01*
X135771436Y-120691802D01*
X135801858Y-120660987D01*
X135834232Y-120631400D01*
X135850176Y-120618291D01*
X135876858Y-120592894D01*
X135887360Y-120568658D01*
X135887840Y-120561445D01*
X135883975Y-120535412D01*
X135870526Y-120517642D01*
X135844713Y-120506807D01*
X135803756Y-120501579D01*
X135760336Y-120500540D01*
X135711755Y-120499862D01*
X135664014Y-120498030D01*
X135625757Y-120495404D01*
X135618600Y-120494655D01*
X135578472Y-120489972D01*
X135538699Y-120485318D01*
X135527160Y-120483965D01*
X135493138Y-120480457D01*
X135450150Y-120476963D01*
X135395372Y-120473295D01*
X135325981Y-120469263D01*
X135239152Y-120464679D01*
X135237600Y-120464600D01*
X135067339Y-120455419D01*
X134913629Y-120446092D01*
X134777315Y-120436678D01*
X134659242Y-120427237D01*
X134560255Y-120417830D01*
X134521320Y-120413526D01*
X134449182Y-120404329D01*
X134369840Y-120392893D01*
X134287964Y-120380007D01*
X134208225Y-120366461D01*
X134135295Y-120353043D01*
X134073844Y-120340543D01*
X134033640Y-120331104D01*
X133965959Y-120315730D01*
X133914966Y-120309601D01*
X133879123Y-120312979D01*
G36*
X136191408Y-122611912D02*
G01*
X136156506Y-122639899D01*
X136123356Y-122668652D01*
X136081283Y-122702047D01*
X136038416Y-122733677D01*
X136030851Y-122738959D01*
X135988892Y-122768018D01*
X135945871Y-122797947D01*
X135909836Y-122823144D01*
X135903851Y-122827352D01*
X135838578Y-122873147D01*
X135787867Y-122908318D01*
X135749794Y-122934120D01*
X135722436Y-122951807D01*
X135703868Y-122962634D01*
X135692166Y-122967856D01*
X135686860Y-122968850D01*
X135673268Y-122962666D01*
X135648411Y-122946022D01*
X135616372Y-122921781D01*
X135594689Y-122904192D01*
X135553213Y-122870898D01*
X135509534Y-122837815D01*
X135471016Y-122810461D01*
X135459253Y-122802710D01*
X135429108Y-122782712D01*
X135406248Y-122766106D01*
X135395849Y-122756733D01*
X135382605Y-122747637D01*
X135363371Y-122740849D01*
X135337306Y-122740547D01*
X135312812Y-122756419D01*
X135312475Y-122756734D01*
X135292457Y-122785967D01*
X135292262Y-122816716D01*
X135311519Y-122848266D01*
X135349856Y-122879903D01*
X135388068Y-122901830D01*
X135417386Y-122917876D01*
X135438774Y-122931778D01*
X135445792Y-122938226D01*
X135456937Y-122948782D01*
X135480176Y-122966722D01*
X135510613Y-122988279D01*
X135512551Y-122989597D01*
X135542171Y-123010940D01*
X135563694Y-123028789D01*
X135572815Y-123039546D01*
X135572880Y-123040034D01*
X135565033Y-123049054D01*
X135543505Y-123067247D01*
X135511319Y-123092213D01*
X135471497Y-123121552D01*
X135458580Y-123130800D01*
X135409131Y-123166693D01*
X135358729Y-123204502D01*
X135313244Y-123239756D01*
X135278544Y-123267982D01*
X135278240Y-123268239D01*
X135236024Y-123302444D01*
X135188283Y-123338612D01*
X135145204Y-123369030D01*
X135144392Y-123369573D01*
X135109698Y-123393058D01*
X135079707Y-123414004D01*
X135060051Y-123428465D01*
X135058032Y-123430086D01*
X135019137Y-123460677D01*
X134972788Y-123494829D01*
X134924087Y-123529009D01*
X134878135Y-123559685D01*
X134840037Y-123583324D01*
X134823510Y-123592438D01*
X134787007Y-123613170D01*
X134752297Y-123636457D01*
X134737596Y-123648064D01*
X134689816Y-123685443D01*
X134628524Y-123726947D01*
X134572026Y-123761442D01*
X134538281Y-123782782D01*
X134499864Y-123809422D01*
X134479088Y-123824875D01*
X134411504Y-123876377D01*
X134347027Y-123924415D01*
X134288782Y-123966725D01*
X134239888Y-124001041D01*
X134203470Y-124025098D01*
X134201123Y-124026552D01*
X134173917Y-124044675D01*
X134155534Y-124059570D01*
X134150480Y-124066491D01*
X134142615Y-124075722D01*
X134121826Y-124092919D01*
X134092329Y-124115125D01*
X134058336Y-124139385D01*
X134024061Y-124162745D01*
X133993719Y-124182247D01*
X133971522Y-124194938D01*
X133962680Y-124198210D01*
X133946807Y-124205800D01*
X133926551Y-124224115D01*
X133908008Y-124246466D01*
X133897272Y-124266166D01*
X133896480Y-124270851D01*
X133905325Y-124293664D01*
X133927174Y-124310577D01*
X133954997Y-124319092D01*
X133981767Y-124316714D01*
X133996778Y-124306459D01*
X134012636Y-124294205D01*
X134039227Y-124279421D01*
X134051362Y-124273754D01*
X134080291Y-124258128D01*
X134117527Y-124234087D01*
X134155864Y-124206337D01*
X134162638Y-124201065D01*
X134194134Y-124176725D01*
X134219373Y-124158149D01*
X134234319Y-124148272D01*
X134236442Y-124147410D01*
X134246741Y-124141597D01*
X134268288Y-124126335D01*
X134296477Y-124104891D01*
X134297321Y-124104230D01*
X134356789Y-124058048D01*
X134402791Y-124023329D01*
X134437475Y-123998529D01*
X134462988Y-123982105D01*
X134479107Y-123973558D01*
X134498461Y-123962042D01*
X134506080Y-123952432D01*
X134514190Y-123944292D01*
X134536689Y-123927173D01*
X134570836Y-123903019D01*
X134613891Y-123873778D01*
X134655940Y-123846051D01*
X134704718Y-123813950D01*
X134747241Y-123785295D01*
X134780691Y-123762039D01*
X134802252Y-123746137D01*
X134809129Y-123739854D01*
X134819210Y-123730911D01*
X134842224Y-123716127D01*
X134870089Y-123700398D01*
X134906936Y-123678877D01*
X134951024Y-123650491D01*
X134993596Y-123620905D01*
X134998840Y-123617062D01*
X135070399Y-123564552D01*
X135127944Y-123523138D01*
X135173478Y-123491412D01*
X135209004Y-123467965D01*
X135224571Y-123458346D01*
X135253649Y-123438378D01*
X135288492Y-123410926D01*
X135314252Y-123388512D01*
X135344221Y-123362996D01*
X135384980Y-123330988D01*
X135430381Y-123297221D01*
X135461120Y-123275426D01*
X135506599Y-123243371D01*
X135552269Y-123210226D01*
X135591781Y-123180644D01*
X135611912Y-123164921D01*
X135642754Y-123142648D01*
X135670581Y-123126913D01*
X135688650Y-123121250D01*
X135709730Y-123127093D01*
X135738024Y-123141950D01*
X135752955Y-123152017D01*
X135774802Y-123165948D01*
X135811397Y-123186905D01*
X135859235Y-123212983D01*
X135914812Y-123242279D01*
X135974623Y-123272889D01*
X135986096Y-123278656D01*
X136045396Y-123308917D01*
X136100235Y-123337916D01*
X136147344Y-123363842D01*
X136183452Y-123384889D01*
X136205291Y-123399247D01*
X136207880Y-123401350D01*
X136244480Y-123428223D01*
X136275631Y-123440961D01*
X136298922Y-123439431D01*
X136311938Y-123423500D01*
X136313818Y-123407182D01*
X136302793Y-123364924D01*
X136272791Y-123321893D01*
X136230354Y-123283810D01*
X136208118Y-123267695D01*
X136184930Y-123252661D01*
X136156997Y-123236591D01*
X136120528Y-123217368D01*
X136071727Y-123192875D01*
X136035160Y-123174872D01*
X135999748Y-123156734D01*
X135959023Y-123134673D01*
X135916741Y-123110883D01*
X135876661Y-123087558D01*
X135842540Y-123066891D01*
X135818134Y-123051074D01*
X135807201Y-123042303D01*
X135806953Y-123041649D01*
X135814887Y-123033149D01*
X135835739Y-123016236D01*
X135865653Y-122993968D01*
X135879516Y-122984090D01*
X135977101Y-122914765D01*
X136058631Y-122855358D01*
X136125216Y-122804911D01*
X136177967Y-122762469D01*
X136217993Y-122727075D01*
X136246406Y-122697773D01*
X136264316Y-122673606D01*
X136272834Y-122653619D01*
X136273920Y-122644483D01*
X136267928Y-122612195D01*
X136251066Y-122595960D01*
X136225002Y-122595844D01*
X136191408Y-122611912D01*
G37*
X136191408Y-122611912D02*
X136156506Y-122639899D01*
X136123356Y-122668652D01*
X136081283Y-122702047D01*
X136038416Y-122733677D01*
X136030851Y-122738959D01*
X135988892Y-122768018D01*
X135945871Y-122797947D01*
X135909836Y-122823144D01*
X135903851Y-122827352D01*
X135838578Y-122873147D01*
X135787867Y-122908318D01*
X135749794Y-122934120D01*
X135722436Y-122951807D01*
X135703868Y-122962634D01*
X135692166Y-122967856D01*
X135686860Y-122968850D01*
X135673268Y-122962666D01*
X135648411Y-122946022D01*
X135616372Y-122921781D01*
X135594689Y-122904192D01*
X135553213Y-122870898D01*
X135509534Y-122837815D01*
X135471016Y-122810461D01*
X135459253Y-122802710D01*
X135429108Y-122782712D01*
X135406248Y-122766106D01*
X135395849Y-122756733D01*
X135382605Y-122747637D01*
X135363371Y-122740849D01*
X135337306Y-122740547D01*
X135312812Y-122756419D01*
X135312475Y-122756734D01*
X135292457Y-122785967D01*
X135292262Y-122816716D01*
X135311519Y-122848266D01*
X135349856Y-122879903D01*
X135388068Y-122901830D01*
X135417386Y-122917876D01*
X135438774Y-122931778D01*
X135445792Y-122938226D01*
X135456937Y-122948782D01*
X135480176Y-122966722D01*
X135510613Y-122988279D01*
X135512551Y-122989597D01*
X135542171Y-123010940D01*
X135563694Y-123028789D01*
X135572815Y-123039546D01*
X135572880Y-123040034D01*
X135565033Y-123049054D01*
X135543505Y-123067247D01*
X135511319Y-123092213D01*
X135471497Y-123121552D01*
X135458580Y-123130800D01*
X135409131Y-123166693D01*
X135358729Y-123204502D01*
X135313244Y-123239756D01*
X135278544Y-123267982D01*
X135278240Y-123268239D01*
X135236024Y-123302444D01*
X135188283Y-123338612D01*
X135145204Y-123369030D01*
X135144392Y-123369573D01*
X135109698Y-123393058D01*
X135079707Y-123414004D01*
X135060051Y-123428465D01*
X135058032Y-123430086D01*
X135019137Y-123460677D01*
X134972788Y-123494829D01*
X134924087Y-123529009D01*
X134878135Y-123559685D01*
X134840037Y-123583324D01*
X134823510Y-123592438D01*
X134787007Y-123613170D01*
X134752297Y-123636457D01*
X134737596Y-123648064D01*
X134689816Y-123685443D01*
X134628524Y-123726947D01*
X134572026Y-123761442D01*
X134538281Y-123782782D01*
X134499864Y-123809422D01*
X134479088Y-123824875D01*
X134411504Y-123876377D01*
X134347027Y-123924415D01*
X134288782Y-123966725D01*
X134239888Y-124001041D01*
X134203470Y-124025098D01*
X134201123Y-124026552D01*
X134173917Y-124044675D01*
X134155534Y-124059570D01*
X134150480Y-124066491D01*
X134142615Y-124075722D01*
X134121826Y-124092919D01*
X134092329Y-124115125D01*
X134058336Y-124139385D01*
X134024061Y-124162745D01*
X133993719Y-124182247D01*
X133971522Y-124194938D01*
X133962680Y-124198210D01*
X133946807Y-124205800D01*
X133926551Y-124224115D01*
X133908008Y-124246466D01*
X133897272Y-124266166D01*
X133896480Y-124270851D01*
X133905325Y-124293664D01*
X133927174Y-124310577D01*
X133954997Y-124319092D01*
X133981767Y-124316714D01*
X133996778Y-124306459D01*
X134012636Y-124294205D01*
X134039227Y-124279421D01*
X134051362Y-124273754D01*
X134080291Y-124258128D01*
X134117527Y-124234087D01*
X134155864Y-124206337D01*
X134162638Y-124201065D01*
X134194134Y-124176725D01*
X134219373Y-124158149D01*
X134234319Y-124148272D01*
X134236442Y-124147410D01*
X134246741Y-124141597D01*
X134268288Y-124126335D01*
X134296477Y-124104891D01*
X134297321Y-124104230D01*
X134356789Y-124058048D01*
X134402791Y-124023329D01*
X134437475Y-123998529D01*
X134462988Y-123982105D01*
X134479107Y-123973558D01*
X134498461Y-123962042D01*
X134506080Y-123952432D01*
X134514190Y-123944292D01*
X134536689Y-123927173D01*
X134570836Y-123903019D01*
X134613891Y-123873778D01*
X134655940Y-123846051D01*
X134704718Y-123813950D01*
X134747241Y-123785295D01*
X134780691Y-123762039D01*
X134802252Y-123746137D01*
X134809129Y-123739854D01*
X134819210Y-123730911D01*
X134842224Y-123716127D01*
X134870089Y-123700398D01*
X134906936Y-123678877D01*
X134951024Y-123650491D01*
X134993596Y-123620905D01*
X134998840Y-123617062D01*
X135070399Y-123564552D01*
X135127944Y-123523138D01*
X135173478Y-123491412D01*
X135209004Y-123467965D01*
X135224571Y-123458346D01*
X135253649Y-123438378D01*
X135288492Y-123410926D01*
X135314252Y-123388512D01*
X135344221Y-123362996D01*
X135384980Y-123330988D01*
X135430381Y-123297221D01*
X135461120Y-123275426D01*
X135506599Y-123243371D01*
X135552269Y-123210226D01*
X135591781Y-123180644D01*
X135611912Y-123164921D01*
X135642754Y-123142648D01*
X135670581Y-123126913D01*
X135688650Y-123121250D01*
X135709730Y-123127093D01*
X135738024Y-123141950D01*
X135752955Y-123152017D01*
X135774802Y-123165948D01*
X135811397Y-123186905D01*
X135859235Y-123212983D01*
X135914812Y-123242279D01*
X135974623Y-123272889D01*
X135986096Y-123278656D01*
X136045396Y-123308917D01*
X136100235Y-123337916D01*
X136147344Y-123363842D01*
X136183452Y-123384889D01*
X136205291Y-123399247D01*
X136207880Y-123401350D01*
X136244480Y-123428223D01*
X136275631Y-123440961D01*
X136298922Y-123439431D01*
X136311938Y-123423500D01*
X136313818Y-123407182D01*
X136302793Y-123364924D01*
X136272791Y-123321893D01*
X136230354Y-123283810D01*
X136208118Y-123267695D01*
X136184930Y-123252661D01*
X136156997Y-123236591D01*
X136120528Y-123217368D01*
X136071727Y-123192875D01*
X136035160Y-123174872D01*
X135999748Y-123156734D01*
X135959023Y-123134673D01*
X135916741Y-123110883D01*
X135876661Y-123087558D01*
X135842540Y-123066891D01*
X135818134Y-123051074D01*
X135807201Y-123042303D01*
X135806953Y-123041649D01*
X135814887Y-123033149D01*
X135835739Y-123016236D01*
X135865653Y-122993968D01*
X135879516Y-122984090D01*
X135977101Y-122914765D01*
X136058631Y-122855358D01*
X136125216Y-122804911D01*
X136177967Y-122762469D01*
X136217993Y-122727075D01*
X136246406Y-122697773D01*
X136264316Y-122673606D01*
X136272834Y-122653619D01*
X136273920Y-122644483D01*
X136267928Y-122612195D01*
X136251066Y-122595960D01*
X136225002Y-122595844D01*
X136191408Y-122611912D01*
G36*
X136199016Y-123609253D02*
G01*
X136166443Y-123617734D01*
X136146671Y-123641467D01*
X136140076Y-123679624D01*
X136145892Y-123726420D01*
X136147845Y-123739189D01*
X136146700Y-123751904D01*
X136140933Y-123766754D01*
X136129021Y-123785928D01*
X136109443Y-123811614D01*
X136080674Y-123846000D01*
X136041192Y-123891275D01*
X135994520Y-123943951D01*
X135955736Y-123988252D01*
X135917389Y-124033211D01*
X135883856Y-124073624D01*
X135859519Y-124104290D01*
X135859178Y-124104739D01*
X135832669Y-124137896D01*
X135797689Y-124179176D01*
X135759841Y-124222046D01*
X135739835Y-124243930D01*
X135705820Y-124280680D01*
X135674194Y-124315029D01*
X135649225Y-124342332D01*
X135638178Y-124354557D01*
X135624065Y-124369289D01*
X135610768Y-124377574D01*
X135592612Y-124380659D01*
X135563926Y-124379793D01*
X135534000Y-124377458D01*
X135494285Y-124374582D01*
X135440732Y-124371273D01*
X135379807Y-124367904D01*
X135317977Y-124364847D01*
X135306186Y-124364311D01*
X135247341Y-124361896D01*
X135205304Y-124360929D01*
X135176595Y-124361648D01*
X135157738Y-124364292D01*
X135145255Y-124369100D01*
X135136006Y-124376005D01*
X135118347Y-124403452D01*
X135119490Y-124433288D01*
X135136236Y-124457502D01*
X135149453Y-124467003D01*
X135166556Y-124472827D01*
X135191940Y-124475544D01*
X135229999Y-124475724D01*
X135268080Y-124474588D01*
X135306889Y-124474180D01*
X135352432Y-124475248D01*
X135400425Y-124477488D01*
X135446586Y-124480597D01*
X135486633Y-124484273D01*
X135516282Y-124488212D01*
X135531250Y-124492111D01*
X135532240Y-124493285D01*
X135525645Y-124505142D01*
X135508954Y-124525087D01*
X135498979Y-124535540D01*
X135447864Y-124591018D01*
X135405472Y-124645016D01*
X135373709Y-124694625D01*
X135354479Y-124736938D01*
X135349398Y-124763822D01*
X135352418Y-124787362D01*
X135365512Y-124798725D01*
X135379245Y-124802599D01*
X135412282Y-124803576D01*
X135439757Y-124789101D01*
X135464369Y-124757255D01*
X135476915Y-124733229D01*
X135498255Y-124695195D01*
X135526367Y-124653926D01*
X135545622Y-124629662D01*
X135573089Y-124596582D01*
X135598849Y-124563472D01*
X135613087Y-124543650D01*
X135632024Y-124517931D01*
X135649236Y-124498413D01*
X135652598Y-124495390D01*
X135674204Y-124487403D01*
X135711446Y-124483543D01*
X135760072Y-124483748D01*
X135815835Y-124487961D01*
X135874483Y-124496122D01*
X135888477Y-124498655D01*
X135929368Y-124505520D01*
X135964000Y-124509719D01*
X135986459Y-124510585D01*
X135989960Y-124510090D01*
X136006662Y-124509881D01*
X136038437Y-124512828D01*
X136080378Y-124518385D01*
X136117742Y-124524308D01*
X136167982Y-124532176D01*
X136215599Y-124538481D01*
X136254138Y-124542424D01*
X136272048Y-124543353D01*
X136303814Y-124545722D01*
X136329152Y-124551264D01*
X136333934Y-124553303D01*
X136352365Y-124572366D01*
X136372895Y-124611021D01*
X136395572Y-124669399D01*
X136420443Y-124747634D01*
X136447558Y-124845856D01*
X136462205Y-124903443D01*
X136481263Y-124978873D01*
X136496929Y-125036748D01*
X136510230Y-125079346D01*
X136522193Y-125108946D01*
X136533846Y-125127825D01*
X136546215Y-125138262D01*
X136560329Y-125142536D01*
X136570268Y-125143090D01*
X136588491Y-125135203D01*
X136605225Y-125117430D01*
X136613078Y-125103527D01*
X136616659Y-125088856D01*
X136615948Y-125068267D01*
X136610923Y-125036612D01*
X136604764Y-125004788D01*
X136594427Y-124959206D01*
X136579620Y-124902188D01*
X136562448Y-124841527D01*
X136547545Y-124792861D01*
X136532416Y-124744080D01*
X136519916Y-124700998D01*
X136511253Y-124667988D01*
X136507638Y-124649419D01*
X136507600Y-124648454D01*
X136503240Y-124627141D01*
X136498582Y-124619341D01*
X136488251Y-124602001D01*
X136483467Y-124589370D01*
X136481880Y-124581420D01*
X136484690Y-124575981D01*
X136494866Y-124572699D01*
X136515375Y-124571220D01*
X136549183Y-124571191D01*
X136599258Y-124572258D01*
X136622025Y-124572847D01*
X136679217Y-124574256D01*
X136733751Y-124575435D01*
X136780128Y-124576277D01*
X136812849Y-124576672D01*
X136817480Y-124576688D01*
X136848101Y-124578702D01*
X136869679Y-124583789D01*
X136875126Y-124587478D01*
X136886948Y-124592586D01*
X136895446Y-124587809D01*
X136914190Y-124581661D01*
X136941764Y-124580660D01*
X136944480Y-124580894D01*
X136972235Y-124583488D01*
X137006863Y-124586449D01*
X137051200Y-124589999D01*
X137108085Y-124594362D01*
X137180352Y-124599760D01*
X137243749Y-124604432D01*
X137299410Y-124609000D01*
X137349577Y-124614011D01*
X137389934Y-124618966D01*
X137416166Y-124623370D01*
X137422000Y-124624960D01*
X137452180Y-124632256D01*
X137472800Y-124634025D01*
X137498647Y-124635968D01*
X137532599Y-124641124D01*
X137543920Y-124643338D01*
X137625841Y-124659404D01*
X137690257Y-124669407D01*
X137739071Y-124673310D01*
X137774184Y-124671078D01*
X137797498Y-124662674D01*
X137810916Y-124648062D01*
X137814575Y-124638152D01*
X137816075Y-124612210D01*
X137811141Y-124595417D01*
X137793293Y-124581612D01*
X137760964Y-124569134D01*
X137719987Y-124559657D01*
X137676197Y-124554856D01*
X137669011Y-124554627D01*
X137635383Y-124551813D01*
X137592983Y-124545401D01*
X137562331Y-124539255D01*
X137489292Y-124525345D01*
X137398913Y-124512540D01*
X137294153Y-124501067D01*
X137177973Y-124491156D01*
X137053334Y-124483035D01*
X136923195Y-124476935D01*
X136790518Y-124473083D01*
X136690480Y-124471804D01*
X136606082Y-124470444D01*
X136539850Y-124466837D01*
X136489683Y-124460159D01*
X136453477Y-124449586D01*
X136429130Y-124434292D01*
X136420066Y-124421347D01*
X136310174Y-124421347D01*
X136308842Y-124432922D01*
X136295677Y-124438162D01*
X136272022Y-124437522D01*
X136270588Y-124437293D01*
X136251601Y-124434511D01*
X136215706Y-124429608D01*
X136166151Y-124423013D01*
X136106188Y-124415156D01*
X136039067Y-124406468D01*
X135994729Y-124400783D01*
X135926720Y-124391931D01*
X135865639Y-124383672D01*
X135814304Y-124376412D01*
X135775531Y-124370556D01*
X135752137Y-124366512D01*
X135746422Y-124364977D01*
X135750337Y-124356696D01*
X135766294Y-124343278D01*
X135766533Y-124343112D01*
X135811388Y-124307104D01*
X135861127Y-124259081D01*
X135910347Y-124204547D01*
X135943696Y-124162650D01*
X135968411Y-124130754D01*
X135999693Y-124092156D01*
X136034949Y-124049853D01*
X136071584Y-124006843D01*
X136107006Y-123966123D01*
X136138622Y-123930691D01*
X136163838Y-123903545D01*
X136180060Y-123887684D01*
X136183926Y-123884945D01*
X136188180Y-123883785D01*
X136191794Y-123886163D01*
X136195726Y-123895152D01*
X136200933Y-123913827D01*
X136208372Y-123945261D01*
X136219002Y-123992529D01*
X136222955Y-124010250D01*
X136234077Y-124057045D01*
X136245434Y-124099716D01*
X136255344Y-124132148D01*
X136259767Y-124143865D01*
X136267899Y-124172679D01*
X136273017Y-124210855D01*
X136273920Y-124232903D01*
X136275466Y-124267868D01*
X136279436Y-124296378D01*
X136282880Y-124307567D01*
X136292128Y-124331609D01*
X136300730Y-124363269D01*
X136307230Y-124395522D01*
X136310174Y-124421347D01*
X136420066Y-124421347D01*
X136414539Y-124413454D01*
X136407601Y-124386247D01*
X136406150Y-124360340D01*
X136403866Y-124340726D01*
X136397539Y-124304369D01*
X136387825Y-124254296D01*
X136375382Y-124193532D01*
X136360869Y-124125104D01*
X136344943Y-124052037D01*
X136328262Y-123977357D01*
X136311484Y-123904091D01*
X136295267Y-123835264D01*
X136280268Y-123773903D01*
X136269711Y-123732692D01*
X136255017Y-123680181D01*
X136242436Y-123644602D01*
X136230239Y-123622934D01*
X136216696Y-123612155D01*
X136200077Y-123609244D01*
X136199016Y-123609253D01*
G37*
X136199016Y-123609253D02*
X136166443Y-123617734D01*
X136146671Y-123641467D01*
X136140076Y-123679624D01*
X136145892Y-123726420D01*
X136147845Y-123739189D01*
X136146700Y-123751904D01*
X136140933Y-123766754D01*
X136129021Y-123785928D01*
X136109443Y-123811614D01*
X136080674Y-123846000D01*
X136041192Y-123891275D01*
X135994520Y-123943951D01*
X135955736Y-123988252D01*
X135917389Y-124033211D01*
X135883856Y-124073624D01*
X135859519Y-124104290D01*
X135859178Y-124104739D01*
X135832669Y-124137896D01*
X135797689Y-124179176D01*
X135759841Y-124222046D01*
X135739835Y-124243930D01*
X135705820Y-124280680D01*
X135674194Y-124315029D01*
X135649225Y-124342332D01*
X135638178Y-124354557D01*
X135624065Y-124369289D01*
X135610768Y-124377574D01*
X135592612Y-124380659D01*
X135563926Y-124379793D01*
X135534000Y-124377458D01*
X135494285Y-124374582D01*
X135440732Y-124371273D01*
X135379807Y-124367904D01*
X135317977Y-124364847D01*
X135306186Y-124364311D01*
X135247341Y-124361896D01*
X135205304Y-124360929D01*
X135176595Y-124361648D01*
X135157738Y-124364292D01*
X135145255Y-124369100D01*
X135136006Y-124376005D01*
X135118347Y-124403452D01*
X135119490Y-124433288D01*
X135136236Y-124457502D01*
X135149453Y-124467003D01*
X135166556Y-124472827D01*
X135191940Y-124475544D01*
X135229999Y-124475724D01*
X135268080Y-124474588D01*
X135306889Y-124474180D01*
X135352432Y-124475248D01*
X135400425Y-124477488D01*
X135446586Y-124480597D01*
X135486633Y-124484273D01*
X135516282Y-124488212D01*
X135531250Y-124492111D01*
X135532240Y-124493285D01*
X135525645Y-124505142D01*
X135508954Y-124525087D01*
X135498979Y-124535540D01*
X135447864Y-124591018D01*
X135405472Y-124645016D01*
X135373709Y-124694625D01*
X135354479Y-124736938D01*
X135349398Y-124763822D01*
X135352418Y-124787362D01*
X135365512Y-124798725D01*
X135379245Y-124802599D01*
X135412282Y-124803576D01*
X135439757Y-124789101D01*
X135464369Y-124757255D01*
X135476915Y-124733229D01*
X135498255Y-124695195D01*
X135526367Y-124653926D01*
X135545622Y-124629662D01*
X135573089Y-124596582D01*
X135598849Y-124563472D01*
X135613087Y-124543650D01*
X135632024Y-124517931D01*
X135649236Y-124498413D01*
X135652598Y-124495390D01*
X135674204Y-124487403D01*
X135711446Y-124483543D01*
X135760072Y-124483748D01*
X135815835Y-124487961D01*
X135874483Y-124496122D01*
X135888477Y-124498655D01*
X135929368Y-124505520D01*
X135964000Y-124509719D01*
X135986459Y-124510585D01*
X135989960Y-124510090D01*
X136006662Y-124509881D01*
X136038437Y-124512828D01*
X136080378Y-124518385D01*
X136117742Y-124524308D01*
X136167982Y-124532176D01*
X136215599Y-124538481D01*
X136254138Y-124542424D01*
X136272048Y-124543353D01*
X136303814Y-124545722D01*
X136329152Y-124551264D01*
X136333934Y-124553303D01*
X136352365Y-124572366D01*
X136372895Y-124611021D01*
X136395572Y-124669399D01*
X136420443Y-124747634D01*
X136447558Y-124845856D01*
X136462205Y-124903443D01*
X136481263Y-124978873D01*
X136496929Y-125036748D01*
X136510230Y-125079346D01*
X136522193Y-125108946D01*
X136533846Y-125127825D01*
X136546215Y-125138262D01*
X136560329Y-125142536D01*
X136570268Y-125143090D01*
X136588491Y-125135203D01*
X136605225Y-125117430D01*
X136613078Y-125103527D01*
X136616659Y-125088856D01*
X136615948Y-125068267D01*
X136610923Y-125036612D01*
X136604764Y-125004788D01*
X136594427Y-124959206D01*
X136579620Y-124902188D01*
X136562448Y-124841527D01*
X136547545Y-124792861D01*
X136532416Y-124744080D01*
X136519916Y-124700998D01*
X136511253Y-124667988D01*
X136507638Y-124649419D01*
X136507600Y-124648454D01*
X136503240Y-124627141D01*
X136498582Y-124619341D01*
X136488251Y-124602001D01*
X136483467Y-124589370D01*
X136481880Y-124581420D01*
X136484690Y-124575981D01*
X136494866Y-124572699D01*
X136515375Y-124571220D01*
X136549183Y-124571191D01*
X136599258Y-124572258D01*
X136622025Y-124572847D01*
X136679217Y-124574256D01*
X136733751Y-124575435D01*
X136780128Y-124576277D01*
X136812849Y-124576672D01*
X136817480Y-124576688D01*
X136848101Y-124578702D01*
X136869679Y-124583789D01*
X136875126Y-124587478D01*
X136886948Y-124592586D01*
X136895446Y-124587809D01*
X136914190Y-124581661D01*
X136941764Y-124580660D01*
X136944480Y-124580894D01*
X136972235Y-124583488D01*
X137006863Y-124586449D01*
X137051200Y-124589999D01*
X137108085Y-124594362D01*
X137180352Y-124599760D01*
X137243749Y-124604432D01*
X137299410Y-124609000D01*
X137349577Y-124614011D01*
X137389934Y-124618966D01*
X137416166Y-124623370D01*
X137422000Y-124624960D01*
X137452180Y-124632256D01*
X137472800Y-124634025D01*
X137498647Y-124635968D01*
X137532599Y-124641124D01*
X137543920Y-124643338D01*
X137625841Y-124659404D01*
X137690257Y-124669407D01*
X137739071Y-124673310D01*
X137774184Y-124671078D01*
X137797498Y-124662674D01*
X137810916Y-124648062D01*
X137814575Y-124638152D01*
X137816075Y-124612210D01*
X137811141Y-124595417D01*
X137793293Y-124581612D01*
X137760964Y-124569134D01*
X137719987Y-124559657D01*
X137676197Y-124554856D01*
X137669011Y-124554627D01*
X137635383Y-124551813D01*
X137592983Y-124545401D01*
X137562331Y-124539255D01*
X137489292Y-124525345D01*
X137398913Y-124512540D01*
X137294153Y-124501067D01*
X137177973Y-124491156D01*
X137053334Y-124483035D01*
X136923195Y-124476935D01*
X136790518Y-124473083D01*
X136690480Y-124471804D01*
X136606082Y-124470444D01*
X136539850Y-124466837D01*
X136489683Y-124460159D01*
X136453477Y-124449586D01*
X136429130Y-124434292D01*
X136420066Y-124421347D01*
X136310174Y-124421347D01*
X136308842Y-124432922D01*
X136295677Y-124438162D01*
X136272022Y-124437522D01*
X136270588Y-124437293D01*
X136251601Y-124434511D01*
X136215706Y-124429608D01*
X136166151Y-124423013D01*
X136106188Y-124415156D01*
X136039067Y-124406468D01*
X135994729Y-124400783D01*
X135926720Y-124391931D01*
X135865639Y-124383672D01*
X135814304Y-124376412D01*
X135775531Y-124370556D01*
X135752137Y-124366512D01*
X135746422Y-124364977D01*
X135750337Y-124356696D01*
X135766294Y-124343278D01*
X135766533Y-124343112D01*
X135811388Y-124307104D01*
X135861127Y-124259081D01*
X135910347Y-124204547D01*
X135943696Y-124162650D01*
X135968411Y-124130754D01*
X135999693Y-124092156D01*
X136034949Y-124049853D01*
X136071584Y-124006843D01*
X136107006Y-123966123D01*
X136138622Y-123930691D01*
X136163838Y-123903545D01*
X136180060Y-123887684D01*
X136183926Y-123884945D01*
X136188180Y-123883785D01*
X136191794Y-123886163D01*
X136195726Y-123895152D01*
X136200933Y-123913827D01*
X136208372Y-123945261D01*
X136219002Y-123992529D01*
X136222955Y-124010250D01*
X136234077Y-124057045D01*
X136245434Y-124099716D01*
X136255344Y-124132148D01*
X136259767Y-124143865D01*
X136267899Y-124172679D01*
X136273017Y-124210855D01*
X136273920Y-124232903D01*
X136275466Y-124267868D01*
X136279436Y-124296378D01*
X136282880Y-124307567D01*
X136292128Y-124331609D01*
X136300730Y-124363269D01*
X136307230Y-124395522D01*
X136310174Y-124421347D01*
X136420066Y-124421347D01*
X136414539Y-124413454D01*
X136407601Y-124386247D01*
X136406150Y-124360340D01*
X136403866Y-124340726D01*
X136397539Y-124304369D01*
X136387825Y-124254296D01*
X136375382Y-124193532D01*
X136360869Y-124125104D01*
X136344943Y-124052037D01*
X136328262Y-123977357D01*
X136311484Y-123904091D01*
X136295267Y-123835264D01*
X136280268Y-123773903D01*
X136269711Y-123732692D01*
X136255017Y-123680181D01*
X136242436Y-123644602D01*
X136230239Y-123622934D01*
X136216696Y-123612155D01*
X136200077Y-123609244D01*
X136199016Y-123609253D01*
%TD*%
D11*
%TO.C, *%
X160316726Y-114914524D03*
X159150000Y-114431250D03*
X157983274Y-114914524D03*
X157500000Y-116081250D03*
X157983274Y-117247976D03*
X159150000Y-117731250D03*
X160316726Y-117247976D03*
X160800000Y-116081250D03*
D12*
X159150000Y-116081250D03*
%TD*%
D11*
%TO.C, *%
X238916726Y-114914524D03*
X237750000Y-114431250D03*
X236583274Y-114914524D03*
X236100000Y-116081250D03*
X236583274Y-117247976D03*
X237750000Y-117731250D03*
X238916726Y-117247976D03*
X239400000Y-116081250D03*
D12*
X237750000Y-116081250D03*
%TD*%
D11*
%TO.C, *%
X191316726Y-76814524D03*
X190150000Y-76331250D03*
X188983274Y-76814524D03*
X188500000Y-77981250D03*
X188983274Y-79147976D03*
X190150000Y-79631250D03*
X191316726Y-79147976D03*
X191800000Y-77981250D03*
D12*
X190150000Y-77981250D03*
%TD*%
D13*
%TO.C,MX19*%
X202165000Y-111001250D03*
D14*
X199625000Y-116081250D03*
D13*
X195815000Y-113541250D03*
D15*
X194545000Y-116081250D03*
X204705000Y-116081250D03*
D16*
X187718750Y-123066250D03*
X211531250Y-123066250D03*
D14*
X187718750Y-107826250D03*
X211531250Y-107826250D03*
%TD*%
D13*
%TO.C,MX20*%
X249948750Y-90046250D03*
D14*
X244868750Y-87506250D03*
D13*
X247408750Y-83696250D03*
D15*
X244868750Y-82426250D03*
X244868750Y-92586250D03*
%TD*%
D17*
%TO.C,D1*%
X156762500Y-85856250D03*
X156762500Y-89156250D03*
%TD*%
D18*
%TO.C,U1*%
X141561197Y-73135813D03*
X144101197Y-73135813D03*
X141561197Y-70595813D03*
X144101197Y-70595813D03*
D19*
X141550000Y-87600000D03*
X144100000Y-87600000D03*
D20*
X150966880Y-71282180D03*
X150966880Y-73822180D03*
X150966880Y-76362180D03*
X150966880Y-78902180D03*
X150966880Y-81442180D03*
X150966880Y-83982180D03*
X150966880Y-86522180D03*
X134802320Y-86522180D03*
X134802320Y-83982180D03*
X134802320Y-81442180D03*
X134802320Y-78902180D03*
X134802320Y-76362180D03*
X134802320Y-73822180D03*
X134802320Y-71282180D03*
%TD*%
D13*
%TO.C,MX18*%
X249790000Y-111001250D03*
D14*
X247250000Y-116081250D03*
D13*
X243440000Y-113541250D03*
D15*
X242170000Y-116081250D03*
X252330000Y-116081250D03*
%TD*%
D13*
%TO.C,MX17*%
X247408750Y-91951250D03*
D14*
X244868750Y-97031250D03*
D13*
X241058750Y-94491250D03*
D15*
X239788750Y-97031250D03*
X249948750Y-97031250D03*
%TD*%
D13*
%TO.C,MX16*%
X245027500Y-72901250D03*
D14*
X242487500Y-77981250D03*
D13*
X238677500Y-75441250D03*
D15*
X237407500Y-77981250D03*
X247567500Y-77981250D03*
%TD*%
D13*
%TO.C,MX15*%
X230740000Y-111001250D03*
D14*
X228200000Y-116081250D03*
D13*
X224390000Y-113541250D03*
D15*
X223120000Y-116081250D03*
X233280000Y-116081250D03*
%TD*%
D13*
%TO.C,MX14*%
X225977500Y-91951250D03*
D14*
X223437500Y-97031250D03*
D13*
X219627500Y-94491250D03*
D15*
X218357500Y-97031250D03*
X228517500Y-97031250D03*
%TD*%
D13*
%TO.C,MX13*%
X221215000Y-72901250D03*
D14*
X218675000Y-77981250D03*
D13*
X214865000Y-75441250D03*
D15*
X213595000Y-77981250D03*
X223755000Y-77981250D03*
%TD*%
D13*
%TO.C,MX12*%
X211690000Y-111001250D03*
D14*
X209150000Y-116081250D03*
D13*
X205340000Y-113541250D03*
D15*
X204070000Y-116081250D03*
X214230000Y-116081250D03*
%TD*%
D13*
%TO.C,MX11*%
X206927500Y-91951250D03*
D14*
X204387500Y-97031250D03*
D13*
X200577500Y-94491250D03*
D15*
X199307500Y-97031250D03*
X209467500Y-97031250D03*
%TD*%
D13*
%TO.C,MX10*%
X202165000Y-72901250D03*
D14*
X199625000Y-77981250D03*
D13*
X195815000Y-75441250D03*
D15*
X194545000Y-77981250D03*
X204705000Y-77981250D03*
%TD*%
D13*
%TO.C,MX9*%
X192640000Y-111001250D03*
D14*
X190100000Y-116081250D03*
D13*
X186290000Y-113541250D03*
D15*
X185020000Y-116081250D03*
X195180000Y-116081250D03*
%TD*%
D13*
%TO.C,MX8*%
X187877500Y-91951250D03*
D14*
X185337500Y-97031250D03*
D13*
X181527500Y-94491250D03*
D15*
X180257500Y-97031250D03*
X190417500Y-97031250D03*
%TD*%
D13*
%TO.C,MX7*%
X183115000Y-72901250D03*
D14*
X180575000Y-77981250D03*
D13*
X176765000Y-75441250D03*
D15*
X175495000Y-77981250D03*
X185655000Y-77981250D03*
%TD*%
D13*
%TO.C,MX6*%
X173590000Y-111001250D03*
D14*
X171050000Y-116081250D03*
D13*
X167240000Y-113541250D03*
D15*
X165970000Y-116081250D03*
X176130000Y-116081250D03*
%TD*%
D13*
%TO.C,MX5*%
X168827500Y-91951250D03*
D14*
X166287500Y-97031250D03*
D13*
X162477500Y-94491250D03*
D15*
X161207500Y-97031250D03*
X171367500Y-97031250D03*
%TD*%
D13*
%TO.C,MX4*%
X164065000Y-72901250D03*
D14*
X161525000Y-77981250D03*
D13*
X157715000Y-75441250D03*
D15*
X156445000Y-77981250D03*
X166605000Y-77981250D03*
%TD*%
D13*
%TO.C,MX3*%
X149777500Y-111001250D03*
D14*
X147237500Y-116081250D03*
D13*
X143427500Y-113541250D03*
D15*
X142157500Y-116081250D03*
X152317500Y-116081250D03*
%TD*%
D13*
%TO.C,MX2*%
X147396250Y-91951250D03*
D14*
X144856250Y-97031250D03*
D13*
X141046250Y-94491250D03*
D15*
X139776250Y-97031250D03*
X149936250Y-97031250D03*
%TD*%
D13*
%TO.C,MX1*%
X139935000Y-83061250D03*
D14*
X142475000Y-77981250D03*
D13*
X146285000Y-80521250D03*
D15*
X147555000Y-77981250D03*
X137395000Y-77981250D03*
%TD*%
D17*
%TO.C,D18*%
X237725000Y-121575000D03*
X237725000Y-124875000D03*
%TD*%
%TO.C,D17*%
X237725000Y-104906250D03*
X237725000Y-108206250D03*
%TD*%
%TO.C,D16*%
X232962500Y-85856250D03*
X232962500Y-89156250D03*
%TD*%
%TO.C,D15*%
X218675000Y-121575000D03*
X218675000Y-124875000D03*
%TD*%
%TO.C,D14*%
X218675000Y-104906250D03*
X218675000Y-108206250D03*
%TD*%
%TO.C,D13*%
X213912500Y-85856250D03*
X213912500Y-89156250D03*
%TD*%
%TO.C,D12*%
X199625000Y-121575000D03*
X199625000Y-124875000D03*
%TD*%
%TO.C,D11*%
X199625000Y-104906250D03*
X199625000Y-108206250D03*
%TD*%
%TO.C,D10*%
X194862500Y-85856250D03*
X194862500Y-89156250D03*
%TD*%
%TO.C,D9*%
X180575000Y-121575000D03*
X180575000Y-124875000D03*
%TD*%
%TO.C,D8*%
X180575000Y-104906250D03*
X180575000Y-108206250D03*
%TD*%
%TO.C,D7*%
X175812500Y-85856250D03*
X175812500Y-89156250D03*
%TD*%
%TO.C,D6*%
X166287500Y-121575000D03*
X166287500Y-124875000D03*
%TD*%
%TO.C,D5*%
X166287500Y-104906250D03*
X166287500Y-108206250D03*
%TD*%
%TO.C,D4*%
X161525000Y-85856250D03*
X161525000Y-89156250D03*
%TD*%
%TO.C,D3*%
X161525000Y-121575000D03*
X161525000Y-124875000D03*
%TD*%
%TO.C,D2*%
X161525000Y-104906250D03*
X161525000Y-108206250D03*
%TD*%
M02*
