M48
; DRILL file {KiCad 5.1.9} date Thu Apr 22 00:58:03 2021
; FORMAT={-:-/ absolute / inch / decimal}
; #@! TF.CreationDate,2021-04-22T00:58:03+02:00
; #@! TF.GenerationSoftware,Kicad,Pcbnew,5.1.9
; #@! TF.FileFunction,NonPlated,1,2,NPTH
FMAT,2
INCH
T1C0.0689
T2C0.1200
T3C0.1570
%
G90
G05
T1
X5.4093Y-3.0701
X5.503Y-3.8201
X5.5968Y-4.5701
X5.8093Y-3.0701
X5.903Y-3.8201
X5.9968Y-4.5701
X6.1593Y-3.0701
X6.3468Y-3.8201
X6.5343Y-4.5701
X6.5593Y-3.0701
X6.7468Y-3.8201
X6.9093Y-3.0701
X6.9343Y-4.5701
X7.0968Y-3.8201
X7.2843Y-4.5701
X7.3093Y-3.0701
X7.4968Y-3.8201
X7.6593Y-3.0701
X7.6593Y-4.5701
X7.6843Y-4.5701
X7.8468Y-3.8201
X8.0343Y-4.5701
X8.0593Y-3.0701
X8.0593Y-4.5701
X8.2468Y-3.8201
X8.4093Y-3.0701
X8.4343Y-4.5701
X8.5968Y-3.8201
X8.7843Y-4.5701
X8.8093Y-3.0701
X8.9968Y-3.8201
X9.1843Y-4.5701
X9.3468Y-3.0701
X9.4405Y-3.8201
X9.5343Y-4.5701
X9.6405Y-3.2451
X9.6405Y-3.6451
X9.7468Y-3.0701
X9.8405Y-3.8201
X9.9343Y-4.5701
T2
X7.3905Y-4.8451
X8.328Y-4.8451
T3
X5.6093Y-3.0701
X5.703Y-3.8201
X5.7968Y-4.5701
X6.3593Y-3.0701
X6.5468Y-3.8201
X6.7343Y-4.5701
X7.1093Y-3.0701
X7.2968Y-3.8201
X7.3905Y-4.2451
X7.4843Y-4.5701
X7.8593Y-3.0701
X7.8593Y-4.5701
X8.0468Y-3.8201
X8.2343Y-4.5701
X8.328Y-4.2451
X8.6093Y-3.0701
X8.7968Y-3.8201
X8.9843Y-4.5701
X9.5468Y-3.0701
X9.6405Y-3.4451
X9.6405Y-3.8201
X9.7343Y-4.5701
T0
M30
