%TF.GenerationSoftware,KiCad,Pcbnew,5.1.9*%
%TF.CreationDate,2021-04-22T00:58:07+02:00*%
%TF.ProjectId,miniqaz,6d696e69-7161-47a2-9e6b-696361645f70,rev?*%
%TF.SameCoordinates,Original*%
%TF.FileFunction,Copper,L1,Top*%
%TF.FilePolarity,Positive*%
%FSLAX46Y46*%
G04 Gerber Fmt 4.6, Leading zero omitted, Abs format (unit mm)*
G04 Created by KiCad (PCBNEW 5.1.9) date 2021-04-22 00:58:07*
%MOMM*%
%LPD*%
G01*
G04 APERTURE LIST*
%TA.AperFunction,ComponentPad*%
%ADD10C,0.700000*%
%TD*%
%TA.AperFunction,ComponentPad*%
%ADD11C,4.400000*%
%TD*%
%TA.AperFunction,ComponentPad*%
%ADD12C,2.250000*%
%TD*%
%TA.AperFunction,ViaPad*%
%ADD13C,0.800000*%
%TD*%
%TA.AperFunction,Conductor*%
%ADD14C,0.250000*%
%TD*%
%TA.AperFunction,Conductor*%
%ADD15C,0.254000*%
%TD*%
%TA.AperFunction,Conductor*%
%ADD16C,0.100000*%
%TD*%
G04 APERTURE END LIST*
D10*
%TO.P, ,1*%
%TO.N,N/C*%
X160316726Y-114914524D03*
X159150000Y-114431250D03*
X157983274Y-114914524D03*
X157500000Y-116081250D03*
X157983274Y-117247976D03*
X159150000Y-117731250D03*
X160316726Y-117247976D03*
X160800000Y-116081250D03*
D11*
X159150000Y-116081250D03*
%TD*%
D10*
%TO.P, ,1*%
%TO.N,N/C*%
X238916726Y-114914524D03*
X237750000Y-114431250D03*
X236583274Y-114914524D03*
X236100000Y-116081250D03*
X236583274Y-117247976D03*
X237750000Y-117731250D03*
X238916726Y-117247976D03*
X239400000Y-116081250D03*
D11*
X237750000Y-116081250D03*
%TD*%
D10*
%TO.P, ,1*%
%TO.N,N/C*%
X191316726Y-76814524D03*
X190150000Y-76331250D03*
X188983274Y-76814524D03*
X188500000Y-77981250D03*
X188983274Y-79147976D03*
X190150000Y-79631250D03*
X191316726Y-79147976D03*
X191800000Y-77981250D03*
D11*
X190150000Y-77981250D03*
%TD*%
D12*
%TO.P,MX19,2*%
%TO.N,srow*%
X202165000Y-111001250D03*
%TO.P,MX19,1*%
%TO.N,col2*%
X195815000Y-113541250D03*
%TD*%
%TO.P,MX20,2*%
%TO.N,erow*%
X249948750Y-90046250D03*
%TO.P,MX20,1*%
%TO.N,col5*%
X247408750Y-83696250D03*
%TD*%
%TO.P,MX18,2*%
%TO.N,Net-(D18-Pad2)*%
X249790000Y-111001250D03*
%TO.P,MX18,1*%
%TO.N,col5*%
X243440000Y-113541250D03*
%TD*%
%TO.P,MX17,2*%
%TO.N,Net-(D17-Pad2)*%
X247408750Y-91951250D03*
%TO.P,MX17,1*%
%TO.N,col5*%
X241058750Y-94491250D03*
%TD*%
%TO.P,MX16,2*%
%TO.N,erow*%
X245027500Y-72901250D03*
%TO.P,MX16,1*%
%TO.N,col5*%
X238677500Y-75441250D03*
%TD*%
%TO.P,MX15,2*%
%TO.N,Net-(D15-Pad2)*%
X230740000Y-111001250D03*
%TO.P,MX15,1*%
%TO.N,col4*%
X224390000Y-113541250D03*
%TD*%
%TO.P,MX14,2*%
%TO.N,Net-(D14-Pad2)*%
X225977500Y-91951250D03*
%TO.P,MX14,1*%
%TO.N,col4*%
X219627500Y-94491250D03*
%TD*%
%TO.P,MX13,2*%
%TO.N,Net-(D13-Pad2)*%
X221215000Y-72901250D03*
%TO.P,MX13,1*%
%TO.N,col4*%
X214865000Y-75441250D03*
%TD*%
%TO.P,MX12,2*%
%TO.N,Net-(D12-Pad2)*%
X211690000Y-111001250D03*
%TO.P,MX12,1*%
%TO.N,col3*%
X205340000Y-113541250D03*
%TD*%
%TO.P,MX11,2*%
%TO.N,Net-(D11-Pad2)*%
X206927500Y-91951250D03*
%TO.P,MX11,1*%
%TO.N,col3*%
X200577500Y-94491250D03*
%TD*%
%TO.P,MX10,2*%
%TO.N,Net-(D10-Pad2)*%
X202165000Y-72901250D03*
%TO.P,MX10,1*%
%TO.N,col3*%
X195815000Y-75441250D03*
%TD*%
%TO.P,MX9,2*%
%TO.N,srow*%
X192640000Y-111001250D03*
%TO.P,MX9,1*%
%TO.N,col2*%
X186290000Y-113541250D03*
%TD*%
%TO.P,MX8,2*%
%TO.N,Net-(D8-Pad2)*%
X187877500Y-91951250D03*
%TO.P,MX8,1*%
%TO.N,col2*%
X181527500Y-94491250D03*
%TD*%
%TO.P,MX7,2*%
%TO.N,Net-(D7-Pad2)*%
X183115000Y-72901250D03*
%TO.P,MX7,1*%
%TO.N,col2*%
X176765000Y-75441250D03*
%TD*%
%TO.P,MX6,2*%
%TO.N,Net-(D6-Pad2)*%
X173590000Y-111001250D03*
%TO.P,MX6,1*%
%TO.N,col1*%
X167240000Y-113541250D03*
%TD*%
%TO.P,MX5,2*%
%TO.N,Net-(D5-Pad2)*%
X168827500Y-91951250D03*
%TO.P,MX5,1*%
%TO.N,col1*%
X162477500Y-94491250D03*
%TD*%
%TO.P,MX4,2*%
%TO.N,Net-(D4-Pad2)*%
X164065000Y-72901250D03*
%TO.P,MX4,1*%
%TO.N,col1*%
X157715000Y-75441250D03*
%TD*%
%TO.P,MX3,2*%
%TO.N,Net-(D3-Pad2)*%
X149777500Y-111001250D03*
%TO.P,MX3,1*%
%TO.N,col0*%
X143427500Y-113541250D03*
%TD*%
%TO.P,MX2,2*%
%TO.N,Net-(D2-Pad2)*%
X147396250Y-91951250D03*
%TO.P,MX2,1*%
%TO.N,col0*%
X141046250Y-94491250D03*
%TD*%
%TO.P,MX1,2*%
%TO.N,Net-(D1-Pad2)*%
X139935000Y-83061250D03*
%TO.P,MX1,1*%
%TO.N,col0*%
X146285000Y-80521250D03*
%TD*%
D13*
%TO.N,Net-(D1-Pad2)*%
X153400000Y-83000000D03*
%TO.N,GND*%
X134850000Y-73881250D03*
X133750000Y-89481250D03*
%TD*%
D14*
%TO.N,Net-(D1-Pad2)*%
X139996250Y-83000000D02*
X139935000Y-83061250D01*
X153400000Y-83000000D02*
X139996250Y-83000000D01*
%TO.N,col0*%
X141046250Y-111160000D02*
X143427500Y-113541250D01*
X141046250Y-94491250D02*
X141046250Y-111160000D01*
%TO.N,col1*%
X157715000Y-89728750D02*
X162477500Y-94491250D01*
X157715000Y-75441250D02*
X157715000Y-89728750D01*
X162477500Y-108778750D02*
X167240000Y-113541250D01*
X162477500Y-94491250D02*
X162477500Y-108778750D01*
%TO.N,col2*%
X176765000Y-89728750D02*
X181527500Y-94491250D01*
X176765000Y-75441250D02*
X176765000Y-89728750D01*
X181527500Y-108778750D02*
X186290000Y-113541250D01*
X181527500Y-94491250D02*
X181527500Y-108778750D01*
X186290000Y-113541250D02*
X195815000Y-113541250D01*
%TO.N,col3*%
X195815000Y-89728750D02*
X200577500Y-94491250D01*
X195815000Y-75441250D02*
X195815000Y-89728750D01*
X205340000Y-112030248D02*
X205340000Y-113541250D01*
X200577500Y-107267748D02*
X205340000Y-112030248D01*
X200577500Y-94491250D02*
X200577500Y-107267748D01*
%TO.N,col4*%
X214865000Y-89728750D02*
X219627500Y-94491250D01*
X214865000Y-75441250D02*
X214865000Y-89728750D01*
X219627500Y-108778750D02*
X224390000Y-113541250D01*
X219627500Y-94491250D02*
X219627500Y-108778750D01*
%TO.N,col5*%
X238677500Y-92110000D02*
X241058750Y-94491250D01*
X238677500Y-75441250D02*
X238677500Y-92110000D01*
X246283751Y-82571251D02*
X247408750Y-83696250D01*
X246283751Y-78345527D02*
X246283751Y-82571251D01*
X243379474Y-75441250D02*
X246283751Y-78345527D01*
X238677500Y-75441250D02*
X243379474Y-75441250D01*
X241058750Y-111160000D02*
X241058750Y-94491250D01*
X243440000Y-113541250D02*
X241058750Y-111160000D01*
%TD*%
D15*
%TO.N,GND*%
X255109659Y-69069875D02*
X255359429Y-69145285D01*
X255589792Y-69267772D01*
X255791980Y-69432672D01*
X255958286Y-69633700D01*
X256082378Y-69863204D01*
X256159531Y-70112445D01*
X256190000Y-70402338D01*
X256190001Y-123648961D01*
X256161375Y-123940910D01*
X256085965Y-124190679D01*
X255963477Y-124421044D01*
X255798579Y-124623229D01*
X255597546Y-124789538D01*
X255368046Y-124913628D01*
X255118805Y-124990781D01*
X254828911Y-125021250D01*
X212453201Y-125021250D01*
X212553920Y-124979531D01*
X212907532Y-124743254D01*
X213208254Y-124442532D01*
X213444531Y-124088920D01*
X213607280Y-123696007D01*
X213690250Y-123278893D01*
X213690250Y-122853607D01*
X213607280Y-122436493D01*
X213444531Y-122043580D01*
X213208254Y-121689968D01*
X212907532Y-121389246D01*
X212553920Y-121152969D01*
X212161007Y-120990220D01*
X211743893Y-120907250D01*
X211318607Y-120907250D01*
X210901493Y-120990220D01*
X210508580Y-121152969D01*
X210154968Y-121389246D01*
X209854246Y-121689968D01*
X209617969Y-122043580D01*
X209455220Y-122436493D01*
X209372250Y-122853607D01*
X209372250Y-123278893D01*
X209455220Y-123696007D01*
X209617969Y-124088920D01*
X209854246Y-124442532D01*
X210154968Y-124743254D01*
X210508580Y-124979531D01*
X210609299Y-125021250D01*
X188640701Y-125021250D01*
X188741420Y-124979531D01*
X189095032Y-124743254D01*
X189395754Y-124442532D01*
X189632031Y-124088920D01*
X189794780Y-123696007D01*
X189877750Y-123278893D01*
X189877750Y-122853607D01*
X189794780Y-122436493D01*
X189632031Y-122043580D01*
X189395754Y-121689968D01*
X189095032Y-121389246D01*
X188741420Y-121152969D01*
X188348507Y-120990220D01*
X187931393Y-120907250D01*
X187506107Y-120907250D01*
X187088993Y-120990220D01*
X186696080Y-121152969D01*
X186342468Y-121389246D01*
X186041746Y-121689968D01*
X185805469Y-122043580D01*
X185642720Y-122436493D01*
X185559750Y-122853607D01*
X185559750Y-123278893D01*
X185642720Y-123696007D01*
X185805469Y-124088920D01*
X186041746Y-124442532D01*
X186342468Y-124743254D01*
X186696080Y-124979531D01*
X186796799Y-125021250D01*
X134882279Y-125021250D01*
X134590340Y-124992625D01*
X134340571Y-124917215D01*
X134110206Y-124794727D01*
X133908021Y-124629829D01*
X133741712Y-124428796D01*
X133617622Y-124199296D01*
X133540469Y-123950055D01*
X133510000Y-123660161D01*
X133510000Y-96882528D01*
X138266250Y-96882528D01*
X138266250Y-97179972D01*
X138324279Y-97471701D01*
X138438106Y-97746503D01*
X138603357Y-97993819D01*
X138813681Y-98204143D01*
X139060997Y-98369394D01*
X139335799Y-98483221D01*
X139627528Y-98541250D01*
X139924972Y-98541250D01*
X140216701Y-98483221D01*
X140286250Y-98454413D01*
X140286251Y-111122667D01*
X140282574Y-111160000D01*
X140286251Y-111197332D01*
X140286251Y-111197333D01*
X140297248Y-111308986D01*
X140310430Y-111352442D01*
X140340704Y-111452246D01*
X140411276Y-111584276D01*
X140482451Y-111671002D01*
X140506250Y-111700001D01*
X140535248Y-111723799D01*
X141765652Y-112954204D01*
X141735136Y-113027877D01*
X141667500Y-113367905D01*
X141667500Y-113714595D01*
X141735136Y-114054623D01*
X141867808Y-114374923D01*
X142000138Y-114572969D01*
X141717049Y-114629279D01*
X141442247Y-114743106D01*
X141194931Y-114908357D01*
X140984607Y-115118681D01*
X140819356Y-115365997D01*
X140705529Y-115640799D01*
X140647500Y-115932528D01*
X140647500Y-116229972D01*
X140705529Y-116521701D01*
X140819356Y-116796503D01*
X140984607Y-117043819D01*
X141194931Y-117254143D01*
X141442247Y-117419394D01*
X141717049Y-117533221D01*
X142008778Y-117591250D01*
X142306222Y-117591250D01*
X142597951Y-117533221D01*
X142872753Y-117419394D01*
X143120069Y-117254143D01*
X143330393Y-117043819D01*
X143495644Y-116796503D01*
X143609471Y-116521701D01*
X143667500Y-116229972D01*
X143667500Y-115932528D01*
X143645580Y-115822326D01*
X144608600Y-115822326D01*
X144608600Y-116340174D01*
X144709627Y-116848072D01*
X144907799Y-117326501D01*
X145195500Y-117757076D01*
X145561674Y-118123250D01*
X145992249Y-118410951D01*
X146470678Y-118609123D01*
X146978576Y-118710150D01*
X147496424Y-118710150D01*
X148004322Y-118609123D01*
X148482751Y-118410951D01*
X148913326Y-118123250D01*
X149279500Y-117757076D01*
X149567201Y-117326501D01*
X149765373Y-116848072D01*
X149866400Y-116340174D01*
X149866400Y-115932528D01*
X150807500Y-115932528D01*
X150807500Y-116229972D01*
X150865529Y-116521701D01*
X150979356Y-116796503D01*
X151144607Y-117043819D01*
X151354931Y-117254143D01*
X151602247Y-117419394D01*
X151877049Y-117533221D01*
X152168778Y-117591250D01*
X152466222Y-117591250D01*
X152757951Y-117533221D01*
X153032753Y-117419394D01*
X153280069Y-117254143D01*
X153490393Y-117043819D01*
X153655644Y-116796503D01*
X153769471Y-116521701D01*
X153827500Y-116229972D01*
X153827500Y-115932528D01*
X153801542Y-115802027D01*
X156315000Y-115802027D01*
X156315000Y-116360473D01*
X156423948Y-116908189D01*
X156637656Y-117424126D01*
X156947912Y-117888457D01*
X157342793Y-118283338D01*
X157807124Y-118593594D01*
X158323061Y-118807302D01*
X158870777Y-118916250D01*
X159429223Y-118916250D01*
X159976939Y-118807302D01*
X160492876Y-118593594D01*
X160957207Y-118283338D01*
X161352088Y-117888457D01*
X161662344Y-117424126D01*
X161876052Y-116908189D01*
X161985000Y-116360473D01*
X161985000Y-115802027D01*
X161876052Y-115254311D01*
X161662344Y-114738374D01*
X161352088Y-114274043D01*
X160957207Y-113879162D01*
X160492876Y-113568906D01*
X159976939Y-113355198D01*
X159429223Y-113246250D01*
X158870777Y-113246250D01*
X158323061Y-113355198D01*
X157807124Y-113568906D01*
X157342793Y-113879162D01*
X156947912Y-114274043D01*
X156637656Y-114738374D01*
X156423948Y-115254311D01*
X156315000Y-115802027D01*
X153801542Y-115802027D01*
X153769471Y-115640799D01*
X153655644Y-115365997D01*
X153490393Y-115118681D01*
X153280069Y-114908357D01*
X153032753Y-114743106D01*
X152757951Y-114629279D01*
X152466222Y-114571250D01*
X152168778Y-114571250D01*
X151877049Y-114629279D01*
X151602247Y-114743106D01*
X151354931Y-114908357D01*
X151144607Y-115118681D01*
X150979356Y-115365997D01*
X150865529Y-115640799D01*
X150807500Y-115932528D01*
X149866400Y-115932528D01*
X149866400Y-115822326D01*
X149765373Y-115314428D01*
X149567201Y-114835999D01*
X149279500Y-114405424D01*
X148913326Y-114039250D01*
X148482751Y-113751549D01*
X148004322Y-113553377D01*
X147496424Y-113452350D01*
X146978576Y-113452350D01*
X146470678Y-113553377D01*
X145992249Y-113751549D01*
X145561674Y-114039250D01*
X145195500Y-114405424D01*
X144907799Y-114835999D01*
X144709627Y-115314428D01*
X144608600Y-115822326D01*
X143645580Y-115822326D01*
X143609471Y-115640799D01*
X143495644Y-115365997D01*
X143452382Y-115301250D01*
X143600845Y-115301250D01*
X143940873Y-115233614D01*
X144261173Y-115100942D01*
X144549435Y-114908331D01*
X144794581Y-114663185D01*
X144987192Y-114374923D01*
X145119864Y-114054623D01*
X145187500Y-113714595D01*
X145187500Y-113367905D01*
X145119864Y-113027877D01*
X144987192Y-112707577D01*
X144794581Y-112419315D01*
X144549435Y-112174169D01*
X144261173Y-111981558D01*
X143940873Y-111848886D01*
X143600845Y-111781250D01*
X143254155Y-111781250D01*
X142914127Y-111848886D01*
X142840454Y-111879402D01*
X141806250Y-110845199D01*
X141806250Y-110827905D01*
X148017500Y-110827905D01*
X148017500Y-111174595D01*
X148085136Y-111514623D01*
X148217808Y-111834923D01*
X148410419Y-112123185D01*
X148655565Y-112368331D01*
X148943827Y-112560942D01*
X149264127Y-112693614D01*
X149604155Y-112761250D01*
X149950845Y-112761250D01*
X150290873Y-112693614D01*
X150611173Y-112560942D01*
X150899435Y-112368331D01*
X151144581Y-112123185D01*
X151337192Y-111834923D01*
X151469864Y-111514623D01*
X151537500Y-111174595D01*
X151537500Y-110827905D01*
X151469864Y-110487877D01*
X151337192Y-110167577D01*
X151144581Y-109879315D01*
X150899435Y-109634169D01*
X150611173Y-109441558D01*
X150290873Y-109308886D01*
X149950845Y-109241250D01*
X149604155Y-109241250D01*
X149264127Y-109308886D01*
X148943827Y-109441558D01*
X148655565Y-109634169D01*
X148410419Y-109879315D01*
X148217808Y-110167577D01*
X148085136Y-110487877D01*
X148017500Y-110827905D01*
X141806250Y-110827905D01*
X141806250Y-96772326D01*
X142227350Y-96772326D01*
X142227350Y-97290174D01*
X142328377Y-97798072D01*
X142526549Y-98276501D01*
X142814250Y-98707076D01*
X143180424Y-99073250D01*
X143610999Y-99360951D01*
X144089428Y-99559123D01*
X144597326Y-99660150D01*
X145115174Y-99660150D01*
X145623072Y-99559123D01*
X146101501Y-99360951D01*
X146532076Y-99073250D01*
X146898250Y-98707076D01*
X147185951Y-98276501D01*
X147384123Y-97798072D01*
X147485150Y-97290174D01*
X147485150Y-96882528D01*
X148426250Y-96882528D01*
X148426250Y-97179972D01*
X148484279Y-97471701D01*
X148598106Y-97746503D01*
X148763357Y-97993819D01*
X148973681Y-98204143D01*
X149220997Y-98369394D01*
X149495799Y-98483221D01*
X149787528Y-98541250D01*
X150084972Y-98541250D01*
X150376701Y-98483221D01*
X150651503Y-98369394D01*
X150898819Y-98204143D01*
X151109143Y-97993819D01*
X151274394Y-97746503D01*
X151388221Y-97471701D01*
X151446250Y-97179972D01*
X151446250Y-96882528D01*
X151388221Y-96590799D01*
X151274394Y-96315997D01*
X151109143Y-96068681D01*
X150898819Y-95858357D01*
X150651503Y-95693106D01*
X150376701Y-95579279D01*
X150084972Y-95521250D01*
X149787528Y-95521250D01*
X149495799Y-95579279D01*
X149220997Y-95693106D01*
X148973681Y-95858357D01*
X148763357Y-96068681D01*
X148598106Y-96315997D01*
X148484279Y-96590799D01*
X148426250Y-96882528D01*
X147485150Y-96882528D01*
X147485150Y-96772326D01*
X147384123Y-96264428D01*
X147185951Y-95785999D01*
X146898250Y-95355424D01*
X146532076Y-94989250D01*
X146101501Y-94701549D01*
X145623072Y-94503377D01*
X145115174Y-94402350D01*
X144597326Y-94402350D01*
X144089428Y-94503377D01*
X143610999Y-94701549D01*
X143180424Y-94989250D01*
X142814250Y-95355424D01*
X142526549Y-95785999D01*
X142328377Y-96264428D01*
X142227350Y-96772326D01*
X141806250Y-96772326D01*
X141806250Y-96081458D01*
X141879923Y-96050942D01*
X142168185Y-95858331D01*
X142413331Y-95613185D01*
X142605942Y-95324923D01*
X142738614Y-95004623D01*
X142806250Y-94664595D01*
X142806250Y-94317905D01*
X142738614Y-93977877D01*
X142605942Y-93657577D01*
X142413331Y-93369315D01*
X142168185Y-93124169D01*
X141879923Y-92931558D01*
X141559623Y-92798886D01*
X141219595Y-92731250D01*
X140872905Y-92731250D01*
X140532877Y-92798886D01*
X140212577Y-92931558D01*
X139924315Y-93124169D01*
X139679169Y-93369315D01*
X139486558Y-93657577D01*
X139353886Y-93977877D01*
X139286250Y-94317905D01*
X139286250Y-94664595D01*
X139353886Y-95004623D01*
X139486558Y-95324923D01*
X139618888Y-95522969D01*
X139335799Y-95579279D01*
X139060997Y-95693106D01*
X138813681Y-95858357D01*
X138603357Y-96068681D01*
X138438106Y-96315997D01*
X138324279Y-96590799D01*
X138266250Y-96882528D01*
X133510000Y-96882528D01*
X133510000Y-91777905D01*
X145636250Y-91777905D01*
X145636250Y-92124595D01*
X145703886Y-92464623D01*
X145836558Y-92784923D01*
X146029169Y-93073185D01*
X146274315Y-93318331D01*
X146562577Y-93510942D01*
X146882877Y-93643614D01*
X147222905Y-93711250D01*
X147569595Y-93711250D01*
X147909623Y-93643614D01*
X148229923Y-93510942D01*
X148518185Y-93318331D01*
X148763331Y-93073185D01*
X148955942Y-92784923D01*
X149088614Y-92464623D01*
X149156250Y-92124595D01*
X149156250Y-91777905D01*
X149088614Y-91437877D01*
X148955942Y-91117577D01*
X148763331Y-90829315D01*
X148518185Y-90584169D01*
X148229923Y-90391558D01*
X147909623Y-90258886D01*
X147569595Y-90191250D01*
X147222905Y-90191250D01*
X146882877Y-90258886D01*
X146562577Y-90391558D01*
X146274315Y-90584169D01*
X146029169Y-90829315D01*
X145836558Y-91117577D01*
X145703886Y-91437877D01*
X145636250Y-91777905D01*
X133510000Y-91777905D01*
X133510000Y-82887905D01*
X138175000Y-82887905D01*
X138175000Y-83234595D01*
X138242636Y-83574623D01*
X138375308Y-83894923D01*
X138567919Y-84183185D01*
X138813065Y-84428331D01*
X139101327Y-84620942D01*
X139421627Y-84753614D01*
X139761655Y-84821250D01*
X140108345Y-84821250D01*
X140448373Y-84753614D01*
X140768673Y-84620942D01*
X141056935Y-84428331D01*
X141302081Y-84183185D01*
X141494692Y-83894923D01*
X141550579Y-83760000D01*
X152696289Y-83760000D01*
X152740226Y-83803937D01*
X152909744Y-83917205D01*
X153098102Y-83995226D01*
X153298061Y-84035000D01*
X153501939Y-84035000D01*
X153701898Y-83995226D01*
X153890256Y-83917205D01*
X154059774Y-83803937D01*
X154203937Y-83659774D01*
X154317205Y-83490256D01*
X154395226Y-83301898D01*
X154435000Y-83101939D01*
X154435000Y-82898061D01*
X154395226Y-82698102D01*
X154317205Y-82509744D01*
X154203937Y-82340226D01*
X154059774Y-82196063D01*
X153890256Y-82082795D01*
X153701898Y-82004774D01*
X153501939Y-81965000D01*
X153298061Y-81965000D01*
X153098102Y-82004774D01*
X152909744Y-82082795D01*
X152740226Y-82196063D01*
X152696289Y-82240000D01*
X146665722Y-82240000D01*
X146798373Y-82213614D01*
X147118673Y-82080942D01*
X147406935Y-81888331D01*
X147652081Y-81643185D01*
X147844692Y-81354923D01*
X147977364Y-81034623D01*
X148045000Y-80694595D01*
X148045000Y-80347905D01*
X147977364Y-80007877D01*
X147844692Y-79687577D01*
X147712362Y-79489531D01*
X147995451Y-79433221D01*
X148270253Y-79319394D01*
X148517569Y-79154143D01*
X148727893Y-78943819D01*
X148893144Y-78696503D01*
X149006971Y-78421701D01*
X149065000Y-78129972D01*
X149065000Y-77832528D01*
X154935000Y-77832528D01*
X154935000Y-78129972D01*
X154993029Y-78421701D01*
X155106856Y-78696503D01*
X155272107Y-78943819D01*
X155482431Y-79154143D01*
X155729747Y-79319394D01*
X156004549Y-79433221D01*
X156296278Y-79491250D01*
X156593722Y-79491250D01*
X156885451Y-79433221D01*
X156955000Y-79404413D01*
X156955001Y-89691418D01*
X156951324Y-89728750D01*
X156955001Y-89766083D01*
X156961883Y-89835951D01*
X156965998Y-89877735D01*
X157009454Y-90020996D01*
X157080026Y-90153026D01*
X157151201Y-90239752D01*
X157175000Y-90268751D01*
X157203998Y-90292549D01*
X160815652Y-93904204D01*
X160785136Y-93977877D01*
X160717500Y-94317905D01*
X160717500Y-94664595D01*
X160785136Y-95004623D01*
X160917808Y-95324923D01*
X161050138Y-95522969D01*
X160767049Y-95579279D01*
X160492247Y-95693106D01*
X160244931Y-95858357D01*
X160034607Y-96068681D01*
X159869356Y-96315997D01*
X159755529Y-96590799D01*
X159697500Y-96882528D01*
X159697500Y-97179972D01*
X159755529Y-97471701D01*
X159869356Y-97746503D01*
X160034607Y-97993819D01*
X160244931Y-98204143D01*
X160492247Y-98369394D01*
X160767049Y-98483221D01*
X161058778Y-98541250D01*
X161356222Y-98541250D01*
X161647951Y-98483221D01*
X161717500Y-98454413D01*
X161717501Y-108741418D01*
X161713824Y-108778750D01*
X161728498Y-108927735D01*
X161771954Y-109070996D01*
X161842526Y-109203026D01*
X161913701Y-109289752D01*
X161937500Y-109318751D01*
X161966498Y-109342549D01*
X165578152Y-112954204D01*
X165547636Y-113027877D01*
X165480000Y-113367905D01*
X165480000Y-113714595D01*
X165547636Y-114054623D01*
X165680308Y-114374923D01*
X165812638Y-114572969D01*
X165529549Y-114629279D01*
X165254747Y-114743106D01*
X165007431Y-114908357D01*
X164797107Y-115118681D01*
X164631856Y-115365997D01*
X164518029Y-115640799D01*
X164460000Y-115932528D01*
X164460000Y-116229972D01*
X164518029Y-116521701D01*
X164631856Y-116796503D01*
X164797107Y-117043819D01*
X165007431Y-117254143D01*
X165254747Y-117419394D01*
X165529549Y-117533221D01*
X165821278Y-117591250D01*
X166118722Y-117591250D01*
X166410451Y-117533221D01*
X166685253Y-117419394D01*
X166932569Y-117254143D01*
X167142893Y-117043819D01*
X167308144Y-116796503D01*
X167421971Y-116521701D01*
X167480000Y-116229972D01*
X167480000Y-115932528D01*
X167458080Y-115822326D01*
X168421100Y-115822326D01*
X168421100Y-116340174D01*
X168522127Y-116848072D01*
X168720299Y-117326501D01*
X169008000Y-117757076D01*
X169374174Y-118123250D01*
X169804749Y-118410951D01*
X170283178Y-118609123D01*
X170791076Y-118710150D01*
X171308924Y-118710150D01*
X171816822Y-118609123D01*
X172295251Y-118410951D01*
X172725826Y-118123250D01*
X173092000Y-117757076D01*
X173379701Y-117326501D01*
X173577873Y-116848072D01*
X173678900Y-116340174D01*
X173678900Y-115932528D01*
X174620000Y-115932528D01*
X174620000Y-116229972D01*
X174678029Y-116521701D01*
X174791856Y-116796503D01*
X174957107Y-117043819D01*
X175167431Y-117254143D01*
X175414747Y-117419394D01*
X175689549Y-117533221D01*
X175981278Y-117591250D01*
X176278722Y-117591250D01*
X176570451Y-117533221D01*
X176845253Y-117419394D01*
X177092569Y-117254143D01*
X177302893Y-117043819D01*
X177468144Y-116796503D01*
X177581971Y-116521701D01*
X177640000Y-116229972D01*
X177640000Y-115932528D01*
X177581971Y-115640799D01*
X177468144Y-115365997D01*
X177302893Y-115118681D01*
X177092569Y-114908357D01*
X176845253Y-114743106D01*
X176570451Y-114629279D01*
X176278722Y-114571250D01*
X175981278Y-114571250D01*
X175689549Y-114629279D01*
X175414747Y-114743106D01*
X175167431Y-114908357D01*
X174957107Y-115118681D01*
X174791856Y-115365997D01*
X174678029Y-115640799D01*
X174620000Y-115932528D01*
X173678900Y-115932528D01*
X173678900Y-115822326D01*
X173577873Y-115314428D01*
X173379701Y-114835999D01*
X173092000Y-114405424D01*
X172725826Y-114039250D01*
X172295251Y-113751549D01*
X171816822Y-113553377D01*
X171308924Y-113452350D01*
X170791076Y-113452350D01*
X170283178Y-113553377D01*
X169804749Y-113751549D01*
X169374174Y-114039250D01*
X169008000Y-114405424D01*
X168720299Y-114835999D01*
X168522127Y-115314428D01*
X168421100Y-115822326D01*
X167458080Y-115822326D01*
X167421971Y-115640799D01*
X167308144Y-115365997D01*
X167264882Y-115301250D01*
X167413345Y-115301250D01*
X167753373Y-115233614D01*
X168073673Y-115100942D01*
X168361935Y-114908331D01*
X168607081Y-114663185D01*
X168799692Y-114374923D01*
X168932364Y-114054623D01*
X169000000Y-113714595D01*
X169000000Y-113367905D01*
X168932364Y-113027877D01*
X168799692Y-112707577D01*
X168607081Y-112419315D01*
X168361935Y-112174169D01*
X168073673Y-111981558D01*
X167753373Y-111848886D01*
X167413345Y-111781250D01*
X167066655Y-111781250D01*
X166726627Y-111848886D01*
X166652954Y-111879402D01*
X165601457Y-110827905D01*
X171830000Y-110827905D01*
X171830000Y-111174595D01*
X171897636Y-111514623D01*
X172030308Y-111834923D01*
X172222919Y-112123185D01*
X172468065Y-112368331D01*
X172756327Y-112560942D01*
X173076627Y-112693614D01*
X173416655Y-112761250D01*
X173763345Y-112761250D01*
X174103373Y-112693614D01*
X174423673Y-112560942D01*
X174711935Y-112368331D01*
X174957081Y-112123185D01*
X175149692Y-111834923D01*
X175282364Y-111514623D01*
X175350000Y-111174595D01*
X175350000Y-110827905D01*
X175282364Y-110487877D01*
X175149692Y-110167577D01*
X174957081Y-109879315D01*
X174711935Y-109634169D01*
X174423673Y-109441558D01*
X174103373Y-109308886D01*
X173763345Y-109241250D01*
X173416655Y-109241250D01*
X173076627Y-109308886D01*
X172756327Y-109441558D01*
X172468065Y-109634169D01*
X172222919Y-109879315D01*
X172030308Y-110167577D01*
X171897636Y-110487877D01*
X171830000Y-110827905D01*
X165601457Y-110827905D01*
X163237500Y-108463949D01*
X163237500Y-96772326D01*
X163658600Y-96772326D01*
X163658600Y-97290174D01*
X163759627Y-97798072D01*
X163957799Y-98276501D01*
X164245500Y-98707076D01*
X164611674Y-99073250D01*
X165042249Y-99360951D01*
X165520678Y-99559123D01*
X166028576Y-99660150D01*
X166546424Y-99660150D01*
X167054322Y-99559123D01*
X167532751Y-99360951D01*
X167963326Y-99073250D01*
X168329500Y-98707076D01*
X168617201Y-98276501D01*
X168815373Y-97798072D01*
X168916400Y-97290174D01*
X168916400Y-96882528D01*
X169857500Y-96882528D01*
X169857500Y-97179972D01*
X169915529Y-97471701D01*
X170029356Y-97746503D01*
X170194607Y-97993819D01*
X170404931Y-98204143D01*
X170652247Y-98369394D01*
X170927049Y-98483221D01*
X171218778Y-98541250D01*
X171516222Y-98541250D01*
X171807951Y-98483221D01*
X172082753Y-98369394D01*
X172330069Y-98204143D01*
X172540393Y-97993819D01*
X172705644Y-97746503D01*
X172819471Y-97471701D01*
X172877500Y-97179972D01*
X172877500Y-96882528D01*
X172819471Y-96590799D01*
X172705644Y-96315997D01*
X172540393Y-96068681D01*
X172330069Y-95858357D01*
X172082753Y-95693106D01*
X171807951Y-95579279D01*
X171516222Y-95521250D01*
X171218778Y-95521250D01*
X170927049Y-95579279D01*
X170652247Y-95693106D01*
X170404931Y-95858357D01*
X170194607Y-96068681D01*
X170029356Y-96315997D01*
X169915529Y-96590799D01*
X169857500Y-96882528D01*
X168916400Y-96882528D01*
X168916400Y-96772326D01*
X168815373Y-96264428D01*
X168617201Y-95785999D01*
X168329500Y-95355424D01*
X167963326Y-94989250D01*
X167532751Y-94701549D01*
X167054322Y-94503377D01*
X166546424Y-94402350D01*
X166028576Y-94402350D01*
X165520678Y-94503377D01*
X165042249Y-94701549D01*
X164611674Y-94989250D01*
X164245500Y-95355424D01*
X163957799Y-95785999D01*
X163759627Y-96264428D01*
X163658600Y-96772326D01*
X163237500Y-96772326D01*
X163237500Y-96081458D01*
X163311173Y-96050942D01*
X163599435Y-95858331D01*
X163844581Y-95613185D01*
X164037192Y-95324923D01*
X164169864Y-95004623D01*
X164237500Y-94664595D01*
X164237500Y-94317905D01*
X164169864Y-93977877D01*
X164037192Y-93657577D01*
X163844581Y-93369315D01*
X163599435Y-93124169D01*
X163311173Y-92931558D01*
X162990873Y-92798886D01*
X162650845Y-92731250D01*
X162304155Y-92731250D01*
X161964127Y-92798886D01*
X161890454Y-92829402D01*
X160838957Y-91777905D01*
X167067500Y-91777905D01*
X167067500Y-92124595D01*
X167135136Y-92464623D01*
X167267808Y-92784923D01*
X167460419Y-93073185D01*
X167705565Y-93318331D01*
X167993827Y-93510942D01*
X168314127Y-93643614D01*
X168654155Y-93711250D01*
X169000845Y-93711250D01*
X169340873Y-93643614D01*
X169661173Y-93510942D01*
X169949435Y-93318331D01*
X170194581Y-93073185D01*
X170387192Y-92784923D01*
X170519864Y-92464623D01*
X170587500Y-92124595D01*
X170587500Y-91777905D01*
X170519864Y-91437877D01*
X170387192Y-91117577D01*
X170194581Y-90829315D01*
X169949435Y-90584169D01*
X169661173Y-90391558D01*
X169340873Y-90258886D01*
X169000845Y-90191250D01*
X168654155Y-90191250D01*
X168314127Y-90258886D01*
X167993827Y-90391558D01*
X167705565Y-90584169D01*
X167460419Y-90829315D01*
X167267808Y-91117577D01*
X167135136Y-91437877D01*
X167067500Y-91777905D01*
X160838957Y-91777905D01*
X158475000Y-89413949D01*
X158475000Y-77722326D01*
X158896100Y-77722326D01*
X158896100Y-78240174D01*
X158997127Y-78748072D01*
X159195299Y-79226501D01*
X159483000Y-79657076D01*
X159849174Y-80023250D01*
X160279749Y-80310951D01*
X160758178Y-80509123D01*
X161266076Y-80610150D01*
X161783924Y-80610150D01*
X162291822Y-80509123D01*
X162770251Y-80310951D01*
X163200826Y-80023250D01*
X163567000Y-79657076D01*
X163854701Y-79226501D01*
X164052873Y-78748072D01*
X164153900Y-78240174D01*
X164153900Y-77832528D01*
X165095000Y-77832528D01*
X165095000Y-78129972D01*
X165153029Y-78421701D01*
X165266856Y-78696503D01*
X165432107Y-78943819D01*
X165642431Y-79154143D01*
X165889747Y-79319394D01*
X166164549Y-79433221D01*
X166456278Y-79491250D01*
X166753722Y-79491250D01*
X167045451Y-79433221D01*
X167320253Y-79319394D01*
X167567569Y-79154143D01*
X167777893Y-78943819D01*
X167943144Y-78696503D01*
X168056971Y-78421701D01*
X168115000Y-78129972D01*
X168115000Y-77832528D01*
X173985000Y-77832528D01*
X173985000Y-78129972D01*
X174043029Y-78421701D01*
X174156856Y-78696503D01*
X174322107Y-78943819D01*
X174532431Y-79154143D01*
X174779747Y-79319394D01*
X175054549Y-79433221D01*
X175346278Y-79491250D01*
X175643722Y-79491250D01*
X175935451Y-79433221D01*
X176005000Y-79404413D01*
X176005001Y-89691418D01*
X176001324Y-89728750D01*
X176005001Y-89766083D01*
X176011883Y-89835951D01*
X176015998Y-89877735D01*
X176059454Y-90020996D01*
X176130026Y-90153026D01*
X176201201Y-90239752D01*
X176225000Y-90268751D01*
X176253998Y-90292549D01*
X179865652Y-93904204D01*
X179835136Y-93977877D01*
X179767500Y-94317905D01*
X179767500Y-94664595D01*
X179835136Y-95004623D01*
X179967808Y-95324923D01*
X180100138Y-95522969D01*
X179817049Y-95579279D01*
X179542247Y-95693106D01*
X179294931Y-95858357D01*
X179084607Y-96068681D01*
X178919356Y-96315997D01*
X178805529Y-96590799D01*
X178747500Y-96882528D01*
X178747500Y-97179972D01*
X178805529Y-97471701D01*
X178919356Y-97746503D01*
X179084607Y-97993819D01*
X179294931Y-98204143D01*
X179542247Y-98369394D01*
X179817049Y-98483221D01*
X180108778Y-98541250D01*
X180406222Y-98541250D01*
X180697951Y-98483221D01*
X180767500Y-98454413D01*
X180767501Y-108741418D01*
X180763824Y-108778750D01*
X180778498Y-108927735D01*
X180821954Y-109070996D01*
X180892526Y-109203026D01*
X180963701Y-109289752D01*
X180987500Y-109318751D01*
X181016498Y-109342549D01*
X184628152Y-112954204D01*
X184597636Y-113027877D01*
X184530000Y-113367905D01*
X184530000Y-113714595D01*
X184597636Y-114054623D01*
X184730308Y-114374923D01*
X184862638Y-114572969D01*
X184579549Y-114629279D01*
X184304747Y-114743106D01*
X184057431Y-114908357D01*
X183847107Y-115118681D01*
X183681856Y-115365997D01*
X183568029Y-115640799D01*
X183510000Y-115932528D01*
X183510000Y-116229972D01*
X183568029Y-116521701D01*
X183681856Y-116796503D01*
X183847107Y-117043819D01*
X184057431Y-117254143D01*
X184304747Y-117419394D01*
X184579549Y-117533221D01*
X184871278Y-117591250D01*
X185168722Y-117591250D01*
X185460451Y-117533221D01*
X185735253Y-117419394D01*
X185982569Y-117254143D01*
X186192893Y-117043819D01*
X186358144Y-116796503D01*
X186471971Y-116521701D01*
X186530000Y-116229972D01*
X186530000Y-115932528D01*
X186471971Y-115640799D01*
X186358144Y-115365997D01*
X186314882Y-115301250D01*
X186463345Y-115301250D01*
X186803373Y-115233614D01*
X187123673Y-115100942D01*
X187411935Y-114908331D01*
X187657081Y-114663185D01*
X187849692Y-114374923D01*
X187880208Y-114301250D01*
X188162174Y-114301250D01*
X188058000Y-114405424D01*
X187770299Y-114835999D01*
X187572127Y-115314428D01*
X187471100Y-115822326D01*
X187471100Y-116340174D01*
X187572127Y-116848072D01*
X187770299Y-117326501D01*
X188058000Y-117757076D01*
X188424174Y-118123250D01*
X188854749Y-118410951D01*
X189333178Y-118609123D01*
X189841076Y-118710150D01*
X190358924Y-118710150D01*
X190866822Y-118609123D01*
X191345251Y-118410951D01*
X191775826Y-118123250D01*
X192142000Y-117757076D01*
X192429701Y-117326501D01*
X192627873Y-116848072D01*
X192728900Y-116340174D01*
X192728900Y-115822326D01*
X192627873Y-115314428D01*
X192429701Y-114835999D01*
X192142000Y-114405424D01*
X192037826Y-114301250D01*
X194224792Y-114301250D01*
X194255308Y-114374923D01*
X194387638Y-114572969D01*
X194104549Y-114629279D01*
X193829747Y-114743106D01*
X193582431Y-114908357D01*
X193372107Y-115118681D01*
X193206856Y-115365997D01*
X193093029Y-115640799D01*
X193035000Y-115932528D01*
X193035000Y-116229972D01*
X193093029Y-116521701D01*
X193206856Y-116796503D01*
X193372107Y-117043819D01*
X193582431Y-117254143D01*
X193829747Y-117419394D01*
X194104549Y-117533221D01*
X194396278Y-117591250D01*
X194693722Y-117591250D01*
X194862500Y-117557678D01*
X195031278Y-117591250D01*
X195328722Y-117591250D01*
X195620451Y-117533221D01*
X195895253Y-117419394D01*
X196142569Y-117254143D01*
X196352893Y-117043819D01*
X196518144Y-116796503D01*
X196631971Y-116521701D01*
X196690000Y-116229972D01*
X196690000Y-115932528D01*
X196668080Y-115822326D01*
X196996100Y-115822326D01*
X196996100Y-116340174D01*
X197097127Y-116848072D01*
X197295299Y-117326501D01*
X197583000Y-117757076D01*
X197949174Y-118123250D01*
X198379749Y-118410951D01*
X198858178Y-118609123D01*
X199366076Y-118710150D01*
X199883924Y-118710150D01*
X200391822Y-118609123D01*
X200870251Y-118410951D01*
X201300826Y-118123250D01*
X201667000Y-117757076D01*
X201954701Y-117326501D01*
X202152873Y-116848072D01*
X202253900Y-116340174D01*
X202253900Y-115822326D01*
X202152873Y-115314428D01*
X201954701Y-114835999D01*
X201667000Y-114405424D01*
X201300826Y-114039250D01*
X200870251Y-113751549D01*
X200391822Y-113553377D01*
X199883924Y-113452350D01*
X199366076Y-113452350D01*
X198858178Y-113553377D01*
X198379749Y-113751549D01*
X197949174Y-114039250D01*
X197583000Y-114405424D01*
X197295299Y-114835999D01*
X197097127Y-115314428D01*
X196996100Y-115822326D01*
X196668080Y-115822326D01*
X196631971Y-115640799D01*
X196518144Y-115365997D01*
X196407726Y-115200745D01*
X196648673Y-115100942D01*
X196936935Y-114908331D01*
X197182081Y-114663185D01*
X197374692Y-114374923D01*
X197507364Y-114054623D01*
X197575000Y-113714595D01*
X197575000Y-113367905D01*
X197507364Y-113027877D01*
X197374692Y-112707577D01*
X197182081Y-112419315D01*
X196936935Y-112174169D01*
X196648673Y-111981558D01*
X196328373Y-111848886D01*
X195988345Y-111781250D01*
X195641655Y-111781250D01*
X195301627Y-111848886D01*
X194981327Y-111981558D01*
X194693065Y-112174169D01*
X194447919Y-112419315D01*
X194255308Y-112707577D01*
X194224792Y-112781250D01*
X187880208Y-112781250D01*
X187849692Y-112707577D01*
X187657081Y-112419315D01*
X187411935Y-112174169D01*
X187123673Y-111981558D01*
X186803373Y-111848886D01*
X186463345Y-111781250D01*
X186116655Y-111781250D01*
X185776627Y-111848886D01*
X185702954Y-111879402D01*
X184651457Y-110827905D01*
X190880000Y-110827905D01*
X190880000Y-111174595D01*
X190947636Y-111514623D01*
X191080308Y-111834923D01*
X191272919Y-112123185D01*
X191518065Y-112368331D01*
X191806327Y-112560942D01*
X192126627Y-112693614D01*
X192466655Y-112761250D01*
X192813345Y-112761250D01*
X193153373Y-112693614D01*
X193473673Y-112560942D01*
X193761935Y-112368331D01*
X194007081Y-112123185D01*
X194199692Y-111834923D01*
X194332364Y-111514623D01*
X194400000Y-111174595D01*
X194400000Y-110827905D01*
X194332364Y-110487877D01*
X194199692Y-110167577D01*
X194007081Y-109879315D01*
X193761935Y-109634169D01*
X193473673Y-109441558D01*
X193153373Y-109308886D01*
X192813345Y-109241250D01*
X192466655Y-109241250D01*
X192126627Y-109308886D01*
X191806327Y-109441558D01*
X191518065Y-109634169D01*
X191272919Y-109879315D01*
X191080308Y-110167577D01*
X190947636Y-110487877D01*
X190880000Y-110827905D01*
X184651457Y-110827905D01*
X182287500Y-108463949D01*
X182287500Y-107567326D01*
X185089850Y-107567326D01*
X185089850Y-108085174D01*
X185190877Y-108593072D01*
X185389049Y-109071501D01*
X185676750Y-109502076D01*
X186042924Y-109868250D01*
X186473499Y-110155951D01*
X186951928Y-110354123D01*
X187459826Y-110455150D01*
X187977674Y-110455150D01*
X188485572Y-110354123D01*
X188964001Y-110155951D01*
X189394576Y-109868250D01*
X189760750Y-109502076D01*
X190048451Y-109071501D01*
X190246623Y-108593072D01*
X190347650Y-108085174D01*
X190347650Y-107567326D01*
X190246623Y-107059428D01*
X190048451Y-106580999D01*
X189760750Y-106150424D01*
X189394576Y-105784250D01*
X188964001Y-105496549D01*
X188485572Y-105298377D01*
X187977674Y-105197350D01*
X187459826Y-105197350D01*
X186951928Y-105298377D01*
X186473499Y-105496549D01*
X186042924Y-105784250D01*
X185676750Y-106150424D01*
X185389049Y-106580999D01*
X185190877Y-107059428D01*
X185089850Y-107567326D01*
X182287500Y-107567326D01*
X182287500Y-96772326D01*
X182708600Y-96772326D01*
X182708600Y-97290174D01*
X182809627Y-97798072D01*
X183007799Y-98276501D01*
X183295500Y-98707076D01*
X183661674Y-99073250D01*
X184092249Y-99360951D01*
X184570678Y-99559123D01*
X185078576Y-99660150D01*
X185596424Y-99660150D01*
X186104322Y-99559123D01*
X186582751Y-99360951D01*
X187013326Y-99073250D01*
X187379500Y-98707076D01*
X187667201Y-98276501D01*
X187865373Y-97798072D01*
X187966400Y-97290174D01*
X187966400Y-96882528D01*
X188907500Y-96882528D01*
X188907500Y-97179972D01*
X188965529Y-97471701D01*
X189079356Y-97746503D01*
X189244607Y-97993819D01*
X189454931Y-98204143D01*
X189702247Y-98369394D01*
X189977049Y-98483221D01*
X190268778Y-98541250D01*
X190566222Y-98541250D01*
X190857951Y-98483221D01*
X191132753Y-98369394D01*
X191380069Y-98204143D01*
X191590393Y-97993819D01*
X191755644Y-97746503D01*
X191869471Y-97471701D01*
X191927500Y-97179972D01*
X191927500Y-96882528D01*
X191869471Y-96590799D01*
X191755644Y-96315997D01*
X191590393Y-96068681D01*
X191380069Y-95858357D01*
X191132753Y-95693106D01*
X190857951Y-95579279D01*
X190566222Y-95521250D01*
X190268778Y-95521250D01*
X189977049Y-95579279D01*
X189702247Y-95693106D01*
X189454931Y-95858357D01*
X189244607Y-96068681D01*
X189079356Y-96315997D01*
X188965529Y-96590799D01*
X188907500Y-96882528D01*
X187966400Y-96882528D01*
X187966400Y-96772326D01*
X187865373Y-96264428D01*
X187667201Y-95785999D01*
X187379500Y-95355424D01*
X187013326Y-94989250D01*
X186582751Y-94701549D01*
X186104322Y-94503377D01*
X185596424Y-94402350D01*
X185078576Y-94402350D01*
X184570678Y-94503377D01*
X184092249Y-94701549D01*
X183661674Y-94989250D01*
X183295500Y-95355424D01*
X183007799Y-95785999D01*
X182809627Y-96264428D01*
X182708600Y-96772326D01*
X182287500Y-96772326D01*
X182287500Y-96081458D01*
X182361173Y-96050942D01*
X182649435Y-95858331D01*
X182894581Y-95613185D01*
X183087192Y-95324923D01*
X183219864Y-95004623D01*
X183287500Y-94664595D01*
X183287500Y-94317905D01*
X183219864Y-93977877D01*
X183087192Y-93657577D01*
X182894581Y-93369315D01*
X182649435Y-93124169D01*
X182361173Y-92931558D01*
X182040873Y-92798886D01*
X181700845Y-92731250D01*
X181354155Y-92731250D01*
X181014127Y-92798886D01*
X180940454Y-92829402D01*
X179888957Y-91777905D01*
X186117500Y-91777905D01*
X186117500Y-92124595D01*
X186185136Y-92464623D01*
X186317808Y-92784923D01*
X186510419Y-93073185D01*
X186755565Y-93318331D01*
X187043827Y-93510942D01*
X187364127Y-93643614D01*
X187704155Y-93711250D01*
X188050845Y-93711250D01*
X188390873Y-93643614D01*
X188711173Y-93510942D01*
X188999435Y-93318331D01*
X189244581Y-93073185D01*
X189437192Y-92784923D01*
X189569864Y-92464623D01*
X189637500Y-92124595D01*
X189637500Y-91777905D01*
X189569864Y-91437877D01*
X189437192Y-91117577D01*
X189244581Y-90829315D01*
X188999435Y-90584169D01*
X188711173Y-90391558D01*
X188390873Y-90258886D01*
X188050845Y-90191250D01*
X187704155Y-90191250D01*
X187364127Y-90258886D01*
X187043827Y-90391558D01*
X186755565Y-90584169D01*
X186510419Y-90829315D01*
X186317808Y-91117577D01*
X186185136Y-91437877D01*
X186117500Y-91777905D01*
X179888957Y-91777905D01*
X177525000Y-89413949D01*
X177525000Y-77722326D01*
X177946100Y-77722326D01*
X177946100Y-78240174D01*
X178047127Y-78748072D01*
X178245299Y-79226501D01*
X178533000Y-79657076D01*
X178899174Y-80023250D01*
X179329749Y-80310951D01*
X179808178Y-80509123D01*
X180316076Y-80610150D01*
X180833924Y-80610150D01*
X181341822Y-80509123D01*
X181820251Y-80310951D01*
X182250826Y-80023250D01*
X182617000Y-79657076D01*
X182904701Y-79226501D01*
X183102873Y-78748072D01*
X183203900Y-78240174D01*
X183203900Y-77832528D01*
X184145000Y-77832528D01*
X184145000Y-78129972D01*
X184203029Y-78421701D01*
X184316856Y-78696503D01*
X184482107Y-78943819D01*
X184692431Y-79154143D01*
X184939747Y-79319394D01*
X185214549Y-79433221D01*
X185506278Y-79491250D01*
X185803722Y-79491250D01*
X186095451Y-79433221D01*
X186370253Y-79319394D01*
X186617569Y-79154143D01*
X186827893Y-78943819D01*
X186993144Y-78696503D01*
X187106971Y-78421701D01*
X187165000Y-78129972D01*
X187165000Y-77832528D01*
X187139042Y-77702027D01*
X187315000Y-77702027D01*
X187315000Y-78260473D01*
X187423948Y-78808189D01*
X187637656Y-79324126D01*
X187947912Y-79788457D01*
X188342793Y-80183338D01*
X188807124Y-80493594D01*
X189323061Y-80707302D01*
X189870777Y-80816250D01*
X190429223Y-80816250D01*
X190976939Y-80707302D01*
X191492876Y-80493594D01*
X191957207Y-80183338D01*
X192352088Y-79788457D01*
X192662344Y-79324126D01*
X192876052Y-78808189D01*
X192985000Y-78260473D01*
X192985000Y-77832528D01*
X193035000Y-77832528D01*
X193035000Y-78129972D01*
X193093029Y-78421701D01*
X193206856Y-78696503D01*
X193372107Y-78943819D01*
X193582431Y-79154143D01*
X193829747Y-79319394D01*
X194104549Y-79433221D01*
X194396278Y-79491250D01*
X194693722Y-79491250D01*
X194985451Y-79433221D01*
X195055000Y-79404413D01*
X195055001Y-89691418D01*
X195051324Y-89728750D01*
X195055001Y-89766083D01*
X195061883Y-89835951D01*
X195065998Y-89877735D01*
X195109454Y-90020996D01*
X195180026Y-90153026D01*
X195251201Y-90239752D01*
X195275000Y-90268751D01*
X195303998Y-90292549D01*
X198915652Y-93904204D01*
X198885136Y-93977877D01*
X198817500Y-94317905D01*
X198817500Y-94664595D01*
X198885136Y-95004623D01*
X199017808Y-95324923D01*
X199150138Y-95522969D01*
X198867049Y-95579279D01*
X198592247Y-95693106D01*
X198344931Y-95858357D01*
X198134607Y-96068681D01*
X197969356Y-96315997D01*
X197855529Y-96590799D01*
X197797500Y-96882528D01*
X197797500Y-97179972D01*
X197855529Y-97471701D01*
X197969356Y-97746503D01*
X198134607Y-97993819D01*
X198344931Y-98204143D01*
X198592247Y-98369394D01*
X198867049Y-98483221D01*
X199158778Y-98541250D01*
X199456222Y-98541250D01*
X199747951Y-98483221D01*
X199817500Y-98454413D01*
X199817501Y-107230416D01*
X199813824Y-107267748D01*
X199828498Y-107416733D01*
X199871954Y-107559994D01*
X199942526Y-107692024D01*
X200013701Y-107778750D01*
X200037500Y-107807749D01*
X200066498Y-107831547D01*
X201575408Y-109340457D01*
X201331327Y-109441558D01*
X201043065Y-109634169D01*
X200797919Y-109879315D01*
X200605308Y-110167577D01*
X200472636Y-110487877D01*
X200405000Y-110827905D01*
X200405000Y-111174595D01*
X200472636Y-111514623D01*
X200605308Y-111834923D01*
X200797919Y-112123185D01*
X201043065Y-112368331D01*
X201331327Y-112560942D01*
X201651627Y-112693614D01*
X201991655Y-112761250D01*
X202338345Y-112761250D01*
X202678373Y-112693614D01*
X202998673Y-112560942D01*
X203286935Y-112368331D01*
X203532081Y-112123185D01*
X203724692Y-111834923D01*
X203825793Y-111590843D01*
X204332593Y-112097643D01*
X204218065Y-112174169D01*
X203972919Y-112419315D01*
X203780308Y-112707577D01*
X203647636Y-113027877D01*
X203580000Y-113367905D01*
X203580000Y-113714595D01*
X203647636Y-114054623D01*
X203780308Y-114374923D01*
X203912638Y-114572969D01*
X203629549Y-114629279D01*
X203354747Y-114743106D01*
X203107431Y-114908357D01*
X202897107Y-115118681D01*
X202731856Y-115365997D01*
X202618029Y-115640799D01*
X202560000Y-115932528D01*
X202560000Y-116229972D01*
X202618029Y-116521701D01*
X202731856Y-116796503D01*
X202897107Y-117043819D01*
X203107431Y-117254143D01*
X203354747Y-117419394D01*
X203629549Y-117533221D01*
X203921278Y-117591250D01*
X204218722Y-117591250D01*
X204387500Y-117557678D01*
X204556278Y-117591250D01*
X204853722Y-117591250D01*
X205145451Y-117533221D01*
X205420253Y-117419394D01*
X205667569Y-117254143D01*
X205877893Y-117043819D01*
X206043144Y-116796503D01*
X206156971Y-116521701D01*
X206215000Y-116229972D01*
X206215000Y-115932528D01*
X206193080Y-115822326D01*
X206521100Y-115822326D01*
X206521100Y-116340174D01*
X206622127Y-116848072D01*
X206820299Y-117326501D01*
X207108000Y-117757076D01*
X207474174Y-118123250D01*
X207904749Y-118410951D01*
X208383178Y-118609123D01*
X208891076Y-118710150D01*
X209408924Y-118710150D01*
X209916822Y-118609123D01*
X210395251Y-118410951D01*
X210825826Y-118123250D01*
X211192000Y-117757076D01*
X211479701Y-117326501D01*
X211677873Y-116848072D01*
X211778900Y-116340174D01*
X211778900Y-115932528D01*
X212720000Y-115932528D01*
X212720000Y-116229972D01*
X212778029Y-116521701D01*
X212891856Y-116796503D01*
X213057107Y-117043819D01*
X213267431Y-117254143D01*
X213514747Y-117419394D01*
X213789549Y-117533221D01*
X214081278Y-117591250D01*
X214378722Y-117591250D01*
X214670451Y-117533221D01*
X214945253Y-117419394D01*
X215192569Y-117254143D01*
X215402893Y-117043819D01*
X215568144Y-116796503D01*
X215681971Y-116521701D01*
X215740000Y-116229972D01*
X215740000Y-115932528D01*
X215681971Y-115640799D01*
X215568144Y-115365997D01*
X215402893Y-115118681D01*
X215192569Y-114908357D01*
X214945253Y-114743106D01*
X214670451Y-114629279D01*
X214378722Y-114571250D01*
X214081278Y-114571250D01*
X213789549Y-114629279D01*
X213514747Y-114743106D01*
X213267431Y-114908357D01*
X213057107Y-115118681D01*
X212891856Y-115365997D01*
X212778029Y-115640799D01*
X212720000Y-115932528D01*
X211778900Y-115932528D01*
X211778900Y-115822326D01*
X211677873Y-115314428D01*
X211479701Y-114835999D01*
X211192000Y-114405424D01*
X210825826Y-114039250D01*
X210395251Y-113751549D01*
X209916822Y-113553377D01*
X209408924Y-113452350D01*
X208891076Y-113452350D01*
X208383178Y-113553377D01*
X207904749Y-113751549D01*
X207474174Y-114039250D01*
X207108000Y-114405424D01*
X206820299Y-114835999D01*
X206622127Y-115314428D01*
X206521100Y-115822326D01*
X206193080Y-115822326D01*
X206156971Y-115640799D01*
X206043144Y-115365997D01*
X205932726Y-115200745D01*
X206173673Y-115100942D01*
X206461935Y-114908331D01*
X206707081Y-114663185D01*
X206899692Y-114374923D01*
X207032364Y-114054623D01*
X207100000Y-113714595D01*
X207100000Y-113367905D01*
X207032364Y-113027877D01*
X206899692Y-112707577D01*
X206707081Y-112419315D01*
X206461935Y-112174169D01*
X206173673Y-111981558D01*
X206095700Y-111949261D01*
X206089003Y-111881262D01*
X206045546Y-111738001D01*
X205974975Y-111605973D01*
X205974974Y-111605971D01*
X205903799Y-111519245D01*
X205880001Y-111490247D01*
X205851004Y-111466450D01*
X201951880Y-107567326D01*
X208902350Y-107567326D01*
X208902350Y-108085174D01*
X209003377Y-108593072D01*
X209201549Y-109071501D01*
X209489250Y-109502076D01*
X209855424Y-109868250D01*
X210183734Y-110087620D01*
X210130308Y-110167577D01*
X209997636Y-110487877D01*
X209930000Y-110827905D01*
X209930000Y-111174595D01*
X209997636Y-111514623D01*
X210130308Y-111834923D01*
X210322919Y-112123185D01*
X210568065Y-112368331D01*
X210856327Y-112560942D01*
X211176627Y-112693614D01*
X211516655Y-112761250D01*
X211863345Y-112761250D01*
X212203373Y-112693614D01*
X212523673Y-112560942D01*
X212811935Y-112368331D01*
X213057081Y-112123185D01*
X213249692Y-111834923D01*
X213382364Y-111514623D01*
X213450000Y-111174595D01*
X213450000Y-110827905D01*
X213382364Y-110487877D01*
X213249692Y-110167577D01*
X213098267Y-109940954D01*
X213207076Y-109868250D01*
X213573250Y-109502076D01*
X213860951Y-109071501D01*
X214059123Y-108593072D01*
X214160150Y-108085174D01*
X214160150Y-107567326D01*
X214059123Y-107059428D01*
X213860951Y-106580999D01*
X213573250Y-106150424D01*
X213207076Y-105784250D01*
X212776501Y-105496549D01*
X212298072Y-105298377D01*
X211790174Y-105197350D01*
X211272326Y-105197350D01*
X210764428Y-105298377D01*
X210285999Y-105496549D01*
X209855424Y-105784250D01*
X209489250Y-106150424D01*
X209201549Y-106580999D01*
X209003377Y-107059428D01*
X208902350Y-107567326D01*
X201951880Y-107567326D01*
X201337500Y-106952947D01*
X201337500Y-96772326D01*
X201758600Y-96772326D01*
X201758600Y-97290174D01*
X201859627Y-97798072D01*
X202057799Y-98276501D01*
X202345500Y-98707076D01*
X202711674Y-99073250D01*
X203142249Y-99360951D01*
X203620678Y-99559123D01*
X204128576Y-99660150D01*
X204646424Y-99660150D01*
X205154322Y-99559123D01*
X205632751Y-99360951D01*
X206063326Y-99073250D01*
X206429500Y-98707076D01*
X206717201Y-98276501D01*
X206915373Y-97798072D01*
X207016400Y-97290174D01*
X207016400Y-96882528D01*
X207957500Y-96882528D01*
X207957500Y-97179972D01*
X208015529Y-97471701D01*
X208129356Y-97746503D01*
X208294607Y-97993819D01*
X208504931Y-98204143D01*
X208752247Y-98369394D01*
X209027049Y-98483221D01*
X209318778Y-98541250D01*
X209616222Y-98541250D01*
X209907951Y-98483221D01*
X210182753Y-98369394D01*
X210430069Y-98204143D01*
X210640393Y-97993819D01*
X210805644Y-97746503D01*
X210919471Y-97471701D01*
X210977500Y-97179972D01*
X210977500Y-96882528D01*
X210919471Y-96590799D01*
X210805644Y-96315997D01*
X210640393Y-96068681D01*
X210430069Y-95858357D01*
X210182753Y-95693106D01*
X209907951Y-95579279D01*
X209616222Y-95521250D01*
X209318778Y-95521250D01*
X209027049Y-95579279D01*
X208752247Y-95693106D01*
X208504931Y-95858357D01*
X208294607Y-96068681D01*
X208129356Y-96315997D01*
X208015529Y-96590799D01*
X207957500Y-96882528D01*
X207016400Y-96882528D01*
X207016400Y-96772326D01*
X206915373Y-96264428D01*
X206717201Y-95785999D01*
X206429500Y-95355424D01*
X206063326Y-94989250D01*
X205632751Y-94701549D01*
X205154322Y-94503377D01*
X204646424Y-94402350D01*
X204128576Y-94402350D01*
X203620678Y-94503377D01*
X203142249Y-94701549D01*
X202711674Y-94989250D01*
X202345500Y-95355424D01*
X202057799Y-95785999D01*
X201859627Y-96264428D01*
X201758600Y-96772326D01*
X201337500Y-96772326D01*
X201337500Y-96081458D01*
X201411173Y-96050942D01*
X201699435Y-95858331D01*
X201944581Y-95613185D01*
X202137192Y-95324923D01*
X202269864Y-95004623D01*
X202337500Y-94664595D01*
X202337500Y-94317905D01*
X202269864Y-93977877D01*
X202137192Y-93657577D01*
X201944581Y-93369315D01*
X201699435Y-93124169D01*
X201411173Y-92931558D01*
X201090873Y-92798886D01*
X200750845Y-92731250D01*
X200404155Y-92731250D01*
X200064127Y-92798886D01*
X199990454Y-92829402D01*
X198938957Y-91777905D01*
X205167500Y-91777905D01*
X205167500Y-92124595D01*
X205235136Y-92464623D01*
X205367808Y-92784923D01*
X205560419Y-93073185D01*
X205805565Y-93318331D01*
X206093827Y-93510942D01*
X206414127Y-93643614D01*
X206754155Y-93711250D01*
X207100845Y-93711250D01*
X207440873Y-93643614D01*
X207761173Y-93510942D01*
X208049435Y-93318331D01*
X208294581Y-93073185D01*
X208487192Y-92784923D01*
X208619864Y-92464623D01*
X208687500Y-92124595D01*
X208687500Y-91777905D01*
X208619864Y-91437877D01*
X208487192Y-91117577D01*
X208294581Y-90829315D01*
X208049435Y-90584169D01*
X207761173Y-90391558D01*
X207440873Y-90258886D01*
X207100845Y-90191250D01*
X206754155Y-90191250D01*
X206414127Y-90258886D01*
X206093827Y-90391558D01*
X205805565Y-90584169D01*
X205560419Y-90829315D01*
X205367808Y-91117577D01*
X205235136Y-91437877D01*
X205167500Y-91777905D01*
X198938957Y-91777905D01*
X196575000Y-89413949D01*
X196575000Y-77722326D01*
X196996100Y-77722326D01*
X196996100Y-78240174D01*
X197097127Y-78748072D01*
X197295299Y-79226501D01*
X197583000Y-79657076D01*
X197949174Y-80023250D01*
X198379749Y-80310951D01*
X198858178Y-80509123D01*
X199366076Y-80610150D01*
X199883924Y-80610150D01*
X200391822Y-80509123D01*
X200870251Y-80310951D01*
X201300826Y-80023250D01*
X201667000Y-79657076D01*
X201954701Y-79226501D01*
X202152873Y-78748072D01*
X202253900Y-78240174D01*
X202253900Y-77832528D01*
X203195000Y-77832528D01*
X203195000Y-78129972D01*
X203253029Y-78421701D01*
X203366856Y-78696503D01*
X203532107Y-78943819D01*
X203742431Y-79154143D01*
X203989747Y-79319394D01*
X204264549Y-79433221D01*
X204556278Y-79491250D01*
X204853722Y-79491250D01*
X205145451Y-79433221D01*
X205420253Y-79319394D01*
X205667569Y-79154143D01*
X205877893Y-78943819D01*
X206043144Y-78696503D01*
X206156971Y-78421701D01*
X206215000Y-78129972D01*
X206215000Y-77832528D01*
X212085000Y-77832528D01*
X212085000Y-78129972D01*
X212143029Y-78421701D01*
X212256856Y-78696503D01*
X212422107Y-78943819D01*
X212632431Y-79154143D01*
X212879747Y-79319394D01*
X213154549Y-79433221D01*
X213446278Y-79491250D01*
X213743722Y-79491250D01*
X214035451Y-79433221D01*
X214105000Y-79404413D01*
X214105001Y-89691418D01*
X214101324Y-89728750D01*
X214105001Y-89766083D01*
X214111883Y-89835951D01*
X214115998Y-89877735D01*
X214159454Y-90020996D01*
X214230026Y-90153026D01*
X214301201Y-90239752D01*
X214325000Y-90268751D01*
X214353998Y-90292549D01*
X217965652Y-93904204D01*
X217935136Y-93977877D01*
X217867500Y-94317905D01*
X217867500Y-94664595D01*
X217935136Y-95004623D01*
X218067808Y-95324923D01*
X218200138Y-95522969D01*
X217917049Y-95579279D01*
X217642247Y-95693106D01*
X217394931Y-95858357D01*
X217184607Y-96068681D01*
X217019356Y-96315997D01*
X216905529Y-96590799D01*
X216847500Y-96882528D01*
X216847500Y-97179972D01*
X216905529Y-97471701D01*
X217019356Y-97746503D01*
X217184607Y-97993819D01*
X217394931Y-98204143D01*
X217642247Y-98369394D01*
X217917049Y-98483221D01*
X218208778Y-98541250D01*
X218506222Y-98541250D01*
X218797951Y-98483221D01*
X218867500Y-98454413D01*
X218867501Y-108741418D01*
X218863824Y-108778750D01*
X218878498Y-108927735D01*
X218921954Y-109070996D01*
X218992526Y-109203026D01*
X219063701Y-109289752D01*
X219087500Y-109318751D01*
X219116498Y-109342549D01*
X222728152Y-112954204D01*
X222697636Y-113027877D01*
X222630000Y-113367905D01*
X222630000Y-113714595D01*
X222697636Y-114054623D01*
X222830308Y-114374923D01*
X222962638Y-114572969D01*
X222679549Y-114629279D01*
X222404747Y-114743106D01*
X222157431Y-114908357D01*
X221947107Y-115118681D01*
X221781856Y-115365997D01*
X221668029Y-115640799D01*
X221610000Y-115932528D01*
X221610000Y-116229972D01*
X221668029Y-116521701D01*
X221781856Y-116796503D01*
X221947107Y-117043819D01*
X222157431Y-117254143D01*
X222404747Y-117419394D01*
X222679549Y-117533221D01*
X222971278Y-117591250D01*
X223268722Y-117591250D01*
X223560451Y-117533221D01*
X223835253Y-117419394D01*
X224082569Y-117254143D01*
X224292893Y-117043819D01*
X224458144Y-116796503D01*
X224571971Y-116521701D01*
X224630000Y-116229972D01*
X224630000Y-115932528D01*
X224608080Y-115822326D01*
X225571100Y-115822326D01*
X225571100Y-116340174D01*
X225672127Y-116848072D01*
X225870299Y-117326501D01*
X226158000Y-117757076D01*
X226524174Y-118123250D01*
X226954749Y-118410951D01*
X227433178Y-118609123D01*
X227941076Y-118710150D01*
X228458924Y-118710150D01*
X228966822Y-118609123D01*
X229445251Y-118410951D01*
X229875826Y-118123250D01*
X230242000Y-117757076D01*
X230529701Y-117326501D01*
X230727873Y-116848072D01*
X230828900Y-116340174D01*
X230828900Y-115932528D01*
X231770000Y-115932528D01*
X231770000Y-116229972D01*
X231828029Y-116521701D01*
X231941856Y-116796503D01*
X232107107Y-117043819D01*
X232317431Y-117254143D01*
X232564747Y-117419394D01*
X232839549Y-117533221D01*
X233131278Y-117591250D01*
X233428722Y-117591250D01*
X233720451Y-117533221D01*
X233995253Y-117419394D01*
X234242569Y-117254143D01*
X234452893Y-117043819D01*
X234618144Y-116796503D01*
X234731971Y-116521701D01*
X234790000Y-116229972D01*
X234790000Y-115932528D01*
X234764042Y-115802027D01*
X234915000Y-115802027D01*
X234915000Y-116360473D01*
X235023948Y-116908189D01*
X235237656Y-117424126D01*
X235547912Y-117888457D01*
X235942793Y-118283338D01*
X236407124Y-118593594D01*
X236923061Y-118807302D01*
X237470777Y-118916250D01*
X238029223Y-118916250D01*
X238576939Y-118807302D01*
X239092876Y-118593594D01*
X239557207Y-118283338D01*
X239952088Y-117888457D01*
X240262344Y-117424126D01*
X240476052Y-116908189D01*
X240585000Y-116360473D01*
X240585000Y-115802027D01*
X240476052Y-115254311D01*
X240262344Y-114738374D01*
X239952088Y-114274043D01*
X239557207Y-113879162D01*
X239092876Y-113568906D01*
X238576939Y-113355198D01*
X238029223Y-113246250D01*
X237470777Y-113246250D01*
X236923061Y-113355198D01*
X236407124Y-113568906D01*
X235942793Y-113879162D01*
X235547912Y-114274043D01*
X235237656Y-114738374D01*
X235023948Y-115254311D01*
X234915000Y-115802027D01*
X234764042Y-115802027D01*
X234731971Y-115640799D01*
X234618144Y-115365997D01*
X234452893Y-115118681D01*
X234242569Y-114908357D01*
X233995253Y-114743106D01*
X233720451Y-114629279D01*
X233428722Y-114571250D01*
X233131278Y-114571250D01*
X232839549Y-114629279D01*
X232564747Y-114743106D01*
X232317431Y-114908357D01*
X232107107Y-115118681D01*
X231941856Y-115365997D01*
X231828029Y-115640799D01*
X231770000Y-115932528D01*
X230828900Y-115932528D01*
X230828900Y-115822326D01*
X230727873Y-115314428D01*
X230529701Y-114835999D01*
X230242000Y-114405424D01*
X229875826Y-114039250D01*
X229445251Y-113751549D01*
X228966822Y-113553377D01*
X228458924Y-113452350D01*
X227941076Y-113452350D01*
X227433178Y-113553377D01*
X226954749Y-113751549D01*
X226524174Y-114039250D01*
X226158000Y-114405424D01*
X225870299Y-114835999D01*
X225672127Y-115314428D01*
X225571100Y-115822326D01*
X224608080Y-115822326D01*
X224571971Y-115640799D01*
X224458144Y-115365997D01*
X224414882Y-115301250D01*
X224563345Y-115301250D01*
X224903373Y-115233614D01*
X225223673Y-115100942D01*
X225511935Y-114908331D01*
X225757081Y-114663185D01*
X225949692Y-114374923D01*
X226082364Y-114054623D01*
X226150000Y-113714595D01*
X226150000Y-113367905D01*
X226082364Y-113027877D01*
X225949692Y-112707577D01*
X225757081Y-112419315D01*
X225511935Y-112174169D01*
X225223673Y-111981558D01*
X224903373Y-111848886D01*
X224563345Y-111781250D01*
X224216655Y-111781250D01*
X223876627Y-111848886D01*
X223802954Y-111879402D01*
X222751457Y-110827905D01*
X228980000Y-110827905D01*
X228980000Y-111174595D01*
X229047636Y-111514623D01*
X229180308Y-111834923D01*
X229372919Y-112123185D01*
X229618065Y-112368331D01*
X229906327Y-112560942D01*
X230226627Y-112693614D01*
X230566655Y-112761250D01*
X230913345Y-112761250D01*
X231253373Y-112693614D01*
X231573673Y-112560942D01*
X231861935Y-112368331D01*
X232107081Y-112123185D01*
X232299692Y-111834923D01*
X232432364Y-111514623D01*
X232500000Y-111174595D01*
X232500000Y-110827905D01*
X232432364Y-110487877D01*
X232299692Y-110167577D01*
X232107081Y-109879315D01*
X231861935Y-109634169D01*
X231573673Y-109441558D01*
X231253373Y-109308886D01*
X230913345Y-109241250D01*
X230566655Y-109241250D01*
X230226627Y-109308886D01*
X229906327Y-109441558D01*
X229618065Y-109634169D01*
X229372919Y-109879315D01*
X229180308Y-110167577D01*
X229047636Y-110487877D01*
X228980000Y-110827905D01*
X222751457Y-110827905D01*
X220387500Y-108463949D01*
X220387500Y-96772326D01*
X220808600Y-96772326D01*
X220808600Y-97290174D01*
X220909627Y-97798072D01*
X221107799Y-98276501D01*
X221395500Y-98707076D01*
X221761674Y-99073250D01*
X222192249Y-99360951D01*
X222670678Y-99559123D01*
X223178576Y-99660150D01*
X223696424Y-99660150D01*
X224204322Y-99559123D01*
X224682751Y-99360951D01*
X225113326Y-99073250D01*
X225479500Y-98707076D01*
X225767201Y-98276501D01*
X225965373Y-97798072D01*
X226066400Y-97290174D01*
X226066400Y-96882528D01*
X227007500Y-96882528D01*
X227007500Y-97179972D01*
X227065529Y-97471701D01*
X227179356Y-97746503D01*
X227344607Y-97993819D01*
X227554931Y-98204143D01*
X227802247Y-98369394D01*
X228077049Y-98483221D01*
X228368778Y-98541250D01*
X228666222Y-98541250D01*
X228957951Y-98483221D01*
X229232753Y-98369394D01*
X229480069Y-98204143D01*
X229690393Y-97993819D01*
X229855644Y-97746503D01*
X229969471Y-97471701D01*
X230027500Y-97179972D01*
X230027500Y-96882528D01*
X229969471Y-96590799D01*
X229855644Y-96315997D01*
X229690393Y-96068681D01*
X229480069Y-95858357D01*
X229232753Y-95693106D01*
X228957951Y-95579279D01*
X228666222Y-95521250D01*
X228368778Y-95521250D01*
X228077049Y-95579279D01*
X227802247Y-95693106D01*
X227554931Y-95858357D01*
X227344607Y-96068681D01*
X227179356Y-96315997D01*
X227065529Y-96590799D01*
X227007500Y-96882528D01*
X226066400Y-96882528D01*
X226066400Y-96772326D01*
X225965373Y-96264428D01*
X225767201Y-95785999D01*
X225479500Y-95355424D01*
X225113326Y-94989250D01*
X224682751Y-94701549D01*
X224204322Y-94503377D01*
X223696424Y-94402350D01*
X223178576Y-94402350D01*
X222670678Y-94503377D01*
X222192249Y-94701549D01*
X221761674Y-94989250D01*
X221395500Y-95355424D01*
X221107799Y-95785999D01*
X220909627Y-96264428D01*
X220808600Y-96772326D01*
X220387500Y-96772326D01*
X220387500Y-96081458D01*
X220461173Y-96050942D01*
X220749435Y-95858331D01*
X220994581Y-95613185D01*
X221187192Y-95324923D01*
X221319864Y-95004623D01*
X221387500Y-94664595D01*
X221387500Y-94317905D01*
X221319864Y-93977877D01*
X221187192Y-93657577D01*
X220994581Y-93369315D01*
X220749435Y-93124169D01*
X220461173Y-92931558D01*
X220140873Y-92798886D01*
X219800845Y-92731250D01*
X219454155Y-92731250D01*
X219114127Y-92798886D01*
X219040454Y-92829402D01*
X217988957Y-91777905D01*
X224217500Y-91777905D01*
X224217500Y-92124595D01*
X224285136Y-92464623D01*
X224417808Y-92784923D01*
X224610419Y-93073185D01*
X224855565Y-93318331D01*
X225143827Y-93510942D01*
X225464127Y-93643614D01*
X225804155Y-93711250D01*
X226150845Y-93711250D01*
X226490873Y-93643614D01*
X226811173Y-93510942D01*
X227099435Y-93318331D01*
X227344581Y-93073185D01*
X227537192Y-92784923D01*
X227669864Y-92464623D01*
X227737500Y-92124595D01*
X227737500Y-91777905D01*
X227669864Y-91437877D01*
X227537192Y-91117577D01*
X227344581Y-90829315D01*
X227099435Y-90584169D01*
X226811173Y-90391558D01*
X226490873Y-90258886D01*
X226150845Y-90191250D01*
X225804155Y-90191250D01*
X225464127Y-90258886D01*
X225143827Y-90391558D01*
X224855565Y-90584169D01*
X224610419Y-90829315D01*
X224417808Y-91117577D01*
X224285136Y-91437877D01*
X224217500Y-91777905D01*
X217988957Y-91777905D01*
X215625000Y-89413949D01*
X215625000Y-77722326D01*
X216046100Y-77722326D01*
X216046100Y-78240174D01*
X216147127Y-78748072D01*
X216345299Y-79226501D01*
X216633000Y-79657076D01*
X216999174Y-80023250D01*
X217429749Y-80310951D01*
X217908178Y-80509123D01*
X218416076Y-80610150D01*
X218933924Y-80610150D01*
X219441822Y-80509123D01*
X219920251Y-80310951D01*
X220350826Y-80023250D01*
X220717000Y-79657076D01*
X221004701Y-79226501D01*
X221202873Y-78748072D01*
X221303900Y-78240174D01*
X221303900Y-77832528D01*
X222245000Y-77832528D01*
X222245000Y-78129972D01*
X222303029Y-78421701D01*
X222416856Y-78696503D01*
X222582107Y-78943819D01*
X222792431Y-79154143D01*
X223039747Y-79319394D01*
X223314549Y-79433221D01*
X223606278Y-79491250D01*
X223903722Y-79491250D01*
X224195451Y-79433221D01*
X224470253Y-79319394D01*
X224717569Y-79154143D01*
X224927893Y-78943819D01*
X225093144Y-78696503D01*
X225206971Y-78421701D01*
X225265000Y-78129972D01*
X225265000Y-77832528D01*
X235897500Y-77832528D01*
X235897500Y-78129972D01*
X235955529Y-78421701D01*
X236069356Y-78696503D01*
X236234607Y-78943819D01*
X236444931Y-79154143D01*
X236692247Y-79319394D01*
X236967049Y-79433221D01*
X237258778Y-79491250D01*
X237556222Y-79491250D01*
X237847951Y-79433221D01*
X237917500Y-79404413D01*
X237917501Y-92072667D01*
X237913824Y-92110000D01*
X237928498Y-92258985D01*
X237971954Y-92402246D01*
X238042526Y-92534276D01*
X238113701Y-92621002D01*
X238137500Y-92650001D01*
X238166498Y-92673799D01*
X239396902Y-93904204D01*
X239366386Y-93977877D01*
X239298750Y-94317905D01*
X239298750Y-94664595D01*
X239366386Y-95004623D01*
X239499058Y-95324923D01*
X239631388Y-95522969D01*
X239348299Y-95579279D01*
X239073497Y-95693106D01*
X238826181Y-95858357D01*
X238615857Y-96068681D01*
X238450606Y-96315997D01*
X238336779Y-96590799D01*
X238278750Y-96882528D01*
X238278750Y-97179972D01*
X238336779Y-97471701D01*
X238450606Y-97746503D01*
X238615857Y-97993819D01*
X238826181Y-98204143D01*
X239073497Y-98369394D01*
X239348299Y-98483221D01*
X239640028Y-98541250D01*
X239937472Y-98541250D01*
X240229201Y-98483221D01*
X240298751Y-98454412D01*
X240298750Y-111122678D01*
X240295074Y-111160000D01*
X240298750Y-111197322D01*
X240298750Y-111197332D01*
X240309747Y-111308985D01*
X240335922Y-111395274D01*
X240353204Y-111452246D01*
X240423776Y-111584276D01*
X240463621Y-111632826D01*
X240518749Y-111700001D01*
X240547753Y-111723804D01*
X241778152Y-112954204D01*
X241747636Y-113027877D01*
X241680000Y-113367905D01*
X241680000Y-113714595D01*
X241747636Y-114054623D01*
X241880308Y-114374923D01*
X242012638Y-114572969D01*
X241729549Y-114629279D01*
X241454747Y-114743106D01*
X241207431Y-114908357D01*
X240997107Y-115118681D01*
X240831856Y-115365997D01*
X240718029Y-115640799D01*
X240660000Y-115932528D01*
X240660000Y-116229972D01*
X240718029Y-116521701D01*
X240831856Y-116796503D01*
X240997107Y-117043819D01*
X241207431Y-117254143D01*
X241454747Y-117419394D01*
X241729549Y-117533221D01*
X242021278Y-117591250D01*
X242318722Y-117591250D01*
X242610451Y-117533221D01*
X242885253Y-117419394D01*
X243132569Y-117254143D01*
X243342893Y-117043819D01*
X243508144Y-116796503D01*
X243621971Y-116521701D01*
X243680000Y-116229972D01*
X243680000Y-115932528D01*
X243658080Y-115822326D01*
X244621100Y-115822326D01*
X244621100Y-116340174D01*
X244722127Y-116848072D01*
X244920299Y-117326501D01*
X245208000Y-117757076D01*
X245574174Y-118123250D01*
X246004749Y-118410951D01*
X246483178Y-118609123D01*
X246991076Y-118710150D01*
X247508924Y-118710150D01*
X248016822Y-118609123D01*
X248495251Y-118410951D01*
X248925826Y-118123250D01*
X249292000Y-117757076D01*
X249579701Y-117326501D01*
X249777873Y-116848072D01*
X249878900Y-116340174D01*
X249878900Y-115932528D01*
X250820000Y-115932528D01*
X250820000Y-116229972D01*
X250878029Y-116521701D01*
X250991856Y-116796503D01*
X251157107Y-117043819D01*
X251367431Y-117254143D01*
X251614747Y-117419394D01*
X251889549Y-117533221D01*
X252181278Y-117591250D01*
X252478722Y-117591250D01*
X252770451Y-117533221D01*
X253045253Y-117419394D01*
X253292569Y-117254143D01*
X253502893Y-117043819D01*
X253668144Y-116796503D01*
X253781971Y-116521701D01*
X253840000Y-116229972D01*
X253840000Y-115932528D01*
X253781971Y-115640799D01*
X253668144Y-115365997D01*
X253502893Y-115118681D01*
X253292569Y-114908357D01*
X253045253Y-114743106D01*
X252770451Y-114629279D01*
X252478722Y-114571250D01*
X252181278Y-114571250D01*
X251889549Y-114629279D01*
X251614747Y-114743106D01*
X251367431Y-114908357D01*
X251157107Y-115118681D01*
X250991856Y-115365997D01*
X250878029Y-115640799D01*
X250820000Y-115932528D01*
X249878900Y-115932528D01*
X249878900Y-115822326D01*
X249777873Y-115314428D01*
X249579701Y-114835999D01*
X249292000Y-114405424D01*
X248925826Y-114039250D01*
X248495251Y-113751549D01*
X248016822Y-113553377D01*
X247508924Y-113452350D01*
X246991076Y-113452350D01*
X246483178Y-113553377D01*
X246004749Y-113751549D01*
X245574174Y-114039250D01*
X245208000Y-114405424D01*
X244920299Y-114835999D01*
X244722127Y-115314428D01*
X244621100Y-115822326D01*
X243658080Y-115822326D01*
X243621971Y-115640799D01*
X243508144Y-115365997D01*
X243464882Y-115301250D01*
X243613345Y-115301250D01*
X243953373Y-115233614D01*
X244273673Y-115100942D01*
X244561935Y-114908331D01*
X244807081Y-114663185D01*
X244999692Y-114374923D01*
X245132364Y-114054623D01*
X245200000Y-113714595D01*
X245200000Y-113367905D01*
X245132364Y-113027877D01*
X244999692Y-112707577D01*
X244807081Y-112419315D01*
X244561935Y-112174169D01*
X244273673Y-111981558D01*
X243953373Y-111848886D01*
X243613345Y-111781250D01*
X243266655Y-111781250D01*
X242926627Y-111848886D01*
X242852954Y-111879402D01*
X241818750Y-110845199D01*
X241818750Y-110827905D01*
X248030000Y-110827905D01*
X248030000Y-111174595D01*
X248097636Y-111514623D01*
X248230308Y-111834923D01*
X248422919Y-112123185D01*
X248668065Y-112368331D01*
X248956327Y-112560942D01*
X249276627Y-112693614D01*
X249616655Y-112761250D01*
X249963345Y-112761250D01*
X250303373Y-112693614D01*
X250623673Y-112560942D01*
X250911935Y-112368331D01*
X251157081Y-112123185D01*
X251349692Y-111834923D01*
X251482364Y-111514623D01*
X251550000Y-111174595D01*
X251550000Y-110827905D01*
X251482364Y-110487877D01*
X251349692Y-110167577D01*
X251157081Y-109879315D01*
X250911935Y-109634169D01*
X250623673Y-109441558D01*
X250303373Y-109308886D01*
X249963345Y-109241250D01*
X249616655Y-109241250D01*
X249276627Y-109308886D01*
X248956327Y-109441558D01*
X248668065Y-109634169D01*
X248422919Y-109879315D01*
X248230308Y-110167577D01*
X248097636Y-110487877D01*
X248030000Y-110827905D01*
X241818750Y-110827905D01*
X241818750Y-96772326D01*
X242239850Y-96772326D01*
X242239850Y-97290174D01*
X242340877Y-97798072D01*
X242539049Y-98276501D01*
X242826750Y-98707076D01*
X243192924Y-99073250D01*
X243623499Y-99360951D01*
X244101928Y-99559123D01*
X244609826Y-99660150D01*
X245127674Y-99660150D01*
X245635572Y-99559123D01*
X246114001Y-99360951D01*
X246544576Y-99073250D01*
X246910750Y-98707076D01*
X247198451Y-98276501D01*
X247396623Y-97798072D01*
X247497650Y-97290174D01*
X247497650Y-96882528D01*
X248438750Y-96882528D01*
X248438750Y-97179972D01*
X248496779Y-97471701D01*
X248610606Y-97746503D01*
X248775857Y-97993819D01*
X248986181Y-98204143D01*
X249233497Y-98369394D01*
X249508299Y-98483221D01*
X249800028Y-98541250D01*
X250097472Y-98541250D01*
X250389201Y-98483221D01*
X250664003Y-98369394D01*
X250911319Y-98204143D01*
X251121643Y-97993819D01*
X251286894Y-97746503D01*
X251400721Y-97471701D01*
X251458750Y-97179972D01*
X251458750Y-96882528D01*
X251400721Y-96590799D01*
X251286894Y-96315997D01*
X251121643Y-96068681D01*
X250911319Y-95858357D01*
X250664003Y-95693106D01*
X250389201Y-95579279D01*
X250097472Y-95521250D01*
X249800028Y-95521250D01*
X249508299Y-95579279D01*
X249233497Y-95693106D01*
X248986181Y-95858357D01*
X248775857Y-96068681D01*
X248610606Y-96315997D01*
X248496779Y-96590799D01*
X248438750Y-96882528D01*
X247497650Y-96882528D01*
X247497650Y-96772326D01*
X247396623Y-96264428D01*
X247198451Y-95785999D01*
X246910750Y-95355424D01*
X246544576Y-94989250D01*
X246114001Y-94701549D01*
X245635572Y-94503377D01*
X245127674Y-94402350D01*
X244609826Y-94402350D01*
X244101928Y-94503377D01*
X243623499Y-94701549D01*
X243192924Y-94989250D01*
X242826750Y-95355424D01*
X242539049Y-95785999D01*
X242340877Y-96264428D01*
X242239850Y-96772326D01*
X241818750Y-96772326D01*
X241818750Y-96081458D01*
X241892423Y-96050942D01*
X242180685Y-95858331D01*
X242425831Y-95613185D01*
X242618442Y-95324923D01*
X242751114Y-95004623D01*
X242818750Y-94664595D01*
X242818750Y-94317905D01*
X242751114Y-93977877D01*
X242618442Y-93657577D01*
X242425831Y-93369315D01*
X242180685Y-93124169D01*
X241892423Y-92931558D01*
X241572123Y-92798886D01*
X241232095Y-92731250D01*
X240885405Y-92731250D01*
X240545377Y-92798886D01*
X240471704Y-92829402D01*
X240079830Y-92437528D01*
X243358750Y-92437528D01*
X243358750Y-92734972D01*
X243416779Y-93026701D01*
X243530606Y-93301503D01*
X243695857Y-93548819D01*
X243906181Y-93759143D01*
X244153497Y-93924394D01*
X244428299Y-94038221D01*
X244720028Y-94096250D01*
X245017472Y-94096250D01*
X245309201Y-94038221D01*
X245584003Y-93924394D01*
X245831319Y-93759143D01*
X246041643Y-93548819D01*
X246206894Y-93301503D01*
X246225374Y-93256890D01*
X246286815Y-93318331D01*
X246575077Y-93510942D01*
X246895377Y-93643614D01*
X247235405Y-93711250D01*
X247582095Y-93711250D01*
X247922123Y-93643614D01*
X248242423Y-93510942D01*
X248530685Y-93318331D01*
X248775831Y-93073185D01*
X248968442Y-92784923D01*
X249101114Y-92464623D01*
X249168750Y-92124595D01*
X249168750Y-91777905D01*
X249136292Y-91614730D01*
X249435377Y-91738614D01*
X249775405Y-91806250D01*
X250122095Y-91806250D01*
X250462123Y-91738614D01*
X250782423Y-91605942D01*
X251070685Y-91413331D01*
X251315831Y-91168185D01*
X251508442Y-90879923D01*
X251641114Y-90559623D01*
X251708750Y-90219595D01*
X251708750Y-89872905D01*
X251641114Y-89532877D01*
X251508442Y-89212577D01*
X251315831Y-88924315D01*
X251070685Y-88679169D01*
X250782423Y-88486558D01*
X250462123Y-88353886D01*
X250122095Y-88286250D01*
X249775405Y-88286250D01*
X249435377Y-88353886D01*
X249115077Y-88486558D01*
X248826815Y-88679169D01*
X248581669Y-88924315D01*
X248389058Y-89212577D01*
X248256386Y-89532877D01*
X248188750Y-89872905D01*
X248188750Y-90219595D01*
X248221208Y-90382770D01*
X247922123Y-90258886D01*
X247582095Y-90191250D01*
X247235405Y-90191250D01*
X246895377Y-90258886D01*
X246575077Y-90391558D01*
X246286815Y-90584169D01*
X246041669Y-90829315D01*
X245849058Y-91117577D01*
X245749255Y-91358524D01*
X245584003Y-91248106D01*
X245309201Y-91134279D01*
X245017472Y-91076250D01*
X244720028Y-91076250D01*
X244428299Y-91134279D01*
X244153497Y-91248106D01*
X243906181Y-91413357D01*
X243695857Y-91623681D01*
X243530606Y-91870997D01*
X243416779Y-92145799D01*
X243358750Y-92437528D01*
X240079830Y-92437528D01*
X239437500Y-91795199D01*
X239437500Y-87247326D01*
X242239850Y-87247326D01*
X242239850Y-87765174D01*
X242340877Y-88273072D01*
X242539049Y-88751501D01*
X242826750Y-89182076D01*
X243192924Y-89548250D01*
X243623499Y-89835951D01*
X244101928Y-90034123D01*
X244609826Y-90135150D01*
X245127674Y-90135150D01*
X245635572Y-90034123D01*
X246114001Y-89835951D01*
X246544576Y-89548250D01*
X246910750Y-89182076D01*
X247198451Y-88751501D01*
X247396623Y-88273072D01*
X247497650Y-87765174D01*
X247497650Y-87247326D01*
X247396623Y-86739428D01*
X247198451Y-86260999D01*
X246910750Y-85830424D01*
X246544576Y-85464250D01*
X246114001Y-85176549D01*
X245635572Y-84978377D01*
X245127674Y-84877350D01*
X244609826Y-84877350D01*
X244101928Y-84978377D01*
X243623499Y-85176549D01*
X243192924Y-85464250D01*
X242826750Y-85830424D01*
X242539049Y-86260999D01*
X242340877Y-86739428D01*
X242239850Y-87247326D01*
X239437500Y-87247326D01*
X239437500Y-77031458D01*
X239511173Y-77000942D01*
X239799435Y-76808331D01*
X240044581Y-76563185D01*
X240237192Y-76274923D01*
X240267708Y-76201250D01*
X240549674Y-76201250D01*
X240445500Y-76305424D01*
X240157799Y-76735999D01*
X239959627Y-77214428D01*
X239858600Y-77722326D01*
X239858600Y-78240174D01*
X239959627Y-78748072D01*
X240157799Y-79226501D01*
X240445500Y-79657076D01*
X240811674Y-80023250D01*
X241242249Y-80310951D01*
X241720678Y-80509123D01*
X242228576Y-80610150D01*
X242746424Y-80610150D01*
X243254322Y-80509123D01*
X243732751Y-80310951D01*
X244163326Y-80023250D01*
X244529500Y-79657076D01*
X244817201Y-79226501D01*
X245015373Y-78748072D01*
X245114276Y-78250853D01*
X245523751Y-78660329D01*
X245523752Y-81063149D01*
X245309201Y-80974279D01*
X245017472Y-80916250D01*
X244720028Y-80916250D01*
X244428299Y-80974279D01*
X244153497Y-81088106D01*
X243906181Y-81253357D01*
X243695857Y-81463681D01*
X243530606Y-81710997D01*
X243416779Y-81985799D01*
X243358750Y-82277528D01*
X243358750Y-82574972D01*
X243416779Y-82866701D01*
X243530606Y-83141503D01*
X243695857Y-83388819D01*
X243906181Y-83599143D01*
X244153497Y-83764394D01*
X244428299Y-83878221D01*
X244720028Y-83936250D01*
X245017472Y-83936250D01*
X245309201Y-83878221D01*
X245584003Y-83764394D01*
X245648750Y-83721132D01*
X245648750Y-83869595D01*
X245716386Y-84209623D01*
X245849058Y-84529923D01*
X246041669Y-84818185D01*
X246286815Y-85063331D01*
X246575077Y-85255942D01*
X246895377Y-85388614D01*
X247235405Y-85456250D01*
X247582095Y-85456250D01*
X247922123Y-85388614D01*
X248242423Y-85255942D01*
X248530685Y-85063331D01*
X248775831Y-84818185D01*
X248968442Y-84529923D01*
X249101114Y-84209623D01*
X249168750Y-83869595D01*
X249168750Y-83522905D01*
X249101114Y-83182877D01*
X248968442Y-82862577D01*
X248775831Y-82574315D01*
X248530685Y-82329169D01*
X248242423Y-82136558D01*
X247922123Y-82003886D01*
X247582095Y-81936250D01*
X247235405Y-81936250D01*
X247043751Y-81974372D01*
X247043751Y-79398718D01*
X247127049Y-79433221D01*
X247418778Y-79491250D01*
X247716222Y-79491250D01*
X248007951Y-79433221D01*
X248282753Y-79319394D01*
X248530069Y-79154143D01*
X248740393Y-78943819D01*
X248905644Y-78696503D01*
X249019471Y-78421701D01*
X249077500Y-78129972D01*
X249077500Y-77832528D01*
X249019471Y-77540799D01*
X248905644Y-77265997D01*
X248740393Y-77018681D01*
X248530069Y-76808357D01*
X248282753Y-76643106D01*
X248007951Y-76529279D01*
X247716222Y-76471250D01*
X247418778Y-76471250D01*
X247127049Y-76529279D01*
X246852247Y-76643106D01*
X246604931Y-76808357D01*
X246394607Y-77018681D01*
X246249250Y-77236224D01*
X243943278Y-74930253D01*
X243919475Y-74901249D01*
X243803750Y-74806276D01*
X243671721Y-74735704D01*
X243528460Y-74692247D01*
X243416807Y-74681250D01*
X243416796Y-74681250D01*
X243379474Y-74677574D01*
X243342152Y-74681250D01*
X240267708Y-74681250D01*
X240237192Y-74607577D01*
X240044581Y-74319315D01*
X239799435Y-74074169D01*
X239511173Y-73881558D01*
X239190873Y-73748886D01*
X238850845Y-73681250D01*
X238504155Y-73681250D01*
X238164127Y-73748886D01*
X237843827Y-73881558D01*
X237555565Y-74074169D01*
X237310419Y-74319315D01*
X237117808Y-74607577D01*
X236985136Y-74927877D01*
X236917500Y-75267905D01*
X236917500Y-75614595D01*
X236985136Y-75954623D01*
X237117808Y-76274923D01*
X237250138Y-76472969D01*
X236967049Y-76529279D01*
X236692247Y-76643106D01*
X236444931Y-76808357D01*
X236234607Y-77018681D01*
X236069356Y-77265997D01*
X235955529Y-77540799D01*
X235897500Y-77832528D01*
X225265000Y-77832528D01*
X225206971Y-77540799D01*
X225093144Y-77265997D01*
X224927893Y-77018681D01*
X224717569Y-76808357D01*
X224470253Y-76643106D01*
X224195451Y-76529279D01*
X223903722Y-76471250D01*
X223606278Y-76471250D01*
X223314549Y-76529279D01*
X223039747Y-76643106D01*
X222792431Y-76808357D01*
X222582107Y-77018681D01*
X222416856Y-77265997D01*
X222303029Y-77540799D01*
X222245000Y-77832528D01*
X221303900Y-77832528D01*
X221303900Y-77722326D01*
X221202873Y-77214428D01*
X221004701Y-76735999D01*
X220717000Y-76305424D01*
X220350826Y-75939250D01*
X219920251Y-75651549D01*
X219441822Y-75453377D01*
X218933924Y-75352350D01*
X218416076Y-75352350D01*
X217908178Y-75453377D01*
X217429749Y-75651549D01*
X216999174Y-75939250D01*
X216633000Y-76305424D01*
X216345299Y-76735999D01*
X216147127Y-77214428D01*
X216046100Y-77722326D01*
X215625000Y-77722326D01*
X215625000Y-77031458D01*
X215698673Y-77000942D01*
X215986935Y-76808331D01*
X216232081Y-76563185D01*
X216424692Y-76274923D01*
X216557364Y-75954623D01*
X216625000Y-75614595D01*
X216625000Y-75267905D01*
X216557364Y-74927877D01*
X216424692Y-74607577D01*
X216232081Y-74319315D01*
X215986935Y-74074169D01*
X215698673Y-73881558D01*
X215378373Y-73748886D01*
X215038345Y-73681250D01*
X214691655Y-73681250D01*
X214351627Y-73748886D01*
X214031327Y-73881558D01*
X213743065Y-74074169D01*
X213497919Y-74319315D01*
X213305308Y-74607577D01*
X213172636Y-74927877D01*
X213105000Y-75267905D01*
X213105000Y-75614595D01*
X213172636Y-75954623D01*
X213305308Y-76274923D01*
X213437638Y-76472969D01*
X213154549Y-76529279D01*
X212879747Y-76643106D01*
X212632431Y-76808357D01*
X212422107Y-77018681D01*
X212256856Y-77265997D01*
X212143029Y-77540799D01*
X212085000Y-77832528D01*
X206215000Y-77832528D01*
X206156971Y-77540799D01*
X206043144Y-77265997D01*
X205877893Y-77018681D01*
X205667569Y-76808357D01*
X205420253Y-76643106D01*
X205145451Y-76529279D01*
X204853722Y-76471250D01*
X204556278Y-76471250D01*
X204264549Y-76529279D01*
X203989747Y-76643106D01*
X203742431Y-76808357D01*
X203532107Y-77018681D01*
X203366856Y-77265997D01*
X203253029Y-77540799D01*
X203195000Y-77832528D01*
X202253900Y-77832528D01*
X202253900Y-77722326D01*
X202152873Y-77214428D01*
X201954701Y-76735999D01*
X201667000Y-76305424D01*
X201300826Y-75939250D01*
X200870251Y-75651549D01*
X200391822Y-75453377D01*
X199883924Y-75352350D01*
X199366076Y-75352350D01*
X198858178Y-75453377D01*
X198379749Y-75651549D01*
X197949174Y-75939250D01*
X197583000Y-76305424D01*
X197295299Y-76735999D01*
X197097127Y-77214428D01*
X196996100Y-77722326D01*
X196575000Y-77722326D01*
X196575000Y-77031458D01*
X196648673Y-77000942D01*
X196936935Y-76808331D01*
X197182081Y-76563185D01*
X197374692Y-76274923D01*
X197507364Y-75954623D01*
X197575000Y-75614595D01*
X197575000Y-75267905D01*
X197507364Y-74927877D01*
X197374692Y-74607577D01*
X197182081Y-74319315D01*
X196936935Y-74074169D01*
X196648673Y-73881558D01*
X196328373Y-73748886D01*
X195988345Y-73681250D01*
X195641655Y-73681250D01*
X195301627Y-73748886D01*
X194981327Y-73881558D01*
X194693065Y-74074169D01*
X194447919Y-74319315D01*
X194255308Y-74607577D01*
X194122636Y-74927877D01*
X194055000Y-75267905D01*
X194055000Y-75614595D01*
X194122636Y-75954623D01*
X194255308Y-76274923D01*
X194387638Y-76472969D01*
X194104549Y-76529279D01*
X193829747Y-76643106D01*
X193582431Y-76808357D01*
X193372107Y-77018681D01*
X193206856Y-77265997D01*
X193093029Y-77540799D01*
X193035000Y-77832528D01*
X192985000Y-77832528D01*
X192985000Y-77702027D01*
X192876052Y-77154311D01*
X192662344Y-76638374D01*
X192352088Y-76174043D01*
X191957207Y-75779162D01*
X191492876Y-75468906D01*
X190976939Y-75255198D01*
X190429223Y-75146250D01*
X189870777Y-75146250D01*
X189323061Y-75255198D01*
X188807124Y-75468906D01*
X188342793Y-75779162D01*
X187947912Y-76174043D01*
X187637656Y-76638374D01*
X187423948Y-77154311D01*
X187315000Y-77702027D01*
X187139042Y-77702027D01*
X187106971Y-77540799D01*
X186993144Y-77265997D01*
X186827893Y-77018681D01*
X186617569Y-76808357D01*
X186370253Y-76643106D01*
X186095451Y-76529279D01*
X185803722Y-76471250D01*
X185506278Y-76471250D01*
X185214549Y-76529279D01*
X184939747Y-76643106D01*
X184692431Y-76808357D01*
X184482107Y-77018681D01*
X184316856Y-77265997D01*
X184203029Y-77540799D01*
X184145000Y-77832528D01*
X183203900Y-77832528D01*
X183203900Y-77722326D01*
X183102873Y-77214428D01*
X182904701Y-76735999D01*
X182617000Y-76305424D01*
X182250826Y-75939250D01*
X181820251Y-75651549D01*
X181341822Y-75453377D01*
X180833924Y-75352350D01*
X180316076Y-75352350D01*
X179808178Y-75453377D01*
X179329749Y-75651549D01*
X178899174Y-75939250D01*
X178533000Y-76305424D01*
X178245299Y-76735999D01*
X178047127Y-77214428D01*
X177946100Y-77722326D01*
X177525000Y-77722326D01*
X177525000Y-77031458D01*
X177598673Y-77000942D01*
X177886935Y-76808331D01*
X178132081Y-76563185D01*
X178324692Y-76274923D01*
X178457364Y-75954623D01*
X178525000Y-75614595D01*
X178525000Y-75267905D01*
X178457364Y-74927877D01*
X178324692Y-74607577D01*
X178132081Y-74319315D01*
X177886935Y-74074169D01*
X177598673Y-73881558D01*
X177278373Y-73748886D01*
X176938345Y-73681250D01*
X176591655Y-73681250D01*
X176251627Y-73748886D01*
X175931327Y-73881558D01*
X175643065Y-74074169D01*
X175397919Y-74319315D01*
X175205308Y-74607577D01*
X175072636Y-74927877D01*
X175005000Y-75267905D01*
X175005000Y-75614595D01*
X175072636Y-75954623D01*
X175205308Y-76274923D01*
X175337638Y-76472969D01*
X175054549Y-76529279D01*
X174779747Y-76643106D01*
X174532431Y-76808357D01*
X174322107Y-77018681D01*
X174156856Y-77265997D01*
X174043029Y-77540799D01*
X173985000Y-77832528D01*
X168115000Y-77832528D01*
X168056971Y-77540799D01*
X167943144Y-77265997D01*
X167777893Y-77018681D01*
X167567569Y-76808357D01*
X167320253Y-76643106D01*
X167045451Y-76529279D01*
X166753722Y-76471250D01*
X166456278Y-76471250D01*
X166164549Y-76529279D01*
X165889747Y-76643106D01*
X165642431Y-76808357D01*
X165432107Y-77018681D01*
X165266856Y-77265997D01*
X165153029Y-77540799D01*
X165095000Y-77832528D01*
X164153900Y-77832528D01*
X164153900Y-77722326D01*
X164052873Y-77214428D01*
X163854701Y-76735999D01*
X163567000Y-76305424D01*
X163200826Y-75939250D01*
X162770251Y-75651549D01*
X162291822Y-75453377D01*
X161783924Y-75352350D01*
X161266076Y-75352350D01*
X160758178Y-75453377D01*
X160279749Y-75651549D01*
X159849174Y-75939250D01*
X159483000Y-76305424D01*
X159195299Y-76735999D01*
X158997127Y-77214428D01*
X158896100Y-77722326D01*
X158475000Y-77722326D01*
X158475000Y-77031458D01*
X158548673Y-77000942D01*
X158836935Y-76808331D01*
X159082081Y-76563185D01*
X159274692Y-76274923D01*
X159407364Y-75954623D01*
X159475000Y-75614595D01*
X159475000Y-75267905D01*
X159407364Y-74927877D01*
X159274692Y-74607577D01*
X159082081Y-74319315D01*
X158836935Y-74074169D01*
X158548673Y-73881558D01*
X158228373Y-73748886D01*
X157888345Y-73681250D01*
X157541655Y-73681250D01*
X157201627Y-73748886D01*
X156881327Y-73881558D01*
X156593065Y-74074169D01*
X156347919Y-74319315D01*
X156155308Y-74607577D01*
X156022636Y-74927877D01*
X155955000Y-75267905D01*
X155955000Y-75614595D01*
X156022636Y-75954623D01*
X156155308Y-76274923D01*
X156287638Y-76472969D01*
X156004549Y-76529279D01*
X155729747Y-76643106D01*
X155482431Y-76808357D01*
X155272107Y-77018681D01*
X155106856Y-77265997D01*
X154993029Y-77540799D01*
X154935000Y-77832528D01*
X149065000Y-77832528D01*
X149006971Y-77540799D01*
X148893144Y-77265997D01*
X148727893Y-77018681D01*
X148517569Y-76808357D01*
X148270253Y-76643106D01*
X147995451Y-76529279D01*
X147703722Y-76471250D01*
X147406278Y-76471250D01*
X147114549Y-76529279D01*
X146839747Y-76643106D01*
X146592431Y-76808357D01*
X146382107Y-77018681D01*
X146216856Y-77265997D01*
X146103029Y-77540799D01*
X146045000Y-77832528D01*
X146045000Y-78129972D01*
X146103029Y-78421701D01*
X146216856Y-78696503D01*
X146260118Y-78761250D01*
X146111655Y-78761250D01*
X145771627Y-78828886D01*
X145451327Y-78961558D01*
X145163065Y-79154169D01*
X144917919Y-79399315D01*
X144725308Y-79687577D01*
X144592636Y-80007877D01*
X144525000Y-80347905D01*
X144525000Y-80694595D01*
X144592636Y-81034623D01*
X144725308Y-81354923D01*
X144917919Y-81643185D01*
X145163065Y-81888331D01*
X145451327Y-82080942D01*
X145771627Y-82213614D01*
X145904278Y-82240000D01*
X141499838Y-82240000D01*
X141494692Y-82227577D01*
X141302081Y-81939315D01*
X141056935Y-81694169D01*
X140768673Y-81501558D01*
X140448373Y-81368886D01*
X140108345Y-81301250D01*
X139761655Y-81301250D01*
X139421627Y-81368886D01*
X139101327Y-81501558D01*
X138813065Y-81694169D01*
X138567919Y-81939315D01*
X138375308Y-82227577D01*
X138242636Y-82547877D01*
X138175000Y-82887905D01*
X133510000Y-82887905D01*
X133510000Y-77832528D01*
X135885000Y-77832528D01*
X135885000Y-78129972D01*
X135943029Y-78421701D01*
X136056856Y-78696503D01*
X136222107Y-78943819D01*
X136432431Y-79154143D01*
X136679747Y-79319394D01*
X136954549Y-79433221D01*
X137246278Y-79491250D01*
X137543722Y-79491250D01*
X137835451Y-79433221D01*
X138110253Y-79319394D01*
X138357569Y-79154143D01*
X138567893Y-78943819D01*
X138733144Y-78696503D01*
X138846971Y-78421701D01*
X138905000Y-78129972D01*
X138905000Y-77832528D01*
X138883080Y-77722326D01*
X139846100Y-77722326D01*
X139846100Y-78240174D01*
X139947127Y-78748072D01*
X140145299Y-79226501D01*
X140433000Y-79657076D01*
X140799174Y-80023250D01*
X141229749Y-80310951D01*
X141708178Y-80509123D01*
X142216076Y-80610150D01*
X142733924Y-80610150D01*
X143241822Y-80509123D01*
X143720251Y-80310951D01*
X144150826Y-80023250D01*
X144517000Y-79657076D01*
X144804701Y-79226501D01*
X145002873Y-78748072D01*
X145103900Y-78240174D01*
X145103900Y-77722326D01*
X145002873Y-77214428D01*
X144804701Y-76735999D01*
X144517000Y-76305424D01*
X144150826Y-75939250D01*
X143720251Y-75651549D01*
X143241822Y-75453377D01*
X142733924Y-75352350D01*
X142216076Y-75352350D01*
X141708178Y-75453377D01*
X141229749Y-75651549D01*
X140799174Y-75939250D01*
X140433000Y-76305424D01*
X140145299Y-76735999D01*
X139947127Y-77214428D01*
X139846100Y-77722326D01*
X138883080Y-77722326D01*
X138846971Y-77540799D01*
X138733144Y-77265997D01*
X138567893Y-77018681D01*
X138357569Y-76808357D01*
X138110253Y-76643106D01*
X137835451Y-76529279D01*
X137543722Y-76471250D01*
X137246278Y-76471250D01*
X136954549Y-76529279D01*
X136679747Y-76643106D01*
X136432431Y-76808357D01*
X136222107Y-77018681D01*
X136056856Y-77265997D01*
X135943029Y-77540799D01*
X135885000Y-77832528D01*
X133510000Y-77832528D01*
X133510000Y-72727905D01*
X162305000Y-72727905D01*
X162305000Y-73074595D01*
X162372636Y-73414623D01*
X162505308Y-73734923D01*
X162697919Y-74023185D01*
X162943065Y-74268331D01*
X163231327Y-74460942D01*
X163551627Y-74593614D01*
X163891655Y-74661250D01*
X164238345Y-74661250D01*
X164578373Y-74593614D01*
X164898673Y-74460942D01*
X165186935Y-74268331D01*
X165432081Y-74023185D01*
X165624692Y-73734923D01*
X165757364Y-73414623D01*
X165825000Y-73074595D01*
X165825000Y-72727905D01*
X181355000Y-72727905D01*
X181355000Y-73074595D01*
X181422636Y-73414623D01*
X181555308Y-73734923D01*
X181747919Y-74023185D01*
X181993065Y-74268331D01*
X182281327Y-74460942D01*
X182601627Y-74593614D01*
X182941655Y-74661250D01*
X183288345Y-74661250D01*
X183628373Y-74593614D01*
X183948673Y-74460942D01*
X184236935Y-74268331D01*
X184482081Y-74023185D01*
X184674692Y-73734923D01*
X184807364Y-73414623D01*
X184875000Y-73074595D01*
X184875000Y-72727905D01*
X200405000Y-72727905D01*
X200405000Y-73074595D01*
X200472636Y-73414623D01*
X200605308Y-73734923D01*
X200797919Y-74023185D01*
X201043065Y-74268331D01*
X201331327Y-74460942D01*
X201651627Y-74593614D01*
X201991655Y-74661250D01*
X202338345Y-74661250D01*
X202678373Y-74593614D01*
X202998673Y-74460942D01*
X203286935Y-74268331D01*
X203532081Y-74023185D01*
X203724692Y-73734923D01*
X203857364Y-73414623D01*
X203925000Y-73074595D01*
X203925000Y-72727905D01*
X219455000Y-72727905D01*
X219455000Y-73074595D01*
X219522636Y-73414623D01*
X219655308Y-73734923D01*
X219847919Y-74023185D01*
X220093065Y-74268331D01*
X220381327Y-74460942D01*
X220701627Y-74593614D01*
X221041655Y-74661250D01*
X221388345Y-74661250D01*
X221728373Y-74593614D01*
X222048673Y-74460942D01*
X222336935Y-74268331D01*
X222582081Y-74023185D01*
X222774692Y-73734923D01*
X222907364Y-73414623D01*
X222975000Y-73074595D01*
X222975000Y-72727905D01*
X243267500Y-72727905D01*
X243267500Y-73074595D01*
X243335136Y-73414623D01*
X243467808Y-73734923D01*
X243660419Y-74023185D01*
X243905565Y-74268331D01*
X244193827Y-74460942D01*
X244514127Y-74593614D01*
X244854155Y-74661250D01*
X245200845Y-74661250D01*
X245540873Y-74593614D01*
X245861173Y-74460942D01*
X246149435Y-74268331D01*
X246394581Y-74023185D01*
X246587192Y-73734923D01*
X246719864Y-73414623D01*
X246787500Y-73074595D01*
X246787500Y-72727905D01*
X246719864Y-72387877D01*
X246587192Y-72067577D01*
X246394581Y-71779315D01*
X246149435Y-71534169D01*
X245861173Y-71341558D01*
X245540873Y-71208886D01*
X245200845Y-71141250D01*
X244854155Y-71141250D01*
X244514127Y-71208886D01*
X244193827Y-71341558D01*
X243905565Y-71534169D01*
X243660419Y-71779315D01*
X243467808Y-72067577D01*
X243335136Y-72387877D01*
X243267500Y-72727905D01*
X222975000Y-72727905D01*
X222907364Y-72387877D01*
X222774692Y-72067577D01*
X222582081Y-71779315D01*
X222336935Y-71534169D01*
X222048673Y-71341558D01*
X221728373Y-71208886D01*
X221388345Y-71141250D01*
X221041655Y-71141250D01*
X220701627Y-71208886D01*
X220381327Y-71341558D01*
X220093065Y-71534169D01*
X219847919Y-71779315D01*
X219655308Y-72067577D01*
X219522636Y-72387877D01*
X219455000Y-72727905D01*
X203925000Y-72727905D01*
X203857364Y-72387877D01*
X203724692Y-72067577D01*
X203532081Y-71779315D01*
X203286935Y-71534169D01*
X202998673Y-71341558D01*
X202678373Y-71208886D01*
X202338345Y-71141250D01*
X201991655Y-71141250D01*
X201651627Y-71208886D01*
X201331327Y-71341558D01*
X201043065Y-71534169D01*
X200797919Y-71779315D01*
X200605308Y-72067577D01*
X200472636Y-72387877D01*
X200405000Y-72727905D01*
X184875000Y-72727905D01*
X184807364Y-72387877D01*
X184674692Y-72067577D01*
X184482081Y-71779315D01*
X184236935Y-71534169D01*
X183948673Y-71341558D01*
X183628373Y-71208886D01*
X183288345Y-71141250D01*
X182941655Y-71141250D01*
X182601627Y-71208886D01*
X182281327Y-71341558D01*
X181993065Y-71534169D01*
X181747919Y-71779315D01*
X181555308Y-72067577D01*
X181422636Y-72387877D01*
X181355000Y-72727905D01*
X165825000Y-72727905D01*
X165757364Y-72387877D01*
X165624692Y-72067577D01*
X165432081Y-71779315D01*
X165186935Y-71534169D01*
X164898673Y-71341558D01*
X164578373Y-71208886D01*
X164238345Y-71141250D01*
X163891655Y-71141250D01*
X163551627Y-71208886D01*
X163231327Y-71341558D01*
X162943065Y-71534169D01*
X162697919Y-71779315D01*
X162505308Y-72067577D01*
X162372636Y-72387877D01*
X162305000Y-72727905D01*
X133510000Y-72727905D01*
X133510000Y-70413529D01*
X133538625Y-70121591D01*
X133614035Y-69871821D01*
X133736522Y-69641458D01*
X133901422Y-69439270D01*
X134102450Y-69272964D01*
X134331954Y-69148872D01*
X134581195Y-69071719D01*
X134871088Y-69041250D01*
X254817721Y-69041250D01*
X255109659Y-69069875D01*
%TA.AperFunction,Conductor*%
D16*
G36*
X255109659Y-69069875D02*
G01*
X255359429Y-69145285D01*
X255589792Y-69267772D01*
X255791980Y-69432672D01*
X255958286Y-69633700D01*
X256082378Y-69863204D01*
X256159531Y-70112445D01*
X256190000Y-70402338D01*
X256190001Y-123648961D01*
X256161375Y-123940910D01*
X256085965Y-124190679D01*
X255963477Y-124421044D01*
X255798579Y-124623229D01*
X255597546Y-124789538D01*
X255368046Y-124913628D01*
X255118805Y-124990781D01*
X254828911Y-125021250D01*
X212453201Y-125021250D01*
X212553920Y-124979531D01*
X212907532Y-124743254D01*
X213208254Y-124442532D01*
X213444531Y-124088920D01*
X213607280Y-123696007D01*
X213690250Y-123278893D01*
X213690250Y-122853607D01*
X213607280Y-122436493D01*
X213444531Y-122043580D01*
X213208254Y-121689968D01*
X212907532Y-121389246D01*
X212553920Y-121152969D01*
X212161007Y-120990220D01*
X211743893Y-120907250D01*
X211318607Y-120907250D01*
X210901493Y-120990220D01*
X210508580Y-121152969D01*
X210154968Y-121389246D01*
X209854246Y-121689968D01*
X209617969Y-122043580D01*
X209455220Y-122436493D01*
X209372250Y-122853607D01*
X209372250Y-123278893D01*
X209455220Y-123696007D01*
X209617969Y-124088920D01*
X209854246Y-124442532D01*
X210154968Y-124743254D01*
X210508580Y-124979531D01*
X210609299Y-125021250D01*
X188640701Y-125021250D01*
X188741420Y-124979531D01*
X189095032Y-124743254D01*
X189395754Y-124442532D01*
X189632031Y-124088920D01*
X189794780Y-123696007D01*
X189877750Y-123278893D01*
X189877750Y-122853607D01*
X189794780Y-122436493D01*
X189632031Y-122043580D01*
X189395754Y-121689968D01*
X189095032Y-121389246D01*
X188741420Y-121152969D01*
X188348507Y-120990220D01*
X187931393Y-120907250D01*
X187506107Y-120907250D01*
X187088993Y-120990220D01*
X186696080Y-121152969D01*
X186342468Y-121389246D01*
X186041746Y-121689968D01*
X185805469Y-122043580D01*
X185642720Y-122436493D01*
X185559750Y-122853607D01*
X185559750Y-123278893D01*
X185642720Y-123696007D01*
X185805469Y-124088920D01*
X186041746Y-124442532D01*
X186342468Y-124743254D01*
X186696080Y-124979531D01*
X186796799Y-125021250D01*
X134882279Y-125021250D01*
X134590340Y-124992625D01*
X134340571Y-124917215D01*
X134110206Y-124794727D01*
X133908021Y-124629829D01*
X133741712Y-124428796D01*
X133617622Y-124199296D01*
X133540469Y-123950055D01*
X133510000Y-123660161D01*
X133510000Y-96882528D01*
X138266250Y-96882528D01*
X138266250Y-97179972D01*
X138324279Y-97471701D01*
X138438106Y-97746503D01*
X138603357Y-97993819D01*
X138813681Y-98204143D01*
X139060997Y-98369394D01*
X139335799Y-98483221D01*
X139627528Y-98541250D01*
X139924972Y-98541250D01*
X140216701Y-98483221D01*
X140286250Y-98454413D01*
X140286251Y-111122667D01*
X140282574Y-111160000D01*
X140286251Y-111197332D01*
X140286251Y-111197333D01*
X140297248Y-111308986D01*
X140310430Y-111352442D01*
X140340704Y-111452246D01*
X140411276Y-111584276D01*
X140482451Y-111671002D01*
X140506250Y-111700001D01*
X140535248Y-111723799D01*
X141765652Y-112954204D01*
X141735136Y-113027877D01*
X141667500Y-113367905D01*
X141667500Y-113714595D01*
X141735136Y-114054623D01*
X141867808Y-114374923D01*
X142000138Y-114572969D01*
X141717049Y-114629279D01*
X141442247Y-114743106D01*
X141194931Y-114908357D01*
X140984607Y-115118681D01*
X140819356Y-115365997D01*
X140705529Y-115640799D01*
X140647500Y-115932528D01*
X140647500Y-116229972D01*
X140705529Y-116521701D01*
X140819356Y-116796503D01*
X140984607Y-117043819D01*
X141194931Y-117254143D01*
X141442247Y-117419394D01*
X141717049Y-117533221D01*
X142008778Y-117591250D01*
X142306222Y-117591250D01*
X142597951Y-117533221D01*
X142872753Y-117419394D01*
X143120069Y-117254143D01*
X143330393Y-117043819D01*
X143495644Y-116796503D01*
X143609471Y-116521701D01*
X143667500Y-116229972D01*
X143667500Y-115932528D01*
X143645580Y-115822326D01*
X144608600Y-115822326D01*
X144608600Y-116340174D01*
X144709627Y-116848072D01*
X144907799Y-117326501D01*
X145195500Y-117757076D01*
X145561674Y-118123250D01*
X145992249Y-118410951D01*
X146470678Y-118609123D01*
X146978576Y-118710150D01*
X147496424Y-118710150D01*
X148004322Y-118609123D01*
X148482751Y-118410951D01*
X148913326Y-118123250D01*
X149279500Y-117757076D01*
X149567201Y-117326501D01*
X149765373Y-116848072D01*
X149866400Y-116340174D01*
X149866400Y-115932528D01*
X150807500Y-115932528D01*
X150807500Y-116229972D01*
X150865529Y-116521701D01*
X150979356Y-116796503D01*
X151144607Y-117043819D01*
X151354931Y-117254143D01*
X151602247Y-117419394D01*
X151877049Y-117533221D01*
X152168778Y-117591250D01*
X152466222Y-117591250D01*
X152757951Y-117533221D01*
X153032753Y-117419394D01*
X153280069Y-117254143D01*
X153490393Y-117043819D01*
X153655644Y-116796503D01*
X153769471Y-116521701D01*
X153827500Y-116229972D01*
X153827500Y-115932528D01*
X153801542Y-115802027D01*
X156315000Y-115802027D01*
X156315000Y-116360473D01*
X156423948Y-116908189D01*
X156637656Y-117424126D01*
X156947912Y-117888457D01*
X157342793Y-118283338D01*
X157807124Y-118593594D01*
X158323061Y-118807302D01*
X158870777Y-118916250D01*
X159429223Y-118916250D01*
X159976939Y-118807302D01*
X160492876Y-118593594D01*
X160957207Y-118283338D01*
X161352088Y-117888457D01*
X161662344Y-117424126D01*
X161876052Y-116908189D01*
X161985000Y-116360473D01*
X161985000Y-115802027D01*
X161876052Y-115254311D01*
X161662344Y-114738374D01*
X161352088Y-114274043D01*
X160957207Y-113879162D01*
X160492876Y-113568906D01*
X159976939Y-113355198D01*
X159429223Y-113246250D01*
X158870777Y-113246250D01*
X158323061Y-113355198D01*
X157807124Y-113568906D01*
X157342793Y-113879162D01*
X156947912Y-114274043D01*
X156637656Y-114738374D01*
X156423948Y-115254311D01*
X156315000Y-115802027D01*
X153801542Y-115802027D01*
X153769471Y-115640799D01*
X153655644Y-115365997D01*
X153490393Y-115118681D01*
X153280069Y-114908357D01*
X153032753Y-114743106D01*
X152757951Y-114629279D01*
X152466222Y-114571250D01*
X152168778Y-114571250D01*
X151877049Y-114629279D01*
X151602247Y-114743106D01*
X151354931Y-114908357D01*
X151144607Y-115118681D01*
X150979356Y-115365997D01*
X150865529Y-115640799D01*
X150807500Y-115932528D01*
X149866400Y-115932528D01*
X149866400Y-115822326D01*
X149765373Y-115314428D01*
X149567201Y-114835999D01*
X149279500Y-114405424D01*
X148913326Y-114039250D01*
X148482751Y-113751549D01*
X148004322Y-113553377D01*
X147496424Y-113452350D01*
X146978576Y-113452350D01*
X146470678Y-113553377D01*
X145992249Y-113751549D01*
X145561674Y-114039250D01*
X145195500Y-114405424D01*
X144907799Y-114835999D01*
X144709627Y-115314428D01*
X144608600Y-115822326D01*
X143645580Y-115822326D01*
X143609471Y-115640799D01*
X143495644Y-115365997D01*
X143452382Y-115301250D01*
X143600845Y-115301250D01*
X143940873Y-115233614D01*
X144261173Y-115100942D01*
X144549435Y-114908331D01*
X144794581Y-114663185D01*
X144987192Y-114374923D01*
X145119864Y-114054623D01*
X145187500Y-113714595D01*
X145187500Y-113367905D01*
X145119864Y-113027877D01*
X144987192Y-112707577D01*
X144794581Y-112419315D01*
X144549435Y-112174169D01*
X144261173Y-111981558D01*
X143940873Y-111848886D01*
X143600845Y-111781250D01*
X143254155Y-111781250D01*
X142914127Y-111848886D01*
X142840454Y-111879402D01*
X141806250Y-110845199D01*
X141806250Y-110827905D01*
X148017500Y-110827905D01*
X148017500Y-111174595D01*
X148085136Y-111514623D01*
X148217808Y-111834923D01*
X148410419Y-112123185D01*
X148655565Y-112368331D01*
X148943827Y-112560942D01*
X149264127Y-112693614D01*
X149604155Y-112761250D01*
X149950845Y-112761250D01*
X150290873Y-112693614D01*
X150611173Y-112560942D01*
X150899435Y-112368331D01*
X151144581Y-112123185D01*
X151337192Y-111834923D01*
X151469864Y-111514623D01*
X151537500Y-111174595D01*
X151537500Y-110827905D01*
X151469864Y-110487877D01*
X151337192Y-110167577D01*
X151144581Y-109879315D01*
X150899435Y-109634169D01*
X150611173Y-109441558D01*
X150290873Y-109308886D01*
X149950845Y-109241250D01*
X149604155Y-109241250D01*
X149264127Y-109308886D01*
X148943827Y-109441558D01*
X148655565Y-109634169D01*
X148410419Y-109879315D01*
X148217808Y-110167577D01*
X148085136Y-110487877D01*
X148017500Y-110827905D01*
X141806250Y-110827905D01*
X141806250Y-96772326D01*
X142227350Y-96772326D01*
X142227350Y-97290174D01*
X142328377Y-97798072D01*
X142526549Y-98276501D01*
X142814250Y-98707076D01*
X143180424Y-99073250D01*
X143610999Y-99360951D01*
X144089428Y-99559123D01*
X144597326Y-99660150D01*
X145115174Y-99660150D01*
X145623072Y-99559123D01*
X146101501Y-99360951D01*
X146532076Y-99073250D01*
X146898250Y-98707076D01*
X147185951Y-98276501D01*
X147384123Y-97798072D01*
X147485150Y-97290174D01*
X147485150Y-96882528D01*
X148426250Y-96882528D01*
X148426250Y-97179972D01*
X148484279Y-97471701D01*
X148598106Y-97746503D01*
X148763357Y-97993819D01*
X148973681Y-98204143D01*
X149220997Y-98369394D01*
X149495799Y-98483221D01*
X149787528Y-98541250D01*
X150084972Y-98541250D01*
X150376701Y-98483221D01*
X150651503Y-98369394D01*
X150898819Y-98204143D01*
X151109143Y-97993819D01*
X151274394Y-97746503D01*
X151388221Y-97471701D01*
X151446250Y-97179972D01*
X151446250Y-96882528D01*
X151388221Y-96590799D01*
X151274394Y-96315997D01*
X151109143Y-96068681D01*
X150898819Y-95858357D01*
X150651503Y-95693106D01*
X150376701Y-95579279D01*
X150084972Y-95521250D01*
X149787528Y-95521250D01*
X149495799Y-95579279D01*
X149220997Y-95693106D01*
X148973681Y-95858357D01*
X148763357Y-96068681D01*
X148598106Y-96315997D01*
X148484279Y-96590799D01*
X148426250Y-96882528D01*
X147485150Y-96882528D01*
X147485150Y-96772326D01*
X147384123Y-96264428D01*
X147185951Y-95785999D01*
X146898250Y-95355424D01*
X146532076Y-94989250D01*
X146101501Y-94701549D01*
X145623072Y-94503377D01*
X145115174Y-94402350D01*
X144597326Y-94402350D01*
X144089428Y-94503377D01*
X143610999Y-94701549D01*
X143180424Y-94989250D01*
X142814250Y-95355424D01*
X142526549Y-95785999D01*
X142328377Y-96264428D01*
X142227350Y-96772326D01*
X141806250Y-96772326D01*
X141806250Y-96081458D01*
X141879923Y-96050942D01*
X142168185Y-95858331D01*
X142413331Y-95613185D01*
X142605942Y-95324923D01*
X142738614Y-95004623D01*
X142806250Y-94664595D01*
X142806250Y-94317905D01*
X142738614Y-93977877D01*
X142605942Y-93657577D01*
X142413331Y-93369315D01*
X142168185Y-93124169D01*
X141879923Y-92931558D01*
X141559623Y-92798886D01*
X141219595Y-92731250D01*
X140872905Y-92731250D01*
X140532877Y-92798886D01*
X140212577Y-92931558D01*
X139924315Y-93124169D01*
X139679169Y-93369315D01*
X139486558Y-93657577D01*
X139353886Y-93977877D01*
X139286250Y-94317905D01*
X139286250Y-94664595D01*
X139353886Y-95004623D01*
X139486558Y-95324923D01*
X139618888Y-95522969D01*
X139335799Y-95579279D01*
X139060997Y-95693106D01*
X138813681Y-95858357D01*
X138603357Y-96068681D01*
X138438106Y-96315997D01*
X138324279Y-96590799D01*
X138266250Y-96882528D01*
X133510000Y-96882528D01*
X133510000Y-91777905D01*
X145636250Y-91777905D01*
X145636250Y-92124595D01*
X145703886Y-92464623D01*
X145836558Y-92784923D01*
X146029169Y-93073185D01*
X146274315Y-93318331D01*
X146562577Y-93510942D01*
X146882877Y-93643614D01*
X147222905Y-93711250D01*
X147569595Y-93711250D01*
X147909623Y-93643614D01*
X148229923Y-93510942D01*
X148518185Y-93318331D01*
X148763331Y-93073185D01*
X148955942Y-92784923D01*
X149088614Y-92464623D01*
X149156250Y-92124595D01*
X149156250Y-91777905D01*
X149088614Y-91437877D01*
X148955942Y-91117577D01*
X148763331Y-90829315D01*
X148518185Y-90584169D01*
X148229923Y-90391558D01*
X147909623Y-90258886D01*
X147569595Y-90191250D01*
X147222905Y-90191250D01*
X146882877Y-90258886D01*
X146562577Y-90391558D01*
X146274315Y-90584169D01*
X146029169Y-90829315D01*
X145836558Y-91117577D01*
X145703886Y-91437877D01*
X145636250Y-91777905D01*
X133510000Y-91777905D01*
X133510000Y-82887905D01*
X138175000Y-82887905D01*
X138175000Y-83234595D01*
X138242636Y-83574623D01*
X138375308Y-83894923D01*
X138567919Y-84183185D01*
X138813065Y-84428331D01*
X139101327Y-84620942D01*
X139421627Y-84753614D01*
X139761655Y-84821250D01*
X140108345Y-84821250D01*
X140448373Y-84753614D01*
X140768673Y-84620942D01*
X141056935Y-84428331D01*
X141302081Y-84183185D01*
X141494692Y-83894923D01*
X141550579Y-83760000D01*
X152696289Y-83760000D01*
X152740226Y-83803937D01*
X152909744Y-83917205D01*
X153098102Y-83995226D01*
X153298061Y-84035000D01*
X153501939Y-84035000D01*
X153701898Y-83995226D01*
X153890256Y-83917205D01*
X154059774Y-83803937D01*
X154203937Y-83659774D01*
X154317205Y-83490256D01*
X154395226Y-83301898D01*
X154435000Y-83101939D01*
X154435000Y-82898061D01*
X154395226Y-82698102D01*
X154317205Y-82509744D01*
X154203937Y-82340226D01*
X154059774Y-82196063D01*
X153890256Y-82082795D01*
X153701898Y-82004774D01*
X153501939Y-81965000D01*
X153298061Y-81965000D01*
X153098102Y-82004774D01*
X152909744Y-82082795D01*
X152740226Y-82196063D01*
X152696289Y-82240000D01*
X146665722Y-82240000D01*
X146798373Y-82213614D01*
X147118673Y-82080942D01*
X147406935Y-81888331D01*
X147652081Y-81643185D01*
X147844692Y-81354923D01*
X147977364Y-81034623D01*
X148045000Y-80694595D01*
X148045000Y-80347905D01*
X147977364Y-80007877D01*
X147844692Y-79687577D01*
X147712362Y-79489531D01*
X147995451Y-79433221D01*
X148270253Y-79319394D01*
X148517569Y-79154143D01*
X148727893Y-78943819D01*
X148893144Y-78696503D01*
X149006971Y-78421701D01*
X149065000Y-78129972D01*
X149065000Y-77832528D01*
X154935000Y-77832528D01*
X154935000Y-78129972D01*
X154993029Y-78421701D01*
X155106856Y-78696503D01*
X155272107Y-78943819D01*
X155482431Y-79154143D01*
X155729747Y-79319394D01*
X156004549Y-79433221D01*
X156296278Y-79491250D01*
X156593722Y-79491250D01*
X156885451Y-79433221D01*
X156955000Y-79404413D01*
X156955001Y-89691418D01*
X156951324Y-89728750D01*
X156955001Y-89766083D01*
X156961883Y-89835951D01*
X156965998Y-89877735D01*
X157009454Y-90020996D01*
X157080026Y-90153026D01*
X157151201Y-90239752D01*
X157175000Y-90268751D01*
X157203998Y-90292549D01*
X160815652Y-93904204D01*
X160785136Y-93977877D01*
X160717500Y-94317905D01*
X160717500Y-94664595D01*
X160785136Y-95004623D01*
X160917808Y-95324923D01*
X161050138Y-95522969D01*
X160767049Y-95579279D01*
X160492247Y-95693106D01*
X160244931Y-95858357D01*
X160034607Y-96068681D01*
X159869356Y-96315997D01*
X159755529Y-96590799D01*
X159697500Y-96882528D01*
X159697500Y-97179972D01*
X159755529Y-97471701D01*
X159869356Y-97746503D01*
X160034607Y-97993819D01*
X160244931Y-98204143D01*
X160492247Y-98369394D01*
X160767049Y-98483221D01*
X161058778Y-98541250D01*
X161356222Y-98541250D01*
X161647951Y-98483221D01*
X161717500Y-98454413D01*
X161717501Y-108741418D01*
X161713824Y-108778750D01*
X161728498Y-108927735D01*
X161771954Y-109070996D01*
X161842526Y-109203026D01*
X161913701Y-109289752D01*
X161937500Y-109318751D01*
X161966498Y-109342549D01*
X165578152Y-112954204D01*
X165547636Y-113027877D01*
X165480000Y-113367905D01*
X165480000Y-113714595D01*
X165547636Y-114054623D01*
X165680308Y-114374923D01*
X165812638Y-114572969D01*
X165529549Y-114629279D01*
X165254747Y-114743106D01*
X165007431Y-114908357D01*
X164797107Y-115118681D01*
X164631856Y-115365997D01*
X164518029Y-115640799D01*
X164460000Y-115932528D01*
X164460000Y-116229972D01*
X164518029Y-116521701D01*
X164631856Y-116796503D01*
X164797107Y-117043819D01*
X165007431Y-117254143D01*
X165254747Y-117419394D01*
X165529549Y-117533221D01*
X165821278Y-117591250D01*
X166118722Y-117591250D01*
X166410451Y-117533221D01*
X166685253Y-117419394D01*
X166932569Y-117254143D01*
X167142893Y-117043819D01*
X167308144Y-116796503D01*
X167421971Y-116521701D01*
X167480000Y-116229972D01*
X167480000Y-115932528D01*
X167458080Y-115822326D01*
X168421100Y-115822326D01*
X168421100Y-116340174D01*
X168522127Y-116848072D01*
X168720299Y-117326501D01*
X169008000Y-117757076D01*
X169374174Y-118123250D01*
X169804749Y-118410951D01*
X170283178Y-118609123D01*
X170791076Y-118710150D01*
X171308924Y-118710150D01*
X171816822Y-118609123D01*
X172295251Y-118410951D01*
X172725826Y-118123250D01*
X173092000Y-117757076D01*
X173379701Y-117326501D01*
X173577873Y-116848072D01*
X173678900Y-116340174D01*
X173678900Y-115932528D01*
X174620000Y-115932528D01*
X174620000Y-116229972D01*
X174678029Y-116521701D01*
X174791856Y-116796503D01*
X174957107Y-117043819D01*
X175167431Y-117254143D01*
X175414747Y-117419394D01*
X175689549Y-117533221D01*
X175981278Y-117591250D01*
X176278722Y-117591250D01*
X176570451Y-117533221D01*
X176845253Y-117419394D01*
X177092569Y-117254143D01*
X177302893Y-117043819D01*
X177468144Y-116796503D01*
X177581971Y-116521701D01*
X177640000Y-116229972D01*
X177640000Y-115932528D01*
X177581971Y-115640799D01*
X177468144Y-115365997D01*
X177302893Y-115118681D01*
X177092569Y-114908357D01*
X176845253Y-114743106D01*
X176570451Y-114629279D01*
X176278722Y-114571250D01*
X175981278Y-114571250D01*
X175689549Y-114629279D01*
X175414747Y-114743106D01*
X175167431Y-114908357D01*
X174957107Y-115118681D01*
X174791856Y-115365997D01*
X174678029Y-115640799D01*
X174620000Y-115932528D01*
X173678900Y-115932528D01*
X173678900Y-115822326D01*
X173577873Y-115314428D01*
X173379701Y-114835999D01*
X173092000Y-114405424D01*
X172725826Y-114039250D01*
X172295251Y-113751549D01*
X171816822Y-113553377D01*
X171308924Y-113452350D01*
X170791076Y-113452350D01*
X170283178Y-113553377D01*
X169804749Y-113751549D01*
X169374174Y-114039250D01*
X169008000Y-114405424D01*
X168720299Y-114835999D01*
X168522127Y-115314428D01*
X168421100Y-115822326D01*
X167458080Y-115822326D01*
X167421971Y-115640799D01*
X167308144Y-115365997D01*
X167264882Y-115301250D01*
X167413345Y-115301250D01*
X167753373Y-115233614D01*
X168073673Y-115100942D01*
X168361935Y-114908331D01*
X168607081Y-114663185D01*
X168799692Y-114374923D01*
X168932364Y-114054623D01*
X169000000Y-113714595D01*
X169000000Y-113367905D01*
X168932364Y-113027877D01*
X168799692Y-112707577D01*
X168607081Y-112419315D01*
X168361935Y-112174169D01*
X168073673Y-111981558D01*
X167753373Y-111848886D01*
X167413345Y-111781250D01*
X167066655Y-111781250D01*
X166726627Y-111848886D01*
X166652954Y-111879402D01*
X165601457Y-110827905D01*
X171830000Y-110827905D01*
X171830000Y-111174595D01*
X171897636Y-111514623D01*
X172030308Y-111834923D01*
X172222919Y-112123185D01*
X172468065Y-112368331D01*
X172756327Y-112560942D01*
X173076627Y-112693614D01*
X173416655Y-112761250D01*
X173763345Y-112761250D01*
X174103373Y-112693614D01*
X174423673Y-112560942D01*
X174711935Y-112368331D01*
X174957081Y-112123185D01*
X175149692Y-111834923D01*
X175282364Y-111514623D01*
X175350000Y-111174595D01*
X175350000Y-110827905D01*
X175282364Y-110487877D01*
X175149692Y-110167577D01*
X174957081Y-109879315D01*
X174711935Y-109634169D01*
X174423673Y-109441558D01*
X174103373Y-109308886D01*
X173763345Y-109241250D01*
X173416655Y-109241250D01*
X173076627Y-109308886D01*
X172756327Y-109441558D01*
X172468065Y-109634169D01*
X172222919Y-109879315D01*
X172030308Y-110167577D01*
X171897636Y-110487877D01*
X171830000Y-110827905D01*
X165601457Y-110827905D01*
X163237500Y-108463949D01*
X163237500Y-96772326D01*
X163658600Y-96772326D01*
X163658600Y-97290174D01*
X163759627Y-97798072D01*
X163957799Y-98276501D01*
X164245500Y-98707076D01*
X164611674Y-99073250D01*
X165042249Y-99360951D01*
X165520678Y-99559123D01*
X166028576Y-99660150D01*
X166546424Y-99660150D01*
X167054322Y-99559123D01*
X167532751Y-99360951D01*
X167963326Y-99073250D01*
X168329500Y-98707076D01*
X168617201Y-98276501D01*
X168815373Y-97798072D01*
X168916400Y-97290174D01*
X168916400Y-96882528D01*
X169857500Y-96882528D01*
X169857500Y-97179972D01*
X169915529Y-97471701D01*
X170029356Y-97746503D01*
X170194607Y-97993819D01*
X170404931Y-98204143D01*
X170652247Y-98369394D01*
X170927049Y-98483221D01*
X171218778Y-98541250D01*
X171516222Y-98541250D01*
X171807951Y-98483221D01*
X172082753Y-98369394D01*
X172330069Y-98204143D01*
X172540393Y-97993819D01*
X172705644Y-97746503D01*
X172819471Y-97471701D01*
X172877500Y-97179972D01*
X172877500Y-96882528D01*
X172819471Y-96590799D01*
X172705644Y-96315997D01*
X172540393Y-96068681D01*
X172330069Y-95858357D01*
X172082753Y-95693106D01*
X171807951Y-95579279D01*
X171516222Y-95521250D01*
X171218778Y-95521250D01*
X170927049Y-95579279D01*
X170652247Y-95693106D01*
X170404931Y-95858357D01*
X170194607Y-96068681D01*
X170029356Y-96315997D01*
X169915529Y-96590799D01*
X169857500Y-96882528D01*
X168916400Y-96882528D01*
X168916400Y-96772326D01*
X168815373Y-96264428D01*
X168617201Y-95785999D01*
X168329500Y-95355424D01*
X167963326Y-94989250D01*
X167532751Y-94701549D01*
X167054322Y-94503377D01*
X166546424Y-94402350D01*
X166028576Y-94402350D01*
X165520678Y-94503377D01*
X165042249Y-94701549D01*
X164611674Y-94989250D01*
X164245500Y-95355424D01*
X163957799Y-95785999D01*
X163759627Y-96264428D01*
X163658600Y-96772326D01*
X163237500Y-96772326D01*
X163237500Y-96081458D01*
X163311173Y-96050942D01*
X163599435Y-95858331D01*
X163844581Y-95613185D01*
X164037192Y-95324923D01*
X164169864Y-95004623D01*
X164237500Y-94664595D01*
X164237500Y-94317905D01*
X164169864Y-93977877D01*
X164037192Y-93657577D01*
X163844581Y-93369315D01*
X163599435Y-93124169D01*
X163311173Y-92931558D01*
X162990873Y-92798886D01*
X162650845Y-92731250D01*
X162304155Y-92731250D01*
X161964127Y-92798886D01*
X161890454Y-92829402D01*
X160838957Y-91777905D01*
X167067500Y-91777905D01*
X167067500Y-92124595D01*
X167135136Y-92464623D01*
X167267808Y-92784923D01*
X167460419Y-93073185D01*
X167705565Y-93318331D01*
X167993827Y-93510942D01*
X168314127Y-93643614D01*
X168654155Y-93711250D01*
X169000845Y-93711250D01*
X169340873Y-93643614D01*
X169661173Y-93510942D01*
X169949435Y-93318331D01*
X170194581Y-93073185D01*
X170387192Y-92784923D01*
X170519864Y-92464623D01*
X170587500Y-92124595D01*
X170587500Y-91777905D01*
X170519864Y-91437877D01*
X170387192Y-91117577D01*
X170194581Y-90829315D01*
X169949435Y-90584169D01*
X169661173Y-90391558D01*
X169340873Y-90258886D01*
X169000845Y-90191250D01*
X168654155Y-90191250D01*
X168314127Y-90258886D01*
X167993827Y-90391558D01*
X167705565Y-90584169D01*
X167460419Y-90829315D01*
X167267808Y-91117577D01*
X167135136Y-91437877D01*
X167067500Y-91777905D01*
X160838957Y-91777905D01*
X158475000Y-89413949D01*
X158475000Y-77722326D01*
X158896100Y-77722326D01*
X158896100Y-78240174D01*
X158997127Y-78748072D01*
X159195299Y-79226501D01*
X159483000Y-79657076D01*
X159849174Y-80023250D01*
X160279749Y-80310951D01*
X160758178Y-80509123D01*
X161266076Y-80610150D01*
X161783924Y-80610150D01*
X162291822Y-80509123D01*
X162770251Y-80310951D01*
X163200826Y-80023250D01*
X163567000Y-79657076D01*
X163854701Y-79226501D01*
X164052873Y-78748072D01*
X164153900Y-78240174D01*
X164153900Y-77832528D01*
X165095000Y-77832528D01*
X165095000Y-78129972D01*
X165153029Y-78421701D01*
X165266856Y-78696503D01*
X165432107Y-78943819D01*
X165642431Y-79154143D01*
X165889747Y-79319394D01*
X166164549Y-79433221D01*
X166456278Y-79491250D01*
X166753722Y-79491250D01*
X167045451Y-79433221D01*
X167320253Y-79319394D01*
X167567569Y-79154143D01*
X167777893Y-78943819D01*
X167943144Y-78696503D01*
X168056971Y-78421701D01*
X168115000Y-78129972D01*
X168115000Y-77832528D01*
X173985000Y-77832528D01*
X173985000Y-78129972D01*
X174043029Y-78421701D01*
X174156856Y-78696503D01*
X174322107Y-78943819D01*
X174532431Y-79154143D01*
X174779747Y-79319394D01*
X175054549Y-79433221D01*
X175346278Y-79491250D01*
X175643722Y-79491250D01*
X175935451Y-79433221D01*
X176005000Y-79404413D01*
X176005001Y-89691418D01*
X176001324Y-89728750D01*
X176005001Y-89766083D01*
X176011883Y-89835951D01*
X176015998Y-89877735D01*
X176059454Y-90020996D01*
X176130026Y-90153026D01*
X176201201Y-90239752D01*
X176225000Y-90268751D01*
X176253998Y-90292549D01*
X179865652Y-93904204D01*
X179835136Y-93977877D01*
X179767500Y-94317905D01*
X179767500Y-94664595D01*
X179835136Y-95004623D01*
X179967808Y-95324923D01*
X180100138Y-95522969D01*
X179817049Y-95579279D01*
X179542247Y-95693106D01*
X179294931Y-95858357D01*
X179084607Y-96068681D01*
X178919356Y-96315997D01*
X178805529Y-96590799D01*
X178747500Y-96882528D01*
X178747500Y-97179972D01*
X178805529Y-97471701D01*
X178919356Y-97746503D01*
X179084607Y-97993819D01*
X179294931Y-98204143D01*
X179542247Y-98369394D01*
X179817049Y-98483221D01*
X180108778Y-98541250D01*
X180406222Y-98541250D01*
X180697951Y-98483221D01*
X180767500Y-98454413D01*
X180767501Y-108741418D01*
X180763824Y-108778750D01*
X180778498Y-108927735D01*
X180821954Y-109070996D01*
X180892526Y-109203026D01*
X180963701Y-109289752D01*
X180987500Y-109318751D01*
X181016498Y-109342549D01*
X184628152Y-112954204D01*
X184597636Y-113027877D01*
X184530000Y-113367905D01*
X184530000Y-113714595D01*
X184597636Y-114054623D01*
X184730308Y-114374923D01*
X184862638Y-114572969D01*
X184579549Y-114629279D01*
X184304747Y-114743106D01*
X184057431Y-114908357D01*
X183847107Y-115118681D01*
X183681856Y-115365997D01*
X183568029Y-115640799D01*
X183510000Y-115932528D01*
X183510000Y-116229972D01*
X183568029Y-116521701D01*
X183681856Y-116796503D01*
X183847107Y-117043819D01*
X184057431Y-117254143D01*
X184304747Y-117419394D01*
X184579549Y-117533221D01*
X184871278Y-117591250D01*
X185168722Y-117591250D01*
X185460451Y-117533221D01*
X185735253Y-117419394D01*
X185982569Y-117254143D01*
X186192893Y-117043819D01*
X186358144Y-116796503D01*
X186471971Y-116521701D01*
X186530000Y-116229972D01*
X186530000Y-115932528D01*
X186471971Y-115640799D01*
X186358144Y-115365997D01*
X186314882Y-115301250D01*
X186463345Y-115301250D01*
X186803373Y-115233614D01*
X187123673Y-115100942D01*
X187411935Y-114908331D01*
X187657081Y-114663185D01*
X187849692Y-114374923D01*
X187880208Y-114301250D01*
X188162174Y-114301250D01*
X188058000Y-114405424D01*
X187770299Y-114835999D01*
X187572127Y-115314428D01*
X187471100Y-115822326D01*
X187471100Y-116340174D01*
X187572127Y-116848072D01*
X187770299Y-117326501D01*
X188058000Y-117757076D01*
X188424174Y-118123250D01*
X188854749Y-118410951D01*
X189333178Y-118609123D01*
X189841076Y-118710150D01*
X190358924Y-118710150D01*
X190866822Y-118609123D01*
X191345251Y-118410951D01*
X191775826Y-118123250D01*
X192142000Y-117757076D01*
X192429701Y-117326501D01*
X192627873Y-116848072D01*
X192728900Y-116340174D01*
X192728900Y-115822326D01*
X192627873Y-115314428D01*
X192429701Y-114835999D01*
X192142000Y-114405424D01*
X192037826Y-114301250D01*
X194224792Y-114301250D01*
X194255308Y-114374923D01*
X194387638Y-114572969D01*
X194104549Y-114629279D01*
X193829747Y-114743106D01*
X193582431Y-114908357D01*
X193372107Y-115118681D01*
X193206856Y-115365997D01*
X193093029Y-115640799D01*
X193035000Y-115932528D01*
X193035000Y-116229972D01*
X193093029Y-116521701D01*
X193206856Y-116796503D01*
X193372107Y-117043819D01*
X193582431Y-117254143D01*
X193829747Y-117419394D01*
X194104549Y-117533221D01*
X194396278Y-117591250D01*
X194693722Y-117591250D01*
X194862500Y-117557678D01*
X195031278Y-117591250D01*
X195328722Y-117591250D01*
X195620451Y-117533221D01*
X195895253Y-117419394D01*
X196142569Y-117254143D01*
X196352893Y-117043819D01*
X196518144Y-116796503D01*
X196631971Y-116521701D01*
X196690000Y-116229972D01*
X196690000Y-115932528D01*
X196668080Y-115822326D01*
X196996100Y-115822326D01*
X196996100Y-116340174D01*
X197097127Y-116848072D01*
X197295299Y-117326501D01*
X197583000Y-117757076D01*
X197949174Y-118123250D01*
X198379749Y-118410951D01*
X198858178Y-118609123D01*
X199366076Y-118710150D01*
X199883924Y-118710150D01*
X200391822Y-118609123D01*
X200870251Y-118410951D01*
X201300826Y-118123250D01*
X201667000Y-117757076D01*
X201954701Y-117326501D01*
X202152873Y-116848072D01*
X202253900Y-116340174D01*
X202253900Y-115822326D01*
X202152873Y-115314428D01*
X201954701Y-114835999D01*
X201667000Y-114405424D01*
X201300826Y-114039250D01*
X200870251Y-113751549D01*
X200391822Y-113553377D01*
X199883924Y-113452350D01*
X199366076Y-113452350D01*
X198858178Y-113553377D01*
X198379749Y-113751549D01*
X197949174Y-114039250D01*
X197583000Y-114405424D01*
X197295299Y-114835999D01*
X197097127Y-115314428D01*
X196996100Y-115822326D01*
X196668080Y-115822326D01*
X196631971Y-115640799D01*
X196518144Y-115365997D01*
X196407726Y-115200745D01*
X196648673Y-115100942D01*
X196936935Y-114908331D01*
X197182081Y-114663185D01*
X197374692Y-114374923D01*
X197507364Y-114054623D01*
X197575000Y-113714595D01*
X197575000Y-113367905D01*
X197507364Y-113027877D01*
X197374692Y-112707577D01*
X197182081Y-112419315D01*
X196936935Y-112174169D01*
X196648673Y-111981558D01*
X196328373Y-111848886D01*
X195988345Y-111781250D01*
X195641655Y-111781250D01*
X195301627Y-111848886D01*
X194981327Y-111981558D01*
X194693065Y-112174169D01*
X194447919Y-112419315D01*
X194255308Y-112707577D01*
X194224792Y-112781250D01*
X187880208Y-112781250D01*
X187849692Y-112707577D01*
X187657081Y-112419315D01*
X187411935Y-112174169D01*
X187123673Y-111981558D01*
X186803373Y-111848886D01*
X186463345Y-111781250D01*
X186116655Y-111781250D01*
X185776627Y-111848886D01*
X185702954Y-111879402D01*
X184651457Y-110827905D01*
X190880000Y-110827905D01*
X190880000Y-111174595D01*
X190947636Y-111514623D01*
X191080308Y-111834923D01*
X191272919Y-112123185D01*
X191518065Y-112368331D01*
X191806327Y-112560942D01*
X192126627Y-112693614D01*
X192466655Y-112761250D01*
X192813345Y-112761250D01*
X193153373Y-112693614D01*
X193473673Y-112560942D01*
X193761935Y-112368331D01*
X194007081Y-112123185D01*
X194199692Y-111834923D01*
X194332364Y-111514623D01*
X194400000Y-111174595D01*
X194400000Y-110827905D01*
X194332364Y-110487877D01*
X194199692Y-110167577D01*
X194007081Y-109879315D01*
X193761935Y-109634169D01*
X193473673Y-109441558D01*
X193153373Y-109308886D01*
X192813345Y-109241250D01*
X192466655Y-109241250D01*
X192126627Y-109308886D01*
X191806327Y-109441558D01*
X191518065Y-109634169D01*
X191272919Y-109879315D01*
X191080308Y-110167577D01*
X190947636Y-110487877D01*
X190880000Y-110827905D01*
X184651457Y-110827905D01*
X182287500Y-108463949D01*
X182287500Y-107567326D01*
X185089850Y-107567326D01*
X185089850Y-108085174D01*
X185190877Y-108593072D01*
X185389049Y-109071501D01*
X185676750Y-109502076D01*
X186042924Y-109868250D01*
X186473499Y-110155951D01*
X186951928Y-110354123D01*
X187459826Y-110455150D01*
X187977674Y-110455150D01*
X188485572Y-110354123D01*
X188964001Y-110155951D01*
X189394576Y-109868250D01*
X189760750Y-109502076D01*
X190048451Y-109071501D01*
X190246623Y-108593072D01*
X190347650Y-108085174D01*
X190347650Y-107567326D01*
X190246623Y-107059428D01*
X190048451Y-106580999D01*
X189760750Y-106150424D01*
X189394576Y-105784250D01*
X188964001Y-105496549D01*
X188485572Y-105298377D01*
X187977674Y-105197350D01*
X187459826Y-105197350D01*
X186951928Y-105298377D01*
X186473499Y-105496549D01*
X186042924Y-105784250D01*
X185676750Y-106150424D01*
X185389049Y-106580999D01*
X185190877Y-107059428D01*
X185089850Y-107567326D01*
X182287500Y-107567326D01*
X182287500Y-96772326D01*
X182708600Y-96772326D01*
X182708600Y-97290174D01*
X182809627Y-97798072D01*
X183007799Y-98276501D01*
X183295500Y-98707076D01*
X183661674Y-99073250D01*
X184092249Y-99360951D01*
X184570678Y-99559123D01*
X185078576Y-99660150D01*
X185596424Y-99660150D01*
X186104322Y-99559123D01*
X186582751Y-99360951D01*
X187013326Y-99073250D01*
X187379500Y-98707076D01*
X187667201Y-98276501D01*
X187865373Y-97798072D01*
X187966400Y-97290174D01*
X187966400Y-96882528D01*
X188907500Y-96882528D01*
X188907500Y-97179972D01*
X188965529Y-97471701D01*
X189079356Y-97746503D01*
X189244607Y-97993819D01*
X189454931Y-98204143D01*
X189702247Y-98369394D01*
X189977049Y-98483221D01*
X190268778Y-98541250D01*
X190566222Y-98541250D01*
X190857951Y-98483221D01*
X191132753Y-98369394D01*
X191380069Y-98204143D01*
X191590393Y-97993819D01*
X191755644Y-97746503D01*
X191869471Y-97471701D01*
X191927500Y-97179972D01*
X191927500Y-96882528D01*
X191869471Y-96590799D01*
X191755644Y-96315997D01*
X191590393Y-96068681D01*
X191380069Y-95858357D01*
X191132753Y-95693106D01*
X190857951Y-95579279D01*
X190566222Y-95521250D01*
X190268778Y-95521250D01*
X189977049Y-95579279D01*
X189702247Y-95693106D01*
X189454931Y-95858357D01*
X189244607Y-96068681D01*
X189079356Y-96315997D01*
X188965529Y-96590799D01*
X188907500Y-96882528D01*
X187966400Y-96882528D01*
X187966400Y-96772326D01*
X187865373Y-96264428D01*
X187667201Y-95785999D01*
X187379500Y-95355424D01*
X187013326Y-94989250D01*
X186582751Y-94701549D01*
X186104322Y-94503377D01*
X185596424Y-94402350D01*
X185078576Y-94402350D01*
X184570678Y-94503377D01*
X184092249Y-94701549D01*
X183661674Y-94989250D01*
X183295500Y-95355424D01*
X183007799Y-95785999D01*
X182809627Y-96264428D01*
X182708600Y-96772326D01*
X182287500Y-96772326D01*
X182287500Y-96081458D01*
X182361173Y-96050942D01*
X182649435Y-95858331D01*
X182894581Y-95613185D01*
X183087192Y-95324923D01*
X183219864Y-95004623D01*
X183287500Y-94664595D01*
X183287500Y-94317905D01*
X183219864Y-93977877D01*
X183087192Y-93657577D01*
X182894581Y-93369315D01*
X182649435Y-93124169D01*
X182361173Y-92931558D01*
X182040873Y-92798886D01*
X181700845Y-92731250D01*
X181354155Y-92731250D01*
X181014127Y-92798886D01*
X180940454Y-92829402D01*
X179888957Y-91777905D01*
X186117500Y-91777905D01*
X186117500Y-92124595D01*
X186185136Y-92464623D01*
X186317808Y-92784923D01*
X186510419Y-93073185D01*
X186755565Y-93318331D01*
X187043827Y-93510942D01*
X187364127Y-93643614D01*
X187704155Y-93711250D01*
X188050845Y-93711250D01*
X188390873Y-93643614D01*
X188711173Y-93510942D01*
X188999435Y-93318331D01*
X189244581Y-93073185D01*
X189437192Y-92784923D01*
X189569864Y-92464623D01*
X189637500Y-92124595D01*
X189637500Y-91777905D01*
X189569864Y-91437877D01*
X189437192Y-91117577D01*
X189244581Y-90829315D01*
X188999435Y-90584169D01*
X188711173Y-90391558D01*
X188390873Y-90258886D01*
X188050845Y-90191250D01*
X187704155Y-90191250D01*
X187364127Y-90258886D01*
X187043827Y-90391558D01*
X186755565Y-90584169D01*
X186510419Y-90829315D01*
X186317808Y-91117577D01*
X186185136Y-91437877D01*
X186117500Y-91777905D01*
X179888957Y-91777905D01*
X177525000Y-89413949D01*
X177525000Y-77722326D01*
X177946100Y-77722326D01*
X177946100Y-78240174D01*
X178047127Y-78748072D01*
X178245299Y-79226501D01*
X178533000Y-79657076D01*
X178899174Y-80023250D01*
X179329749Y-80310951D01*
X179808178Y-80509123D01*
X180316076Y-80610150D01*
X180833924Y-80610150D01*
X181341822Y-80509123D01*
X181820251Y-80310951D01*
X182250826Y-80023250D01*
X182617000Y-79657076D01*
X182904701Y-79226501D01*
X183102873Y-78748072D01*
X183203900Y-78240174D01*
X183203900Y-77832528D01*
X184145000Y-77832528D01*
X184145000Y-78129972D01*
X184203029Y-78421701D01*
X184316856Y-78696503D01*
X184482107Y-78943819D01*
X184692431Y-79154143D01*
X184939747Y-79319394D01*
X185214549Y-79433221D01*
X185506278Y-79491250D01*
X185803722Y-79491250D01*
X186095451Y-79433221D01*
X186370253Y-79319394D01*
X186617569Y-79154143D01*
X186827893Y-78943819D01*
X186993144Y-78696503D01*
X187106971Y-78421701D01*
X187165000Y-78129972D01*
X187165000Y-77832528D01*
X187139042Y-77702027D01*
X187315000Y-77702027D01*
X187315000Y-78260473D01*
X187423948Y-78808189D01*
X187637656Y-79324126D01*
X187947912Y-79788457D01*
X188342793Y-80183338D01*
X188807124Y-80493594D01*
X189323061Y-80707302D01*
X189870777Y-80816250D01*
X190429223Y-80816250D01*
X190976939Y-80707302D01*
X191492876Y-80493594D01*
X191957207Y-80183338D01*
X192352088Y-79788457D01*
X192662344Y-79324126D01*
X192876052Y-78808189D01*
X192985000Y-78260473D01*
X192985000Y-77832528D01*
X193035000Y-77832528D01*
X193035000Y-78129972D01*
X193093029Y-78421701D01*
X193206856Y-78696503D01*
X193372107Y-78943819D01*
X193582431Y-79154143D01*
X193829747Y-79319394D01*
X194104549Y-79433221D01*
X194396278Y-79491250D01*
X194693722Y-79491250D01*
X194985451Y-79433221D01*
X195055000Y-79404413D01*
X195055001Y-89691418D01*
X195051324Y-89728750D01*
X195055001Y-89766083D01*
X195061883Y-89835951D01*
X195065998Y-89877735D01*
X195109454Y-90020996D01*
X195180026Y-90153026D01*
X195251201Y-90239752D01*
X195275000Y-90268751D01*
X195303998Y-90292549D01*
X198915652Y-93904204D01*
X198885136Y-93977877D01*
X198817500Y-94317905D01*
X198817500Y-94664595D01*
X198885136Y-95004623D01*
X199017808Y-95324923D01*
X199150138Y-95522969D01*
X198867049Y-95579279D01*
X198592247Y-95693106D01*
X198344931Y-95858357D01*
X198134607Y-96068681D01*
X197969356Y-96315997D01*
X197855529Y-96590799D01*
X197797500Y-96882528D01*
X197797500Y-97179972D01*
X197855529Y-97471701D01*
X197969356Y-97746503D01*
X198134607Y-97993819D01*
X198344931Y-98204143D01*
X198592247Y-98369394D01*
X198867049Y-98483221D01*
X199158778Y-98541250D01*
X199456222Y-98541250D01*
X199747951Y-98483221D01*
X199817500Y-98454413D01*
X199817501Y-107230416D01*
X199813824Y-107267748D01*
X199828498Y-107416733D01*
X199871954Y-107559994D01*
X199942526Y-107692024D01*
X200013701Y-107778750D01*
X200037500Y-107807749D01*
X200066498Y-107831547D01*
X201575408Y-109340457D01*
X201331327Y-109441558D01*
X201043065Y-109634169D01*
X200797919Y-109879315D01*
X200605308Y-110167577D01*
X200472636Y-110487877D01*
X200405000Y-110827905D01*
X200405000Y-111174595D01*
X200472636Y-111514623D01*
X200605308Y-111834923D01*
X200797919Y-112123185D01*
X201043065Y-112368331D01*
X201331327Y-112560942D01*
X201651627Y-112693614D01*
X201991655Y-112761250D01*
X202338345Y-112761250D01*
X202678373Y-112693614D01*
X202998673Y-112560942D01*
X203286935Y-112368331D01*
X203532081Y-112123185D01*
X203724692Y-111834923D01*
X203825793Y-111590843D01*
X204332593Y-112097643D01*
X204218065Y-112174169D01*
X203972919Y-112419315D01*
X203780308Y-112707577D01*
X203647636Y-113027877D01*
X203580000Y-113367905D01*
X203580000Y-113714595D01*
X203647636Y-114054623D01*
X203780308Y-114374923D01*
X203912638Y-114572969D01*
X203629549Y-114629279D01*
X203354747Y-114743106D01*
X203107431Y-114908357D01*
X202897107Y-115118681D01*
X202731856Y-115365997D01*
X202618029Y-115640799D01*
X202560000Y-115932528D01*
X202560000Y-116229972D01*
X202618029Y-116521701D01*
X202731856Y-116796503D01*
X202897107Y-117043819D01*
X203107431Y-117254143D01*
X203354747Y-117419394D01*
X203629549Y-117533221D01*
X203921278Y-117591250D01*
X204218722Y-117591250D01*
X204387500Y-117557678D01*
X204556278Y-117591250D01*
X204853722Y-117591250D01*
X205145451Y-117533221D01*
X205420253Y-117419394D01*
X205667569Y-117254143D01*
X205877893Y-117043819D01*
X206043144Y-116796503D01*
X206156971Y-116521701D01*
X206215000Y-116229972D01*
X206215000Y-115932528D01*
X206193080Y-115822326D01*
X206521100Y-115822326D01*
X206521100Y-116340174D01*
X206622127Y-116848072D01*
X206820299Y-117326501D01*
X207108000Y-117757076D01*
X207474174Y-118123250D01*
X207904749Y-118410951D01*
X208383178Y-118609123D01*
X208891076Y-118710150D01*
X209408924Y-118710150D01*
X209916822Y-118609123D01*
X210395251Y-118410951D01*
X210825826Y-118123250D01*
X211192000Y-117757076D01*
X211479701Y-117326501D01*
X211677873Y-116848072D01*
X211778900Y-116340174D01*
X211778900Y-115932528D01*
X212720000Y-115932528D01*
X212720000Y-116229972D01*
X212778029Y-116521701D01*
X212891856Y-116796503D01*
X213057107Y-117043819D01*
X213267431Y-117254143D01*
X213514747Y-117419394D01*
X213789549Y-117533221D01*
X214081278Y-117591250D01*
X214378722Y-117591250D01*
X214670451Y-117533221D01*
X214945253Y-117419394D01*
X215192569Y-117254143D01*
X215402893Y-117043819D01*
X215568144Y-116796503D01*
X215681971Y-116521701D01*
X215740000Y-116229972D01*
X215740000Y-115932528D01*
X215681971Y-115640799D01*
X215568144Y-115365997D01*
X215402893Y-115118681D01*
X215192569Y-114908357D01*
X214945253Y-114743106D01*
X214670451Y-114629279D01*
X214378722Y-114571250D01*
X214081278Y-114571250D01*
X213789549Y-114629279D01*
X213514747Y-114743106D01*
X213267431Y-114908357D01*
X213057107Y-115118681D01*
X212891856Y-115365997D01*
X212778029Y-115640799D01*
X212720000Y-115932528D01*
X211778900Y-115932528D01*
X211778900Y-115822326D01*
X211677873Y-115314428D01*
X211479701Y-114835999D01*
X211192000Y-114405424D01*
X210825826Y-114039250D01*
X210395251Y-113751549D01*
X209916822Y-113553377D01*
X209408924Y-113452350D01*
X208891076Y-113452350D01*
X208383178Y-113553377D01*
X207904749Y-113751549D01*
X207474174Y-114039250D01*
X207108000Y-114405424D01*
X206820299Y-114835999D01*
X206622127Y-115314428D01*
X206521100Y-115822326D01*
X206193080Y-115822326D01*
X206156971Y-115640799D01*
X206043144Y-115365997D01*
X205932726Y-115200745D01*
X206173673Y-115100942D01*
X206461935Y-114908331D01*
X206707081Y-114663185D01*
X206899692Y-114374923D01*
X207032364Y-114054623D01*
X207100000Y-113714595D01*
X207100000Y-113367905D01*
X207032364Y-113027877D01*
X206899692Y-112707577D01*
X206707081Y-112419315D01*
X206461935Y-112174169D01*
X206173673Y-111981558D01*
X206095700Y-111949261D01*
X206089003Y-111881262D01*
X206045546Y-111738001D01*
X205974975Y-111605973D01*
X205974974Y-111605971D01*
X205903799Y-111519245D01*
X205880001Y-111490247D01*
X205851004Y-111466450D01*
X201951880Y-107567326D01*
X208902350Y-107567326D01*
X208902350Y-108085174D01*
X209003377Y-108593072D01*
X209201549Y-109071501D01*
X209489250Y-109502076D01*
X209855424Y-109868250D01*
X210183734Y-110087620D01*
X210130308Y-110167577D01*
X209997636Y-110487877D01*
X209930000Y-110827905D01*
X209930000Y-111174595D01*
X209997636Y-111514623D01*
X210130308Y-111834923D01*
X210322919Y-112123185D01*
X210568065Y-112368331D01*
X210856327Y-112560942D01*
X211176627Y-112693614D01*
X211516655Y-112761250D01*
X211863345Y-112761250D01*
X212203373Y-112693614D01*
X212523673Y-112560942D01*
X212811935Y-112368331D01*
X213057081Y-112123185D01*
X213249692Y-111834923D01*
X213382364Y-111514623D01*
X213450000Y-111174595D01*
X213450000Y-110827905D01*
X213382364Y-110487877D01*
X213249692Y-110167577D01*
X213098267Y-109940954D01*
X213207076Y-109868250D01*
X213573250Y-109502076D01*
X213860951Y-109071501D01*
X214059123Y-108593072D01*
X214160150Y-108085174D01*
X214160150Y-107567326D01*
X214059123Y-107059428D01*
X213860951Y-106580999D01*
X213573250Y-106150424D01*
X213207076Y-105784250D01*
X212776501Y-105496549D01*
X212298072Y-105298377D01*
X211790174Y-105197350D01*
X211272326Y-105197350D01*
X210764428Y-105298377D01*
X210285999Y-105496549D01*
X209855424Y-105784250D01*
X209489250Y-106150424D01*
X209201549Y-106580999D01*
X209003377Y-107059428D01*
X208902350Y-107567326D01*
X201951880Y-107567326D01*
X201337500Y-106952947D01*
X201337500Y-96772326D01*
X201758600Y-96772326D01*
X201758600Y-97290174D01*
X201859627Y-97798072D01*
X202057799Y-98276501D01*
X202345500Y-98707076D01*
X202711674Y-99073250D01*
X203142249Y-99360951D01*
X203620678Y-99559123D01*
X204128576Y-99660150D01*
X204646424Y-99660150D01*
X205154322Y-99559123D01*
X205632751Y-99360951D01*
X206063326Y-99073250D01*
X206429500Y-98707076D01*
X206717201Y-98276501D01*
X206915373Y-97798072D01*
X207016400Y-97290174D01*
X207016400Y-96882528D01*
X207957500Y-96882528D01*
X207957500Y-97179972D01*
X208015529Y-97471701D01*
X208129356Y-97746503D01*
X208294607Y-97993819D01*
X208504931Y-98204143D01*
X208752247Y-98369394D01*
X209027049Y-98483221D01*
X209318778Y-98541250D01*
X209616222Y-98541250D01*
X209907951Y-98483221D01*
X210182753Y-98369394D01*
X210430069Y-98204143D01*
X210640393Y-97993819D01*
X210805644Y-97746503D01*
X210919471Y-97471701D01*
X210977500Y-97179972D01*
X210977500Y-96882528D01*
X210919471Y-96590799D01*
X210805644Y-96315997D01*
X210640393Y-96068681D01*
X210430069Y-95858357D01*
X210182753Y-95693106D01*
X209907951Y-95579279D01*
X209616222Y-95521250D01*
X209318778Y-95521250D01*
X209027049Y-95579279D01*
X208752247Y-95693106D01*
X208504931Y-95858357D01*
X208294607Y-96068681D01*
X208129356Y-96315997D01*
X208015529Y-96590799D01*
X207957500Y-96882528D01*
X207016400Y-96882528D01*
X207016400Y-96772326D01*
X206915373Y-96264428D01*
X206717201Y-95785999D01*
X206429500Y-95355424D01*
X206063326Y-94989250D01*
X205632751Y-94701549D01*
X205154322Y-94503377D01*
X204646424Y-94402350D01*
X204128576Y-94402350D01*
X203620678Y-94503377D01*
X203142249Y-94701549D01*
X202711674Y-94989250D01*
X202345500Y-95355424D01*
X202057799Y-95785999D01*
X201859627Y-96264428D01*
X201758600Y-96772326D01*
X201337500Y-96772326D01*
X201337500Y-96081458D01*
X201411173Y-96050942D01*
X201699435Y-95858331D01*
X201944581Y-95613185D01*
X202137192Y-95324923D01*
X202269864Y-95004623D01*
X202337500Y-94664595D01*
X202337500Y-94317905D01*
X202269864Y-93977877D01*
X202137192Y-93657577D01*
X201944581Y-93369315D01*
X201699435Y-93124169D01*
X201411173Y-92931558D01*
X201090873Y-92798886D01*
X200750845Y-92731250D01*
X200404155Y-92731250D01*
X200064127Y-92798886D01*
X199990454Y-92829402D01*
X198938957Y-91777905D01*
X205167500Y-91777905D01*
X205167500Y-92124595D01*
X205235136Y-92464623D01*
X205367808Y-92784923D01*
X205560419Y-93073185D01*
X205805565Y-93318331D01*
X206093827Y-93510942D01*
X206414127Y-93643614D01*
X206754155Y-93711250D01*
X207100845Y-93711250D01*
X207440873Y-93643614D01*
X207761173Y-93510942D01*
X208049435Y-93318331D01*
X208294581Y-93073185D01*
X208487192Y-92784923D01*
X208619864Y-92464623D01*
X208687500Y-92124595D01*
X208687500Y-91777905D01*
X208619864Y-91437877D01*
X208487192Y-91117577D01*
X208294581Y-90829315D01*
X208049435Y-90584169D01*
X207761173Y-90391558D01*
X207440873Y-90258886D01*
X207100845Y-90191250D01*
X206754155Y-90191250D01*
X206414127Y-90258886D01*
X206093827Y-90391558D01*
X205805565Y-90584169D01*
X205560419Y-90829315D01*
X205367808Y-91117577D01*
X205235136Y-91437877D01*
X205167500Y-91777905D01*
X198938957Y-91777905D01*
X196575000Y-89413949D01*
X196575000Y-77722326D01*
X196996100Y-77722326D01*
X196996100Y-78240174D01*
X197097127Y-78748072D01*
X197295299Y-79226501D01*
X197583000Y-79657076D01*
X197949174Y-80023250D01*
X198379749Y-80310951D01*
X198858178Y-80509123D01*
X199366076Y-80610150D01*
X199883924Y-80610150D01*
X200391822Y-80509123D01*
X200870251Y-80310951D01*
X201300826Y-80023250D01*
X201667000Y-79657076D01*
X201954701Y-79226501D01*
X202152873Y-78748072D01*
X202253900Y-78240174D01*
X202253900Y-77832528D01*
X203195000Y-77832528D01*
X203195000Y-78129972D01*
X203253029Y-78421701D01*
X203366856Y-78696503D01*
X203532107Y-78943819D01*
X203742431Y-79154143D01*
X203989747Y-79319394D01*
X204264549Y-79433221D01*
X204556278Y-79491250D01*
X204853722Y-79491250D01*
X205145451Y-79433221D01*
X205420253Y-79319394D01*
X205667569Y-79154143D01*
X205877893Y-78943819D01*
X206043144Y-78696503D01*
X206156971Y-78421701D01*
X206215000Y-78129972D01*
X206215000Y-77832528D01*
X212085000Y-77832528D01*
X212085000Y-78129972D01*
X212143029Y-78421701D01*
X212256856Y-78696503D01*
X212422107Y-78943819D01*
X212632431Y-79154143D01*
X212879747Y-79319394D01*
X213154549Y-79433221D01*
X213446278Y-79491250D01*
X213743722Y-79491250D01*
X214035451Y-79433221D01*
X214105000Y-79404413D01*
X214105001Y-89691418D01*
X214101324Y-89728750D01*
X214105001Y-89766083D01*
X214111883Y-89835951D01*
X214115998Y-89877735D01*
X214159454Y-90020996D01*
X214230026Y-90153026D01*
X214301201Y-90239752D01*
X214325000Y-90268751D01*
X214353998Y-90292549D01*
X217965652Y-93904204D01*
X217935136Y-93977877D01*
X217867500Y-94317905D01*
X217867500Y-94664595D01*
X217935136Y-95004623D01*
X218067808Y-95324923D01*
X218200138Y-95522969D01*
X217917049Y-95579279D01*
X217642247Y-95693106D01*
X217394931Y-95858357D01*
X217184607Y-96068681D01*
X217019356Y-96315997D01*
X216905529Y-96590799D01*
X216847500Y-96882528D01*
X216847500Y-97179972D01*
X216905529Y-97471701D01*
X217019356Y-97746503D01*
X217184607Y-97993819D01*
X217394931Y-98204143D01*
X217642247Y-98369394D01*
X217917049Y-98483221D01*
X218208778Y-98541250D01*
X218506222Y-98541250D01*
X218797951Y-98483221D01*
X218867500Y-98454413D01*
X218867501Y-108741418D01*
X218863824Y-108778750D01*
X218878498Y-108927735D01*
X218921954Y-109070996D01*
X218992526Y-109203026D01*
X219063701Y-109289752D01*
X219087500Y-109318751D01*
X219116498Y-109342549D01*
X222728152Y-112954204D01*
X222697636Y-113027877D01*
X222630000Y-113367905D01*
X222630000Y-113714595D01*
X222697636Y-114054623D01*
X222830308Y-114374923D01*
X222962638Y-114572969D01*
X222679549Y-114629279D01*
X222404747Y-114743106D01*
X222157431Y-114908357D01*
X221947107Y-115118681D01*
X221781856Y-115365997D01*
X221668029Y-115640799D01*
X221610000Y-115932528D01*
X221610000Y-116229972D01*
X221668029Y-116521701D01*
X221781856Y-116796503D01*
X221947107Y-117043819D01*
X222157431Y-117254143D01*
X222404747Y-117419394D01*
X222679549Y-117533221D01*
X222971278Y-117591250D01*
X223268722Y-117591250D01*
X223560451Y-117533221D01*
X223835253Y-117419394D01*
X224082569Y-117254143D01*
X224292893Y-117043819D01*
X224458144Y-116796503D01*
X224571971Y-116521701D01*
X224630000Y-116229972D01*
X224630000Y-115932528D01*
X224608080Y-115822326D01*
X225571100Y-115822326D01*
X225571100Y-116340174D01*
X225672127Y-116848072D01*
X225870299Y-117326501D01*
X226158000Y-117757076D01*
X226524174Y-118123250D01*
X226954749Y-118410951D01*
X227433178Y-118609123D01*
X227941076Y-118710150D01*
X228458924Y-118710150D01*
X228966822Y-118609123D01*
X229445251Y-118410951D01*
X229875826Y-118123250D01*
X230242000Y-117757076D01*
X230529701Y-117326501D01*
X230727873Y-116848072D01*
X230828900Y-116340174D01*
X230828900Y-115932528D01*
X231770000Y-115932528D01*
X231770000Y-116229972D01*
X231828029Y-116521701D01*
X231941856Y-116796503D01*
X232107107Y-117043819D01*
X232317431Y-117254143D01*
X232564747Y-117419394D01*
X232839549Y-117533221D01*
X233131278Y-117591250D01*
X233428722Y-117591250D01*
X233720451Y-117533221D01*
X233995253Y-117419394D01*
X234242569Y-117254143D01*
X234452893Y-117043819D01*
X234618144Y-116796503D01*
X234731971Y-116521701D01*
X234790000Y-116229972D01*
X234790000Y-115932528D01*
X234764042Y-115802027D01*
X234915000Y-115802027D01*
X234915000Y-116360473D01*
X235023948Y-116908189D01*
X235237656Y-117424126D01*
X235547912Y-117888457D01*
X235942793Y-118283338D01*
X236407124Y-118593594D01*
X236923061Y-118807302D01*
X237470777Y-118916250D01*
X238029223Y-118916250D01*
X238576939Y-118807302D01*
X239092876Y-118593594D01*
X239557207Y-118283338D01*
X239952088Y-117888457D01*
X240262344Y-117424126D01*
X240476052Y-116908189D01*
X240585000Y-116360473D01*
X240585000Y-115802027D01*
X240476052Y-115254311D01*
X240262344Y-114738374D01*
X239952088Y-114274043D01*
X239557207Y-113879162D01*
X239092876Y-113568906D01*
X238576939Y-113355198D01*
X238029223Y-113246250D01*
X237470777Y-113246250D01*
X236923061Y-113355198D01*
X236407124Y-113568906D01*
X235942793Y-113879162D01*
X235547912Y-114274043D01*
X235237656Y-114738374D01*
X235023948Y-115254311D01*
X234915000Y-115802027D01*
X234764042Y-115802027D01*
X234731971Y-115640799D01*
X234618144Y-115365997D01*
X234452893Y-115118681D01*
X234242569Y-114908357D01*
X233995253Y-114743106D01*
X233720451Y-114629279D01*
X233428722Y-114571250D01*
X233131278Y-114571250D01*
X232839549Y-114629279D01*
X232564747Y-114743106D01*
X232317431Y-114908357D01*
X232107107Y-115118681D01*
X231941856Y-115365997D01*
X231828029Y-115640799D01*
X231770000Y-115932528D01*
X230828900Y-115932528D01*
X230828900Y-115822326D01*
X230727873Y-115314428D01*
X230529701Y-114835999D01*
X230242000Y-114405424D01*
X229875826Y-114039250D01*
X229445251Y-113751549D01*
X228966822Y-113553377D01*
X228458924Y-113452350D01*
X227941076Y-113452350D01*
X227433178Y-113553377D01*
X226954749Y-113751549D01*
X226524174Y-114039250D01*
X226158000Y-114405424D01*
X225870299Y-114835999D01*
X225672127Y-115314428D01*
X225571100Y-115822326D01*
X224608080Y-115822326D01*
X224571971Y-115640799D01*
X224458144Y-115365997D01*
X224414882Y-115301250D01*
X224563345Y-115301250D01*
X224903373Y-115233614D01*
X225223673Y-115100942D01*
X225511935Y-114908331D01*
X225757081Y-114663185D01*
X225949692Y-114374923D01*
X226082364Y-114054623D01*
X226150000Y-113714595D01*
X226150000Y-113367905D01*
X226082364Y-113027877D01*
X225949692Y-112707577D01*
X225757081Y-112419315D01*
X225511935Y-112174169D01*
X225223673Y-111981558D01*
X224903373Y-111848886D01*
X224563345Y-111781250D01*
X224216655Y-111781250D01*
X223876627Y-111848886D01*
X223802954Y-111879402D01*
X222751457Y-110827905D01*
X228980000Y-110827905D01*
X228980000Y-111174595D01*
X229047636Y-111514623D01*
X229180308Y-111834923D01*
X229372919Y-112123185D01*
X229618065Y-112368331D01*
X229906327Y-112560942D01*
X230226627Y-112693614D01*
X230566655Y-112761250D01*
X230913345Y-112761250D01*
X231253373Y-112693614D01*
X231573673Y-112560942D01*
X231861935Y-112368331D01*
X232107081Y-112123185D01*
X232299692Y-111834923D01*
X232432364Y-111514623D01*
X232500000Y-111174595D01*
X232500000Y-110827905D01*
X232432364Y-110487877D01*
X232299692Y-110167577D01*
X232107081Y-109879315D01*
X231861935Y-109634169D01*
X231573673Y-109441558D01*
X231253373Y-109308886D01*
X230913345Y-109241250D01*
X230566655Y-109241250D01*
X230226627Y-109308886D01*
X229906327Y-109441558D01*
X229618065Y-109634169D01*
X229372919Y-109879315D01*
X229180308Y-110167577D01*
X229047636Y-110487877D01*
X228980000Y-110827905D01*
X222751457Y-110827905D01*
X220387500Y-108463949D01*
X220387500Y-96772326D01*
X220808600Y-96772326D01*
X220808600Y-97290174D01*
X220909627Y-97798072D01*
X221107799Y-98276501D01*
X221395500Y-98707076D01*
X221761674Y-99073250D01*
X222192249Y-99360951D01*
X222670678Y-99559123D01*
X223178576Y-99660150D01*
X223696424Y-99660150D01*
X224204322Y-99559123D01*
X224682751Y-99360951D01*
X225113326Y-99073250D01*
X225479500Y-98707076D01*
X225767201Y-98276501D01*
X225965373Y-97798072D01*
X226066400Y-97290174D01*
X226066400Y-96882528D01*
X227007500Y-96882528D01*
X227007500Y-97179972D01*
X227065529Y-97471701D01*
X227179356Y-97746503D01*
X227344607Y-97993819D01*
X227554931Y-98204143D01*
X227802247Y-98369394D01*
X228077049Y-98483221D01*
X228368778Y-98541250D01*
X228666222Y-98541250D01*
X228957951Y-98483221D01*
X229232753Y-98369394D01*
X229480069Y-98204143D01*
X229690393Y-97993819D01*
X229855644Y-97746503D01*
X229969471Y-97471701D01*
X230027500Y-97179972D01*
X230027500Y-96882528D01*
X229969471Y-96590799D01*
X229855644Y-96315997D01*
X229690393Y-96068681D01*
X229480069Y-95858357D01*
X229232753Y-95693106D01*
X228957951Y-95579279D01*
X228666222Y-95521250D01*
X228368778Y-95521250D01*
X228077049Y-95579279D01*
X227802247Y-95693106D01*
X227554931Y-95858357D01*
X227344607Y-96068681D01*
X227179356Y-96315997D01*
X227065529Y-96590799D01*
X227007500Y-96882528D01*
X226066400Y-96882528D01*
X226066400Y-96772326D01*
X225965373Y-96264428D01*
X225767201Y-95785999D01*
X225479500Y-95355424D01*
X225113326Y-94989250D01*
X224682751Y-94701549D01*
X224204322Y-94503377D01*
X223696424Y-94402350D01*
X223178576Y-94402350D01*
X222670678Y-94503377D01*
X222192249Y-94701549D01*
X221761674Y-94989250D01*
X221395500Y-95355424D01*
X221107799Y-95785999D01*
X220909627Y-96264428D01*
X220808600Y-96772326D01*
X220387500Y-96772326D01*
X220387500Y-96081458D01*
X220461173Y-96050942D01*
X220749435Y-95858331D01*
X220994581Y-95613185D01*
X221187192Y-95324923D01*
X221319864Y-95004623D01*
X221387500Y-94664595D01*
X221387500Y-94317905D01*
X221319864Y-93977877D01*
X221187192Y-93657577D01*
X220994581Y-93369315D01*
X220749435Y-93124169D01*
X220461173Y-92931558D01*
X220140873Y-92798886D01*
X219800845Y-92731250D01*
X219454155Y-92731250D01*
X219114127Y-92798886D01*
X219040454Y-92829402D01*
X217988957Y-91777905D01*
X224217500Y-91777905D01*
X224217500Y-92124595D01*
X224285136Y-92464623D01*
X224417808Y-92784923D01*
X224610419Y-93073185D01*
X224855565Y-93318331D01*
X225143827Y-93510942D01*
X225464127Y-93643614D01*
X225804155Y-93711250D01*
X226150845Y-93711250D01*
X226490873Y-93643614D01*
X226811173Y-93510942D01*
X227099435Y-93318331D01*
X227344581Y-93073185D01*
X227537192Y-92784923D01*
X227669864Y-92464623D01*
X227737500Y-92124595D01*
X227737500Y-91777905D01*
X227669864Y-91437877D01*
X227537192Y-91117577D01*
X227344581Y-90829315D01*
X227099435Y-90584169D01*
X226811173Y-90391558D01*
X226490873Y-90258886D01*
X226150845Y-90191250D01*
X225804155Y-90191250D01*
X225464127Y-90258886D01*
X225143827Y-90391558D01*
X224855565Y-90584169D01*
X224610419Y-90829315D01*
X224417808Y-91117577D01*
X224285136Y-91437877D01*
X224217500Y-91777905D01*
X217988957Y-91777905D01*
X215625000Y-89413949D01*
X215625000Y-77722326D01*
X216046100Y-77722326D01*
X216046100Y-78240174D01*
X216147127Y-78748072D01*
X216345299Y-79226501D01*
X216633000Y-79657076D01*
X216999174Y-80023250D01*
X217429749Y-80310951D01*
X217908178Y-80509123D01*
X218416076Y-80610150D01*
X218933924Y-80610150D01*
X219441822Y-80509123D01*
X219920251Y-80310951D01*
X220350826Y-80023250D01*
X220717000Y-79657076D01*
X221004701Y-79226501D01*
X221202873Y-78748072D01*
X221303900Y-78240174D01*
X221303900Y-77832528D01*
X222245000Y-77832528D01*
X222245000Y-78129972D01*
X222303029Y-78421701D01*
X222416856Y-78696503D01*
X222582107Y-78943819D01*
X222792431Y-79154143D01*
X223039747Y-79319394D01*
X223314549Y-79433221D01*
X223606278Y-79491250D01*
X223903722Y-79491250D01*
X224195451Y-79433221D01*
X224470253Y-79319394D01*
X224717569Y-79154143D01*
X224927893Y-78943819D01*
X225093144Y-78696503D01*
X225206971Y-78421701D01*
X225265000Y-78129972D01*
X225265000Y-77832528D01*
X235897500Y-77832528D01*
X235897500Y-78129972D01*
X235955529Y-78421701D01*
X236069356Y-78696503D01*
X236234607Y-78943819D01*
X236444931Y-79154143D01*
X236692247Y-79319394D01*
X236967049Y-79433221D01*
X237258778Y-79491250D01*
X237556222Y-79491250D01*
X237847951Y-79433221D01*
X237917500Y-79404413D01*
X237917501Y-92072667D01*
X237913824Y-92110000D01*
X237928498Y-92258985D01*
X237971954Y-92402246D01*
X238042526Y-92534276D01*
X238113701Y-92621002D01*
X238137500Y-92650001D01*
X238166498Y-92673799D01*
X239396902Y-93904204D01*
X239366386Y-93977877D01*
X239298750Y-94317905D01*
X239298750Y-94664595D01*
X239366386Y-95004623D01*
X239499058Y-95324923D01*
X239631388Y-95522969D01*
X239348299Y-95579279D01*
X239073497Y-95693106D01*
X238826181Y-95858357D01*
X238615857Y-96068681D01*
X238450606Y-96315997D01*
X238336779Y-96590799D01*
X238278750Y-96882528D01*
X238278750Y-97179972D01*
X238336779Y-97471701D01*
X238450606Y-97746503D01*
X238615857Y-97993819D01*
X238826181Y-98204143D01*
X239073497Y-98369394D01*
X239348299Y-98483221D01*
X239640028Y-98541250D01*
X239937472Y-98541250D01*
X240229201Y-98483221D01*
X240298751Y-98454412D01*
X240298750Y-111122678D01*
X240295074Y-111160000D01*
X240298750Y-111197322D01*
X240298750Y-111197332D01*
X240309747Y-111308985D01*
X240335922Y-111395274D01*
X240353204Y-111452246D01*
X240423776Y-111584276D01*
X240463621Y-111632826D01*
X240518749Y-111700001D01*
X240547753Y-111723804D01*
X241778152Y-112954204D01*
X241747636Y-113027877D01*
X241680000Y-113367905D01*
X241680000Y-113714595D01*
X241747636Y-114054623D01*
X241880308Y-114374923D01*
X242012638Y-114572969D01*
X241729549Y-114629279D01*
X241454747Y-114743106D01*
X241207431Y-114908357D01*
X240997107Y-115118681D01*
X240831856Y-115365997D01*
X240718029Y-115640799D01*
X240660000Y-115932528D01*
X240660000Y-116229972D01*
X240718029Y-116521701D01*
X240831856Y-116796503D01*
X240997107Y-117043819D01*
X241207431Y-117254143D01*
X241454747Y-117419394D01*
X241729549Y-117533221D01*
X242021278Y-117591250D01*
X242318722Y-117591250D01*
X242610451Y-117533221D01*
X242885253Y-117419394D01*
X243132569Y-117254143D01*
X243342893Y-117043819D01*
X243508144Y-116796503D01*
X243621971Y-116521701D01*
X243680000Y-116229972D01*
X243680000Y-115932528D01*
X243658080Y-115822326D01*
X244621100Y-115822326D01*
X244621100Y-116340174D01*
X244722127Y-116848072D01*
X244920299Y-117326501D01*
X245208000Y-117757076D01*
X245574174Y-118123250D01*
X246004749Y-118410951D01*
X246483178Y-118609123D01*
X246991076Y-118710150D01*
X247508924Y-118710150D01*
X248016822Y-118609123D01*
X248495251Y-118410951D01*
X248925826Y-118123250D01*
X249292000Y-117757076D01*
X249579701Y-117326501D01*
X249777873Y-116848072D01*
X249878900Y-116340174D01*
X249878900Y-115932528D01*
X250820000Y-115932528D01*
X250820000Y-116229972D01*
X250878029Y-116521701D01*
X250991856Y-116796503D01*
X251157107Y-117043819D01*
X251367431Y-117254143D01*
X251614747Y-117419394D01*
X251889549Y-117533221D01*
X252181278Y-117591250D01*
X252478722Y-117591250D01*
X252770451Y-117533221D01*
X253045253Y-117419394D01*
X253292569Y-117254143D01*
X253502893Y-117043819D01*
X253668144Y-116796503D01*
X253781971Y-116521701D01*
X253840000Y-116229972D01*
X253840000Y-115932528D01*
X253781971Y-115640799D01*
X253668144Y-115365997D01*
X253502893Y-115118681D01*
X253292569Y-114908357D01*
X253045253Y-114743106D01*
X252770451Y-114629279D01*
X252478722Y-114571250D01*
X252181278Y-114571250D01*
X251889549Y-114629279D01*
X251614747Y-114743106D01*
X251367431Y-114908357D01*
X251157107Y-115118681D01*
X250991856Y-115365997D01*
X250878029Y-115640799D01*
X250820000Y-115932528D01*
X249878900Y-115932528D01*
X249878900Y-115822326D01*
X249777873Y-115314428D01*
X249579701Y-114835999D01*
X249292000Y-114405424D01*
X248925826Y-114039250D01*
X248495251Y-113751549D01*
X248016822Y-113553377D01*
X247508924Y-113452350D01*
X246991076Y-113452350D01*
X246483178Y-113553377D01*
X246004749Y-113751549D01*
X245574174Y-114039250D01*
X245208000Y-114405424D01*
X244920299Y-114835999D01*
X244722127Y-115314428D01*
X244621100Y-115822326D01*
X243658080Y-115822326D01*
X243621971Y-115640799D01*
X243508144Y-115365997D01*
X243464882Y-115301250D01*
X243613345Y-115301250D01*
X243953373Y-115233614D01*
X244273673Y-115100942D01*
X244561935Y-114908331D01*
X244807081Y-114663185D01*
X244999692Y-114374923D01*
X245132364Y-114054623D01*
X245200000Y-113714595D01*
X245200000Y-113367905D01*
X245132364Y-113027877D01*
X244999692Y-112707577D01*
X244807081Y-112419315D01*
X244561935Y-112174169D01*
X244273673Y-111981558D01*
X243953373Y-111848886D01*
X243613345Y-111781250D01*
X243266655Y-111781250D01*
X242926627Y-111848886D01*
X242852954Y-111879402D01*
X241818750Y-110845199D01*
X241818750Y-110827905D01*
X248030000Y-110827905D01*
X248030000Y-111174595D01*
X248097636Y-111514623D01*
X248230308Y-111834923D01*
X248422919Y-112123185D01*
X248668065Y-112368331D01*
X248956327Y-112560942D01*
X249276627Y-112693614D01*
X249616655Y-112761250D01*
X249963345Y-112761250D01*
X250303373Y-112693614D01*
X250623673Y-112560942D01*
X250911935Y-112368331D01*
X251157081Y-112123185D01*
X251349692Y-111834923D01*
X251482364Y-111514623D01*
X251550000Y-111174595D01*
X251550000Y-110827905D01*
X251482364Y-110487877D01*
X251349692Y-110167577D01*
X251157081Y-109879315D01*
X250911935Y-109634169D01*
X250623673Y-109441558D01*
X250303373Y-109308886D01*
X249963345Y-109241250D01*
X249616655Y-109241250D01*
X249276627Y-109308886D01*
X248956327Y-109441558D01*
X248668065Y-109634169D01*
X248422919Y-109879315D01*
X248230308Y-110167577D01*
X248097636Y-110487877D01*
X248030000Y-110827905D01*
X241818750Y-110827905D01*
X241818750Y-96772326D01*
X242239850Y-96772326D01*
X242239850Y-97290174D01*
X242340877Y-97798072D01*
X242539049Y-98276501D01*
X242826750Y-98707076D01*
X243192924Y-99073250D01*
X243623499Y-99360951D01*
X244101928Y-99559123D01*
X244609826Y-99660150D01*
X245127674Y-99660150D01*
X245635572Y-99559123D01*
X246114001Y-99360951D01*
X246544576Y-99073250D01*
X246910750Y-98707076D01*
X247198451Y-98276501D01*
X247396623Y-97798072D01*
X247497650Y-97290174D01*
X247497650Y-96882528D01*
X248438750Y-96882528D01*
X248438750Y-97179972D01*
X248496779Y-97471701D01*
X248610606Y-97746503D01*
X248775857Y-97993819D01*
X248986181Y-98204143D01*
X249233497Y-98369394D01*
X249508299Y-98483221D01*
X249800028Y-98541250D01*
X250097472Y-98541250D01*
X250389201Y-98483221D01*
X250664003Y-98369394D01*
X250911319Y-98204143D01*
X251121643Y-97993819D01*
X251286894Y-97746503D01*
X251400721Y-97471701D01*
X251458750Y-97179972D01*
X251458750Y-96882528D01*
X251400721Y-96590799D01*
X251286894Y-96315997D01*
X251121643Y-96068681D01*
X250911319Y-95858357D01*
X250664003Y-95693106D01*
X250389201Y-95579279D01*
X250097472Y-95521250D01*
X249800028Y-95521250D01*
X249508299Y-95579279D01*
X249233497Y-95693106D01*
X248986181Y-95858357D01*
X248775857Y-96068681D01*
X248610606Y-96315997D01*
X248496779Y-96590799D01*
X248438750Y-96882528D01*
X247497650Y-96882528D01*
X247497650Y-96772326D01*
X247396623Y-96264428D01*
X247198451Y-95785999D01*
X246910750Y-95355424D01*
X246544576Y-94989250D01*
X246114001Y-94701549D01*
X245635572Y-94503377D01*
X245127674Y-94402350D01*
X244609826Y-94402350D01*
X244101928Y-94503377D01*
X243623499Y-94701549D01*
X243192924Y-94989250D01*
X242826750Y-95355424D01*
X242539049Y-95785999D01*
X242340877Y-96264428D01*
X242239850Y-96772326D01*
X241818750Y-96772326D01*
X241818750Y-96081458D01*
X241892423Y-96050942D01*
X242180685Y-95858331D01*
X242425831Y-95613185D01*
X242618442Y-95324923D01*
X242751114Y-95004623D01*
X242818750Y-94664595D01*
X242818750Y-94317905D01*
X242751114Y-93977877D01*
X242618442Y-93657577D01*
X242425831Y-93369315D01*
X242180685Y-93124169D01*
X241892423Y-92931558D01*
X241572123Y-92798886D01*
X241232095Y-92731250D01*
X240885405Y-92731250D01*
X240545377Y-92798886D01*
X240471704Y-92829402D01*
X240079830Y-92437528D01*
X243358750Y-92437528D01*
X243358750Y-92734972D01*
X243416779Y-93026701D01*
X243530606Y-93301503D01*
X243695857Y-93548819D01*
X243906181Y-93759143D01*
X244153497Y-93924394D01*
X244428299Y-94038221D01*
X244720028Y-94096250D01*
X245017472Y-94096250D01*
X245309201Y-94038221D01*
X245584003Y-93924394D01*
X245831319Y-93759143D01*
X246041643Y-93548819D01*
X246206894Y-93301503D01*
X246225374Y-93256890D01*
X246286815Y-93318331D01*
X246575077Y-93510942D01*
X246895377Y-93643614D01*
X247235405Y-93711250D01*
X247582095Y-93711250D01*
X247922123Y-93643614D01*
X248242423Y-93510942D01*
X248530685Y-93318331D01*
X248775831Y-93073185D01*
X248968442Y-92784923D01*
X249101114Y-92464623D01*
X249168750Y-92124595D01*
X249168750Y-91777905D01*
X249136292Y-91614730D01*
X249435377Y-91738614D01*
X249775405Y-91806250D01*
X250122095Y-91806250D01*
X250462123Y-91738614D01*
X250782423Y-91605942D01*
X251070685Y-91413331D01*
X251315831Y-91168185D01*
X251508442Y-90879923D01*
X251641114Y-90559623D01*
X251708750Y-90219595D01*
X251708750Y-89872905D01*
X251641114Y-89532877D01*
X251508442Y-89212577D01*
X251315831Y-88924315D01*
X251070685Y-88679169D01*
X250782423Y-88486558D01*
X250462123Y-88353886D01*
X250122095Y-88286250D01*
X249775405Y-88286250D01*
X249435377Y-88353886D01*
X249115077Y-88486558D01*
X248826815Y-88679169D01*
X248581669Y-88924315D01*
X248389058Y-89212577D01*
X248256386Y-89532877D01*
X248188750Y-89872905D01*
X248188750Y-90219595D01*
X248221208Y-90382770D01*
X247922123Y-90258886D01*
X247582095Y-90191250D01*
X247235405Y-90191250D01*
X246895377Y-90258886D01*
X246575077Y-90391558D01*
X246286815Y-90584169D01*
X246041669Y-90829315D01*
X245849058Y-91117577D01*
X245749255Y-91358524D01*
X245584003Y-91248106D01*
X245309201Y-91134279D01*
X245017472Y-91076250D01*
X244720028Y-91076250D01*
X244428299Y-91134279D01*
X244153497Y-91248106D01*
X243906181Y-91413357D01*
X243695857Y-91623681D01*
X243530606Y-91870997D01*
X243416779Y-92145799D01*
X243358750Y-92437528D01*
X240079830Y-92437528D01*
X239437500Y-91795199D01*
X239437500Y-87247326D01*
X242239850Y-87247326D01*
X242239850Y-87765174D01*
X242340877Y-88273072D01*
X242539049Y-88751501D01*
X242826750Y-89182076D01*
X243192924Y-89548250D01*
X243623499Y-89835951D01*
X244101928Y-90034123D01*
X244609826Y-90135150D01*
X245127674Y-90135150D01*
X245635572Y-90034123D01*
X246114001Y-89835951D01*
X246544576Y-89548250D01*
X246910750Y-89182076D01*
X247198451Y-88751501D01*
X247396623Y-88273072D01*
X247497650Y-87765174D01*
X247497650Y-87247326D01*
X247396623Y-86739428D01*
X247198451Y-86260999D01*
X246910750Y-85830424D01*
X246544576Y-85464250D01*
X246114001Y-85176549D01*
X245635572Y-84978377D01*
X245127674Y-84877350D01*
X244609826Y-84877350D01*
X244101928Y-84978377D01*
X243623499Y-85176549D01*
X243192924Y-85464250D01*
X242826750Y-85830424D01*
X242539049Y-86260999D01*
X242340877Y-86739428D01*
X242239850Y-87247326D01*
X239437500Y-87247326D01*
X239437500Y-77031458D01*
X239511173Y-77000942D01*
X239799435Y-76808331D01*
X240044581Y-76563185D01*
X240237192Y-76274923D01*
X240267708Y-76201250D01*
X240549674Y-76201250D01*
X240445500Y-76305424D01*
X240157799Y-76735999D01*
X239959627Y-77214428D01*
X239858600Y-77722326D01*
X239858600Y-78240174D01*
X239959627Y-78748072D01*
X240157799Y-79226501D01*
X240445500Y-79657076D01*
X240811674Y-80023250D01*
X241242249Y-80310951D01*
X241720678Y-80509123D01*
X242228576Y-80610150D01*
X242746424Y-80610150D01*
X243254322Y-80509123D01*
X243732751Y-80310951D01*
X244163326Y-80023250D01*
X244529500Y-79657076D01*
X244817201Y-79226501D01*
X245015373Y-78748072D01*
X245114276Y-78250853D01*
X245523751Y-78660329D01*
X245523752Y-81063149D01*
X245309201Y-80974279D01*
X245017472Y-80916250D01*
X244720028Y-80916250D01*
X244428299Y-80974279D01*
X244153497Y-81088106D01*
X243906181Y-81253357D01*
X243695857Y-81463681D01*
X243530606Y-81710997D01*
X243416779Y-81985799D01*
X243358750Y-82277528D01*
X243358750Y-82574972D01*
X243416779Y-82866701D01*
X243530606Y-83141503D01*
X243695857Y-83388819D01*
X243906181Y-83599143D01*
X244153497Y-83764394D01*
X244428299Y-83878221D01*
X244720028Y-83936250D01*
X245017472Y-83936250D01*
X245309201Y-83878221D01*
X245584003Y-83764394D01*
X245648750Y-83721132D01*
X245648750Y-83869595D01*
X245716386Y-84209623D01*
X245849058Y-84529923D01*
X246041669Y-84818185D01*
X246286815Y-85063331D01*
X246575077Y-85255942D01*
X246895377Y-85388614D01*
X247235405Y-85456250D01*
X247582095Y-85456250D01*
X247922123Y-85388614D01*
X248242423Y-85255942D01*
X248530685Y-85063331D01*
X248775831Y-84818185D01*
X248968442Y-84529923D01*
X249101114Y-84209623D01*
X249168750Y-83869595D01*
X249168750Y-83522905D01*
X249101114Y-83182877D01*
X248968442Y-82862577D01*
X248775831Y-82574315D01*
X248530685Y-82329169D01*
X248242423Y-82136558D01*
X247922123Y-82003886D01*
X247582095Y-81936250D01*
X247235405Y-81936250D01*
X247043751Y-81974372D01*
X247043751Y-79398718D01*
X247127049Y-79433221D01*
X247418778Y-79491250D01*
X247716222Y-79491250D01*
X248007951Y-79433221D01*
X248282753Y-79319394D01*
X248530069Y-79154143D01*
X248740393Y-78943819D01*
X248905644Y-78696503D01*
X249019471Y-78421701D01*
X249077500Y-78129972D01*
X249077500Y-77832528D01*
X249019471Y-77540799D01*
X248905644Y-77265997D01*
X248740393Y-77018681D01*
X248530069Y-76808357D01*
X248282753Y-76643106D01*
X248007951Y-76529279D01*
X247716222Y-76471250D01*
X247418778Y-76471250D01*
X247127049Y-76529279D01*
X246852247Y-76643106D01*
X246604931Y-76808357D01*
X246394607Y-77018681D01*
X246249250Y-77236224D01*
X243943278Y-74930253D01*
X243919475Y-74901249D01*
X243803750Y-74806276D01*
X243671721Y-74735704D01*
X243528460Y-74692247D01*
X243416807Y-74681250D01*
X243416796Y-74681250D01*
X243379474Y-74677574D01*
X243342152Y-74681250D01*
X240267708Y-74681250D01*
X240237192Y-74607577D01*
X240044581Y-74319315D01*
X239799435Y-74074169D01*
X239511173Y-73881558D01*
X239190873Y-73748886D01*
X238850845Y-73681250D01*
X238504155Y-73681250D01*
X238164127Y-73748886D01*
X237843827Y-73881558D01*
X237555565Y-74074169D01*
X237310419Y-74319315D01*
X237117808Y-74607577D01*
X236985136Y-74927877D01*
X236917500Y-75267905D01*
X236917500Y-75614595D01*
X236985136Y-75954623D01*
X237117808Y-76274923D01*
X237250138Y-76472969D01*
X236967049Y-76529279D01*
X236692247Y-76643106D01*
X236444931Y-76808357D01*
X236234607Y-77018681D01*
X236069356Y-77265997D01*
X235955529Y-77540799D01*
X235897500Y-77832528D01*
X225265000Y-77832528D01*
X225206971Y-77540799D01*
X225093144Y-77265997D01*
X224927893Y-77018681D01*
X224717569Y-76808357D01*
X224470253Y-76643106D01*
X224195451Y-76529279D01*
X223903722Y-76471250D01*
X223606278Y-76471250D01*
X223314549Y-76529279D01*
X223039747Y-76643106D01*
X222792431Y-76808357D01*
X222582107Y-77018681D01*
X222416856Y-77265997D01*
X222303029Y-77540799D01*
X222245000Y-77832528D01*
X221303900Y-77832528D01*
X221303900Y-77722326D01*
X221202873Y-77214428D01*
X221004701Y-76735999D01*
X220717000Y-76305424D01*
X220350826Y-75939250D01*
X219920251Y-75651549D01*
X219441822Y-75453377D01*
X218933924Y-75352350D01*
X218416076Y-75352350D01*
X217908178Y-75453377D01*
X217429749Y-75651549D01*
X216999174Y-75939250D01*
X216633000Y-76305424D01*
X216345299Y-76735999D01*
X216147127Y-77214428D01*
X216046100Y-77722326D01*
X215625000Y-77722326D01*
X215625000Y-77031458D01*
X215698673Y-77000942D01*
X215986935Y-76808331D01*
X216232081Y-76563185D01*
X216424692Y-76274923D01*
X216557364Y-75954623D01*
X216625000Y-75614595D01*
X216625000Y-75267905D01*
X216557364Y-74927877D01*
X216424692Y-74607577D01*
X216232081Y-74319315D01*
X215986935Y-74074169D01*
X215698673Y-73881558D01*
X215378373Y-73748886D01*
X215038345Y-73681250D01*
X214691655Y-73681250D01*
X214351627Y-73748886D01*
X214031327Y-73881558D01*
X213743065Y-74074169D01*
X213497919Y-74319315D01*
X213305308Y-74607577D01*
X213172636Y-74927877D01*
X213105000Y-75267905D01*
X213105000Y-75614595D01*
X213172636Y-75954623D01*
X213305308Y-76274923D01*
X213437638Y-76472969D01*
X213154549Y-76529279D01*
X212879747Y-76643106D01*
X212632431Y-76808357D01*
X212422107Y-77018681D01*
X212256856Y-77265997D01*
X212143029Y-77540799D01*
X212085000Y-77832528D01*
X206215000Y-77832528D01*
X206156971Y-77540799D01*
X206043144Y-77265997D01*
X205877893Y-77018681D01*
X205667569Y-76808357D01*
X205420253Y-76643106D01*
X205145451Y-76529279D01*
X204853722Y-76471250D01*
X204556278Y-76471250D01*
X204264549Y-76529279D01*
X203989747Y-76643106D01*
X203742431Y-76808357D01*
X203532107Y-77018681D01*
X203366856Y-77265997D01*
X203253029Y-77540799D01*
X203195000Y-77832528D01*
X202253900Y-77832528D01*
X202253900Y-77722326D01*
X202152873Y-77214428D01*
X201954701Y-76735999D01*
X201667000Y-76305424D01*
X201300826Y-75939250D01*
X200870251Y-75651549D01*
X200391822Y-75453377D01*
X199883924Y-75352350D01*
X199366076Y-75352350D01*
X198858178Y-75453377D01*
X198379749Y-75651549D01*
X197949174Y-75939250D01*
X197583000Y-76305424D01*
X197295299Y-76735999D01*
X197097127Y-77214428D01*
X196996100Y-77722326D01*
X196575000Y-77722326D01*
X196575000Y-77031458D01*
X196648673Y-77000942D01*
X196936935Y-76808331D01*
X197182081Y-76563185D01*
X197374692Y-76274923D01*
X197507364Y-75954623D01*
X197575000Y-75614595D01*
X197575000Y-75267905D01*
X197507364Y-74927877D01*
X197374692Y-74607577D01*
X197182081Y-74319315D01*
X196936935Y-74074169D01*
X196648673Y-73881558D01*
X196328373Y-73748886D01*
X195988345Y-73681250D01*
X195641655Y-73681250D01*
X195301627Y-73748886D01*
X194981327Y-73881558D01*
X194693065Y-74074169D01*
X194447919Y-74319315D01*
X194255308Y-74607577D01*
X194122636Y-74927877D01*
X194055000Y-75267905D01*
X194055000Y-75614595D01*
X194122636Y-75954623D01*
X194255308Y-76274923D01*
X194387638Y-76472969D01*
X194104549Y-76529279D01*
X193829747Y-76643106D01*
X193582431Y-76808357D01*
X193372107Y-77018681D01*
X193206856Y-77265997D01*
X193093029Y-77540799D01*
X193035000Y-77832528D01*
X192985000Y-77832528D01*
X192985000Y-77702027D01*
X192876052Y-77154311D01*
X192662344Y-76638374D01*
X192352088Y-76174043D01*
X191957207Y-75779162D01*
X191492876Y-75468906D01*
X190976939Y-75255198D01*
X190429223Y-75146250D01*
X189870777Y-75146250D01*
X189323061Y-75255198D01*
X188807124Y-75468906D01*
X188342793Y-75779162D01*
X187947912Y-76174043D01*
X187637656Y-76638374D01*
X187423948Y-77154311D01*
X187315000Y-77702027D01*
X187139042Y-77702027D01*
X187106971Y-77540799D01*
X186993144Y-77265997D01*
X186827893Y-77018681D01*
X186617569Y-76808357D01*
X186370253Y-76643106D01*
X186095451Y-76529279D01*
X185803722Y-76471250D01*
X185506278Y-76471250D01*
X185214549Y-76529279D01*
X184939747Y-76643106D01*
X184692431Y-76808357D01*
X184482107Y-77018681D01*
X184316856Y-77265997D01*
X184203029Y-77540799D01*
X184145000Y-77832528D01*
X183203900Y-77832528D01*
X183203900Y-77722326D01*
X183102873Y-77214428D01*
X182904701Y-76735999D01*
X182617000Y-76305424D01*
X182250826Y-75939250D01*
X181820251Y-75651549D01*
X181341822Y-75453377D01*
X180833924Y-75352350D01*
X180316076Y-75352350D01*
X179808178Y-75453377D01*
X179329749Y-75651549D01*
X178899174Y-75939250D01*
X178533000Y-76305424D01*
X178245299Y-76735999D01*
X178047127Y-77214428D01*
X177946100Y-77722326D01*
X177525000Y-77722326D01*
X177525000Y-77031458D01*
X177598673Y-77000942D01*
X177886935Y-76808331D01*
X178132081Y-76563185D01*
X178324692Y-76274923D01*
X178457364Y-75954623D01*
X178525000Y-75614595D01*
X178525000Y-75267905D01*
X178457364Y-74927877D01*
X178324692Y-74607577D01*
X178132081Y-74319315D01*
X177886935Y-74074169D01*
X177598673Y-73881558D01*
X177278373Y-73748886D01*
X176938345Y-73681250D01*
X176591655Y-73681250D01*
X176251627Y-73748886D01*
X175931327Y-73881558D01*
X175643065Y-74074169D01*
X175397919Y-74319315D01*
X175205308Y-74607577D01*
X175072636Y-74927877D01*
X175005000Y-75267905D01*
X175005000Y-75614595D01*
X175072636Y-75954623D01*
X175205308Y-76274923D01*
X175337638Y-76472969D01*
X175054549Y-76529279D01*
X174779747Y-76643106D01*
X174532431Y-76808357D01*
X174322107Y-77018681D01*
X174156856Y-77265997D01*
X174043029Y-77540799D01*
X173985000Y-77832528D01*
X168115000Y-77832528D01*
X168056971Y-77540799D01*
X167943144Y-77265997D01*
X167777893Y-77018681D01*
X167567569Y-76808357D01*
X167320253Y-76643106D01*
X167045451Y-76529279D01*
X166753722Y-76471250D01*
X166456278Y-76471250D01*
X166164549Y-76529279D01*
X165889747Y-76643106D01*
X165642431Y-76808357D01*
X165432107Y-77018681D01*
X165266856Y-77265997D01*
X165153029Y-77540799D01*
X165095000Y-77832528D01*
X164153900Y-77832528D01*
X164153900Y-77722326D01*
X164052873Y-77214428D01*
X163854701Y-76735999D01*
X163567000Y-76305424D01*
X163200826Y-75939250D01*
X162770251Y-75651549D01*
X162291822Y-75453377D01*
X161783924Y-75352350D01*
X161266076Y-75352350D01*
X160758178Y-75453377D01*
X160279749Y-75651549D01*
X159849174Y-75939250D01*
X159483000Y-76305424D01*
X159195299Y-76735999D01*
X158997127Y-77214428D01*
X158896100Y-77722326D01*
X158475000Y-77722326D01*
X158475000Y-77031458D01*
X158548673Y-77000942D01*
X158836935Y-76808331D01*
X159082081Y-76563185D01*
X159274692Y-76274923D01*
X159407364Y-75954623D01*
X159475000Y-75614595D01*
X159475000Y-75267905D01*
X159407364Y-74927877D01*
X159274692Y-74607577D01*
X159082081Y-74319315D01*
X158836935Y-74074169D01*
X158548673Y-73881558D01*
X158228373Y-73748886D01*
X157888345Y-73681250D01*
X157541655Y-73681250D01*
X157201627Y-73748886D01*
X156881327Y-73881558D01*
X156593065Y-74074169D01*
X156347919Y-74319315D01*
X156155308Y-74607577D01*
X156022636Y-74927877D01*
X155955000Y-75267905D01*
X155955000Y-75614595D01*
X156022636Y-75954623D01*
X156155308Y-76274923D01*
X156287638Y-76472969D01*
X156004549Y-76529279D01*
X155729747Y-76643106D01*
X155482431Y-76808357D01*
X155272107Y-77018681D01*
X155106856Y-77265997D01*
X154993029Y-77540799D01*
X154935000Y-77832528D01*
X149065000Y-77832528D01*
X149006971Y-77540799D01*
X148893144Y-77265997D01*
X148727893Y-77018681D01*
X148517569Y-76808357D01*
X148270253Y-76643106D01*
X147995451Y-76529279D01*
X147703722Y-76471250D01*
X147406278Y-76471250D01*
X147114549Y-76529279D01*
X146839747Y-76643106D01*
X146592431Y-76808357D01*
X146382107Y-77018681D01*
X146216856Y-77265997D01*
X146103029Y-77540799D01*
X146045000Y-77832528D01*
X146045000Y-78129972D01*
X146103029Y-78421701D01*
X146216856Y-78696503D01*
X146260118Y-78761250D01*
X146111655Y-78761250D01*
X145771627Y-78828886D01*
X145451327Y-78961558D01*
X145163065Y-79154169D01*
X144917919Y-79399315D01*
X144725308Y-79687577D01*
X144592636Y-80007877D01*
X144525000Y-80347905D01*
X144525000Y-80694595D01*
X144592636Y-81034623D01*
X144725308Y-81354923D01*
X144917919Y-81643185D01*
X145163065Y-81888331D01*
X145451327Y-82080942D01*
X145771627Y-82213614D01*
X145904278Y-82240000D01*
X141499838Y-82240000D01*
X141494692Y-82227577D01*
X141302081Y-81939315D01*
X141056935Y-81694169D01*
X140768673Y-81501558D01*
X140448373Y-81368886D01*
X140108345Y-81301250D01*
X139761655Y-81301250D01*
X139421627Y-81368886D01*
X139101327Y-81501558D01*
X138813065Y-81694169D01*
X138567919Y-81939315D01*
X138375308Y-82227577D01*
X138242636Y-82547877D01*
X138175000Y-82887905D01*
X133510000Y-82887905D01*
X133510000Y-77832528D01*
X135885000Y-77832528D01*
X135885000Y-78129972D01*
X135943029Y-78421701D01*
X136056856Y-78696503D01*
X136222107Y-78943819D01*
X136432431Y-79154143D01*
X136679747Y-79319394D01*
X136954549Y-79433221D01*
X137246278Y-79491250D01*
X137543722Y-79491250D01*
X137835451Y-79433221D01*
X138110253Y-79319394D01*
X138357569Y-79154143D01*
X138567893Y-78943819D01*
X138733144Y-78696503D01*
X138846971Y-78421701D01*
X138905000Y-78129972D01*
X138905000Y-77832528D01*
X138883080Y-77722326D01*
X139846100Y-77722326D01*
X139846100Y-78240174D01*
X139947127Y-78748072D01*
X140145299Y-79226501D01*
X140433000Y-79657076D01*
X140799174Y-80023250D01*
X141229749Y-80310951D01*
X141708178Y-80509123D01*
X142216076Y-80610150D01*
X142733924Y-80610150D01*
X143241822Y-80509123D01*
X143720251Y-80310951D01*
X144150826Y-80023250D01*
X144517000Y-79657076D01*
X144804701Y-79226501D01*
X145002873Y-78748072D01*
X145103900Y-78240174D01*
X145103900Y-77722326D01*
X145002873Y-77214428D01*
X144804701Y-76735999D01*
X144517000Y-76305424D01*
X144150826Y-75939250D01*
X143720251Y-75651549D01*
X143241822Y-75453377D01*
X142733924Y-75352350D01*
X142216076Y-75352350D01*
X141708178Y-75453377D01*
X141229749Y-75651549D01*
X140799174Y-75939250D01*
X140433000Y-76305424D01*
X140145299Y-76735999D01*
X139947127Y-77214428D01*
X139846100Y-77722326D01*
X138883080Y-77722326D01*
X138846971Y-77540799D01*
X138733144Y-77265997D01*
X138567893Y-77018681D01*
X138357569Y-76808357D01*
X138110253Y-76643106D01*
X137835451Y-76529279D01*
X137543722Y-76471250D01*
X137246278Y-76471250D01*
X136954549Y-76529279D01*
X136679747Y-76643106D01*
X136432431Y-76808357D01*
X136222107Y-77018681D01*
X136056856Y-77265997D01*
X135943029Y-77540799D01*
X135885000Y-77832528D01*
X133510000Y-77832528D01*
X133510000Y-72727905D01*
X162305000Y-72727905D01*
X162305000Y-73074595D01*
X162372636Y-73414623D01*
X162505308Y-73734923D01*
X162697919Y-74023185D01*
X162943065Y-74268331D01*
X163231327Y-74460942D01*
X163551627Y-74593614D01*
X163891655Y-74661250D01*
X164238345Y-74661250D01*
X164578373Y-74593614D01*
X164898673Y-74460942D01*
X165186935Y-74268331D01*
X165432081Y-74023185D01*
X165624692Y-73734923D01*
X165757364Y-73414623D01*
X165825000Y-73074595D01*
X165825000Y-72727905D01*
X181355000Y-72727905D01*
X181355000Y-73074595D01*
X181422636Y-73414623D01*
X181555308Y-73734923D01*
X181747919Y-74023185D01*
X181993065Y-74268331D01*
X182281327Y-74460942D01*
X182601627Y-74593614D01*
X182941655Y-74661250D01*
X183288345Y-74661250D01*
X183628373Y-74593614D01*
X183948673Y-74460942D01*
X184236935Y-74268331D01*
X184482081Y-74023185D01*
X184674692Y-73734923D01*
X184807364Y-73414623D01*
X184875000Y-73074595D01*
X184875000Y-72727905D01*
X200405000Y-72727905D01*
X200405000Y-73074595D01*
X200472636Y-73414623D01*
X200605308Y-73734923D01*
X200797919Y-74023185D01*
X201043065Y-74268331D01*
X201331327Y-74460942D01*
X201651627Y-74593614D01*
X201991655Y-74661250D01*
X202338345Y-74661250D01*
X202678373Y-74593614D01*
X202998673Y-74460942D01*
X203286935Y-74268331D01*
X203532081Y-74023185D01*
X203724692Y-73734923D01*
X203857364Y-73414623D01*
X203925000Y-73074595D01*
X203925000Y-72727905D01*
X219455000Y-72727905D01*
X219455000Y-73074595D01*
X219522636Y-73414623D01*
X219655308Y-73734923D01*
X219847919Y-74023185D01*
X220093065Y-74268331D01*
X220381327Y-74460942D01*
X220701627Y-74593614D01*
X221041655Y-74661250D01*
X221388345Y-74661250D01*
X221728373Y-74593614D01*
X222048673Y-74460942D01*
X222336935Y-74268331D01*
X222582081Y-74023185D01*
X222774692Y-73734923D01*
X222907364Y-73414623D01*
X222975000Y-73074595D01*
X222975000Y-72727905D01*
X243267500Y-72727905D01*
X243267500Y-73074595D01*
X243335136Y-73414623D01*
X243467808Y-73734923D01*
X243660419Y-74023185D01*
X243905565Y-74268331D01*
X244193827Y-74460942D01*
X244514127Y-74593614D01*
X244854155Y-74661250D01*
X245200845Y-74661250D01*
X245540873Y-74593614D01*
X245861173Y-74460942D01*
X246149435Y-74268331D01*
X246394581Y-74023185D01*
X246587192Y-73734923D01*
X246719864Y-73414623D01*
X246787500Y-73074595D01*
X246787500Y-72727905D01*
X246719864Y-72387877D01*
X246587192Y-72067577D01*
X246394581Y-71779315D01*
X246149435Y-71534169D01*
X245861173Y-71341558D01*
X245540873Y-71208886D01*
X245200845Y-71141250D01*
X244854155Y-71141250D01*
X244514127Y-71208886D01*
X244193827Y-71341558D01*
X243905565Y-71534169D01*
X243660419Y-71779315D01*
X243467808Y-72067577D01*
X243335136Y-72387877D01*
X243267500Y-72727905D01*
X222975000Y-72727905D01*
X222907364Y-72387877D01*
X222774692Y-72067577D01*
X222582081Y-71779315D01*
X222336935Y-71534169D01*
X222048673Y-71341558D01*
X221728373Y-71208886D01*
X221388345Y-71141250D01*
X221041655Y-71141250D01*
X220701627Y-71208886D01*
X220381327Y-71341558D01*
X220093065Y-71534169D01*
X219847919Y-71779315D01*
X219655308Y-72067577D01*
X219522636Y-72387877D01*
X219455000Y-72727905D01*
X203925000Y-72727905D01*
X203857364Y-72387877D01*
X203724692Y-72067577D01*
X203532081Y-71779315D01*
X203286935Y-71534169D01*
X202998673Y-71341558D01*
X202678373Y-71208886D01*
X202338345Y-71141250D01*
X201991655Y-71141250D01*
X201651627Y-71208886D01*
X201331327Y-71341558D01*
X201043065Y-71534169D01*
X200797919Y-71779315D01*
X200605308Y-72067577D01*
X200472636Y-72387877D01*
X200405000Y-72727905D01*
X184875000Y-72727905D01*
X184807364Y-72387877D01*
X184674692Y-72067577D01*
X184482081Y-71779315D01*
X184236935Y-71534169D01*
X183948673Y-71341558D01*
X183628373Y-71208886D01*
X183288345Y-71141250D01*
X182941655Y-71141250D01*
X182601627Y-71208886D01*
X182281327Y-71341558D01*
X181993065Y-71534169D01*
X181747919Y-71779315D01*
X181555308Y-72067577D01*
X181422636Y-72387877D01*
X181355000Y-72727905D01*
X165825000Y-72727905D01*
X165757364Y-72387877D01*
X165624692Y-72067577D01*
X165432081Y-71779315D01*
X165186935Y-71534169D01*
X164898673Y-71341558D01*
X164578373Y-71208886D01*
X164238345Y-71141250D01*
X163891655Y-71141250D01*
X163551627Y-71208886D01*
X163231327Y-71341558D01*
X162943065Y-71534169D01*
X162697919Y-71779315D01*
X162505308Y-72067577D01*
X162372636Y-72387877D01*
X162305000Y-72727905D01*
X133510000Y-72727905D01*
X133510000Y-70413529D01*
X133538625Y-70121591D01*
X133614035Y-69871821D01*
X133736522Y-69641458D01*
X133901422Y-69439270D01*
X134102450Y-69272964D01*
X134331954Y-69148872D01*
X134581195Y-69071719D01*
X134871088Y-69041250D01*
X254817721Y-69041250D01*
X255109659Y-69069875D01*
G37*
%TD.AperFunction*%
%TD*%
M02*
