%TF.GenerationSoftware,KiCad,Pcbnew,5.1.9*%
%TF.CreationDate,2021-04-22T00:58:07+02:00*%
%TF.ProjectId,miniqaz,6d696e69-7161-47a2-9e6b-696361645f70,rev?*%
%TF.SameCoordinates,Original*%
%TF.FileFunction,Legend,Bot*%
%TF.FilePolarity,Positive*%
%FSLAX46Y46*%
G04 Gerber Fmt 4.6, Leading zero omitted, Abs format (unit mm)*
G04 Created by KiCad (PCBNEW 5.1.9) date 2021-04-22 00:58:07*
%MOMM*%
%LPD*%
G01*
G04 APERTURE LIST*
%ADD10C,0.200000*%
%ADD11C,0.120000*%
%ADD12C,0.066040*%
%ADD13C,0.127000*%
%ADD14C,0.100000*%
%ADD15C,0.150000*%
%ADD16C,0.101600*%
G04 APERTURE END LIST*
D10*
X152897619Y-81671726D02*
X153897619Y-81671726D01*
X153183333Y-81338392D01*
X153897619Y-81005059D01*
X152897619Y-81005059D01*
X152897619Y-80528869D02*
X153564285Y-80528869D01*
X153897619Y-80528869D02*
X153850000Y-80576488D01*
X153802380Y-80528869D01*
X153850000Y-80481250D01*
X153897619Y-80528869D01*
X153802380Y-80528869D01*
X153564285Y-80052678D02*
X152897619Y-80052678D01*
X153469047Y-80052678D02*
X153516666Y-80005059D01*
X153564285Y-79909821D01*
X153564285Y-79766964D01*
X153516666Y-79671726D01*
X153421428Y-79624107D01*
X152897619Y-79624107D01*
X152897619Y-79147916D02*
X153564285Y-79147916D01*
X153897619Y-79147916D02*
X153850000Y-79195535D01*
X153802380Y-79147916D01*
X153850000Y-79100297D01*
X153897619Y-79147916D01*
X153802380Y-79147916D01*
X152802380Y-78005059D02*
X152850000Y-78100297D01*
X152945238Y-78195535D01*
X153088095Y-78338392D01*
X153135714Y-78433630D01*
X153135714Y-78528869D01*
X152897619Y-78481250D02*
X152945238Y-78576488D01*
X153040476Y-78671726D01*
X153230952Y-78719345D01*
X153564285Y-78719345D01*
X153754761Y-78671726D01*
X153850000Y-78576488D01*
X153897619Y-78481250D01*
X153897619Y-78290773D01*
X153850000Y-78195535D01*
X153754761Y-78100297D01*
X153564285Y-78052678D01*
X153230952Y-78052678D01*
X153040476Y-78100297D01*
X152945238Y-78195535D01*
X152897619Y-78290773D01*
X152897619Y-78481250D01*
X153183333Y-77671726D02*
X153183333Y-77195535D01*
X152897619Y-77766964D02*
X153897619Y-77433630D01*
X152897619Y-77100297D01*
X153897619Y-76862202D02*
X153897619Y-76195535D01*
X152897619Y-76862202D01*
X152897619Y-76195535D01*
X153897619Y-75195535D02*
X152897619Y-74862202D01*
X153897619Y-74528869D01*
X153897619Y-74005059D02*
X153897619Y-73909821D01*
X153850000Y-73814583D01*
X153802380Y-73766964D01*
X153707142Y-73719345D01*
X153516666Y-73671726D01*
X153278571Y-73671726D01*
X153088095Y-73719345D01*
X152992857Y-73766964D01*
X152945238Y-73814583D01*
X152897619Y-73909821D01*
X152897619Y-74005059D01*
X152945238Y-74100297D01*
X152992857Y-74147916D01*
X153088095Y-74195535D01*
X153278571Y-74243154D01*
X153516666Y-74243154D01*
X153707142Y-74195535D01*
X153802380Y-74147916D01*
X153850000Y-74100297D01*
X153897619Y-74005059D01*
X152992857Y-73243154D02*
X152945238Y-73195535D01*
X152897619Y-73243154D01*
X152945238Y-73290773D01*
X152992857Y-73243154D01*
X152897619Y-73243154D01*
X152897619Y-72243154D02*
X152897619Y-72814583D01*
X152897619Y-72528869D02*
X153897619Y-72528869D01*
X153754761Y-72624107D01*
X153659523Y-72719345D01*
X153611904Y-72814583D01*
D11*
%TO.C,D1*%
X157762500Y-89756250D02*
X157762500Y-85856250D01*
X155762500Y-89756250D02*
X155762500Y-85856250D01*
X157762500Y-89756250D02*
X155762500Y-89756250D01*
D12*
%TO.C,U1*%
X145450000Y-71620000D02*
X140370000Y-71620000D01*
X140370000Y-71620000D02*
X140370000Y-69080000D01*
X145450000Y-69080000D02*
X140370000Y-69080000D01*
X145450000Y-71620000D02*
X145450000Y-69080000D01*
X145450000Y-88765000D02*
X139735000Y-88765000D01*
X139735000Y-88765000D02*
X139735000Y-86225000D01*
X145450000Y-86225000D02*
X139735000Y-86225000D01*
X145450000Y-88765000D02*
X145450000Y-86225000D01*
X148117000Y-70985000D02*
X146339000Y-70985000D01*
X146339000Y-70985000D02*
X146339000Y-68318000D01*
X148117000Y-68318000D02*
X146339000Y-68318000D01*
X148117000Y-70985000D02*
X148117000Y-68318000D01*
X148117000Y-75051540D02*
X146339000Y-75051540D01*
X146339000Y-75051540D02*
X146339000Y-72382000D01*
X148117000Y-72382000D02*
X146339000Y-72382000D01*
X148117000Y-75051540D02*
X148117000Y-72382000D01*
X139481000Y-75051540D02*
X137703000Y-75051540D01*
X137703000Y-75051540D02*
X137703000Y-72382000D01*
X139481000Y-72382000D02*
X137703000Y-72382000D01*
X139481000Y-75051540D02*
X139481000Y-72382000D01*
X139481000Y-70985000D02*
X137703000Y-70985000D01*
X137703000Y-70985000D02*
X137703000Y-68318000D01*
X139481000Y-68318000D02*
X137703000Y-68318000D01*
X139481000Y-70985000D02*
X139481000Y-68318000D01*
D13*
X151800000Y-89400000D02*
X134002220Y-89400000D01*
X134002220Y-89400000D02*
X134002220Y-68401820D01*
X134002220Y-68401820D02*
X151129440Y-68401820D01*
X151129440Y-68401820D02*
X151800000Y-69072380D01*
X151800000Y-69072380D02*
X151800000Y-89400000D01*
X147400720Y-66976880D02*
X138406580Y-66976880D01*
X138406580Y-66976880D02*
X138406580Y-74330180D01*
X138406580Y-74330180D02*
X147405800Y-74330180D01*
X147405800Y-74330180D02*
X147405800Y-66976880D01*
D14*
X152943000Y-71239000D02*
G75*
G03*
X152943000Y-71239000I-254000J0D01*
G01*
D11*
%TO.C,D18*%
X238725000Y-125475000D02*
X238725000Y-121575000D01*
X236725000Y-125475000D02*
X236725000Y-121575000D01*
X238725000Y-125475000D02*
X236725000Y-125475000D01*
%TO.C,D17*%
X238725000Y-108806250D02*
X238725000Y-104906250D01*
X236725000Y-108806250D02*
X236725000Y-104906250D01*
X238725000Y-108806250D02*
X236725000Y-108806250D01*
%TO.C,D16*%
X233962500Y-89756250D02*
X233962500Y-85856250D01*
X231962500Y-89756250D02*
X231962500Y-85856250D01*
X233962500Y-89756250D02*
X231962500Y-89756250D01*
%TO.C,D15*%
X219675000Y-125475000D02*
X219675000Y-121575000D01*
X217675000Y-125475000D02*
X217675000Y-121575000D01*
X219675000Y-125475000D02*
X217675000Y-125475000D01*
%TO.C,D14*%
X219675000Y-108806250D02*
X219675000Y-104906250D01*
X217675000Y-108806250D02*
X217675000Y-104906250D01*
X219675000Y-108806250D02*
X217675000Y-108806250D01*
%TO.C,D13*%
X214912500Y-89756250D02*
X214912500Y-85856250D01*
X212912500Y-89756250D02*
X212912500Y-85856250D01*
X214912500Y-89756250D02*
X212912500Y-89756250D01*
%TO.C,D12*%
X200625000Y-125475000D02*
X200625000Y-121575000D01*
X198625000Y-125475000D02*
X198625000Y-121575000D01*
X200625000Y-125475000D02*
X198625000Y-125475000D01*
%TO.C,D11*%
X200625000Y-108806250D02*
X200625000Y-104906250D01*
X198625000Y-108806250D02*
X198625000Y-104906250D01*
X200625000Y-108806250D02*
X198625000Y-108806250D01*
%TO.C,D10*%
X195862500Y-89756250D02*
X195862500Y-85856250D01*
X193862500Y-89756250D02*
X193862500Y-85856250D01*
X195862500Y-89756250D02*
X193862500Y-89756250D01*
%TO.C,D9*%
X181575000Y-125475000D02*
X181575000Y-121575000D01*
X179575000Y-125475000D02*
X179575000Y-121575000D01*
X181575000Y-125475000D02*
X179575000Y-125475000D01*
%TO.C,D8*%
X181575000Y-108806250D02*
X181575000Y-104906250D01*
X179575000Y-108806250D02*
X179575000Y-104906250D01*
X181575000Y-108806250D02*
X179575000Y-108806250D01*
%TO.C,D7*%
X176812500Y-89756250D02*
X176812500Y-85856250D01*
X174812500Y-89756250D02*
X174812500Y-85856250D01*
X176812500Y-89756250D02*
X174812500Y-89756250D01*
%TO.C,D6*%
X167287500Y-125475000D02*
X167287500Y-121575000D01*
X165287500Y-125475000D02*
X165287500Y-121575000D01*
X167287500Y-125475000D02*
X165287500Y-125475000D01*
%TO.C,D5*%
X167287500Y-108806250D02*
X167287500Y-104906250D01*
X165287500Y-108806250D02*
X165287500Y-104906250D01*
X167287500Y-108806250D02*
X165287500Y-108806250D01*
%TO.C,D4*%
X162525000Y-89756250D02*
X162525000Y-85856250D01*
X160525000Y-89756250D02*
X160525000Y-85856250D01*
X162525000Y-89756250D02*
X160525000Y-89756250D01*
%TO.C,D3*%
X162525000Y-125475000D02*
X162525000Y-121575000D01*
X160525000Y-125475000D02*
X160525000Y-121575000D01*
X162525000Y-125475000D02*
X160525000Y-125475000D01*
%TO.C,D2*%
X162525000Y-108806250D02*
X162525000Y-104906250D01*
X160525000Y-108806250D02*
X160525000Y-104906250D01*
X162525000Y-108806250D02*
X160525000Y-108806250D01*
%TO.C,D1*%
D15*
X158310119Y-88244345D02*
X159310119Y-88244345D01*
X159310119Y-88006250D01*
X159262500Y-87863392D01*
X159167261Y-87768154D01*
X159072023Y-87720535D01*
X158881547Y-87672916D01*
X158738690Y-87672916D01*
X158548214Y-87720535D01*
X158452976Y-87768154D01*
X158357738Y-87863392D01*
X158310119Y-88006250D01*
X158310119Y-88244345D01*
X158310119Y-86720535D02*
X158310119Y-87291964D01*
X158310119Y-87006250D02*
X159310119Y-87006250D01*
X159167261Y-87101488D01*
X159072023Y-87196726D01*
X159024404Y-87291964D01*
%TO.C,U1*%
D16*
X143142833Y-67132666D02*
X143142833Y-67852333D01*
X143100500Y-67937000D01*
X143058166Y-67979333D01*
X142973500Y-68021666D01*
X142804166Y-68021666D01*
X142719500Y-67979333D01*
X142677166Y-67937000D01*
X142634833Y-67852333D01*
X142634833Y-67132666D01*
X141745833Y-68021666D02*
X142253833Y-68021666D01*
X141999833Y-68021666D02*
X141999833Y-67132666D01*
X142084500Y-67259666D01*
X142169166Y-67344333D01*
X142253833Y-67386666D01*
%TO.C,D18*%
D15*
X240177380Y-122010714D02*
X239177380Y-122010714D01*
X239177380Y-122248809D01*
X239225000Y-122391666D01*
X239320238Y-122486904D01*
X239415476Y-122534523D01*
X239605952Y-122582142D01*
X239748809Y-122582142D01*
X239939285Y-122534523D01*
X240034523Y-122486904D01*
X240129761Y-122391666D01*
X240177380Y-122248809D01*
X240177380Y-122010714D01*
X240177380Y-123534523D02*
X240177380Y-122963095D01*
X240177380Y-123248809D02*
X239177380Y-123248809D01*
X239320238Y-123153571D01*
X239415476Y-123058333D01*
X239463095Y-122963095D01*
X239605952Y-124105952D02*
X239558333Y-124010714D01*
X239510714Y-123963095D01*
X239415476Y-123915476D01*
X239367857Y-123915476D01*
X239272619Y-123963095D01*
X239225000Y-124010714D01*
X239177380Y-124105952D01*
X239177380Y-124296428D01*
X239225000Y-124391666D01*
X239272619Y-124439285D01*
X239367857Y-124486904D01*
X239415476Y-124486904D01*
X239510714Y-124439285D01*
X239558333Y-124391666D01*
X239605952Y-124296428D01*
X239605952Y-124105952D01*
X239653571Y-124010714D01*
X239701190Y-123963095D01*
X239796428Y-123915476D01*
X239986904Y-123915476D01*
X240082142Y-123963095D01*
X240129761Y-124010714D01*
X240177380Y-124105952D01*
X240177380Y-124296428D01*
X240129761Y-124391666D01*
X240082142Y-124439285D01*
X239986904Y-124486904D01*
X239796428Y-124486904D01*
X239701190Y-124439285D01*
X239653571Y-124391666D01*
X239605952Y-124296428D01*
%TO.C,D17*%
X240177380Y-105341964D02*
X239177380Y-105341964D01*
X239177380Y-105580059D01*
X239225000Y-105722916D01*
X239320238Y-105818154D01*
X239415476Y-105865773D01*
X239605952Y-105913392D01*
X239748809Y-105913392D01*
X239939285Y-105865773D01*
X240034523Y-105818154D01*
X240129761Y-105722916D01*
X240177380Y-105580059D01*
X240177380Y-105341964D01*
X240177380Y-106865773D02*
X240177380Y-106294345D01*
X240177380Y-106580059D02*
X239177380Y-106580059D01*
X239320238Y-106484821D01*
X239415476Y-106389583D01*
X239463095Y-106294345D01*
X239177380Y-107199107D02*
X239177380Y-107865773D01*
X240177380Y-107437202D01*
%TO.C,D16*%
X235414880Y-86291964D02*
X234414880Y-86291964D01*
X234414880Y-86530059D01*
X234462500Y-86672916D01*
X234557738Y-86768154D01*
X234652976Y-86815773D01*
X234843452Y-86863392D01*
X234986309Y-86863392D01*
X235176785Y-86815773D01*
X235272023Y-86768154D01*
X235367261Y-86672916D01*
X235414880Y-86530059D01*
X235414880Y-86291964D01*
X235414880Y-87815773D02*
X235414880Y-87244345D01*
X235414880Y-87530059D02*
X234414880Y-87530059D01*
X234557738Y-87434821D01*
X234652976Y-87339583D01*
X234700595Y-87244345D01*
X234414880Y-88672916D02*
X234414880Y-88482440D01*
X234462500Y-88387202D01*
X234510119Y-88339583D01*
X234652976Y-88244345D01*
X234843452Y-88196726D01*
X235224404Y-88196726D01*
X235319642Y-88244345D01*
X235367261Y-88291964D01*
X235414880Y-88387202D01*
X235414880Y-88577678D01*
X235367261Y-88672916D01*
X235319642Y-88720535D01*
X235224404Y-88768154D01*
X234986309Y-88768154D01*
X234891071Y-88720535D01*
X234843452Y-88672916D01*
X234795833Y-88577678D01*
X234795833Y-88387202D01*
X234843452Y-88291964D01*
X234891071Y-88244345D01*
X234986309Y-88196726D01*
%TO.C,D15*%
X221127380Y-122010714D02*
X220127380Y-122010714D01*
X220127380Y-122248809D01*
X220175000Y-122391666D01*
X220270238Y-122486904D01*
X220365476Y-122534523D01*
X220555952Y-122582142D01*
X220698809Y-122582142D01*
X220889285Y-122534523D01*
X220984523Y-122486904D01*
X221079761Y-122391666D01*
X221127380Y-122248809D01*
X221127380Y-122010714D01*
X221127380Y-123534523D02*
X221127380Y-122963095D01*
X221127380Y-123248809D02*
X220127380Y-123248809D01*
X220270238Y-123153571D01*
X220365476Y-123058333D01*
X220413095Y-122963095D01*
X220127380Y-124439285D02*
X220127380Y-123963095D01*
X220603571Y-123915476D01*
X220555952Y-123963095D01*
X220508333Y-124058333D01*
X220508333Y-124296428D01*
X220555952Y-124391666D01*
X220603571Y-124439285D01*
X220698809Y-124486904D01*
X220936904Y-124486904D01*
X221032142Y-124439285D01*
X221079761Y-124391666D01*
X221127380Y-124296428D01*
X221127380Y-124058333D01*
X221079761Y-123963095D01*
X221032142Y-123915476D01*
%TO.C,D14*%
X221127380Y-105341964D02*
X220127380Y-105341964D01*
X220127380Y-105580059D01*
X220175000Y-105722916D01*
X220270238Y-105818154D01*
X220365476Y-105865773D01*
X220555952Y-105913392D01*
X220698809Y-105913392D01*
X220889285Y-105865773D01*
X220984523Y-105818154D01*
X221079761Y-105722916D01*
X221127380Y-105580059D01*
X221127380Y-105341964D01*
X221127380Y-106865773D02*
X221127380Y-106294345D01*
X221127380Y-106580059D02*
X220127380Y-106580059D01*
X220270238Y-106484821D01*
X220365476Y-106389583D01*
X220413095Y-106294345D01*
X220460714Y-107722916D02*
X221127380Y-107722916D01*
X220079761Y-107484821D02*
X220794047Y-107246726D01*
X220794047Y-107865773D01*
%TO.C,D13*%
X216364880Y-86291964D02*
X215364880Y-86291964D01*
X215364880Y-86530059D01*
X215412500Y-86672916D01*
X215507738Y-86768154D01*
X215602976Y-86815773D01*
X215793452Y-86863392D01*
X215936309Y-86863392D01*
X216126785Y-86815773D01*
X216222023Y-86768154D01*
X216317261Y-86672916D01*
X216364880Y-86530059D01*
X216364880Y-86291964D01*
X216364880Y-87815773D02*
X216364880Y-87244345D01*
X216364880Y-87530059D02*
X215364880Y-87530059D01*
X215507738Y-87434821D01*
X215602976Y-87339583D01*
X215650595Y-87244345D01*
X215364880Y-88149107D02*
X215364880Y-88768154D01*
X215745833Y-88434821D01*
X215745833Y-88577678D01*
X215793452Y-88672916D01*
X215841071Y-88720535D01*
X215936309Y-88768154D01*
X216174404Y-88768154D01*
X216269642Y-88720535D01*
X216317261Y-88672916D01*
X216364880Y-88577678D01*
X216364880Y-88291964D01*
X216317261Y-88196726D01*
X216269642Y-88149107D01*
%TO.C,D12*%
X202077380Y-122010714D02*
X201077380Y-122010714D01*
X201077380Y-122248809D01*
X201125000Y-122391666D01*
X201220238Y-122486904D01*
X201315476Y-122534523D01*
X201505952Y-122582142D01*
X201648809Y-122582142D01*
X201839285Y-122534523D01*
X201934523Y-122486904D01*
X202029761Y-122391666D01*
X202077380Y-122248809D01*
X202077380Y-122010714D01*
X202077380Y-123534523D02*
X202077380Y-122963095D01*
X202077380Y-123248809D02*
X201077380Y-123248809D01*
X201220238Y-123153571D01*
X201315476Y-123058333D01*
X201363095Y-122963095D01*
X201172619Y-123915476D02*
X201125000Y-123963095D01*
X201077380Y-124058333D01*
X201077380Y-124296428D01*
X201125000Y-124391666D01*
X201172619Y-124439285D01*
X201267857Y-124486904D01*
X201363095Y-124486904D01*
X201505952Y-124439285D01*
X202077380Y-123867857D01*
X202077380Y-124486904D01*
%TO.C,D11*%
X202077380Y-105341964D02*
X201077380Y-105341964D01*
X201077380Y-105580059D01*
X201125000Y-105722916D01*
X201220238Y-105818154D01*
X201315476Y-105865773D01*
X201505952Y-105913392D01*
X201648809Y-105913392D01*
X201839285Y-105865773D01*
X201934523Y-105818154D01*
X202029761Y-105722916D01*
X202077380Y-105580059D01*
X202077380Y-105341964D01*
X202077380Y-106865773D02*
X202077380Y-106294345D01*
X202077380Y-106580059D02*
X201077380Y-106580059D01*
X201220238Y-106484821D01*
X201315476Y-106389583D01*
X201363095Y-106294345D01*
X202077380Y-107818154D02*
X202077380Y-107246726D01*
X202077380Y-107532440D02*
X201077380Y-107532440D01*
X201220238Y-107437202D01*
X201315476Y-107341964D01*
X201363095Y-107246726D01*
%TO.C,D10*%
X197314880Y-86291964D02*
X196314880Y-86291964D01*
X196314880Y-86530059D01*
X196362500Y-86672916D01*
X196457738Y-86768154D01*
X196552976Y-86815773D01*
X196743452Y-86863392D01*
X196886309Y-86863392D01*
X197076785Y-86815773D01*
X197172023Y-86768154D01*
X197267261Y-86672916D01*
X197314880Y-86530059D01*
X197314880Y-86291964D01*
X197314880Y-87815773D02*
X197314880Y-87244345D01*
X197314880Y-87530059D02*
X196314880Y-87530059D01*
X196457738Y-87434821D01*
X196552976Y-87339583D01*
X196600595Y-87244345D01*
X196314880Y-88434821D02*
X196314880Y-88530059D01*
X196362500Y-88625297D01*
X196410119Y-88672916D01*
X196505357Y-88720535D01*
X196695833Y-88768154D01*
X196933928Y-88768154D01*
X197124404Y-88720535D01*
X197219642Y-88672916D01*
X197267261Y-88625297D01*
X197314880Y-88530059D01*
X197314880Y-88434821D01*
X197267261Y-88339583D01*
X197219642Y-88291964D01*
X197124404Y-88244345D01*
X196933928Y-88196726D01*
X196695833Y-88196726D01*
X196505357Y-88244345D01*
X196410119Y-88291964D01*
X196362500Y-88339583D01*
X196314880Y-88434821D01*
%TO.C,D9*%
X183027380Y-122486904D02*
X182027380Y-122486904D01*
X182027380Y-122725000D01*
X182075000Y-122867857D01*
X182170238Y-122963095D01*
X182265476Y-123010714D01*
X182455952Y-123058333D01*
X182598809Y-123058333D01*
X182789285Y-123010714D01*
X182884523Y-122963095D01*
X182979761Y-122867857D01*
X183027380Y-122725000D01*
X183027380Y-122486904D01*
X183027380Y-123534523D02*
X183027380Y-123725000D01*
X182979761Y-123820238D01*
X182932142Y-123867857D01*
X182789285Y-123963095D01*
X182598809Y-124010714D01*
X182217857Y-124010714D01*
X182122619Y-123963095D01*
X182075000Y-123915476D01*
X182027380Y-123820238D01*
X182027380Y-123629761D01*
X182075000Y-123534523D01*
X182122619Y-123486904D01*
X182217857Y-123439285D01*
X182455952Y-123439285D01*
X182551190Y-123486904D01*
X182598809Y-123534523D01*
X182646428Y-123629761D01*
X182646428Y-123820238D01*
X182598809Y-123915476D01*
X182551190Y-123963095D01*
X182455952Y-124010714D01*
%TO.C,D8*%
X183027380Y-105818154D02*
X182027380Y-105818154D01*
X182027380Y-106056250D01*
X182075000Y-106199107D01*
X182170238Y-106294345D01*
X182265476Y-106341964D01*
X182455952Y-106389583D01*
X182598809Y-106389583D01*
X182789285Y-106341964D01*
X182884523Y-106294345D01*
X182979761Y-106199107D01*
X183027380Y-106056250D01*
X183027380Y-105818154D01*
X182455952Y-106961011D02*
X182408333Y-106865773D01*
X182360714Y-106818154D01*
X182265476Y-106770535D01*
X182217857Y-106770535D01*
X182122619Y-106818154D01*
X182075000Y-106865773D01*
X182027380Y-106961011D01*
X182027380Y-107151488D01*
X182075000Y-107246726D01*
X182122619Y-107294345D01*
X182217857Y-107341964D01*
X182265476Y-107341964D01*
X182360714Y-107294345D01*
X182408333Y-107246726D01*
X182455952Y-107151488D01*
X182455952Y-106961011D01*
X182503571Y-106865773D01*
X182551190Y-106818154D01*
X182646428Y-106770535D01*
X182836904Y-106770535D01*
X182932142Y-106818154D01*
X182979761Y-106865773D01*
X183027380Y-106961011D01*
X183027380Y-107151488D01*
X182979761Y-107246726D01*
X182932142Y-107294345D01*
X182836904Y-107341964D01*
X182646428Y-107341964D01*
X182551190Y-107294345D01*
X182503571Y-107246726D01*
X182455952Y-107151488D01*
%TO.C,D7*%
X178264880Y-86768154D02*
X177264880Y-86768154D01*
X177264880Y-87006250D01*
X177312500Y-87149107D01*
X177407738Y-87244345D01*
X177502976Y-87291964D01*
X177693452Y-87339583D01*
X177836309Y-87339583D01*
X178026785Y-87291964D01*
X178122023Y-87244345D01*
X178217261Y-87149107D01*
X178264880Y-87006250D01*
X178264880Y-86768154D01*
X177264880Y-87672916D02*
X177264880Y-88339583D01*
X178264880Y-87911011D01*
%TO.C,D6*%
X168739880Y-122486904D02*
X167739880Y-122486904D01*
X167739880Y-122725000D01*
X167787500Y-122867857D01*
X167882738Y-122963095D01*
X167977976Y-123010714D01*
X168168452Y-123058333D01*
X168311309Y-123058333D01*
X168501785Y-123010714D01*
X168597023Y-122963095D01*
X168692261Y-122867857D01*
X168739880Y-122725000D01*
X168739880Y-122486904D01*
X167739880Y-123915476D02*
X167739880Y-123725000D01*
X167787500Y-123629761D01*
X167835119Y-123582142D01*
X167977976Y-123486904D01*
X168168452Y-123439285D01*
X168549404Y-123439285D01*
X168644642Y-123486904D01*
X168692261Y-123534523D01*
X168739880Y-123629761D01*
X168739880Y-123820238D01*
X168692261Y-123915476D01*
X168644642Y-123963095D01*
X168549404Y-124010714D01*
X168311309Y-124010714D01*
X168216071Y-123963095D01*
X168168452Y-123915476D01*
X168120833Y-123820238D01*
X168120833Y-123629761D01*
X168168452Y-123534523D01*
X168216071Y-123486904D01*
X168311309Y-123439285D01*
%TO.C,D5*%
X168739880Y-105818154D02*
X167739880Y-105818154D01*
X167739880Y-106056250D01*
X167787500Y-106199107D01*
X167882738Y-106294345D01*
X167977976Y-106341964D01*
X168168452Y-106389583D01*
X168311309Y-106389583D01*
X168501785Y-106341964D01*
X168597023Y-106294345D01*
X168692261Y-106199107D01*
X168739880Y-106056250D01*
X168739880Y-105818154D01*
X167739880Y-107294345D02*
X167739880Y-106818154D01*
X168216071Y-106770535D01*
X168168452Y-106818154D01*
X168120833Y-106913392D01*
X168120833Y-107151488D01*
X168168452Y-107246726D01*
X168216071Y-107294345D01*
X168311309Y-107341964D01*
X168549404Y-107341964D01*
X168644642Y-107294345D01*
X168692261Y-107246726D01*
X168739880Y-107151488D01*
X168739880Y-106913392D01*
X168692261Y-106818154D01*
X168644642Y-106770535D01*
%TO.C,D4*%
X163977380Y-86768154D02*
X162977380Y-86768154D01*
X162977380Y-87006250D01*
X163025000Y-87149107D01*
X163120238Y-87244345D01*
X163215476Y-87291964D01*
X163405952Y-87339583D01*
X163548809Y-87339583D01*
X163739285Y-87291964D01*
X163834523Y-87244345D01*
X163929761Y-87149107D01*
X163977380Y-87006250D01*
X163977380Y-86768154D01*
X163310714Y-88196726D02*
X163977380Y-88196726D01*
X162929761Y-87958630D02*
X163644047Y-87720535D01*
X163644047Y-88339583D01*
%TO.C,D3*%
X163977380Y-122486904D02*
X162977380Y-122486904D01*
X162977380Y-122725000D01*
X163025000Y-122867857D01*
X163120238Y-122963095D01*
X163215476Y-123010714D01*
X163405952Y-123058333D01*
X163548809Y-123058333D01*
X163739285Y-123010714D01*
X163834523Y-122963095D01*
X163929761Y-122867857D01*
X163977380Y-122725000D01*
X163977380Y-122486904D01*
X162977380Y-123391666D02*
X162977380Y-124010714D01*
X163358333Y-123677380D01*
X163358333Y-123820238D01*
X163405952Y-123915476D01*
X163453571Y-123963095D01*
X163548809Y-124010714D01*
X163786904Y-124010714D01*
X163882142Y-123963095D01*
X163929761Y-123915476D01*
X163977380Y-123820238D01*
X163977380Y-123534523D01*
X163929761Y-123439285D01*
X163882142Y-123391666D01*
%TO.C,D2*%
X163977380Y-105818154D02*
X162977380Y-105818154D01*
X162977380Y-106056250D01*
X163025000Y-106199107D01*
X163120238Y-106294345D01*
X163215476Y-106341964D01*
X163405952Y-106389583D01*
X163548809Y-106389583D01*
X163739285Y-106341964D01*
X163834523Y-106294345D01*
X163929761Y-106199107D01*
X163977380Y-106056250D01*
X163977380Y-105818154D01*
X163072619Y-106770535D02*
X163025000Y-106818154D01*
X162977380Y-106913392D01*
X162977380Y-107151488D01*
X163025000Y-107246726D01*
X163072619Y-107294345D01*
X163167857Y-107341964D01*
X163263095Y-107341964D01*
X163405952Y-107294345D01*
X163977380Y-106722916D01*
X163977380Y-107341964D01*
%TD*%
M02*
